<svg width="635" height="323" viewBox="0 0 635 323" fill="none" xmlns="http://www.w3.org/2000/svg">
<g clip-path="url(#clip0_1246_3)">
<path d="M100.961 254.38C100.961 254.38 110.781 271.8 181.501 279.73C252.221 287.66 287.901 314.1 332.851 322.03C377.791 329.96 433.311 277.75 481.551 285.68C529.801 293.61 587.951 263.4 592.581 254.38H100.961Z" fill="#2F1829"/>
<path d="M611.58 250.93H601.13L140.5 251.01C140.5 251.01 135.85 247.33 128.59 241.03C125.48 238.32 121.88 235.13 117.97 231.53C116.55 230.23 115.09 228.87 113.59 227.46C99.8698 214.55 83.2698 197.5 69.7898 179.34C55.5898 160.22 44.8298 139.87 44.5298 121.84C44.5298 121.44 44.5198 121.03 44.5298 120.63C44.6898 103.18 48.1198 84.37 56.6098 66.91C61.5698 56.71 68.2498 46.97 77.0198 38.24C99.8698 15.49 136.84 -0.449986 194.23 1.39102e-05C261.14 0.540014 330.54 25.49 393.21 60C406.32 67.22 419.13 74.86 431.57 82.78C440.77 88.64 449.76 94.65 458.51 100.77C482.86 117.78 505.33 135.56 525.2 152.93C570.3 192.35 601.96 229.64 611.58 250.93Z" fill="url(#paint0_linear_1246_3)"/>
<path style="mix-blend-mode:overlay" opacity="0.45" d="M611.581 250.93H601.131L140.501 251.01C140.501 251.01 135.851 247.33 128.591 241.03C125.481 238.32 121.881 235.13 117.971 231.53C116.551 230.23 115.091 228.87 113.591 227.46C99.8712 214.55 83.2713 197.5 69.7913 179.34C55.5913 160.22 44.8313 139.87 44.5312 121.84C50.2512 118.8 63.6613 112.72 74.7613 115.5C89.3013 119.13 92.4113 136.41 92.4113 136.41C92.4113 136.41 102.831 128.02 113.741 132C124.661 135.99 126.311 147.55 126.311 147.55C126.311 147.55 139.171 140.92 150.751 143.74C162.321 146.56 171.621 157.79 159.211 165.06C146.941 172.24 133.061 166.7 132.731 166.57C132.901 166.79 137.771 173.32 128.941 181.38C119.951 189.57 154.411 196.66 154.411 196.66C154.411 196.66 155.711 174.22 178.851 176.75C201.991 179.28 220.641 191.77 220.641 191.77C220.641 191.77 221.811 157.47 240.311 151.19C258.811 144.91 268.331 165.06 268.331 165.06C268.331 165.06 309.311 138.52 323.251 163.26C337.191 188 337.741 192.69 337.741 192.69C337.741 192.69 349.601 127.72 386.821 130.7C424.041 133.67 430.941 159.48 430.301 162.11C429.661 164.73 440.991 145.43 452.171 155.91C463.361 166.39 469.851 181.02 469.851 181.02L528.741 174.07C528.741 174.07 522.741 162.45 525.181 152.93C570.281 192.35 601.941 229.64 611.561 250.93H611.581Z" fill="url(#paint1_linear_1246_3)"/>
<path style="mix-blend-mode:hard-light" d="M431.57 82.79H257.5C279.31 82.79 283.61 74.86 296.49 70.57C297.11 70.37 297.72 70.19 298.33 70.04C310.39 66.99 320.34 73.86 328.05 73.54C336.14 73.21 345.07 64.62 354.32 61.65C357.46 60.64 360.72 60.96 364.05 61.75C370.55 63.29 377.37 66.59 384.29 65.28C390.32 64.14 390.77 61.7 393.19 60.01C406.3 67.23 419.11 74.87 431.55 82.79H431.57Z" fill="url(#paint2_linear_1246_3)"/>
<path style="mix-blend-mode:hard-light" d="M206.191 66.92H56.6113C61.4913 56.88 68.0513 47.28 76.6113 38.66L77.0213 38.25C80.5713 37.52 84.3713 37.01 88.3813 36.85C112.101 35.86 117.121 53.7 117.121 53.7C117.121 53.7 123.331 45.44 134.571 49.4C145.811 53.37 141.841 58.32 150.761 60.97C151.921 61.31 153.141 61.4 154.411 61.29C162.921 60.56 173.661 51.24 183.141 54.7C194.051 58.66 186.931 66.92 206.181 66.92H206.191Z" fill="url(#paint3_linear_1246_3)"/>
<path d="M631.501 257.76H75.1708C73.3108 257.76 71.8008 256.25 71.8008 254.39C71.8008 252.53 73.3108 251.02 75.1708 251.02H631.511C633.371 251.02 634.881 252.53 634.881 254.39C634.881 256.25 633.371 257.76 631.511 257.76H631.501Z" fill="#2F1829"/>
<g style="mix-blend-mode:overlay" opacity="0.25">
<path d="M364.06 61.7401C354.14 64.2801 342.96 75.0501 335.71 76.6201C326.57 78.6001 316 73.9701 305.75 71.4001C302.64 70.6201 300.21 70.2101 298.34 70.0301C310.4 66.9801 320.35 73.8501 328.06 73.5301C336.15 73.2001 345.08 64.6101 354.33 61.6401C357.47 60.6301 360.73 60.9501 364.06 61.7401Z" fill="white"/>
</g>
<g style="mix-blend-mode:overlay" opacity="0.25">
<path d="M154.421 61.29C145.501 65.95 141.361 55.34 133.581 51.87C124.661 47.88 118.381 60.32 115.741 58.17C113.101 56.02 111.941 46.77 101.861 41.98C96.1413 39.26 85.0913 38.67 76.6113 38.67L77.0213 38.26C80.5713 37.53 84.3713 37.02 88.3813 36.86C112.101 35.87 117.121 53.71 117.121 53.71C117.121 53.71 123.331 45.45 134.571 49.41C145.811 53.38 141.841 58.33 150.761 60.98C151.921 61.32 153.141 61.41 154.411 61.3L154.421 61.29Z" fill="white"/>
</g>
<path d="M394.62 39.5799C394.62 39.5799 457.07 95.3399 481.86 87.7399C506.64 80.1399 350.92 6.40991 394.62 39.5799Z" fill="url(#paint4_linear_1246_3)"/>
<path d="M34.7206 96.2599C34.7206 96.2599 13.4406 133.64 50.5806 173.06C59.1706 182.18 60.1606 199.13 42.9806 200.07C25.8006 201.01 -0.959389 159.04 0.0306112 125.34C1.02061 91.6299 40.4406 76.3799 34.7306 96.2599H34.7206Z" fill="url(#paint5_linear_1246_3)"/>
<path d="M460.67 294.93C460.67 294.93 424.71 302.86 415.45 315.09C410.92 321.07 428.89 320.17 444.19 313.6C460.14 306.74 473.3 294.09 460.67 294.93Z" fill="#2F1829"/>
<path d="M199.841 292.62C199.841 292.62 213.841 292.29 226.171 297.08C238.501 301.87 241.141 316.58 228.921 318.39C216.691 320.21 188.851 303.91 190.421 297.24C191.581 292.33 199.841 292.61 199.841 292.61V292.62Z" fill="#2F1829"/>
<g style="mix-blend-mode:overlay">
<path d="M135.981 212.9L128.071 240.33C124.961 237.62 121.361 234.43 117.451 230.83L115.731 227.63C115.731 227.63 118.741 192.46 108.801 178.37C118.321 185.02 122.861 211.62 122.861 211.62L121.381 213.59H122.861C122.861 213.59 125.221 218.1 126.131 224.73C132.221 193.08 126.301 177.79 126.131 177.37C126.371 177.65 131.101 183.5 133.941 193.04C136.851 202.82 135.761 208.97 135.761 208.97L133.401 212.88H135.961L135.981 212.9Z" fill="black"/>
</g>
<path d="M375.78 239.88C375.78 239.88 378.37 237.57 380.27 235.1C380.61 234.66 380.92 234.22 381.2 233.78L382.37 235.21L381.97 232.96C381.97 232.96 390.03 230.14 392.94 222.37C391.17 230.92 387.76 237.25 383.75 240.2C381.99 241.49 380.12 242.13 378.22 242.03C371.98 241.7 375.79 239.88 375.79 239.88H375.78Z" fill="#F3475C"/>
<g style="mix-blend-mode:overlay" opacity="0.25">
<path d="M392.941 222.37C392.271 224.59 391.421 226.75 390.451 228.85C389.471 230.95 388.351 232.99 387.011 234.89C385.671 236.78 384.101 238.55 382.171 239.89C380.271 241.25 377.901 242.03 375.521 241.9C375.391 241.9 375.291 241.78 375.301 241.66C375.301 241.53 375.421 241.43 375.541 241.44C377.801 241.6 380.081 240.9 381.961 239.6C383.861 238.32 385.441 236.6 386.811 234.75C388.171 232.89 389.321 230.88 390.341 228.8C391.341 226.72 392.231 224.57 392.941 222.37Z" fill="white"/>
</g>
<g style="mix-blend-mode:overlay" opacity="0.25">
<path d="M375.781 239.88C375.781 239.88 378.371 237.57 380.271 235.1C381.081 237.48 382.741 239.28 383.741 240.2C381.981 241.49 380.111 242.13 378.211 242.03C371.971 241.7 375.781 239.88 375.781 239.88Z" fill="black"/>
</g>
<g style="mix-blend-mode:overlay">
<path d="M313.16 224.43C313.16 224.43 294.53 206.98 297.55 183.62C299.46 194.43 307.34 207.34 307.34 207.34L306.36 210.26L309.86 209.58C309.86 209.58 314.27 182.93 304.35 170.1C317.73 183.88 317.58 204.4 317.58 204.4L315.06 208.18L317.58 209.28C317.58 209.28 314.65 219.24 323.36 215.41C332.07 211.58 337.58 178.51 329.71 170.09C339.16 178.21 337.58 206.09 337.58 207.02C337.58 207.95 333.49 211.69 333.49 211.69L336.64 213.94C336.64 213.94 334.66 232.82 313.18 224.41L313.16 224.43Z" fill="black"/>
</g>
<g style="mix-blend-mode:overlay">
<path d="M398.471 249.27C398.471 249.27 392.001 243.21 393.051 235.09C393.711 238.85 396.451 243.33 396.451 243.33L396.111 244.34L397.321 244.1C397.321 244.1 398.851 234.84 395.411 230.38C400.061 235.17 400.011 242.3 400.011 242.3L399.131 243.61L400.011 243.99C400.011 243.99 398.991 247.45 402.021 246.12C405.051 244.79 406.961 233.3 404.231 230.37C407.511 233.19 406.971 242.88 406.971 243.2C406.971 243.52 405.551 244.82 405.551 244.82L406.641 245.6C406.641 245.6 405.951 252.16 398.491 249.24L398.471 249.27Z" fill="black"/>
</g>
<path d="M373.731 240.36L368.471 240.73C372.261 237.32 371.701 234.06 371.131 232.56C370.931 232.02 370.721 231.71 370.721 231.71L373.201 231.31L371.811 229.42C371.811 229.42 376.311 224.22 378.001 210.37C383.321 219.7 381.241 228.09 378.441 233.61C376.301 237.83 373.731 240.37 373.731 240.37V240.36Z" fill="#FFCA51"/>
<g style="mix-blend-mode:overlay" opacity="0.25">
<path d="M378.001 210.37C378.571 212.93 378.881 215.55 379.021 218.18C379.151 220.8 379.091 223.44 378.761 226.06C378.401 228.67 377.771 231.24 376.801 233.71C375.771 236.15 374.321 238.4 372.541 240.38C372.451 240.48 372.311 240.48 372.211 240.4C372.111 240.31 372.111 240.17 372.191 240.07C373.961 238.16 375.411 235.97 376.461 233.58C377.451 231.17 378.121 228.63 378.511 226.04C378.871 223.45 378.971 220.82 378.881 218.2C378.771 215.58 378.511 212.96 377.981 210.39L378.001 210.37Z" fill="white"/>
</g>
<g style="mix-blend-mode:overlay" opacity="0.25">
<path d="M373.731 240.36L368.471 240.73C372.261 237.32 371.701 234.06 371.131 232.56C373.891 234.27 376.721 234.02 378.441 233.6C376.301 237.82 373.731 240.36 373.731 240.36Z" fill="black"/>
</g>
<path d="M408 250.31H322.74L336.4 239.22C336.4 239.22 354.59 229.86 362.18 231.81C369.77 233.76 368.56 240.14 368.56 240.14C368.56 240.14 369.02 239.63 369.79 239.03C371.48 237.72 374.68 235.93 377.92 237.87C382.54 240.62 381.81 244.26 381.78 244.43C381.93 244.28 384.7 241.59 386.95 242.45C389.26 243.33 390.16 245.87 390.16 245.87C390.16 245.87 393.11 241.73 395.65 243.25C398.18 244.77 399.61 247.86 399.61 247.86C399.61 247.86 403.69 243.84 407.98 250.31H408Z" fill="#982245"/>
<g style="mix-blend-mode:overlay" opacity="0.25">
<path d="M391.55 250.31H322.75L336.41 239.22C336.41 239.22 354.6 229.86 362.19 231.81C369.78 233.76 368.57 240.14 368.57 240.14C368.57 240.14 369.03 239.63 369.8 239.03C369.96 240.41 369.98 241.84 369.78 243.24C369.78 243.24 373.63 241.79 376.17 243.88C378.7 245.98 377.93 247.85 377.93 247.85C377.93 247.85 381.35 245.87 385.2 247.85C386.52 248.52 388.94 249.42 391.55 250.3V250.31Z" fill="black"/>
</g>
<path d="M237.03 190.3V96.74H201.48V97.06L158.7 165.88L139.98 196L142.09 217.73H201.47V250.32H237.02V217.73H252.63V190.31H237.02L237.03 190.3ZM201.48 190.3H173.85L199.27 146.63L201.49 143.05V190.3H201.48Z" fill="url(#paint6_linear_1246_3)"/>
<path d="M360.85 109.5C351.5 98.18 338.31 92.52 321.3 92.52C304.29 92.52 291.12 98.15 281.8 109.4C272.48 120.65 267.82 136.65 267.82 157.39V185.45C267.82 206.05 272.5 222.01 281.85 233.34C291.2 244.66 304.42 250.32 321.51 250.32C338.6 250.32 351.59 244.7 360.91 233.44C370.23 222.19 374.89 206.19 374.89 185.45V157.5C374.89 136.83 370.21 120.83 360.86 109.51L360.85 109.5ZM303.48 150.53C303.69 140.26 305.19 132.6 307.96 127.54C310.74 122.47 315.19 119.94 321.3 119.94C327.41 119.94 332.13 122.67 335.02 128.12C337.9 133.57 339.34 141.81 339.34 152.85V190.82C339.27 201.86 337.8 209.96 334.91 215.13C332.03 220.3 327.56 222.89 321.51 222.89C315.46 222.89 310.68 220.23 307.8 214.93C305.08 209.92 303.64 202.18 303.49 191.7C303.49 191.07 303.48 190.43 303.48 189.78V150.54V150.53Z" fill="url(#paint7_linear_1246_3)"/>
<path d="M487.221 190.3V96.74H451.681V97.06L390.191 195.99L392.301 217.72H451.681V250.31H487.221V217.72H502.831V190.3H487.221ZM451.671 190.3H424.031L449.451 146.63L451.671 143.05V190.3Z" fill="url(#paint8_linear_1246_3)"/>
<g style="mix-blend-mode:overlay" opacity="0.25">
<path d="M230.411 96.73C225.651 102.81 209.341 100.64 205.681 101.03C201.511 101.47 172.621 152.36 168.651 158.82C166.081 163.01 161.561 164.99 158.701 165.87L201.481 97.05V96.73H230.411Z" fill="white"/>
</g>
<g style="mix-blend-mode:overlay" opacity="0.25">
<path d="M487.221 96.73V167.57C478.121 160.01 483.131 104.19 481.691 102.34C480.151 100.36 461.201 101.68 457.681 100.58C455.341 99.85 453.451 97.93 452.461 96.72H487.221V96.73Z" fill="white"/>
</g>
<g style="mix-blend-mode:overlay" opacity="0.25">
<path d="M328.8 231.67C300.16 232.99 303.47 191.71 303.47 191.71V191.69C303.64 202.17 305.07 209.92 307.79 214.92C310.67 220.23 315.24 222.88 321.5 222.88C327.76 222.88 332.01 220.29 334.9 215.12C337.78 209.95 339.26 201.85 339.33 190.81V152.84C339.33 141.8 337.89 133.56 335.01 128.11C332.12 122.66 327.55 119.93 321.29 119.93C321.29 119.93 339.02 117.77 346.24 143.98C353.47 170.19 357.43 230.34 328.79 231.66L328.8 231.67Z" fill="black"/>
</g>
<path d="M291.13 109.38C291.13 109.38 279.23 100.79 277.91 87.3501C286.5 89.7701 291.13 100.2 291.13 100.2C291.13 100.2 288.93 90.6201 291.13 84.0801C297.52 93.2901 295.76 100.78 291.13 109.37V109.38Z" fill="url(#paint9_linear_1246_3)"/>
<path style="mix-blend-mode:hard-light" d="M528.77 187.19C528.77 187.19 528.82 187.47 528.43 187.87C528.15 188.16 527.64 188.51 526.72 188.86C521.29 190.93 510.19 185.9 504.15 182.5C498.11 179.1 480.92 181.89 469.34 180.32C457.77 178.75 452.85 172.47 442.44 169.92C432.02 167.37 393.19 178.55 391.04 169.85C388.89 161.15 432.48 76.48 436.21 82.38C439.94 88.29 452.86 88.68 461.91 93.34C470.97 98 478.73 121.35 488.79 123.67C490.17 123.99 491.51 124.51 492.79 125.19C500.83 129.47 506.59 140.22 506.79 149.03C507.03 159.24 520.97 167.48 526.08 172.97C531.18 178.46 528.76 187.18 528.76 187.18L528.77 187.19Z" fill="url(#paint10_linear_1246_3)"/>
<g style="mix-blend-mode:overlay" opacity="0.25">
<path d="M528.769 187.19C528.769 187.19 528.819 187.47 528.429 187.87C530.229 176.71 519.909 171.41 510.449 163.54C500.719 155.45 504.809 149.33 502.819 141.07C501.639 136.18 496.659 129.69 492.789 125.19C500.829 129.47 506.589 140.22 506.789 149.03C507.029 159.24 520.969 167.48 526.079 172.97C531.179 178.46 528.759 187.18 528.759 187.18L528.769 187.19Z" fill="white"/>
</g>
<path d="M569.59 240.65V243.95C569.02 243.89 567.6 244 566.35 244.11C565.58 244.18 564.87 244.26 564.46 244.3L564.16 241.5L565.46 241.3L569.59 240.66V240.65Z" fill="url(#paint11_linear_1246_3)"/>
<path d="M528.56 185.71L525.98 188.06C525.61 188.4 525.75 189 526.22 189.15L528.4 189.84L533.44 195.36C533.66 195.6 534.04 195.62 534.29 195.4L535.12 194.64C535.36 194.42 535.38 194.04 535.16 193.79L530.12 188.27L529.63 186.03C529.52 185.54 528.93 185.36 528.56 185.69V185.71Z" fill="#2F1829"/>
<path d="M548.39 189.22C547.74 190.08 546.87 191.21 545.98 192.33C545.65 192.75 545.31 193.17 544.98 193.57C543.6 195.27 542.34 196.68 541.95 196.75C540.96 196.91 535.38 193.73 534.56 193.73C533.74 193.73 531.88 195.09 531.38 194.97C530.88 194.84 528.16 192.33 528.24 191.71C528.32 191.09 530.76 188.94 531.96 188.61C532.29 188.52 533.03 188.62 533.93 188.82C533.93 188.82 533.98 188.83 534.07 188.85C536.41 189.36 539.78 190.42 540.31 190.16C540.57 190.03 541.13 189.15 541.73 188.07C541.94 187.69 542.16 187.28 542.37 186.87C542.64 186.36 542.9 185.84 543.14 185.38C543.38 184.9 543.59 184.47 543.75 184.15C544.26 184.9 545.08 185.91 545.9 186.84C546.92 187.99 547.94 189 548.4 189.21L548.39 189.22Z" fill="url(#paint12_linear_1246_3)"/>
<path d="M571.11 195.8C571.11 197.62 571.08 199.37 570.97 200.79C570.53 206.45 570.09 211.07 568.16 211.18C566.23 211.29 565.85 195.87 565.95 194.93C565.97 194.75 565.99 194.36 566 193.85C566.05 192.17 566.06 189.16 566.09 187.87C566.09 187.55 566.1 187.33 566.11 187.27L566.47 187.04L570.68 184.35C570.68 184.35 570.93 188 571.04 192.16C571.06 192.73 571.07 193.3 571.08 193.88C571.08 194.52 571.1 195.15 571.1 195.79L571.11 195.8Z" fill="url(#paint13_linear_1246_3)"/>
<g style="mix-blend-mode:overlay" opacity="0.25">
<path d="M571.111 195.8C570.131 196.65 568.561 197.74 566.941 197.77C564.301 197.83 568.161 192.41 569.041 192.29C569.381 192.24 570.191 192.2 571.041 192.17C571.061 192.74 571.071 193.31 571.081 193.89C571.081 194.53 571.101 195.16 571.101 195.8H571.111Z" fill="black"/>
</g>
<path d="M571.091 193.89C570.011 194.28 568.541 194.5 566.691 194.11C566.431 194.05 566.201 193.97 566.011 193.86C564.391 192.95 565.051 190.28 566.101 187.88C566.221 187.6 566.351 187.32 566.481 187.05L570.691 184.36C570.691 184.36 571.011 189.07 571.091 193.89Z" fill="#2F1829"/>
<path d="M562.16 163.41C562.11 163.98 561.81 164.69 561.38 165.4C560.84 166.3 560.1 167.19 559.38 167.77C558.83 168.22 558.3 168.48 557.89 168.42C556.54 168.23 554.86 166.05 554.83 165.64C554.81 165.23 556.28 165.07 556.09 163.86C555.9 162.65 555.13 162.43 554.55 162.65C553.97 162.87 553.27 164.13 553.3 165.32C552.91 165.27 552.18 163.8 550.82 162.97C550.44 162.74 550.02 162.55 549.55 162.46C548.95 162.34 548.27 162.38 547.49 162.64C547.13 158.26 549.78 156.34 551.81 157.11C551.81 157.11 551.07 155.65 549.99 155.35C552.47 155.71 553.07 157.8 553.07 157.8C553.07 157.8 553.76 154.85 556.9 154.47C560.04 154.09 560.65 158.22 560.65 158.22C560.65 158.22 561.3 156.19 561.02 154.99C561.58 156.62 560.9 159.29 560.9 159.29C560.9 159.29 562.42 159.7 562.77 161.66C561.5 160.67 561.42 160.77 561.42 160.77C561.42 160.77 562.33 161.57 562.17 163.42L562.16 163.41Z" fill="#2F172B"/>
<path d="M559.381 167.76C559.131 168.45 558.901 169.09 558.801 169.32C558.541 169.9 555.331 172.6 553.021 169.49C551.081 166.88 550.841 163.85 550.811 162.95C552.161 163.78 552.901 165.25 553.291 165.3C553.261 164.11 553.961 162.85 554.541 162.63C555.121 162.41 555.891 162.63 556.081 163.84C556.271 165.05 554.801 165.21 554.821 165.62C554.851 166.03 556.531 168.21 557.881 168.4C558.291 168.46 558.821 168.2 559.371 167.75L559.381 167.76Z" fill="url(#paint14_linear_1246_3)"/>
<path d="M560.98 154.88C560.92 154.72 560.84 154.56 560.75 154.43C560.85 154.55 560.93 154.7 560.98 154.88Z" fill="#2F172B"/>
<path d="M572.12 183.81C571.8 184.42 571.45 184.95 571.1 185.42C570.99 185.57 570.881 185.71 570.781 185.85C569.791 187.09 568.93 187.72 568.93 187.72C568.93 187.72 568.931 187.76 568.951 187.83C568.971 187.92 568.991 188.07 569.031 188.26C569.101 188.71 569.221 189.41 569.341 190.24C569.361 190.38 569.381 190.52 569.401 190.67C569.451 191.06 569.5 191.48 569.55 191.91C569.58 192.16 569.6 192.4 569.63 192.65C569.63 192.79 569.65 192.94 569.67 193.08C569.73 193.75 569.761 194.43 569.771 195.06C569.771 195.2 569.771 195.35 569.771 195.49C569.771 196.25 569.711 196.94 569.581 197.47C569.541 197.63 569.501 197.77 569.451 197.9C569.391 198.06 569.32 198.19 569.23 198.3C569.13 198.43 568.97 198.54 568.74 198.63C567.28 199.28 563.411 199.32 559.581 199.11C556.271 198.93 552.981 198.58 551.331 198.29C550.841 198.21 550.45 198.07 550.13 197.89C549.91 197.77 549.741 197.63 549.591 197.46C549.501 197.37 549.42 197.27 549.36 197.16C549.06 196.69 548.96 196.12 548.98 195.47C548.98 195.33 548.98 195.19 549 195.04C549.05 194.45 549.191 193.82 549.341 193.16C549.341 193.12 549.36 193.09 549.37 193.05C549.4 192.91 549.44 192.77 549.48 192.62C549.65 191.96 549.84 191.28 549.99 190.64C550.01 190.54 550.04 190.44 550.06 190.34C550.06 190.3 550.081 190.26 550.091 190.21C550.261 189.41 550.37 188.76 550.44 188.23C550.46 188.08 550.48 187.93 550.49 187.8C550.62 186.54 550.5 186.15 550.5 186.15C550.5 186.15 550.16 186.99 549.74 187.8C549.66 187.95 549.58 188.09 549.49 188.23C549.17 188.77 548.84 189.21 548.57 189.23C548.53 189.23 548.48 189.23 548.41 189.19C548.16 189.07 547.74 188.72 547.24 188.23C547.11 188.1 546.96 187.95 546.81 187.8C546.52 187.5 546.21 187.16 545.91 186.82C545.62 186.5 545.33 186.16 545.06 185.82C544.94 185.68 544.821 185.53 544.711 185.39C544.341 184.93 544.01 184.5 543.76 184.12C543.57 183.84 543.421 183.59 543.331 183.4C543.271 183.27 543.24 183.18 543.23 183.11C543.23 183.08 543.23 183.03 543.23 182.98C543.28 182.65 543.51 181.93 543.88 181C543.94 180.87 543.99 180.72 544.05 180.57C544.3 179.97 544.59 179.29 544.92 178.59C544.99 178.45 545.06 178.31 545.13 178.16C545.44 177.51 545.781 176.84 546.151 176.18C546.231 176.04 546.311 175.89 546.391 175.75C546.781 175.06 547.19 174.39 547.62 173.77C547.72 173.63 547.82 173.48 547.92 173.34C548.47 172.57 549.05 171.89 549.62 171.36C549.79 171.2 549.971 171.05 550.141 170.93C550.241 170.86 550.33 170.79 550.43 170.73C551.21 170.23 552.011 169.84 552.781 169.55C555.461 168.53 557.75 168.63 557.75 168.63C559.09 168.63 560.401 168.89 561.651 169.39C562.581 169.77 563.481 170.28 564.341 170.92C564.531 171.06 564.711 171.2 564.891 171.35C565.581 171.92 566.25 172.58 566.88 173.33C567 173.47 567.12 173.61 567.23 173.76C567.72 174.37 568.191 175.03 568.641 175.74C568.731 175.88 568.821 176.02 568.901 176.17C569.281 176.8 569.63 177.46 569.97 178.15C570.04 178.29 570.11 178.43 570.17 178.58C570.47 179.22 570.751 179.87 571.021 180.56C571.071 180.7 571.13 180.84 571.18 180.99C571.42 181.63 571.64 182.29 571.86 182.97C571.9 183.1 571.94 183.24 571.99 183.38C571.99 183.38 571.99 183.39 571.99 183.4C572.03 183.53 572.06 183.65 572.1 183.77L572.12 183.81Z" fill="#FFCA51"/>
<g style="mix-blend-mode:overlay" opacity="0.25">
<path d="M564.901 171.39H549.621C549.791 171.23 549.971 171.08 550.141 170.96H564.351C564.541 171.1 564.721 171.24 564.901 171.39Z" fill="white"/>
</g>
<g style="mix-blend-mode:overlay" opacity="0.25">
<path d="M567.241 173.8H547.611C547.711 173.66 547.811 173.51 547.911 173.37H566.891C567.011 173.51 567.131 173.65 567.241 173.8Z" fill="white"/>
</g>
<g style="mix-blend-mode:overlay" opacity="0.25">
<path d="M568.92 176.21H546.15C546.23 176.07 546.31 175.92 546.39 175.78H568.66C568.75 175.92 568.84 176.06 568.92 176.21Z" fill="white"/>
</g>
<g style="mix-blend-mode:overlay" opacity="0.25">
<path d="M570.19 178.62H544.91C544.98 178.48 545.05 178.34 545.12 178.19H569.98C570.05 178.33 570.12 178.47 570.18 178.62H570.19Z" fill="white"/>
</g>
<g style="mix-blend-mode:overlay" opacity="0.25">
<path d="M571.211 181.03H543.871C543.931 180.9 543.981 180.75 544.041 180.6H571.041C571.091 180.74 571.151 180.88 571.201 181.03H571.211Z" fill="white"/>
</g>
<g style="mix-blend-mode:overlay" opacity="0.25">
<path d="M572.011 183.44H543.311C543.251 183.31 543.221 183.22 543.211 183.15C543.211 183.12 543.211 183.07 543.211 183.02H571.871C571.911 183.15 571.951 183.29 572.001 183.43C572.001 183.43 572.001 183.44 572.001 183.45L572.011 183.44Z" fill="white"/>
</g>
<g style="mix-blend-mode:overlay" opacity="0.25">
<path d="M571.111 185.42C571.001 185.57 570.891 185.71 570.791 185.85H545.041C544.921 185.71 544.801 185.56 544.691 185.42H571.111Z" fill="white"/>
</g>
<g style="mix-blend-mode:overlay" opacity="0.25">
<path d="M546.801 187.83H549.721C549.641 187.98 549.561 188.12 549.471 188.26H547.221C547.091 188.13 546.941 187.98 546.791 187.83H546.801Z" fill="white"/>
</g>
<g style="mix-blend-mode:overlay" opacity="0.25">
<path d="M569.032 188.26H550.422C550.442 188.11 550.462 187.96 550.472 187.83H568.952C568.972 187.92 568.992 188.07 569.032 188.26Z" fill="white"/>
</g>
<g style="mix-blend-mode:overlay" opacity="0.25">
<path d="M569.391 190.67H549.971C549.991 190.57 550.021 190.47 550.041 190.37C550.041 190.33 550.061 190.29 550.071 190.24H569.331C569.351 190.38 569.371 190.52 569.391 190.67Z" fill="white"/>
</g>
<g style="mix-blend-mode:overlay" opacity="0.25">
<path d="M569.652 193.08H549.352C549.382 192.94 549.422 192.8 549.462 192.65H569.612C569.612 192.79 569.632 192.94 569.652 193.08Z" fill="white"/>
</g>
<g style="mix-blend-mode:overlay" opacity="0.25">
<path d="M569.751 195.06C569.751 195.2 569.751 195.35 569.751 195.49H548.961C548.961 195.35 548.961 195.21 548.981 195.06H569.751Z" fill="white"/>
</g>
<g style="mix-blend-mode:overlay" opacity="0.25">
<path d="M569.56 197.47C569.52 197.63 569.48 197.77 569.43 197.9H550.11C549.89 197.78 549.72 197.64 549.57 197.47H569.56Z" fill="white"/>
</g>
<path d="M570.011 237.89C569.101 238.47 562.991 239.13 562.991 239.13L562.801 238.02L561.671 231.36C561.671 231.36 561.671 231.34 561.671 231.33L559.021 215.58L556.341 235.24L555.551 241.03C555.551 241.03 548.031 241.44 548.031 239.63C548.031 239.41 548.051 238.6 548.091 237.35C548.311 229.33 549.151 203.1 549.351 197.18C549.691 197.73 550.311 198.13 551.321 198.3C551.411 198.31 551.511 198.33 551.601 198.35C555.441 198.96 566.081 199.82 568.731 198.64C568.851 199.6 568.961 201.12 569.061 203.03C569.471 210.67 569.771 224.39 569.921 232.15C569.981 235.63 570.021 237.91 570.021 237.91L570.011 237.89Z" fill="#2F1829"/>
<g style="mix-blend-mode:overlay" opacity="0.25">
<path d="M561.669 231.33L559.02 215.58C559.02 215.58 559.74 209.25 560.01 208.53C560.29 207.82 562.219 208.37 563.039 207.82C563.479 208.87 560.73 210.19 560.5 213.49C560.34 215.87 561.179 225.89 561.659 231.33H561.669Z" fill="black"/>
</g>
<g style="mix-blend-mode:overlay" opacity="0.25">
<path d="M550.82 200.59C550.82 200.59 550.57 204.18 553.5 205.92" stroke="white" stroke-width="0.46" stroke-linecap="round" stroke-linejoin="round"/>
</g>
<g style="mix-blend-mode:overlay" opacity="0.25">
<path d="M551.45 205.4L551.41 206.09" stroke="white" stroke-width="0.46" stroke-linecap="round" stroke-linejoin="round"/>
<path d="M551.351 207.48L549.941 237.22" stroke="white" stroke-width="0.46" stroke-linecap="round" stroke-linejoin="round" stroke-dasharray="1.39 1.39"/>
<path d="M549.911 237.91L549.871 238.61" stroke="white" stroke-width="0.46" stroke-linecap="round" stroke-linejoin="round"/>
</g>
<g style="mix-blend-mode:overlay" opacity="0.25">
<path d="M561.721 208.81L564.361 237.12" stroke="white" stroke-width="0.46" stroke-linecap="round" stroke-linejoin="round" stroke-dasharray="1.39 1.39"/>
</g>
<g style="mix-blend-mode:overlay" opacity="0.25">
<path d="M563.95 201.16C563.95 201.16 563.65 204.62 563.95 205.28C564.25 205.94 565.54 206.51 565.82 206.65C566.1 206.79 567.35 205.68 567.41 204.96C567.47 204.24 567.55 201.3 567.55 201.3C567.55 201.3 565.4 200.88 563.95 201.16Z" stroke="white" stroke-width="0.46" stroke-linecap="round" stroke-linejoin="round"/>
</g>
<g style="mix-blend-mode:overlay" opacity="0.25">
<path d="M570.011 237.89C569.101 238.47 562.991 239.13 562.991 239.13L562.801 238.02C564.581 237.01 568.091 234.78 569.911 232.13C569.971 235.61 570.011 237.89 570.011 237.89Z" fill="black"/>
</g>
<path d="M570.371 240.53L569.601 240.65L564.171 241.5L563.791 241.56C562.991 241.69 562.251 241.14 562.121 240.35L562.101 240.23C561.981 239.44 562.521 238.69 563.311 238.57L569.901 237.54C570.701 237.41 571.441 237.96 571.561 238.75L571.581 238.87C571.711 239.66 571.161 240.41 570.371 240.53Z" fill="#4C3146"/>
<g style="mix-blend-mode:overlay" opacity="0.25">
<path d="M556.341 235.25L555.551 241.04C555.551 241.04 548.031 241.45 548.031 239.64C548.031 239.42 548.051 238.61 548.091 237.36C549.861 237.23 553.951 236.76 556.341 235.26V235.25Z" fill="black"/>
</g>
<path d="M556.22 241.41V241.54C556.13 242.34 555.42 242.93 554.62 242.86H554.58L548.84 242.32L547.98 242.24C547.18 242.17 546.58 241.46 546.66 240.65V240.53C546.75 239.73 547.46 239.14 548.26 239.21L554.9 239.82C555.7 239.89 556.29 240.6 556.22 241.41Z" fill="#4C3146"/>
<g style="mix-blend-mode:overlay" opacity="0.25">
<path d="M569.05 203.02C559.89 204.25 553.67 200.04 551.59 198.35C555.43 198.96 566.07 199.82 568.72 198.64C568.84 199.6 568.95 201.12 569.05 203.03V203.02Z" fill="black"/>
</g>
<g style="mix-blend-mode:overlay" opacity="0.25">
<path d="M550.041 190.37C550.751 187.06 550.481 186.18 550.481 186.18C550.481 186.18 549.271 189.21 548.551 189.26C548.221 189.29 547.051 188.15 545.891 186.84C546.891 186.59 548.431 186.08 549.231 185.18C550.471 183.78 550.341 177.79 550.821 177.74C551.301 177.7 552.401 188.81 549.331 193.17C549.561 192.23 549.851 191.27 550.051 190.35L550.041 190.37Z" fill="black"/>
</g>
<g style="mix-blend-mode:overlay" opacity="0.25">
<path d="M572.121 183.81C570.741 186.4 568.931 187.72 568.931 187.72C568.931 187.72 567.301 179.14 566.811 178.31C566.421 177.65 566.971 176.96 567.871 179.88C568.561 182.14 570.391 183.86 572.011 183.43C572.051 183.56 572.091 183.69 572.131 183.82L572.121 183.81Z" fill="black"/>
</g>
<g style="mix-blend-mode:overlay" opacity="0.25">
<path d="M569.201 198.3C569.101 198.43 568.941 198.54 568.711 198.63C567.251 199.28 563.381 199.32 559.551 199.11C562.171 198.76 568.441 197.37 569.531 191.91C569.811 194.45 569.931 197.39 569.201 198.3Z" fill="black"/>
</g>
<g style="mix-blend-mode:overlay" opacity="0.25">
<path d="M561.65 169.43C561.31 169.84 560.739 170.02 559.789 169.8C557.919 169.36 555.44 170.24 554.14 170.05C553.47 169.95 553.04 169.75 552.77 169.59C555.45 168.57 557.74 168.67 557.74 168.67C559.08 168.67 560.39 168.93 561.64 169.43H561.65Z" fill="black"/>
</g>
<path d="M548.391 189.22C547.741 190.08 546.871 191.21 545.981 192.33C544.121 191.18 542.571 189.27 541.721 188.08C542.481 186.71 543.311 185.03 543.741 184.16C544.251 184.91 545.071 185.92 545.891 186.85C546.911 188 547.931 189.01 548.391 189.22Z" fill="#2F1829"/>
<g style="mix-blend-mode:overlay" opacity="0.25">
<path d="M548.391 189.22C547.741 190.08 546.871 191.21 545.981 192.33C545.651 192.75 545.311 193.17 544.981 193.57C545.081 190.08 543.861 186.94 543.131 185.39C543.371 184.91 543.581 184.48 543.741 184.16C544.251 184.91 545.071 185.92 545.891 186.85C546.911 188 547.931 189.01 548.391 189.22Z" fill="black"/>
</g>
<g style="mix-blend-mode:overlay" opacity="0.25">
<path d="M542.361 186.88C542.361 187.91 541.411 189.36 541.131 189.81C540.801 190.32 541.071 192.6 540.761 192.33C540.451 192.06 540.321 190.95 539.911 190.58C539.531 190.24 534.931 189.08 534.061 188.86C536.401 189.37 539.771 190.43 540.301 190.17C540.561 190.04 541.121 189.16 541.721 188.08C541.931 187.7 542.151 187.29 542.361 186.88Z" fill="white"/>
</g>
<g style="mix-blend-mode:overlay" opacity="0.25">
<path d="M561.381 165.39C560.841 166.29 560.101 167.18 559.381 167.76C558.831 168.21 558.301 168.47 557.891 168.41C556.541 168.22 554.861 166.04 554.831 165.63C554.811 165.22 556.281 165.06 556.091 163.85C555.901 162.64 555.131 162.42 554.551 162.64C553.971 162.86 553.271 164.12 553.301 165.31C552.911 165.26 552.181 163.79 550.821 162.96C550.441 162.73 550.021 162.54 549.551 162.45C550.291 162.35 551.121 162.33 551.671 162.57C552.911 163.09 552.951 163.59 552.951 163.59C552.951 163.59 553.131 161.8 555.111 161.43C556.801 161.12 558.131 165.71 561.391 165.4L561.381 165.39Z" fill="black"/>
</g>
<path d="M555.551 250.31H542.411C542.411 250.31 542.281 249.9 542.281 249.37C542.281 248.68 542.501 247.8 543.551 247.38C543.921 247.23 544.321 247.05 544.741 246.85C546.391 246.07 548.161 245.04 548.451 244.44C548.451 244.44 548.551 244.49 548.711 244.56C549.041 244.71 549.661 244.96 550.261 245.12C550.571 245.2 550.881 245.26 551.151 245.26C551.891 245.28 553.311 244.88 554.211 244.77C554.621 244.71 554.921 244.72 555.001 244.85C555.181 245.15 555.391 247.89 555.491 249.36C555.531 249.92 555.551 250.3 555.551 250.3V250.31Z" fill="#1F3247"/>
<path d="M554.581 242.84C554.471 243.45 554.331 244.19 554.201 244.78C553.551 244.86 552.611 245.1 551.871 245.21C551.591 245.26 551.341 245.28 551.141 245.27C550.331 245.25 549.201 244.79 548.701 244.57C548.701 243.91 548.781 242.94 548.841 242.31L551.091 242.52L554.581 242.84Z" fill="url(#paint15_linear_1246_3)"/>
<path d="M571.3 250.31H563.37C563.37 250.31 563.23 249.94 563.25 249.37C563.25 249 563.34 248.54 563.57 248.05C564.14 246.78 563.84 244.72 564.12 244.33C564.12 244.33 564.25 244.32 564.47 244.29C565.53 244.17 568.67 243.84 569.6 243.93C569.68 243.93 569.74 243.95 569.79 243.97C570.32 244.14 570.93 247.6 571.19 249.37C571.25 249.82 571.3 250.16 571.31 250.31H571.3Z" fill="#1F3247"/>
<g style="mix-blend-mode:overlay" opacity="0.25">
<path d="M555.491 249.37C555.531 249.93 555.551 250.31 555.551 250.31H542.411C542.411 250.31 542.281 249.9 542.281 249.37H555.491Z" fill="black"/>
</g>
<g style="mix-blend-mode:overlay" opacity="0.25">
<path d="M571.3 250.31H563.37C563.37 250.31 563.23 249.94 563.25 249.37H571.18C571.24 249.82 571.29 250.16 571.3 250.31Z" fill="black"/>
</g>
<path d="M550.25 245.13C549.03 245.94 546.76 247.37 545.99 247.38C545.43 247.38 545.01 247.12 544.73 246.86C546.38 246.08 548.15 245.05 548.44 244.45C548.44 244.45 548.541 244.5 548.701 244.57C549.031 244.72 549.65 244.97 550.25 245.13Z" fill="#122230"/>
<g style="mix-blend-mode:overlay" opacity="0.25">
<path d="M554.58 242.84C554.47 243.45 554.33 244.19 554.2 244.78C553.55 244.86 552.61 245.1 551.87 245.21L551.1 242.52L554.59 242.84H554.58Z" fill="black"/>
</g>
<g style="mix-blend-mode:overlay" opacity="0.25">
<path d="M569.591 240.65V243.95C569.021 243.89 567.601 244 566.351 244.11L565.461 241.3L569.591 240.66V240.65Z" fill="black"/>
</g>
<path style="mix-blend-mode:hard-light" d="M121.481 187.19C121.481 187.19 119.071 178.46 124.171 172.98C129.271 167.5 143.211 159.25 143.461 149.04C143.711 138.83 151.401 126.01 161.461 123.68C171.521 121.35 179.281 98.01 188.341 93.34C197.401 88.68 210.311 88.29 214.041 82.38C217.771 76.48 261.361 161.15 259.211 169.85C257.061 178.55 218.221 167.37 207.811 169.92C197.401 172.47 192.481 178.75 180.911 180.32C169.331 181.89 152.131 179.09 146.101 182.5C140.071 185.9 128.971 190.93 123.531 188.86C121.341 188.02 121.481 187.19 121.481 187.19Z" fill="url(#paint16_linear_1246_3)"/>
<path d="M123.591 188.85L121.131 186.37C120.781 186.02 120.181 186.18 120.051 186.66L119.451 188.87L114.151 194.14C113.921 194.37 113.911 194.75 114.151 194.99L114.941 195.78C115.171 196.02 115.551 196.02 115.791 195.78L121.091 190.51L123.301 189.92C123.781 189.79 123.941 189.19 123.591 188.84V188.85Z" fill="#2F1829"/>
<path d="M98.012 162.56C98.012 162.56 97.952 163.54 97.792 164.78C97.582 166.38 97.172 168.43 96.462 169.46C96.442 169.5 96.412 169.53 96.392 169.57C95.332 170.97 93.302 170.63 92.272 168.89C92.882 168.14 93.152 167.17 92.742 166.79C91.902 165.99 92.122 163.74 93.332 164.01C94.542 164.29 94.732 167.54 95.172 167.45C95.512 167.39 97.262 164.55 98.002 162.56H98.012Z" fill="url(#paint17_linear_1246_3)"/>
<path d="M98.3408 161.16C98.3408 161.51 98.2108 162 98.0108 162.56C97.8908 162.88 97.7408 163.24 97.5808 163.59C96.7408 165.41 95.4708 167.4 95.1808 167.46C94.7408 167.54 94.5408 164.29 93.3408 164.02C92.1308 163.75 91.9008 166 92.7508 166.8C93.1608 167.18 92.8908 168.15 92.2808 168.9C91.6308 169.71 90.5708 170.28 89.5108 169.64C87.4808 168.4 87.1208 160.64 87.1408 160.03C87.1408 160.03 87.1008 159.52 87.2708 158.84C87.5108 157.89 88.1508 156.6 89.9008 155.84C92.9008 154.55 98.3608 154.82 98.3608 161.17L98.3408 161.16Z" fill="#2F1829"/>
<path d="M114.112 193.57C114.102 193.65 114.082 193.73 114.062 193.8C113.972 194.15 113.862 194.4 113.742 194.44C113.622 194.48 113.022 194.43 112.152 194.31C110.932 194.15 109.192 193.87 107.552 193.56C105.592 193.18 103.782 192.77 103.162 192.45C102.622 192.17 101.832 191.13 101.052 189.92C100.852 189.6 100.642 189.27 100.442 188.94C99.472 187.35 98.622 185.73 98.402 185.3C98.362 185.23 98.342 185.19 98.342 185.19C98.342 185.19 98.342 185.23 98.342 185.3C98.312 185.73 98.182 187.34 97.632 188.94C97.512 189.27 97.382 189.6 97.232 189.92C97.102 190.21 96.942 190.49 96.782 190.75C96.262 191.56 96.372 192.56 96.712 193.57C96.752 193.7 96.802 193.82 96.842 193.94C96.922 194.15 97.002 194.35 97.092 194.55C97.242 194.91 97.412 195.25 97.572 195.58C98.052 196.58 98.472 197.45 98.332 197.96C98.312 198.03 98.262 198.11 98.172 198.19C98.112 198.25 98.042 198.31 97.942 198.38C97.602 198.62 97.072 198.89 96.382 199.18C92.472 200.81 83.722 202.68 79.922 199.18C79.862 199.12 79.792 199.06 79.732 199L79.692 198.96C79.452 198.71 79.352 198.46 79.362 198.2C79.362 197.84 79.562 197.46 79.852 197.02C80.292 196.36 80.932 195.57 81.472 194.55C81.632 194.24 81.782 193.92 81.912 193.57C82.112 193.04 82.272 192.45 82.352 191.8C82.432 191.16 82.492 190.54 82.542 189.93C82.572 189.6 82.592 189.27 82.602 188.95C82.672 187.68 82.692 186.47 82.672 185.31C82.672 184.98 82.672 184.65 82.652 184.33C82.622 183.04 82.562 181.82 82.522 180.69C82.512 180.36 82.502 180.03 82.492 179.71C82.452 178.38 82.452 177.16 82.562 176.07C82.602 175.73 82.642 175.4 82.712 175.09C82.992 173.62 83.562 172.4 84.662 171.44C84.702 171.4 84.742 171.37 84.782 171.33C85.172 171.01 85.552 170.71 85.912 170.46C86.322 170.16 86.702 169.91 87.052 169.7C89.412 168.28 90.612 168.48 90.612 168.48C90.612 168.48 91.332 168.53 92.422 168.71C93.472 168.9 94.872 169.21 96.262 169.75C96.432 169.81 96.592 169.88 96.762 169.95C97.122 170.1 97.472 170.27 97.812 170.46C98.052 170.59 98.272 170.71 98.502 170.85C98.782 171.04 99.062 171.23 99.322 171.43C99.982 171.94 100.552 172.55 100.982 173.27C101.312 173.81 101.642 174.42 101.972 175.08C102.132 175.4 102.292 175.72 102.452 176.06C102.992 177.21 103.512 178.47 104.002 179.7C104.132 180.03 104.262 180.36 104.382 180.68C104.892 181.99 105.332 183.25 105.712 184.32C105.832 184.67 105.942 185 106.042 185.3C106.402 186.36 106.652 187.14 106.742 187.45C106.872 187.86 107.722 188.25 108.802 188.6C109.152 188.72 109.532 188.83 109.922 188.94C110.672 189.15 111.452 189.35 112.142 189.53C112.672 189.67 113.142 189.8 113.502 189.92C113.882 190.05 114.132 190.15 114.182 190.25C114.202 190.29 114.222 190.34 114.242 190.4C114.392 190.98 114.322 192.56 114.112 193.56V193.57Z" fill="#F5B539"/>
<g style="mix-blend-mode:overlay" opacity="0.25">
<path d="M97.7504 170.67C98.0504 170.83 98.3304 171 98.6004 171.18H85.2904C85.5304 170.99 85.7504 170.82 85.9704 170.67H97.7504ZM97.8104 170.44H85.9004C85.5404 170.7 85.1704 170.99 84.7704 171.31C84.7304 171.34 84.6904 171.38 84.6504 171.42H99.3104C98.8404 171.05 98.3404 170.72 97.8004 170.44H97.8104Z" fill="white"/>
<path d="M101.821 175.3C101.901 175.47 101.991 175.64 102.071 175.82H82.811C82.831 175.63 82.861 175.46 82.891 175.3H101.821ZM101.961 175.06H82.691C82.631 175.38 82.581 175.7 82.541 176.04H102.431C102.271 175.7 102.111 175.37 101.951 175.06H101.961Z" fill="white"/>
<path d="M103.84 179.92C103.91 180.09 103.98 180.27 104.04 180.44H82.7405C82.7405 180.27 82.7305 180.09 82.7205 179.92H103.84ZM103.99 179.69H82.4805C82.4805 180.01 82.5005 180.34 82.5105 180.67H104.37C104.25 180.35 104.12 180.02 103.99 179.69Z" fill="white"/>
<path d="M105.541 184.55L105.661 184.92L105.711 185.07H82.8906C82.8906 184.9 82.8906 184.72 82.8806 184.55H105.531M105.701 184.32H82.6406C82.6506 184.64 82.6606 184.97 82.6606 185.3H106.031C105.931 184.99 105.811 184.67 105.701 184.32Z" fill="white"/>
<path d="M97.301 189.17C97.231 189.36 97.161 189.53 97.091 189.69H82.791C82.801 189.52 82.821 189.34 82.821 189.17H97.301ZM97.631 188.94H82.601C82.591 189.26 82.561 189.59 82.541 189.92H97.241C97.391 189.6 97.521 189.27 97.641 188.94H97.631Z" fill="white"/>
<path d="M109.891 189.17C110.471 189.33 111.071 189.49 111.631 189.64L111.831 189.69H101.191C101.081 189.52 100.971 189.35 100.861 189.17H109.891ZM109.921 188.94H100.441C100.641 189.27 100.851 189.6 101.051 189.92H113.491C113.131 189.8 112.661 189.67 112.131 189.53C111.441 189.35 110.671 189.15 109.911 188.94H109.921Z" fill="white"/>
<path d="M96.5407 193.8C96.5407 193.8 96.5707 193.89 96.5907 193.94L96.6207 194.02C96.6207 194.02 96.6207 194.04 96.6407 194.05C96.6707 194.14 96.7107 194.23 96.7507 194.32H81.8507C81.9307 194.15 82.0107 193.98 82.0707 193.8H96.5407ZM96.7107 193.57H81.9107C81.7807 193.92 81.6307 194.25 81.4707 194.55H97.1007C97.0107 194.35 96.9207 194.15 96.8507 193.94C96.8007 193.81 96.7607 193.69 96.7207 193.56L96.7107 193.57Z" fill="white"/>
<path d="M113.821 193.8C113.731 194.13 113.661 194.21 113.671 194.22C113.651 194.22 113.621 194.22 113.591 194.22C113.361 194.22 112.891 194.17 112.181 194.08C111.601 194.01 110.931 193.91 110.231 193.8H113.821ZM114.111 193.57H107.551C109.191 193.88 110.931 194.16 112.151 194.32C112.821 194.41 113.331 194.46 113.591 194.46C113.661 194.46 113.711 194.46 113.741 194.45C113.871 194.41 113.971 194.16 114.061 193.81C114.081 193.74 114.101 193.66 114.111 193.58V193.57Z" fill="white"/>
<path d="M97.4413 198.43C97.1513 198.59 96.7813 198.77 96.3513 198.95H80.0213C80.0213 198.95 79.9413 198.88 79.9013 198.84L79.7413 199L79.8713 198.8C79.7513 198.68 79.6713 198.56 79.6313 198.43H97.4413ZM98.1813 198.19H79.3613C79.3613 198.45 79.4513 198.7 79.6913 198.95C79.7013 198.96 79.7213 198.98 79.7313 198.99C79.7913 199.05 79.8613 199.12 79.9213 199.17H96.3813C97.0713 198.89 97.6013 198.61 97.9413 198.37C98.0313 198.31 98.1113 198.24 98.1713 198.18L98.1813 198.19Z" fill="white"/>
</g>
<path d="M99.6112 241.53C99.5512 241.72 99.4712 241.88 99.3712 242.04C98.2712 243.93 95.2712 244.12 94.1612 243.76C94.0112 243.72 93.9012 243.66 93.8312 243.6C93.1712 243.02 92.5912 238.23 89.0412 211.05C89.0412 211.12 89.0412 211.19 89.0412 211.26V211.28C88.9812 215.14 88.1712 222 87.3112 228.32C86.3712 235.29 85.3812 241.61 85.2512 242.6C85.2112 242.92 85.0612 243.22 84.8412 243.47C83.8412 244.61 81.3312 244.89 79.8412 243.08C79.7212 242.93 79.6112 242.77 79.5012 242.6C80.1212 237.64 80.3712 222.19 79.3712 213.03C78.9912 209.59 78.9912 206.62 79.1212 204.26C79.2512 201.8 79.5512 200 79.7512 199C83.5112 202.82 92.7712 200.76 96.6312 199.09C97.2112 198.84 97.6612 198.6 97.9712 198.39C99.0412 202.75 98.6312 215.66 99.6312 241.54L99.6112 241.53Z" fill="#2F1829"/>
<g style="mix-blend-mode:overlay" opacity="0.25">
<path d="M96.751 169.93C90.361 170.13 88.541 180.06 88.541 180.06L87.041 169.67C89.401 168.25 90.601 168.45 90.601 168.45C90.601 168.45 93.781 168.65 96.751 169.92V169.93Z" fill="black"/>
</g>
<path d="M106.911 250.23H94.1909C94.1409 249.88 94.1209 249.33 94.1009 248.69C94.1009 248.47 94.1009 248.24 94.1009 248C94.0909 246.49 94.1409 244.71 94.1709 243.75C94.4709 243.85 94.9009 243.9 95.4009 243.9C96.3909 243.9 97.6309 243.64 98.5409 242.96C98.8809 242.71 99.1709 242.41 99.3909 242.03C100.161 243.71 101.771 244.85 103.281 245.67C104.611 246.4 105.861 246.88 106.371 247.25C106.861 247.6 107.041 248.15 107.091 248.68C107.161 249.47 106.921 250.22 106.921 250.22L106.911 250.23Z" fill="#1F3247"/>
<path d="M84.9813 248.69C84.9413 249.65 84.8813 250.23 84.8813 250.23H77.6113C77.7013 249.71 77.8113 249.19 77.9413 248.69C78.5513 246.17 79.4413 243.99 79.8313 243.09C80.3013 243.66 80.8813 244.03 81.4813 244.23C82.1813 244.45 82.9213 244.44 83.5513 244.26C84.0713 244.11 84.5213 243.84 84.8313 243.49C85.0513 245.58 85.0313 247.46 84.9813 248.7V248.69Z" fill="#1F3247"/>
<path d="M120.901 191.88C120.761 192.68 117.901 195.19 117.041 194.94C116.901 194.9 116.751 194.83 116.611 194.75C116.011 194.42 115.351 193.87 114.061 193.8C114.311 192.83 114.401 191.03 114.241 190.41C114.401 190.33 114.591 190.24 114.811 190.15C115.761 189.72 117.101 189.18 117.661 189.27C118.571 189.41 121.041 191.09 120.911 191.88H120.901Z" fill="url(#paint18_linear_1246_3)"/>
<g style="mix-blend-mode:overlay" opacity="0.25">
<path d="M98.3412 197.96C98.3112 198.08 98.1712 198.22 97.9512 198.38C95.6612 200.01 84.0612 203.39 79.7412 199L79.7012 198.96C79.1312 198.37 79.3512 197.78 79.8512 197.02C80.4812 197.52 81.5912 198.06 83.5512 198.38C87.4112 199.01 94.2612 197.97 97.5812 195.58C98.0612 196.58 98.4812 197.45 98.3412 197.96Z" fill="black"/>
</g>
<g style="mix-blend-mode:overlay" opacity="0.25">
<path d="M114.06 193.8C113.97 194.15 113.86 194.4 113.74 194.44C113.62 194.48 113.02 194.43 112.15 194.31C112.75 192.02 112.39 190.31 112.15 189.53C113.23 189.82 114.08 190.06 114.19 190.25C114.21 190.29 114.23 190.34 114.25 190.4C114.42 191.03 114.32 192.82 114.07 193.79L114.06 193.8Z" fill="black"/>
</g>
<g style="mix-blend-mode:overlay" opacity="0.25">
<path d="M96.842 193.94C95.372 192.5 96.002 191.35 96.842 188.49C97.682 185.63 96.002 184.41 95.732 181.22C95.452 178.03 95.792 176.21 97.772 174.11C95.402 180.33 98.342 185.18 98.342 185.18C98.342 185.18 98.212 188.54 96.772 190.74C96.192 191.64 96.402 192.79 96.832 193.93L96.842 193.94Z" fill="black"/>
</g>
<g style="mix-blend-mode:overlay" opacity="0.25">
<path d="M97.5808 163.59C96.7408 165.41 95.4708 167.4 95.1808 167.46C94.7408 167.54 94.5408 164.29 93.3408 164.02C92.1308 163.75 91.9008 166 92.7508 166.8C93.1608 167.18 92.8908 168.15 92.2808 168.9C91.6308 169.71 90.5708 170.28 89.5108 169.64C87.4808 168.4 87.1208 160.64 87.1408 160.03C87.1408 160.03 87.1008 159.52 87.2708 158.84C88.2808 158.79 90.5308 158.92 91.0708 160.95C91.5908 162.91 91.5908 163.87 91.5508 164.24C91.6608 163.67 92.1308 161.97 94.0008 162.35C95.1308 162.58 96.3808 163.37 97.5808 163.59Z" fill="black"/>
</g>
<path d="M89.3321 160.86C89.3321 160.86 88.5021 159.13 85.8621 159.62C83.2221 160.12 82.0221 163.5 83.2221 169C83.2621 164.13 83.9621 163.01 83.9621 163.01C83.9621 163.01 82.8421 165.98 84.2921 172.68C85.7421 179.38 86.5621 185.86 82.9721 188.71C90.1221 184.66 90.5321 179.91 90.1221 174.13C89.7121 168.35 90.9921 163.27 89.3421 160.87L89.3321 160.86Z" fill="#2F1829"/>
<g style="mix-blend-mode:overlay" opacity="0.25">
<path d="M93.622 166.74C93.572 167.15 94.962 169.09 96.462 169.46C96.442 169.5 96.412 169.53 96.392 169.57C96.352 169.63 96.312 169.68 96.262 169.73C94.872 169.19 93.472 168.88 92.422 168.69C92.932 167.98 93.122 167.14 92.742 166.79C91.902 165.99 92.122 163.74 93.332 164.01C94.542 164.29 94.732 167.54 95.172 167.45C95.512 167.39 97.262 164.55 98.002 162.56C98.002 162.56 97.942 163.54 97.782 164.78C97.382 165.51 96.502 167.02 95.822 167.61C94.912 168.4 94.562 167.42 94.312 166.83C94.062 166.23 93.672 166.27 93.612 166.75L93.622 166.74Z" fill="black"/>
</g>
<g style="mix-blend-mode:overlay" opacity="0.25">
<path d="M81.1907 204.16C81.1907 204.16 80.9907 207.9 81.4607 208.9C81.9307 209.91 83.4107 210.61 83.4107 210.61C83.4107 210.61 85.2407 209.84 85.7107 208.74C86.2407 206.52 86.1307 203.87 86.1307 203.87C86.1307 203.87 82.4807 202.92 81.1807 204.16H81.1907Z" stroke="white" stroke-width="0.46" stroke-miterlimit="10"/>
</g>
<g style="mix-blend-mode:overlay" opacity="0.25">
<path d="M96.8416 201.16C96.8416 201.16 96.9916 204.24 94.3516 205.78" stroke="white" stroke-width="0.46" stroke-linecap="round" stroke-linejoin="round"/>
</g>
<g style="mix-blend-mode:overlay" opacity="0.25">
<path d="M96.2109 203.81L98.3409 240.87" stroke="white" stroke-width="0.46" stroke-linecap="round" stroke-linejoin="round"/>
</g>
<g style="mix-blend-mode:overlay" opacity="0.25">
<path d="M89.0322 211.25V211.27C88.9722 215.13 88.1622 221.99 87.3022 228.31C87.1722 220.93 86.1322 211.78 86.4722 210.29C87.5622 211.34 89.0222 211.24 89.0222 211.24L89.0322 211.25Z" fill="black"/>
</g>
<g style="mix-blend-mode:overlay" opacity="0.25">
<path d="M87.042 212.2L84.002 242.44" stroke="white" stroke-width="0.46" stroke-linecap="round" stroke-linejoin="round"/>
</g>
<g style="mix-blend-mode:overlay" opacity="0.25">
<path d="M96.6211 199.08C94.8211 200.85 89.2411 205.24 79.1211 204.25C79.2511 201.79 79.5511 199.99 79.7511 198.99C83.5111 202.81 92.7711 200.75 96.6311 199.08H96.6211Z" fill="black"/>
</g>
<g style="mix-blend-mode:overlay" opacity="0.25">
<path d="M77.9413 248.69H84.9813C84.9413 249.65 84.8813 250.23 84.8813 250.23H77.6113C77.7013 249.71 77.8113 249.19 77.9413 248.69Z" fill="black"/>
</g>
<g style="mix-blend-mode:overlay" opacity="0.25">
<path d="M106.912 250.23H94.1916C94.1416 249.88 94.1216 249.33 94.1016 248.69H107.082C107.152 249.48 106.912 250.23 106.912 250.23Z" fill="black"/>
</g>
<g style="mix-blend-mode:overlay" opacity="0.25">
<path d="M103.271 245.68C100.981 246.79 99.331 244.49 98.541 242.96C98.881 242.71 99.171 242.41 99.391 242.03C100.161 243.71 101.771 244.85 103.281 245.67L103.271 245.68Z" fill="white"/>
</g>
<g style="mix-blend-mode:overlay" opacity="0.25">
<path d="M83.5509 244.25C83.3109 247.62 82.1409 247.75 81.5209 247.4C80.9609 247.08 81.341 244.92 81.481 244.22C82.181 244.44 82.9209 244.43 83.5509 244.25Z" fill="black"/>
</g>
<g style="mix-blend-mode:overlay" opacity="0.25">
<path d="M94.1009 248C94.0909 246.49 94.1409 244.71 94.1709 243.75C94.4709 243.85 94.9009 243.9 95.4009 243.9C95.5409 244.99 95.6709 247.48 94.1009 248Z" fill="black"/>
</g>
<g style="mix-blend-mode:overlay" opacity="0.25">
<path d="M114.061 193.8C114.311 192.83 114.401 191.03 114.241 190.41C114.401 190.33 114.591 190.24 114.811 190.15C115.451 191.02 116.501 192.75 116.621 194.76C116.021 194.43 115.361 193.88 114.071 193.81L114.061 193.8Z" fill="black"/>
</g>
<g style="mix-blend-mode:overlay" opacity="0.25">
<path d="M108.812 188.6C106.782 188.8 105.452 190.89 105.272 190.47C105.072 189.97 106.182 188.94 106.042 188.28C105.902 187.62 102.842 179.69 101.142 175.81C100.112 173.46 99.1122 171.78 98.4922 170.83C98.7722 171.02 99.0522 171.21 99.3122 171.41C99.9722 171.92 100.542 172.53 100.972 173.25C101.302 173.79 101.632 174.4 101.962 175.06C102.122 175.38 102.282 175.7 102.442 176.04C102.982 177.19 103.502 178.45 103.992 179.68C104.122 180.01 104.252 180.34 104.372 180.66C104.882 181.97 105.322 183.23 105.702 184.3C105.822 184.65 105.932 184.98 106.032 185.28C106.392 186.34 106.642 187.12 106.732 187.43C106.862 187.84 107.712 188.23 108.792 188.58L108.812 188.6Z" fill="white"/>
</g>
<path d="M592.06 252.27C591.4 251.77 570.58 195.6 594.54 163.54C591.24 186.18 593.05 204.68 593.05 204.68L589.91 207.82L593.38 208.81C593.38 208.81 595.72 240.23 596.85 243.86C594.3 220.38 600.61 206.66 600.61 206.66C600.61 206.66 599.5 223.32 601.65 229.45L599.99 231.66L601.65 231.32C601.65 231.32 600.49 241.4 601.65 244.43C601.65 244.43 615.03 204.43 608.75 186.87C617.01 199.71 614.7 221.14 614.7 221.14L612.55 221.99L613.87 222.95C613.87 222.95 610.4 245.81 602.47 252.25" fill="#2F1829"/>
<g style="mix-blend-mode:overlay">
<path d="M451.791 245.65C451.791 245.65 433.241 243.97 425.781 249.18C429.311 244.18 443.361 241.85 443.361 241.85L444.401 242.63V241.85C444.401 241.85 446.791 240.61 450.291 240.15C433.371 236.8 425.301 240.02 425.301 240.02C425.301 240.02 428.431 237.44 433.591 235.94C438.751 234.44 442.001 235.02 442.001 235.02L444.051 236.28V234.93L462.041 240.21" fill="black"/>
</g>
<path d="M523.22 246.65C523.22 246.65 521.24 234.09 531.48 225.39C531.37 235.52 528.53 244.23 523.22 246.65Z" stroke="#1F3247" stroke-width="0.93" stroke-miterlimit="10"/>
<path d="M454.181 238.38L452.161 243.25C450.801 238.34 447.631 237.39 446.031 237.23C445.461 237.17 445.081 237.22 445.081 237.22L445.831 234.82L443.521 235.22C443.521 235.22 440.871 228.87 429.221 221.19C439.941 220.58 446.531 226.18 450.221 231.15C453.041 234.95 454.171 238.38 454.171 238.38H454.181Z" fill="#FFCA51"/>
<g style="mix-blend-mode:overlay" opacity="0.25">
<path d="M429.23 221.2C431.78 221.83 434.26 222.73 436.67 223.76C439.08 224.81 441.41 226.05 443.61 227.5C445.79 228.98 447.81 230.7 449.58 232.66C451.31 234.67 452.68 236.97 453.65 239.44C453.7 239.56 453.64 239.69 453.52 239.74C453.4 239.79 453.27 239.73 453.22 239.61C452.3 237.17 450.99 234.89 449.32 232.89C447.6 230.93 445.62 229.2 443.48 227.69C441.32 226.21 439.01 224.95 436.63 223.86C434.24 222.79 431.77 221.86 429.23 221.19V221.2Z" fill="white"/>
</g>
<g style="mix-blend-mode:overlay" opacity="0.25">
<path d="M454.181 238.38L452.161 243.25C450.801 238.34 447.631 237.39 446.031 237.23C448.791 235.52 449.831 232.87 450.221 231.15C453.041 234.95 454.171 238.38 454.171 238.38H454.181Z" fill="black"/>
</g>
<path d="M531.481 215.04C512.311 230.79 507.361 238.62 507.361 238.62L503.941 237.13C503.941 237.13 503.941 237.24 503.941 237.42C503.961 238.27 504.021 240.75 503.941 241.58C503.871 242.29 497.031 245.97 493.141 248.01C491.581 248.83 490.501 249.38 490.501 249.38L487.301 246.18L487.621 245.55L489.281 242.31C489.281 242.31 493.651 236.01 501.131 229.46C508.571 222.93 519.101 216.14 531.461 215.04H531.481Z" fill="#FFADAE"/>
<g style="mix-blend-mode:overlay" opacity="0.25">
<path d="M489.242 248.18C491.842 244.39 494.712 240.81 497.742 237.38C500.792 233.96 504.012 230.69 507.482 227.7C510.942 224.7 514.652 221.97 518.652 219.73C522.642 217.49 526.962 215.79 531.482 215.04C526.972 215.83 522.662 217.56 518.702 219.83C514.732 222.1 511.062 224.85 507.632 227.87C504.192 230.88 501.012 234.17 498.002 237.61C495.012 241.06 492.172 244.66 489.632 248.44C489.562 248.55 489.412 248.58 489.312 248.51C489.202 248.44 489.182 248.29 489.252 248.19L489.242 248.18Z" fill="white"/>
</g>
<g style="mix-blend-mode:overlay" opacity="0.25">
<path d="M503.941 241.57C503.871 242.28 497.031 245.96 493.141 248C491.021 247.21 489.081 246.29 487.621 245.54L489.281 242.3C489.281 242.3 493.651 236 501.131 229.45C501.581 231.77 502.431 235 503.931 237.41C503.951 238.26 504.011 240.74 503.931 241.57H503.941Z" fill="black"/>
</g>
<path d="M519.421 204.68C505.701 216.09 499.431 225.63 496.841 230.5C495.651 232.73 495.241 233.98 495.241 233.98L492.261 232.88L493.471 235.63L489.111 244.44L487.201 248.3V232.94C487.781 231.81 488.591 230.33 489.621 228.63C491.541 225.44 494.241 221.5 497.681 217.71C499.241 215.99 500.951 214.31 502.821 212.75C507.451 208.86 513.001 205.73 519.411 204.68H519.421Z" fill="#F3475C"/>
<g style="mix-blend-mode:overlay" opacity="0.25">
<path d="M487.001 239.06C488.421 235.24 490.281 231.62 492.391 228.15C494.511 224.69 496.951 221.43 499.661 218.42C502.341 215.38 505.421 212.7 508.731 210.37L511.251 208.67L513.911 207.21C514.361 206.97 514.791 206.71 515.241 206.49L516.641 205.89L519.431 204.7L516.651 205.92L515.261 206.53C514.811 206.76 514.381 207.02 513.931 207.27L511.291 208.76L508.791 210.48C505.521 212.84 502.471 215.54 499.831 218.59C497.151 221.61 494.761 224.88 492.681 228.34C490.621 231.8 488.801 235.44 487.441 239.22C487.401 239.35 487.261 239.41 487.141 239.37C487.021 239.33 486.961 239.19 487.001 239.07V239.06Z" fill="white"/>
</g>
<g style="mix-blend-mode:overlay" opacity="0.25">
<path d="M495.241 233.98L492.261 232.88L493.471 235.63L489.111 244.44L487.201 244.72V232.95C487.781 231.82 488.591 230.34 489.621 228.64C490.981 229.75 493.371 231.05 496.831 230.51C495.641 232.74 495.231 233.99 495.231 233.99L495.241 233.98Z" fill="black"/>
</g>
<path d="M536.881 250.31H487.221V243.34C487.221 243.34 487.951 241.65 489.961 240.64C490.581 240.32 491.321 240.07 492.191 239.96C495.911 239.46 497.151 242.52 497.151 242.52C497.151 242.52 498.061 239.87 501.781 239.54C505.391 239.22 507.591 244.85 507.721 245.19C507.691 244.9 507.441 241.77 510.201 241.57C513.091 241.36 513.091 245.2 513.091 245.2C513.091 245.2 515.401 242.69 518.371 242.85C521.351 243.01 522.001 245.91 522.001 245.91C522.001 245.91 523.651 243.43 527.291 244.3C530.931 245.17 531.341 250.31 536.871 250.31H536.881Z" fill="#982245"/>
<g style="mix-blend-mode:overlay" opacity="0.25">
<path d="M521.371 250.31H487.221V243.34C487.221 243.34 487.951 241.65 489.961 240.64C491.451 240.75 494.071 241.23 495.171 243.25C496.741 246.15 496.851 248.87 496.851 248.87C496.851 248.87 500.181 244.09 502.841 244.91C505.501 245.73 506.901 248.87 506.901 248.87C506.901 248.87 509.701 245.9 512.061 246.89C513.251 247.39 517.471 248.91 521.381 250.3L521.371 250.31Z" fill="black"/>
</g>
<path d="M423.35 252.27C423.16 252.13 417.31 236.33 424.05 227.32C423.12 233.68 423.63 238.89 423.63 238.89L422.75 239.77L423.73 240.05C423.73 240.05 424.39 248.88 424.71 249.91C423.99 243.31 425.77 239.45 425.77 239.45C425.77 239.45 425.46 244.14 426.06 245.86L425.59 246.48L426.06 246.39C426.06 246.39 425.73 249.23 426.06 250.08C426.06 250.08 429.82 238.83 428.06 233.89C430.38 237.5 429.73 243.53 429.73 243.53L429.13 243.77L429.5 244.04C429.5 244.04 428.52 250.47 426.29 252.28" fill="#2F1829"/>
<g style="mix-blend-mode:overlay">
<path d="M196.64 247.13C196.64 247.13 167.38 227.39 150.24 229.22C160.67 224.14 186.13 233.11 186.13 233.11L187.14 235.36L187.86 234.07C187.86 234.07 192.95 234.2 199.19 236.63C174.16 215.62 157.81 213.58 157.81 213.58C157.81 213.58 165.35 212.16 175.31 214.38C185.27 216.6 190.11 220.54 190.11 220.54L192.37 224.51L193.62 222.27L218.64 247.47" fill="black"/>
</g>
<path d="M173.841 249.46C173.841 249.46 161.481 246.82 153.721 237.56C166.941 238.88 172.651 243.67 173.841 249.46Z" stroke="#1F3247" stroke-width="0.93" stroke-miterlimit="10"/>
<path d="M215.181 193.8C214.121 218.59 216.651 227.5 216.651 227.5L213.261 229.05C213.261 229.05 213.341 229.12 213.481 229.24C214.131 229.79 216.021 231.4 216.571 232.02C217.051 232.55 215.231 240.09 214.161 244.35C213.731 246.05 213.421 247.23 213.421 247.23L208.901 247.48L208.651 246.82L207.351 243.42C207.351 243.42 205.571 235.96 205.681 226.01C205.781 216.11 207.751 203.73 215.181 193.79V193.8Z" fill="#FFADAE"/>
<g style="mix-blend-mode:overlay" opacity="0.25">
<path d="M211.681 247.37C210.591 242.91 209.841 238.38 209.311 233.83C208.801 229.28 208.501 224.7 208.601 220.12C208.681 215.54 209.121 210.96 210.121 206.49C211.111 202.02 212.731 197.67 215.191 193.8C212.761 197.69 211.191 202.05 210.231 206.51C209.271 210.98 208.871 215.56 208.831 220.12C208.781 224.69 209.111 229.26 209.661 233.79C210.231 238.32 211.021 242.83 212.141 247.25C212.171 247.38 212.101 247.51 211.971 247.54C211.851 247.57 211.721 247.5 211.691 247.37H211.681Z" fill="white"/>
</g>
<g style="mix-blend-mode:overlay" opacity="0.25">
<path d="M216.571 232.02C217.051 232.55 215.231 240.09 214.161 244.35C212.151 245.4 210.181 246.23 208.651 246.82L207.351 243.42C207.351 243.42 205.571 235.96 205.681 226.01C207.711 227.22 210.681 228.75 213.481 229.23C214.131 229.78 216.021 231.39 216.571 232.01V232.02Z" fill="black"/>
</g>
<path d="M232.66 210.87C226.54 221.56 224.78 229.24 224.28 233.02C224.05 234.75 224.08 235.65 224.08 235.65H221.89L223.34 237.14L222.65 243.89L222.35 246.85L218.65 236.92C218.76 236.05 218.92 234.89 219.17 233.55C219.65 231.02 220.44 227.82 221.75 224.55C222.34 223.06 223.05 221.56 223.88 220.1C225.94 216.47 228.77 213.1 232.67 210.88L232.66 210.87Z" fill="#F3475C"/>
<g style="mix-blend-mode:overlay" opacity="0.25">
<path d="M219.901 240.92C219.901 238.09 220.241 235.31 220.771 232.55C221.311 229.8 222.111 227.1 223.151 224.5C224.161 221.89 225.511 219.41 227.091 217.11L228.311 215.41L229.681 213.82C229.911 213.56 230.131 213.29 230.371 213.03L231.131 212.31L232.651 210.87L231.151 212.33L230.401 213.06C230.171 213.32 229.951 213.59 229.721 213.86L228.371 215.46L227.171 217.18C225.631 219.5 224.321 221.98 223.351 224.59C222.351 227.19 221.601 229.88 221.101 232.62C220.611 235.35 220.321 238.15 220.351 240.91C220.351 241.05 220.251 241.16 220.121 241.16C219.991 241.16 219.891 241.06 219.891 240.93L219.901 240.92Z" fill="white"/>
</g>
<g style="mix-blend-mode:overlay" opacity="0.25">
<path d="M224.09 235.65H221.9L223.35 237.14L222.66 243.89L221.49 244.53L218.65 236.91C218.76 236.04 218.92 234.88 219.17 233.54C220.32 233.93 222.18 234.19 224.28 233.01C224.05 234.74 224.08 235.64 224.08 235.64L224.09 235.65Z" fill="black"/>
</g>
<path d="M253.68 250.23H241.26L187.28 250.29L171.24 250.31C171.24 250.31 172.56 245.99 178.84 244.01C185.12 242.03 186.93 246.13 186.93 246.13C186.93 246.13 186.59 237.92 194.04 235.09C201.48 232.27 204.78 241.69 204.78 241.69C204.78 241.69 206.26 237.05 214.19 236.65C222.12 236.25 221.3 242.44 221.3 242.44C221.3 242.44 225.76 237.42 233.86 238.57C241.95 239.71 242.78 246.13 242.78 246.13C242.78 246.13 249.88 244.06 253.68 250.23Z" fill="#982245"/>
<g style="mix-blend-mode:overlay" opacity="0.25">
<path d="M241.259 250.24L187.279 250.29C190.079 247.81 194.629 244.58 199.489 244.53C207.419 244.45 208.699 247.32 208.699 247.32C208.699 247.32 213.589 242.14 217.439 243.02C221.299 243.9 221.459 248.04 221.459 248.04C221.459 248.04 233.779 245.18 241.249 250.25L241.259 250.24Z" fill="black"/>
</g>
<path d="M262.601 253.68C262.601 253.68 253.621 237.8 256.321 222.37C258.961 234.42 265.411 242.44 265.411 242.44L262.771 244.53H265.411L271.031 255.24L263.421 253.68V254.41L262.601 253.68Z" fill="#2F1829"/>
</g>
<defs>
<linearGradient id="paint0_linear_1246_3" x1="327.22" y1="249.71" x2="329.87" y2="46.15" gradientUnits="userSpaceOnUse">
<stop stop-color="#E8D197"/>
<stop offset="1" stop-color="#FEF5DA"/>
</linearGradient>
<linearGradient id="paint1_linear_1246_3" x1="326.611" y1="147.14" x2="330.081" y2="241.31" gradientUnits="userSpaceOnUse">
<stop/>
<stop offset="1" stop-opacity="0"/>
</linearGradient>
<linearGradient id="paint2_linear_1246_3" x1="343.98" y1="63.39" x2="344.64" y2="86.52" gradientUnits="userSpaceOnUse">
<stop stop-color="white"/>
<stop offset="1" stop-color="white" stop-opacity="0"/>
</linearGradient>
<linearGradient id="paint3_linear_1246_3" x1="129.781" y1="25.36" x2="131.771" y2="76.25" gradientUnits="userSpaceOnUse">
<stop stop-color="white"/>
<stop offset="1" stop-color="white" stop-opacity="0"/>
</linearGradient>
<linearGradient id="paint4_linear_1246_3" x1="455.43" y1="228.45" x2="433.63" y2="40.5899" gradientUnits="userSpaceOnUse">
<stop stop-color="#E8D197"/>
<stop offset="1" stop-color="#FEF5DA"/>
</linearGradient>
<linearGradient id="paint5_linear_1246_3" x1="59.7606" y1="429.71" x2="23.0006" y2="113.1" gradientUnits="userSpaceOnUse">
<stop stop-color="#E8D197"/>
<stop offset="1" stop-color="#FEF5DA"/>
</linearGradient>
<linearGradient id="paint6_linear_1246_3" x1="196.99" y1="241.97" x2="195.67" y2="147.68" gradientUnits="userSpaceOnUse">
<stop stop-color="#2F1829"/>
<stop offset="1" stop-color="#3B223C"/>
</linearGradient>
<linearGradient id="paint7_linear_1246_3" x1="322.32" y1="240.21" x2="321" y2="145.92" gradientUnits="userSpaceOnUse">
<stop stop-color="#2F1829"/>
<stop offset="1" stop-color="#3B223C"/>
</linearGradient>
<linearGradient id="paint8_linear_1246_3" x1="447.141" y1="238.46" x2="445.821" y2="144.18" gradientUnits="userSpaceOnUse">
<stop stop-color="#2F1829"/>
<stop offset="1" stop-color="#3B223C"/>
</linearGradient>
<linearGradient id="paint9_linear_1246_3" x1="280.75" y1="72.6301" x2="291.99" y2="108.32" gradientUnits="userSpaceOnUse">
<stop stop-color="#2F1829"/>
<stop offset="1" stop-color="#3B223C"/>
</linearGradient>
<linearGradient id="paint10_linear_1246_3" x1="575.02" y1="235.78" x2="417.07" y2="125.41" gradientUnits="userSpaceOnUse">
<stop stop-color="white"/>
<stop offset="1" stop-color="white" stop-opacity="0"/>
</linearGradient>
<linearGradient id="paint11_linear_1246_3" x1="566.96" y1="246" x2="566.83" y2="238.28" gradientUnits="userSpaceOnUse">
<stop stop-color="#FECBA6"/>
<stop offset="1" stop-color="#D17878"/>
</linearGradient>
<linearGradient id="paint12_linear_1246_3" x1="529.41" y1="199.56" x2="553.97" y2="176.21" gradientUnits="userSpaceOnUse">
<stop stop-color="#FECBA6"/>
<stop offset="1" stop-color="#D17878"/>
</linearGradient>
<linearGradient id="paint13_linear_1246_3" x1="568.37" y1="208.64" x2="568.7" y2="181.99" gradientUnits="userSpaceOnUse">
<stop stop-color="#FECBA6"/>
<stop offset="1" stop-color="#D17878"/>
</linearGradient>
<linearGradient id="paint14_linear_1246_3" x1="552.031" y1="166.08" x2="557.731" y2="167.32" gradientUnits="userSpaceOnUse">
<stop stop-color="#FECBA6"/>
<stop offset="1" stop-color="#D17878"/>
</linearGradient>
<linearGradient id="paint15_linear_1246_3" x1="550.141" y1="250.19" x2="552.561" y2="238.57" gradientUnits="userSpaceOnUse">
<stop stop-color="#FECBA6"/>
<stop offset="1" stop-color="#D17878"/>
</linearGradient>
<linearGradient id="paint16_linear_1246_3" x1="75.2311" y1="235.78" x2="233.191" y2="125.41" gradientUnits="userSpaceOnUse">
<stop stop-color="white"/>
<stop offset="1" stop-color="white" stop-opacity="0"/>
</linearGradient>
<linearGradient id="paint17_linear_1246_3" x1="95.372" y1="163.07" x2="93.442" y2="173.7" gradientUnits="userSpaceOnUse">
<stop stop-color="#FECBA6"/>
<stop offset="1" stop-color="#D17878"/>
</linearGradient>
<linearGradient id="paint18_linear_1246_3" x1="123.951" y1="190.2" x2="112.801" y2="193.38" gradientUnits="userSpaceOnUse">
<stop stop-color="#FECBA6"/>
<stop offset="1" stop-color="#D17878"/>
</linearGradient>
<clipPath id="clip0_1246_3">
<rect width="634.88" height="322.85" fill="white"/>
</clipPath>
</defs>
</svg>
