<svg width="750" height="500" viewBox="0 0 750 500" fill="none" xmlns="http://www.w3.org/2000/svg">
<path d="M733.337 251.043C728.749 155.754 663.769 74.325 571.854 48.779C522.937 35.184 463.963 25.004 406.629 30.632C271.401 43.906 58.189 236.377 48.234 262.095C38.279 287.813 47.404 446.27 47.404 446.27H690.357C690.357 446.27 738.475 374.923 733.497 254.629C733.447 253.426 733.394 252.231 733.337 251.043Z" fill="#F1F2F4"/>
<path d="M628.787 322.96C628.787 322.96 626.451 329.385 621.486 330.261C616.521 331.137 607.76 321.5 613.309 316.535C618.858 311.57 626.451 319.456 628.787 322.96Z" fill="white" stroke="#263238" stroke-miterlimit="10" stroke-linecap="round" stroke-linejoin="round"/>
<path d="M636.38 291.419C636.38 291.419 629.079 309.234 631.999 317.995C634.919 326.756 653.026 333.181 658.283 321.792C663.54 310.402 651.858 294.34 647.477 290.835C643.097 287.33 637.841 288.499 636.38 291.419Z" fill="white" stroke="#263238" stroke-miterlimit="10" stroke-linecap="round" stroke-linejoin="round"/>
<path d="M679.019 299.012C679.019 299.012 666.461 310.402 665.001 321.792C663.541 333.182 672.01 337.27 680.772 335.81C689.533 334.35 693.914 312.154 691.286 301.933C688.657 291.711 679.019 299.012 679.019 299.012Z" fill="white" stroke="#263238" stroke-miterlimit="10" stroke-linecap="round" stroke-linejoin="round"/>
<path d="M681.356 362.094C681.356 362.094 667.338 362.678 666.754 369.395C666.17 376.112 672.887 377.572 679.604 371.731C686.321 365.89 687.196 362.386 681.356 362.094Z" fill="white" stroke="#263238" stroke-miterlimit="10" stroke-linecap="round" stroke-linejoin="round"/>
<path d="M646.602 376.113C646.602 376.113 645.142 383.122 639.885 385.75C634.628 388.379 625.283 382.83 630.247 374.36C635.212 365.891 643.974 372.608 646.602 376.113Z" fill="white" stroke="#263238" stroke-miterlimit="10" stroke-linecap="round" stroke-linejoin="round"/>
<path d="M634.336 354.209C634.336 354.209 631.708 348.368 621.486 352.165C611.264 355.962 607.176 361.803 613.601 363.847C620.026 365.891 634.336 354.209 634.336 354.209Z" fill="white" stroke="#263238" stroke-miterlimit="10" stroke-linecap="round" stroke-linejoin="round"/>
<path d="M663.541 284.118C663.541 284.118 665.293 288.207 668.798 287.331C672.302 286.455 673.179 281.198 678.728 282.658C684.277 284.118 688.95 290.543 688.95 287.623C688.95 284.702 681.941 277.109 674.056 277.109C666.169 277.109 663.833 280.321 663.541 284.118Z" fill="white" stroke="#263238" stroke-miterlimit="10" stroke-linecap="round" stroke-linejoin="round"/>
<path d="M649.093 328.23C649.093 328.23 655.202 346.122 656.512 361.396C657.821 376.67 656.512 401.108 656.512 401.108" stroke="#263238" stroke-miterlimit="10" stroke-linecap="round" stroke-linejoin="round"/>
<path d="M670.477 334.339C670.477 334.339 663.495 354.849 661.749 367.941C660.003 381.033 659.567 401.107 659.567 401.107" stroke="#263238" stroke-miterlimit="10" stroke-linecap="round" stroke-linejoin="round"/>
<path d="M666.985 370.996C666.985 370.996 663.93 371.869 662.185 401.543" stroke="#263238" stroke-miterlimit="10" stroke-linecap="round" stroke-linejoin="round"/>
<path d="M646.602 376.113C646.602 376.113 649.53 373.615 651.275 379.288C653.021 384.961 652.148 400.671 652.148 400.671" stroke="#263238" stroke-miterlimit="10" stroke-linecap="round" stroke-linejoin="round"/>
<path d="M654.153 373.301C656.436 386.094 654.33 400.234 654.33 400.234" stroke="#263238" stroke-miterlimit="10" stroke-linecap="round" stroke-linejoin="round"/>
<path d="M634.336 354.209C634.336 354.209 646.911 351.795 652.148 365.76C652.662 367.13 653.096 368.563 653.461 370.034" stroke="#263238" stroke-miterlimit="10" stroke-linecap="round" stroke-linejoin="round"/>
<path d="M686.818 340.681C686.818 340.681 689.447 334.84 699.668 338.637C709.89 342.434 713.978 348.275 707.553 350.319C701.129 352.363 686.818 340.681 686.818 340.681Z" fill="white" stroke="#263238" stroke-miterlimit="10" stroke-linecap="round" stroke-linejoin="round"/>
<path d="M675.639 343.239C673.111 344.969 670.683 347.761 669.006 352.232C663.769 366.196 664.367 400.671 664.367 400.671" stroke="#263238" stroke-miterlimit="10" stroke-linecap="round" stroke-linejoin="round"/>
<path d="M686.818 340.681C686.818 340.681 682.649 339.881 678.113 341.867" stroke="#263238" stroke-miterlimit="10" stroke-linecap="round" stroke-linejoin="round"/>
<path d="M642.56 331.869C645.288 335.072 647.933 339.403 649.966 345.249C656.948 365.323 659.567 391.07 658.258 400.671" stroke="#263238" stroke-miterlimit="10" stroke-linecap="round" stroke-linejoin="round"/>
<path d="M628.787 322.96C628.787 322.96 634.876 323.91 641.04 330.204" stroke="#263238" stroke-miterlimit="10" stroke-linecap="round" stroke-linejoin="round"/>
<path d="M660.292 350.655C659.867 375.99 659.566 401.107 659.566 401.107" stroke="#263238" stroke-miterlimit="10" stroke-linecap="round" stroke-linejoin="round"/>
<path d="M663.541 284.118C663.541 284.118 662.185 282.845 661.313 305.538C660.974 314.356 660.635 330.751 660.347 347.503" stroke="#263238" stroke-miterlimit="10" stroke-linecap="round" stroke-linejoin="round"/>
<path d="M672.144 445.619H646.553C643.81 445.619 641.516 443.537 641.251 440.807L637.311 400.235H681.387L677.447 440.807C677.181 443.537 674.886 445.619 672.144 445.619Z" fill="white" stroke="#263238" stroke-miterlimit="10" stroke-linecap="round" stroke-linejoin="round"/>
<path d="M638.625 413.763L639.091 418.563H679.606L680.072 413.763H638.625Z" fill="#263238" stroke="#263238" stroke-miterlimit="10" stroke-linecap="round" stroke-linejoin="round"/>
<path d="M678.589 429.036L678.843 426.418H639.854L640.108 429.036H678.589Z" fill="#263238" stroke="#263238" stroke-miterlimit="10" stroke-linecap="round" stroke-linejoin="round"/>
<path d="M675.277 411.58C677.205 411.58 678.768 410.017 678.768 408.089C678.768 406.161 677.205 404.598 675.277 404.598C673.349 404.598 671.786 406.161 671.786 408.089C671.786 410.017 673.349 411.58 675.277 411.58Z" fill="#263238" stroke="#263238" stroke-miterlimit="10" stroke-linecap="round" stroke-linejoin="round"/>
<path d="M643.857 411.581C645.785 411.581 647.348 410.018 647.348 408.09C647.348 406.162 645.785 404.599 643.857 404.599C641.929 404.599 640.366 406.162 640.366 408.09C640.366 410.018 641.929 411.581 643.857 411.581Z" fill="#263238" stroke="#263238" stroke-miterlimit="10" stroke-linecap="round" stroke-linejoin="round"/>
<path d="M650.839 408.089C650.839 410.017 652.402 411.58 654.33 411.58C656.258 411.58 657.821 410.017 657.821 408.089C657.821 406.161 656.258 404.598 654.33 404.598C652.402 404.598 650.839 406.161 650.839 408.089Z" fill="#263238" stroke="#263238" stroke-miterlimit="10" stroke-linecap="round" stroke-linejoin="round"/>
<path d="M664.803 411.58C666.731 411.58 668.294 410.017 668.294 408.089C668.294 406.161 666.731 404.598 664.803 404.598C662.875 404.598 661.312 406.161 661.312 408.089C661.312 410.017 662.875 411.58 664.803 411.58Z" fill="#263238" stroke="#263238" stroke-miterlimit="10" stroke-linecap="round" stroke-linejoin="round"/>
<path d="M94.67 70.9071L97.733 62.1541" stroke="#263238" stroke-miterlimit="10" stroke-linecap="round" stroke-linejoin="round"/>
<path d="M94.889 47.2749V79.8779" stroke="#263238" stroke-miterlimit="10" stroke-linecap="round" stroke-linejoin="round"/>
<path d="M89.872 64.1931C89.872 64.1931 85.33 59.2381 80.788 60.0641C76.246 60.8901 74.182 66.2581 74.182 69.5611C74.182 72.8641 78.724 83.6001 78.724 83.6001C78.724 83.6001 82.027 79.8841 89.459 74.5161C96.892 69.1481 97.305 63.7811 89.872 64.1931Z" fill="white" stroke="#263238" stroke-miterlimit="10" stroke-linecap="round" stroke-linejoin="round"/>
<path d="M89.872 64.1931C89.872 64.1931 84.091 67.0831 80.788 73.6901" stroke="#263238" stroke-miterlimit="10" stroke-linecap="round" stroke-linejoin="round"/>
<path d="M97.273 58.376C97.273 58.376 101.026 54.304 104.766 54.994C108.506 55.684 110.196 60.111 110.188 62.833C110.181 65.555 106.416 74.39 106.416 74.39C106.416 74.39 103.703 71.321 97.591 66.883C91.479 62.443 91.151 58.02 97.273 58.376Z" fill="white" stroke="#263238" stroke-miterlimit="10" stroke-linecap="round" stroke-linejoin="round"/>
<path d="M97.273 58.376C97.273 58.376 102.029 60.77 104.737 66.22" stroke="#263238" stroke-miterlimit="10" stroke-linecap="round" stroke-linejoin="round"/>
<path d="M94.232 52.9639L99.922 44.6489" stroke="#263238" stroke-miterlimit="10" stroke-linecap="round" stroke-linejoin="round"/>
<path d="M93.279 50.5599C93.279 50.5599 93.186 45.0229 89.934 43.0499C86.682 41.0769 82.476 43.2589 80.671 45.2959C78.866 47.3319 75.8 56.4339 75.8 56.4339C75.8 56.4339 79.867 55.9479 87.384 56.6989C94.9 57.4509 98.088 54.3659 93.279 50.5599Z" fill="white" stroke="#263238" stroke-miterlimit="10" stroke-linecap="round" stroke-linejoin="round"/>
<path d="M93.279 50.5599C93.279 50.5599 88.135 49.1829 82.488 51.4519" stroke="#263238" stroke-miterlimit="10" stroke-linecap="round" stroke-linejoin="round"/>
<path d="M98.171 43.138C98.171 43.138 98.24 39.062 100.633 37.61C103.027 36.158 106.123 37.764 107.451 39.263C108.78 40.762 111.037 47.462 111.037 47.462C111.037 47.462 108.043 47.104 102.51 47.657C96.977 48.21 94.631 45.939 98.171 43.138Z" fill="white" stroke="#263238" stroke-miterlimit="10" stroke-linecap="round" stroke-linejoin="round"/>
<path d="M98.171 43.1381C98.171 43.1381 101.957 42.1251 106.114 43.7951" stroke="#263238" stroke-miterlimit="10" stroke-linecap="round" stroke-linejoin="round"/>
<path d="M108.793 77.0801H79.463L82.435 107.616H105.821L108.793 77.0801Z" fill="#263238" stroke="#263238" stroke-miterlimit="10" stroke-linecap="round" stroke-linejoin="round"/>
<path d="M666.417 217.962H645.661C639.473 217.962 634.456 222.978 634.456 229.167V253.38H677.621V229.167C677.622 222.978 672.605 217.962 666.417 217.962Z" fill="#002C5B" stroke="#263238" stroke-miterlimit="10"/>
<path d="M677.621 248.583H634.456V253.379H677.621V248.583Z" fill="white" stroke="#263238" stroke-miterlimit="10"/>
<path d="M683.388 217.962H662.632C656.444 217.962 651.427 222.978 651.427 229.167V253.38H694.592V229.167C694.592 222.978 689.576 217.962 683.388 217.962Z" fill="#002C5B" stroke="#263238" stroke-miterlimit="10"/>
<path d="M694.592 248.583H651.427V253.379H694.592V248.583Z" fill="white" stroke="#263238" stroke-miterlimit="10"/>
<path d="M642.389 245.262C640.453 245.262 638.884 243.693 638.884 241.757V227.369C638.884 225.433 640.453 223.864 642.389 223.864C644.325 223.864 645.894 225.433 645.894 227.369V241.757C645.893 243.693 644.324 245.262 642.389 245.262Z" fill="white" stroke="#263238" stroke-miterlimit="10"/>
<path d="M645.524 232.35H638.514C637.495 232.35 636.669 231.524 636.669 230.505C636.669 229.486 637.495 228.66 638.514 228.66H645.524C646.543 228.66 647.369 229.486 647.369 230.505C647.369 231.524 646.543 232.35 645.524 232.35Z" fill="white" stroke="#263238" stroke-miterlimit="10"/>
<path d="M689.859 154.132L683.553 117.119L661.092 113.292C653.25 111.956 645.935 117.592 645.228 125.516L642.428 156.874H687.118L689.859 154.132Z" fill="white" stroke="#263238" stroke-miterlimit="10"/>
<path d="M656.41 121.277C656.41 123.523 658.231 125.344 660.477 125.344H673.884C675.59 125.344 676.973 123.961 676.973 122.255C676.973 120.722 675.849 119.421 674.332 119.199L661.067 117.253C658.612 116.893 656.41 118.796 656.41 121.277Z" fill="white" stroke="#263238" stroke-miterlimit="10"/>
<path d="M662.99 149.471L664.909 143.165H687.666" fill="white"/>
<path d="M662.99 149.471L664.909 143.165H687.666" stroke="#263238" stroke-miterlimit="10"/>
<path d="M671.213 147.552H649.966H628.719C628.719 147.552 628.496 157.482 632.212 168.424C633.667 172.71 637.647 173.598 640.749 173.598H649.966H659.183C662.285 173.598 666.265 172.71 667.72 168.424C671.435 157.482 671.213 147.552 671.213 147.552Z" fill="white" stroke="#263238" stroke-miterlimit="10"/>
<path d="M632.283 185.661H668.199V175.663C668.199 174.219 667.029 173.049 665.585 173.049H634.896C633.452 173.049 632.282 174.219 632.282 175.663V185.661H632.283Z" fill="white" stroke="#263238" stroke-miterlimit="10"/>
<path d="M680.4 147.552C675.557 147.552 671.506 151.232 671.043 156.053L668.199 185.661H692.6L689.756 156.053C689.294 151.232 685.243 147.552 680.4 147.552Z" fill="white" stroke="#263238" stroke-miterlimit="10"/>
<path d="M684.924 157.422C684.924 154.696 682.714 152.487 679.989 152.487C677.263 152.487 675.054 154.697 675.054 157.422C675.054 160.148 677.264 162.357 679.989 162.357C682.714 162.357 684.924 160.147 684.924 157.422Z" fill="#263238" stroke="#263238" stroke-miterlimit="10"/>
<path d="M571.537 298.581H544.14C543.115 298.581 542.238 297.844 542.062 296.833L540.647 288.702H575.031L573.616 296.833C573.44 297.844 572.563 298.581 571.537 298.581Z" fill="#263238" stroke="#263238" stroke-miterlimit="10"/>
<path d="M547.139 298.581H544.14V299.779H547.139V298.581Z" fill="#263238" stroke="#263238" stroke-miterlimit="10"/>
<path d="M559.348 298.581H556.349V299.779H559.348V298.581Z" fill="#263238" stroke="#263238" stroke-miterlimit="10"/>
<path d="M571.559 298.581H568.56V299.779H571.559V298.581Z" fill="#263238" stroke="#263238" stroke-miterlimit="10"/>
<path d="M577.751 218.673H537.926V296.809H577.751V218.673Z" fill="#ADADAD" stroke="#263238" stroke-miterlimit="10"/>
<path d="M577.751 286.93H537.926V296.808H577.751V286.93Z" fill="#ADADAD" stroke="#263238" stroke-miterlimit="10"/>
<path d="M574.068 286.93H541.609V296.808H574.068V286.93Z" fill="#DEDEDE" stroke="#263238" stroke-miterlimit="10"/>
<path d="M570.07 252.498H545.607L542.549 240.376H573.128L570.07 252.498Z" fill="#263238" stroke="#263238" stroke-miterlimit="10"/>
<path d="M577.751 218.673H537.926V245.621H577.751V218.673Z" fill="#ADADAD" stroke="#263238" stroke-miterlimit="10"/>
<path d="M574.398 218.673H541.28V245.621H574.398V218.673Z" fill="#DEDEDE" stroke="#263238" stroke-miterlimit="10"/>
<path d="M577.751 218.673H537.926V220.219H577.751V218.673Z" fill="white" stroke="#263238" stroke-miterlimit="10"/>
<path d="M537.926 224.514H578.016" stroke="#263238" stroke-miterlimit="10"/>
<path d="M562.883 231.948H553.723V238.718H562.883V231.948Z" fill="#F1F2F4" stroke="#263238" stroke-miterlimit="10"/>
<path d="M551.4 233.806H548.081C547.531 233.806 547.085 233.36 547.085 232.81C547.085 232.26 547.531 231.814 548.081 231.814H551.4C551.95 231.814 552.396 232.26 552.396 232.81C552.396 233.361 551.95 233.806 551.4 233.806Z" fill="white" stroke="#263238" stroke-miterlimit="10"/>
<path d="M551.4 238.32H548.081C547.531 238.32 547.085 237.874 547.085 237.324C547.085 236.774 547.531 236.328 548.081 236.328H551.4C551.95 236.328 552.396 236.774 552.396 237.324C552.396 237.874 551.95 238.32 551.4 238.32Z" fill="white" stroke="#263238" stroke-miterlimit="10"/>
<path d="M568.857 233.806H565.538C564.988 233.806 564.542 233.36 564.542 232.81C564.542 232.26 564.988 231.814 565.538 231.814H568.857C569.407 231.814 569.853 232.26 569.853 232.81C569.852 233.361 569.406 233.806 568.857 233.806Z" fill="white" stroke="#263238" stroke-miterlimit="10"/>
<path d="M568.857 238.32H565.538C564.988 238.32 564.542 237.874 564.542 237.324C564.542 236.774 564.988 236.328 565.538 236.328H568.857C569.407 236.328 569.853 236.774 569.853 237.324C569.852 237.874 569.406 238.32 568.857 238.32Z" fill="white" stroke="#263238" stroke-miterlimit="10"/>
<path d="M575.998 287.077C576.059 285.005 576.384 272.147 575.3 264.241C574.118 255.622 568.506 253.205 568.506 253.205H547.828C547.828 253.205 542.215 255.622 541.034 264.241C539.95 272.148 540.275 285.006 540.336 287.077H575.998Z" fill="#263238" stroke="#263238" stroke-miterlimit="10"/>
<path d="M574.299 260.196H542.036C542.901 257.886 544.099 256.266 545.179 255.172C546.606 253.731 547.828 253.202 547.828 253.202H568.506C568.506 253.202 569.729 253.731 571.156 255.172C572.236 256.267 573.434 257.886 574.299 260.196Z" fill="white" stroke="#263238" stroke-miterlimit="10"/>
<path d="M545.858 254.878H541.329L543.594 257.044L545.858 254.878Z" fill="#263238" stroke="#263238" stroke-miterlimit="10"/>
<path d="M571.156 255.172H545.179C546.606 253.731 547.828 253.202 547.828 253.202H568.506C568.506 253.202 569.729 253.731 571.156 255.172Z" fill="#263238" stroke="#263238" stroke-miterlimit="10"/>
<path d="M581.897 256.256H572.111C572.901 257.258 573.682 258.552 574.298 260.195C575.829 260.195 578.021 260.195 579.436 260.195C581.799 260.195 582.488 262.263 582.488 262.263V279.199C582.488 281.267 580.322 280.873 580.322 280.873L576.091 280.281C576.091 282.046 576.072 283.607 576.05 284.812C577.041 284.812 579.102 284.812 581.799 284.812C585.639 284.812 587.116 280.775 587.116 280.775C587.116 280.775 587.116 265.316 587.116 261.18C587.116 257.044 581.897 256.256 581.897 256.256Z" fill="white" stroke="#263238" stroke-miterlimit="10"/>
<path d="M512.295 293.696V295.312C512.295 296.024 511.718 296.601 511.006 296.601H479.121C478.409 296.601 477.832 296.024 477.832 295.312V293.696L483.342 273.959L484.076 269.764L485.417 262.109L485.744 260.234H504.377L504.704 262.109L506.048 269.764L506.782 273.959L512.295 293.696Z" fill="#263238" stroke="#263238" stroke-miterlimit="10"/>
<path d="M506.05 269.764H484.077L485.418 262.109H504.706L506.05 269.764Z" fill="#F1F2F4" stroke="#263238" stroke-miterlimit="10"/>
<path d="M494.873 287.947C497.501 287.947 499.631 285.817 499.631 283.189C499.631 280.561 497.501 278.431 494.873 278.431C492.245 278.431 490.115 280.561 490.115 283.189C490.115 285.817 492.245 287.947 494.873 287.947Z" fill="white" stroke="#263238" stroke-miterlimit="10"/>
<path d="M497.922 283.189C497.922 281.505 496.557 280.141 494.874 280.141C493.191 280.141 491.826 281.506 491.826 283.189C491.826 284.872 493.191 286.237 494.874 286.237C496.557 286.237 497.922 284.873 497.922 283.189Z" fill="#F1F2F4" stroke="#263238" stroke-miterlimit="10"/>
<path d="M483.199 296.555H480.734V298.695H483.199V296.555Z" fill="#263238" stroke="#263238" stroke-miterlimit="10"/>
<path d="M508.736 296.555H506.271V298.695H508.736V296.555Z" fill="#263238" stroke="#263238" stroke-miterlimit="10"/>
<path d="M507.91 224.753H479.426L481.393 227.375L484.274 253.555C484.536 255.933 485.345 258.218 486.639 260.23H503.03L503.529 259.27C504.45 257.498 505.02 255.565 505.206 253.577L507.91 224.753Z" fill="white" stroke="#263238" stroke-miterlimit="10"/>
<path d="M501.104 222.567H487.033C486.502 222.567 485.993 222.779 485.62 223.157L484.237 224.556H503.9L502.517 223.157C502.143 222.779 501.635 222.567 501.104 222.567Z" fill="#263238" stroke="#263238" stroke-miterlimit="10"/>
<path d="M508.712 224.425H479.426V224.753H508.712V224.425Z" fill="#263238" stroke="#263238" stroke-miterlimit="10"/>
<path d="M499.449 220.994H490.201V222.571H499.449V220.994Z" stroke="#263238" stroke-miterlimit="10"/>
<path d="M481.885 229.217H507.17" stroke="#263238" stroke-miterlimit="10"/>
<path d="M513.124 232.752L508.847 231.192L507.465 229.638L507.364 230.651L507.357 230.648L507.246 231.827L506.949 234.792C506.949 234.792 507.426 233.574 508.733 233.117L512.49 234.487C512.868 234.625 513.122 234.988 513.122 235.39V246.461C513.122 247.236 512.838 247.981 512.323 248.559C512.015 248.905 511.626 249.183 511.199 249.363L507.293 251.016C506.207 250.893 505.587 249.85 505.587 249.85L504.961 255.152C505.221 254.431 505.998 253.712 506.323 253.433L511.92 251.064C512.597 250.778 513.213 250.336 513.702 249.788C514.52 248.871 514.97 247.689 514.97 246.46V235.389C514.971 234.215 514.228 233.155 513.124 232.752Z" fill="white" stroke="#263238" stroke-miterlimit="10"/>
<path d="M487.105 231.059L488.936 256.695" stroke="#263238" stroke-width="0.5" stroke-miterlimit="10"/>
<path d="M486.426 231.648C486.426 231.648 484.947 248.83 488.247 255.998" stroke="#263238" stroke-width="0.5" stroke-miterlimit="10"/>
<path d="M488.076 231.591C488.076 231.591 490.124 248.431 489.498 255.771" stroke="#263238" stroke-width="0.5" stroke-miterlimit="10"/>
<path d="M502.787 231.059L500.956 256.695" stroke="#263238" stroke-width="0.5" stroke-miterlimit="10"/>
<path d="M502.594 231.648C502.594 231.648 504.073 248.83 500.773 255.998" stroke="#263238" stroke-width="0.5" stroke-miterlimit="10"/>
<path d="M500.944 231.591C500.944 231.591 498.896 248.431 499.522 255.771" stroke="#263238" stroke-width="0.5" stroke-miterlimit="10"/>
<path d="M491.091 235.915L491.433 255.372" stroke="#263238" stroke-width="0.5" stroke-miterlimit="10"/>
<path d="M496.212 235.915L495.87 255.372" stroke="#263238" stroke-width="0.5" stroke-miterlimit="10"/>
<path d="M361.353 295.112H360.397C359.355 295.112 358.51 294.267 358.51 293.225V292.076C358.51 291.034 359.355 290.189 360.397 290.189H361.353C362.395 290.189 363.24 291.034 363.24 292.076V293.225C363.24 294.267 362.395 295.112 361.353 295.112Z" fill="#263238" stroke="#263238" stroke-miterlimit="10"/>
<path d="M387.323 295.112H386.367C385.325 295.112 384.48 294.267 384.48 293.225V292.076C384.48 291.034 385.325 290.189 386.367 290.189H387.323C388.365 290.189 389.21 291.034 389.21 292.076V293.225C389.21 294.267 388.365 295.112 387.323 295.112Z" fill="#263238" stroke="#263238" stroke-miterlimit="10"/>
<path d="M373.908 259.681L351.462 259.488C351.462 259.488 351.514 259.837 351.721 260.26C352.239 261.322 351.721 268.949 352.498 275.803C353.275 282.657 354.225 288.546 356.469 290.188C359.96 292.74 364.362 293.593 368.592 293.884C373.014 294.188 377.744 294.284 382.109 293.471C385.735 292.795 389.102 291.83 391.347 290.189C393.592 288.548 394.541 282.659 395.318 275.804C396.095 268.949 395.577 261.323 396.095 260.261C396.302 259.837 396.354 259.489 396.354 259.489L373.908 259.681Z" fill="white" stroke="#263238" stroke-miterlimit="10"/>
<path d="M351.848 265.377C351.848 265.377 345.283 264.991 344.511 266.729C343.739 268.467 346.925 268.37 348.276 268.756C349.628 269.142 351.945 270.301 351.945 270.301L351.848 265.377Z" fill="#263238" stroke="#263238" stroke-miterlimit="10"/>
<path d="M396.258 265.377C396.258 265.377 402.823 264.991 403.595 266.729C404.367 268.467 401.181 268.37 399.83 268.756C398.478 269.142 396.161 270.301 396.161 270.301L396.258 265.377Z" fill="#263238" stroke="#263238" stroke-miterlimit="10"/>
<path d="M379.634 250.027H368.145C367.505 250.027 366.986 249.508 366.986 248.868C366.986 248.228 367.505 247.71 368.145 247.71H379.634C380.274 247.71 380.793 248.229 380.793 248.868C380.793 249.508 380.274 250.027 379.634 250.027Z" fill="#263238" stroke="#263238" stroke-miterlimit="10"/>
<path d="M378.427 253.116H369.352V254.178H378.427V253.116Z" fill="#263238" stroke="#263238" stroke-miterlimit="10"/>
<path d="M376.568 250.22L374.108 250.138V250.123L373.89 250.13L373.672 250.123V250.138L371.212 250.22C371.212 250.22 372.033 251.33 370.633 252.73H373.673H374.109H377.149C375.747 251.33 376.568 250.22 376.568 250.22Z" fill="#263238" stroke="#263238" stroke-miterlimit="10"/>
<path d="M353.638 256.013C353.638 256.013 352.777 254.661 369.352 254.179H382.548C382.548 254.179 388.962 253.986 393.913 256.013V257.751H353.103L353.638 256.013Z" stroke="#263238" stroke-miterlimit="10"/>
<path d="M350.603 257.685L349.465 259.488H398.316L396.786 257.448C396.108 256.544 395.044 256.012 393.914 256.012H353.638C352.406 256.013 351.261 256.644 350.603 257.685Z" fill="#263238" stroke="#263238" stroke-miterlimit="10"/>
<path d="M375.444 292.023H373.241C370.437 292.023 368.164 289.75 368.164 286.946V278.178C368.164 275.374 370.437 273.101 373.241 273.101H375.444C378.248 273.101 380.521 275.374 380.521 278.178V286.946C380.521 289.75 378.248 292.023 375.444 292.023Z" fill="#263238" stroke="#263238" stroke-miterlimit="10"/>
<path d="M376.814 290.092H372.451C371.47 290.092 370.674 289.297 370.674 288.315V287.041C370.674 286.06 371.469 285.264 372.451 285.264H376.814C377.795 285.264 378.591 286.059 378.591 287.041V288.315C378.59 289.297 377.795 290.092 376.814 290.092Z" fill="#6B6B6B" stroke="#263238" stroke-miterlimit="10"/>
<path d="M336.2 307.609H204.238V446.27H336.2V307.609Z" fill="#A6A6A6" stroke="#263238" stroke-miterlimit="10"/>
<path d="M274.496 307.212H265.943V438.644H274.496V307.212Z" fill="#616161" stroke="#263238" stroke-miterlimit="10"/>
<path d="M274.496 300.002H265.943V307.212H274.496V300.002Z" fill="white" stroke="#263238" stroke-miterlimit="10"/>
<path d="M336.2 300.002H204.238V307.609H336.2V300.002Z" fill="#A6A6A6" stroke="#263238" stroke-miterlimit="10"/>
<path d="M336.2 439.042H204.238V446.271H336.2V439.042Z" fill="#A6A6A6" stroke="#263238" stroke-miterlimit="10"/>
<path d="M336.2 438.645H204.238V439.042H336.2V438.645Z" fill="#A6A6A6" stroke="#263238" stroke-miterlimit="10"/>
<path d="M283.678 357.004V318.484H281.116V357.004H283.678Z" fill="white" stroke="#263238" stroke-miterlimit="10"/>
<path d="M260.311 357.003V318.483H257.749V357.003H260.311Z" fill="white" stroke="#263238" stroke-miterlimit="10"/>
<path d="M271.275 261.437C270.237 261.437 269.396 262.278 269.396 263.316V299.886H273.154V263.316C273.154 262.278 272.312 261.437 271.275 261.437Z" fill="white" stroke="#263238" stroke-miterlimit="10"/>
<path d="M271.275 261.437C270.237 261.437 269.396 262.278 269.396 263.316V275.892H273.154V263.316C273.154 262.278 272.312 261.437 271.275 261.437Z" fill="white" stroke="#263238" stroke-miterlimit="10"/>
<path d="M260.876 292.37H254.787L254.073 299.886H261.59L260.876 292.37Z" fill="white" stroke="#263238" stroke-miterlimit="10"/>
<path d="M259.167 292.37H256.496L256.183 299.886H259.48L259.167 292.37Z" fill="white" stroke="#263238" stroke-miterlimit="10"/>
<path d="M288.734 292.37H282.645L281.931 299.886H289.448L288.734 292.37Z" fill="white" stroke="#263238" stroke-miterlimit="10"/>
<path d="M287.025 292.37H284.354L284.041 299.886H287.338L287.025 292.37Z" fill="white" stroke="#263238" stroke-miterlimit="10"/>
<path d="M716.989 185.497H610.433V191.218H716.989V185.497Z" fill="#A6A6A6" stroke="#263238" stroke-miterlimit="10"/>
<path d="M716.989 253.383H610.433V259.104H716.989V253.383Z" fill="#A6A6A6" stroke="#263238" stroke-miterlimit="10"/>
<path d="M595.183 307.609H463.22V446.27H595.183V307.609Z" fill="#A6A6A6" stroke="#263238" stroke-miterlimit="10"/>
<path d="M595.183 307.609H463.22V378.201H595.183V307.609Z" fill="#A6A6A6" stroke="#263238" stroke-miterlimit="10"/>
<path d="M595.183 307.609H463.22V341.359H595.183V307.609Z" fill="#A6A6A6" stroke="#263238" stroke-miterlimit="10"/>
<path d="M595.182 307.609H528.958V446.27H595.182V307.609Z" fill="#A6A6A6" stroke="#263238" stroke-miterlimit="10"/>
<path d="M595.183 300.002H463.22V307.609H595.183V300.002Z" fill="#A6A6A6" stroke="#263238" stroke-miterlimit="10"/>
<path d="M515.605 321.611H477.085V324.173H515.605V321.611Z" fill="white" stroke="#263238" stroke-miterlimit="10"/>
<path d="M515.605 357.843H477.085V360.405H515.605V357.843Z" fill="white" stroke="#263238" stroke-miterlimit="10"/>
<path d="M522.38 433.179V394.659H519.818V433.179H522.38Z" fill="white" stroke="#263238" stroke-miterlimit="10"/>
<path d="M537.802 357.004V318.484H535.24V357.004H537.802Z" fill="white" stroke="#263238" stroke-miterlimit="10"/>
<path d="M466.877 90.646H334.914V192.187H466.877V90.646Z" fill="#A6A6A6" stroke="#263238" stroke-miterlimit="10"/>
<path d="M403.241 92.4751H398.55V191.403H403.241V92.4751Z" fill="#616161" stroke="#263238" stroke-miterlimit="10"/>
<path d="M598.598 90.646H466.636V204.993H598.598V90.646Z" fill="#A6A6A6" stroke="#263238" stroke-miterlimit="10"/>
<path d="M593.519 90.646H471.715V204.993H593.519V90.646Z" fill="#616161" stroke="#263238" stroke-miterlimit="10"/>
<path d="M598.598 198.198H466.636V204.993H598.598V198.198Z" fill="#A6A6A6" stroke="#263238" stroke-miterlimit="10"/>
<path d="M598.598 90.646H466.636V157.427H598.598V90.646Z" fill="#A6A6A6" stroke="#263238" stroke-miterlimit="10"/>
<path d="M589.323 99.2429H475.91V148.831H589.323V99.2429Z" fill="#616161" stroke="#263238" stroke-miterlimit="10"/>
<path d="M335.155 90.646H203.193V204.993H335.155V90.646Z" fill="#A6A6A6" stroke="#263238" stroke-miterlimit="10"/>
<path d="M271.519 92.731H266.828V204.099H271.519V92.731Z" fill="#616161" stroke="#263238" stroke-miterlimit="10"/>
<path d="M283.677 175.625V137.105H281.115V175.625H283.677Z" fill="white" stroke="#263238" stroke-miterlimit="10"/>
<path d="M393.544 167.279V128.759H390.982V167.279H393.544Z" fill="white" stroke="#263238" stroke-miterlimit="10"/>
<path d="M411.317 167.279V128.759H408.755V167.279H411.317Z" fill="white" stroke="#263238" stroke-miterlimit="10"/>
<path d="M513.357 154.004H551.877V151.442H513.357V154.004Z" fill="white" stroke="#263238" stroke-miterlimit="10"/>
<path d="M260.311 175.625V137.105H257.749V175.625H260.311Z" fill="white" stroke="#263238" stroke-miterlimit="10"/>
<path d="M600.3 87.385H202.522V96.271H600.3V87.385Z" fill="#A6A6A6" stroke="#263238" stroke-miterlimit="10"/>
<path d="M503.22 160.232H497.85V198.329H503.22V160.232Z" fill="white" stroke="#263238" stroke-miterlimit="10"/>
<path d="M568.938 160.232H563.453V198.329H568.938V160.232Z" fill="white" stroke="#263238" stroke-miterlimit="10"/>
<path d="M568.938 160.232H497.85V196.299H568.938V160.232Z" fill="white" stroke="#263238" stroke-miterlimit="10"/>
<path d="M549.175 165.254H497.85V191.275H549.175V165.254Z" fill="#263238" stroke="#002C5B" stroke-miterlimit="10"/>
<path d="M566.984 165.254H552.832V191.275H566.984V165.254Z" fill="#F1F2F4" stroke="#263238" stroke-miterlimit="10"/>
<path d="M557.315 177.181H554.331V180.165H557.315V177.181Z" fill="white" stroke="#263238" stroke-miterlimit="10"/>
<path d="M561.293 177.181H558.309V180.165H561.293V177.181Z" fill="white" stroke="#263238" stroke-miterlimit="10"/>
<path d="M565.272 177.181H562.288V180.165H565.272V177.181Z" fill="white" stroke="#263238" stroke-miterlimit="10"/>
<path d="M557.315 181.469H554.331V184.453H557.315V181.469Z" fill="white" stroke="#263238" stroke-miterlimit="10"/>
<path d="M561.293 181.469H558.309V184.453H561.293V181.469Z" fill="white" stroke="#263238" stroke-miterlimit="10"/>
<path d="M565.272 181.469H562.288V184.453H565.272V181.469Z" fill="white" stroke="#263238" stroke-miterlimit="10"/>
<path d="M557.315 185.757H554.331V188.741H557.315V185.757Z" fill="white" stroke="#263238" stroke-miterlimit="10"/>
<path d="M561.293 185.757H558.309V188.741H561.293V185.757Z" fill="white" stroke="#263238" stroke-miterlimit="10"/>
<path d="M565.272 185.757H562.288V188.741H565.272V185.757Z" fill="white" stroke="#263238" stroke-miterlimit="10"/>
<path d="M549.504 160.661V196.553" stroke="#263238" stroke-miterlimit="10"/>
<path d="M463.371 209.37H336.275V355.34H463.371V209.37Z" stroke="#263238" stroke-miterlimit="10"/>
<path d="M463.371 209.37H336.275V213.33H463.371V209.37Z" fill="#263238" stroke="#263238" stroke-miterlimit="10"/>
<path d="M350.078 438.691H336.275V446.272H350.078V438.691Z" fill="#263238" stroke="#263238" stroke-miterlimit="10"/>
<path d="M463.371 438.691H449.592V446.272H463.371V438.691Z" fill="#263238" stroke="#263238" stroke-miterlimit="10"/>
<path d="M463.371 296.155H336.275V442.125H463.371V296.155Z" fill="white" stroke="#263238" stroke-miterlimit="10"/>
<path d="M463.371 310.659H336.275V413.272H463.371V310.659Z" fill="#002C5B" stroke="#263238" stroke-miterlimit="10"/>
<path d="M451.211 318.192H348.435V325.604H451.211V318.192Z" fill="white" stroke="#263238" stroke-miterlimit="10"/>
<path d="M413.929 417.571H385.718V422.404H413.929V417.571Z" fill="#002C5B"/>
<path d="M363.797 303.264C363.797 300.747 361.757 298.708 359.24 298.708C356.724 298.708 354.684 300.748 354.684 303.264C354.684 305.78 356.724 307.821 359.24 307.821C361.757 307.821 363.797 305.781 363.797 303.264Z" fill="#263238" stroke="#263238" stroke-miterlimit="10"/>
<path d="M380.03 303.264C380.03 300.747 377.99 298.708 375.474 298.708C372.958 298.708 370.918 300.748 370.918 303.264C370.918 305.78 372.958 307.821 375.474 307.821C377.99 307.821 380.03 305.781 380.03 303.264Z" fill="#263238" stroke="#263238" stroke-miterlimit="10"/>
<path d="M396.263 303.264C396.263 300.747 394.223 298.708 391.707 298.708C389.191 298.708 387.151 300.748 387.151 303.264C387.151 305.78 389.191 307.821 391.707 307.821C394.223 307.821 396.263 305.781 396.263 303.264Z" fill="#263238" stroke="#263238" stroke-miterlimit="10"/>
<path d="M412.496 303.264C412.496 300.747 410.456 298.708 407.939 298.708C405.423 298.708 403.383 300.748 403.383 303.264C403.383 305.78 405.423 307.821 407.939 307.821C410.456 307.821 412.496 305.781 412.496 303.264Z" fill="#263238" stroke="#263238" stroke-miterlimit="10"/>
<path d="M428.729 303.264C428.729 300.747 426.689 298.708 424.173 298.708C421.657 298.708 419.617 300.748 419.617 303.264C419.617 305.78 421.657 307.821 424.173 307.821C426.689 307.821 428.729 305.781 428.729 303.264Z" fill="#263238" stroke="#263238" stroke-miterlimit="10"/>
<path d="M444.962 303.264C444.962 300.747 442.922 298.708 440.406 298.708C437.889 298.708 435.849 300.748 435.849 303.264C435.849 305.78 437.889 307.821 440.406 307.821C442.922 307.821 444.962 305.781 444.962 303.264Z" fill="#263238" stroke="#263238" stroke-miterlimit="10"/>
<path d="M406.313 227.09H393.332V231.041H406.313V227.09Z" stroke="#263238" stroke-miterlimit="10"/>
<path d="M197.122 446.27H61.492C60.483 446.27 59.666 445.452 59.666 444.444V108.849C59.666 108.243 60.158 107.751 60.764 107.751H197.85C198.457 107.751 198.948 108.243 198.948 108.849V444.445C198.948 445.453 198.131 446.27 197.122 446.27Z" fill="#DEDEDE" stroke="#263238" stroke-miterlimit="10"/>
<path d="M129.307 278.361V445.915" stroke="#263238" stroke-miterlimit="10"/>
<path d="M129.307 107.395V272.385" stroke="#263238" stroke-miterlimit="10"/>
<path d="M68.894 278.259H192.445C193.996 278.259 195.253 277.002 195.253 275.451C195.253 273.9 193.996 272.643 192.445 272.643H68.894C67.343 272.643 66.086 273.9 66.086 275.451C66.086 277.002 67.343 278.259 68.894 278.259Z" fill="white" stroke="#263238" stroke-miterlimit="10"/>
<path d="M184.359 140.285H144.675V217.294H184.359V140.285Z" fill="#263238" stroke="#263238" stroke-miterlimit="10"/>
<path d="M181.247 146.324H147.788V188.415H181.247V146.324Z" fill="white" stroke="#263238" stroke-miterlimit="10"/>
<path d="M110.095 198.18H74.709V249.165H110.095V198.18Z" fill="white" stroke="#263238" stroke-miterlimit="10"/>
<path d="M103.677 198.18H81.128V249.165H103.677V198.18Z" fill="#263238" stroke="#263238" stroke-miterlimit="10"/>
<path d="M103.677 198.18H81.128V213.959H103.677V198.18Z" fill="white" stroke="#263238" stroke-miterlimit="10"/>
<path d="M16.173 446.27H727.227" stroke="#263238" stroke-miterlimit="10"/>
</svg>
