<svg width="112" height="57" viewBox="0 0 112 57" fill="none" xmlns="http://www.w3.org/2000/svg">
<path fillRule="evenodd" clipRule="evenodd" d="M1.01947 23.3345C1.11214 23.3634 1.15288 23.559 1.09518 23.7444C1.03171 23.9482 1.05514 24.1995 1.1305 24.2839C1.24992 24.4228 1.19676 24.5282 0.990791 24.6674C0.809124 24.7938 0.761745 24.8807 0.860184 24.891C0.958623 24.9013 1.06406 24.9545 1.11389 24.9903C1.43264 25.2725 4.22302 26.0396 4.65717 25.9511C4.95126 25.9207 5.23382 25.9273 5.30917 26.0118C5.38453 26.0962 5.58719 26.0983 5.77008 26.0333C5.95297 25.9682 6.17415 25.9761 6.24951 26.0606C6.3191 26.1636 6.55759 26.1158 6.73926 25.9894C6.951 25.8317 7.30646 25.8001 7.6899 25.9398C8.01774 26.0622 8.3559 26.0861 8.44035 26.0107C8.51903 25.9539 8.82012 25.9663 9.09813 26.0529C9.37613 26.1394 9.68998 26.1762 9.79297 26.1066C9.89018 26.0555 10.2839 26.0968 10.6546 26.2122C11.0496 26.3148 11.5303 26.4035 11.7514 26.4113C11.9726 26.4192 12.7902 26.4704 13.5777 26.553C14.3525 26.6112 15.2557 26.6484 15.5869 26.6295C15.8995 26.6049 16.4218 26.6252 16.7484 26.6862C17.0565 26.7414 17.5371 26.8301 17.8139 26.8553C18.0907 26.8805 18.6941 26.9666 19.1562 27.0495C19.6369 27.1382 20.1406 27.1527 20.2807 27.0946C20.4393 27.0423 20.5991 27.0515 20.6374 27.1244C20.6699 27.2158 20.8795 27.2607 21.0879 27.2443C21.3021 27.2093 21.6831 27.2263 21.9541 27.27C22.2252 27.3137 22.5818 27.3434 22.7532 27.3155C22.9188 27.306 23.2755 27.3357 23.5407 27.398C23.8117 27.4417 24.378 27.5164 24.8204 27.5321C25.2628 27.5479 26.3328 27.637 27.2003 27.7241C28.0619 27.8297 29.0578 27.8958 29.4018 27.9012C29.7515 27.8881 30.312 27.9813 30.6642 28.0909C31.0163 28.2006 31.6568 28.2983 32.1119 28.3383C32.567 28.3784 33.2318 28.4634 33.6198 28.5232C33.9835 28.5957 34.4872 28.6102 34.7257 28.5625C34.9642 28.5148 35.7089 28.6043 36.3691 28.7692C37.0166 28.9098 37.8181 29.078 38.1504 29.1204C39.2703 29.2455 40.1135 29.3453 40.2177 29.3371C40.8569 29.3734 42.8652 29.714 44.4682 30.0505C45.1585 30.184 46.1371 30.3057 46.6652 30.3075C47.199 30.2907 47.7653 30.3654 47.9391 30.4601C48.1187 30.5364 48.3712 30.5743 48.4997 30.5533C48.634 30.5138 49.4285 30.6392 50.2427 30.8317C51.057 31.0242 51.994 31.2143 52.3264 31.2567C52.6345 31.312 53.5657 31.5206 54.3557 31.7259C55.1699 31.9184 55.9401 32.0565 56.0987 32.0042C56.2515 31.9705 56.5897 31.9944 56.8549 32.0567C58.348 32.4198 60.6042 32.8783 62.0392 33.1014C62.9506 33.2429 64.1657 33.5195 64.7344 33.7169C65.309 33.8957 65.8082 33.9902 65.8313 33.916C65.8543 33.8419 66.1509 33.9342 66.5042 34.1052C66.9074 34.3121 67.2155 34.3673 67.3358 34.2421C67.5776 34.0531 72.3001 35.3403 72.2251 35.5813C72.1962 35.6739 72.3087 35.7699 72.4569 35.8161C72.6052 35.8622 72.758 35.8285 72.7869 35.7358C72.8099 35.6617 73.2037 35.703 73.6485 35.8414C74.2601 36.0319 74.4282 36.1452 74.2905 36.326C74.1645 36.4697 74.2271 36.5298 74.4911 36.5307C74.7327 36.5382 74.7274 36.5771 74.475 36.6477C74.1636 36.7337 74.0153 36.6875 73.9132 36.4931C73.7345 36.1529 73.3083 36.0201 73.2332 36.2611C73.2044 36.3537 73.3226 36.4312 73.4882 36.4218C73.6595 36.3938 73.7777 36.4712 73.7431 36.5825C73.6508 36.879 72.993 36.8369 72.9255 36.5312C72.886 36.3969 72.9252 36.2058 73.0096 36.1305C73.0941 36.0551 72.9586 36.0332 72.7201 36.081C72.4816 36.1287 72.1842 36.3004 72.0466 36.4812C71.8315 36.7802 70.999 36.9073 71.0914 36.6108C71.1144 36.5366 71.0251 36.3665 70.8756 36.259C70.645 36.0855 70.6207 36.0983 70.7495 36.4027C70.8656 36.6828 70.8055 36.7454 70.3701 36.7725C70.0818 36.7844 69.681 36.7003 69.4759 36.5755C69.221 36.4148 68.9941 36.4254 68.8194 36.5947C68.6748 36.7326 68.3935 36.7874 68.1896 36.7239C67.9857 36.6604 67.6974 36.6723 67.5388 36.7246C67.3745 36.7954 67.0515 36.9185 66.8015 37.0033C66.3686 37.1531 66.3871 37.1589 66.958 37.1537L67.5717 37.1414L67.0172 37.3551C66.7001 37.4596 66.3446 37.4913 66.2322 37.3953C66.1012 37.2935 65.9912 37.3203 65.9821 37.4801C65.9788 37.6214 65.8701 37.7095 65.7716 37.6992C65.6604 37.6646 65.452 37.681 65.2749 37.7275C65.0492 37.7996 65.0236 37.7509 65.1925 37.6002C65.3314 37.4808 65.16 37.5088 64.8313 37.6504C64.5153 37.8163 64.0684 37.8805 63.8646 37.817C63.4197 37.6785 62.3701 38.3073 62.3902 38.6999C62.4055 38.8469 62.1439 38.9687 61.807 39.0062C61.1389 39.0625 60.7376 39.5678 60.8668 40.1976C60.91 40.516 60.8696 40.6457 60.6439 40.7178C60.4482 40.7585 60.5351 40.8059 60.8733 40.8298C61.23 40.8596 61.4038 40.9543 61.3576 41.1026C61.323 41.2138 61.3798 41.2925 61.4712 41.26C61.5812 41.2332 61.5676 41.4729 61.4267 41.795C61.0467 42.7542 61.1187 42.9799 61.823 43.1992C62.2308 43.3261 62.5006 43.3085 62.5467 43.1602C62.5871 43.0305 62.7515 42.9596 62.9183 43.0116C63.0666 43.0577 63.1361 43.1607 63.0575 43.2176C62.9973 43.2801 63.0669 43.3831 63.2279 43.4536C63.4075 43.5298 63.6369 43.6419 63.7736 43.7251C63.9104 43.8084 64.1349 43.6749 64.2898 43.4386L64.5452 43.0098L64.5666 43.4637C64.5636 43.9304 64.7201 44.0808 65.0303 43.9334C65.1089 43.8766 65.373 43.8774 65.6069 43.9096C65.8409 43.9418 66.1106 43.9241 66.1951 43.8488C66.2795 43.7734 66.6906 43.7591 67.1214 43.8119C67.5523 43.8647 67.9946 43.8804 68.1289 43.8409C68.2389 43.8142 68.423 43.8105 68.54 43.8266C68.6384 43.8369 69.2591 43.8675 69.9099 43.8668C70.5735 43.8904 71.2926 43.9313 71.508 43.9577C71.742 43.9899 72.4368 44.0435 73.039 44.0684C73.6412 44.0932 74.8583 44.1672 75.7257 44.2542C76.5989 44.3228 78.2954 44.424 79.5125 44.498C80.7169 44.5476 81.8784 44.6043 82.0567 44.6192C86.3218 44.8288 90.3505 44.8835 91.6982 44.7339C92.078 44.6895 92.5389 44.711 92.7242 44.7687C92.9095 44.8264 93.1307 44.8342 93.2279 44.7832C93.3066 44.7263 93.5336 44.7157 93.6876 44.7433C93.8602 44.7767 94.3384 44.7426 94.7668 44.6727C95.1951 44.6027 95.6363 44.5571 95.759 44.5547C96.5152 44.6071 98.0541 44.4966 98.3284 44.399C98.6757 44.2632 99.5649 44.2147 101.302 44.1862C101.934 44.1798 102.798 44.0827 103.206 43.9457C103.615 43.8086 103.964 43.7341 103.989 43.7827C104.06 43.9471 105.873 43.739 105.827 43.5619C105.773 43.3419 106.382 43.0842 106.484 43.2786C106.65 43.5946 107.696 43.1071 107.835 42.6623C107.973 42.2175 107.835 42.0729 107.125 41.8722C106.99 41.8503 106.957 41.7588 107.042 41.6835C107.126 41.6081 107.038 41.4994 106.871 41.4474C106.352 41.2859 105.379 40.4949 105.211 40.1175C105.101 39.8189 105.077 39.8317 105.071 40.1756C105.064 40.3968 104.994 40.2938 104.907 39.921C104.832 39.5725 104.688 39.1211 104.586 38.9267C104.484 38.7322 104.491 38.4497 104.591 38.2574C104.71 38.0708 104.681 37.8381 104.493 37.6576C104.324 37.4829 104.289 37.2688 104.421 37.1065C104.63 36.826 104.306 35.973 103.917 35.8518C103.565 35.7422 103.246 35.1346 103.47 35.0012C103.573 34.9316 103.518 34.9143 103.365 34.948C103.145 35.0015 103.116 35.0942 103.206 35.3257C103.297 35.5572 103.261 35.607 103.069 35.5065C102.908 35.436 102.764 35.3099 102.707 35.2313C102.675 35.1398 102.508 35.0879 102.342 35.0973C102.177 35.1068 102.077 35.0351 102.106 34.9424C102.181 34.7015 101.561 34.0815 101.298 34.142C101.164 34.1815 101.247 34.3701 101.516 34.6165L101.979 35.0248L101.365 34.7116C101.03 34.5464 100.638 34.3025 100.532 34.1879C100.412 34.0491 100.091 33.9696 99.8214 33.9872C99.5517 34.0049 99.335 33.9171 99.3083 33.8071C99.2687 33.6728 99.366 33.6218 99.5015 33.6436C99.6312 33.684 99.5802 33.5868 99.3681 33.4191C99.1745 33.2572 99.0353 33.0513 99.0699 32.9401C99.0988 32.8474 98.9666 32.6843 98.78 32.5652C98.5935 32.4461 98.4151 32.4313 98.3805 32.5425C98.3517 32.6351 98.2347 32.619 98.1338 32.486C97.8509 32.1539 97.5173 32.0501 97.5037 32.2898C97.4876 32.4068 97.1807 32.4129 96.7672 32.3045C96.0016 32.0864 95.9225 31.8179 96.6277 31.7731C96.9959 31.7658 97.0317 31.7159 96.8011 31.5425C96.6389 31.4107 96.4976 31.4073 96.463 31.5185C96.4283 31.6298 96.2442 31.6334 96.0577 31.5143C95.8711 31.3953 95.7356 31.3734 95.7554 31.4406C95.7694 31.5262 95.4184 31.478 94.9736 31.3395C94.2137 31.1029 94.1824 31.0728 94.395 30.6511C94.5718 30.2792 94.5648 30.2364 94.3045 30.4196C93.9469 30.6539 92.7274 30.4572 92.8139 30.1792C92.8485 30.068 93.0083 30.0771 93.1578 30.1846C93.3884 30.3581 93.4128 30.3453 93.255 30.1336C93.0973 29.9218 93.1089 29.8848 93.3416 29.8556C93.55 29.8391 93.543 29.7963 93.3206 29.7271C93.1596 29.6566 92.9639 29.6973 92.8865 29.8155C92.8148 29.9152 92.5948 29.9687 92.4165 29.9538C92.2439 29.9204 92.15 29.8302 92.2287 29.7734C92.3131 29.698 92.3107 29.5753 92.2226 29.4665C92.1472 29.3821 92.043 29.3903 92.0084 29.5015C91.968 29.6312 91.8395 29.6522 91.7271 29.5562C91.6274 29.4845 91.5866 29.2889 91.6814 29.1151C91.7704 28.9598 91.7367 28.807 91.6255 28.7724C91.5328 28.7435 91.4113 28.8074 91.3767 28.9186C91.342 29.0298 91.2296 28.9338 91.109 28.7336C90.8978 28.3019 90.5131 28.1008 90.6061 28.455C90.6329 28.565 90.5669 28.6461 90.4557 28.6115C90.3445 28.5769 90.2786 28.658 90.3124 28.8108C90.3531 29.0065 90.316 28.995 90.1513 28.7404C90.0249 28.5587 89.99 28.3445 90.0744 28.2692C90.1589 28.1938 90.1263 28.1024 90.0337 28.0735C89.9225 28.0389 89.7952 28.1212 89.7605 28.2325C89.7086 28.3993 89.6588 28.3634 89.6053 28.1434C89.5402 27.9606 89.5852 27.7509 89.6754 27.657C89.7598 27.5817 89.7042 27.5644 89.5341 27.6537C89.3212 27.75 89.13 27.7109 88.948 27.5119C88.6223 27.1869 88.2401 27.1085 87.9682 27.3288C87.8409 27.4112 87.7911 27.3753 87.8372 27.2271C87.8718 27.1159 87.7026 26.9412 87.4431 26.8604C87.1836 26.7796 87.0144 26.605 87.0548 26.4752C87.1009 26.327 87.0511 26.2911 86.9123 26.4105C86.6346 26.6494 86.016 26.4161 86.2253 26.1357C86.3271 26.0047 86.2447 25.8774 85.991 25.7781C84.6125 25.3083 83.6961 24.9214 83.5639 24.7582C83.4886 24.6738 83.3172 24.7018 83.2097 24.8512C83.0363 25.0819 82.9436 25.053 82.4787 24.522C82.0833 24.094 81.8226 23.9518 81.4672 23.9835C81.1117 24.0151 81.0816 24.0464 81.3226 24.1214C81.5022 24.1977 81.6273 24.3179 81.5927 24.4291C81.5177 24.6701 81.0054 24.226 80.793 23.7329C80.6896 23.4771 80.2968 23.1718 79.8137 22.9604C79.3618 22.7791 78.8161 22.5076 78.5867 22.3955C78.3631 22.2649 78.018 22.1981 77.8281 22.2203C77.6081 22.2738 77.3544 22.1745 77.1852 21.9998C77.0032 21.8008 76.9105 21.772 76.9628 21.9306C76.9895 22.0406 76.875 22.1472 76.7279 22.1624C76.5624 22.1719 76.4199 22.1072 76.4174 21.9844C76.4092 21.8802 76.1287 21.6709 75.7754 21.4999C75.2239 21.2469 75.0769 21.2621 74.856 21.5797C74.6352 21.8972 74.5923 21.9042 74.6105 21.5846C74.618 21.3429 74.5006 21.3064 74.2584 21.4749C73.9737 21.6709 73.9367 21.6594 74.0986 21.4658C74.2177 21.2793 74.1654 21.1207 73.929 20.9658C73.637 20.7935 73.5698 20.8133 73.583 21.163C73.5821 21.427 73.5162 21.5082 73.428 21.3994C73.3341 21.3092 73.1986 21.2873 73.1142 21.3627C73.0355 21.4195 72.6986 21.4569 72.3604 21.433C72.028 21.3905 71.7652 21.451 71.8105 21.5667C71.8373 21.6767 71.7355 21.8077 71.5769 21.8599C71.2227 21.953 70.5112 22.6056 70.6966 22.6633C70.7892 22.6922 70.741 23.0431 70.5955 23.4451C70.3878 24.1123 70.4018 24.198 70.77 24.1906C71.0711 24.2031 71.1024 24.2331 70.8767 24.3052C70.5109 24.4353 70.5808 24.8636 70.9886 24.9906C71.1554 25.0425 71.1949 25.1768 71.0874 25.3263C70.9671 25.4515 70.9522 25.6298 71.0276 25.7143C71.1157 25.823 71.2071 25.7905 71.2475 25.6608C71.2879 25.531 71.3551 25.5113 71.3933 25.5842C71.4444 25.6814 71.3369 25.8309 71.1552 25.9573C70.8219 26.1788 71.034 26.3465 71.4229 26.1423C71.5687 26.0657 71.7355 26.1177 71.8619 26.2993C72.0567 26.5226 72.0509 26.5411 71.7845 26.4175C71.4867 26.2638 71.4624 26.2766 71.2662 26.9067C71.1624 27.2403 71.1937 27.2704 71.5907 27.1704C71.945 27.0774 72.0562 27.112 72.1155 27.3134C72.1945 27.582 72.7134 27.7436 73.0051 27.5904C73.321 27.4245 73.5274 27.6107 73.3296 27.854C73.1145 28.153 73.5452 29.1206 73.8566 29.0346C74.3208 28.9149 73.9183 29.3588 73.3882 29.5597C73.0166 29.7083 72.6727 29.7029 72.4178 29.5422C72.0945 29.3399 72.0644 29.3712 72.1933 29.6756C72.2838 29.9071 72.2504 30.0797 72.1405 30.1064C72.0119 30.1274 71.9238 30.0187 71.8959 29.8473C71.8757 29.4548 71.4495 29.3221 70.9877 29.5646C70.6717 29.7305 70.6161 29.7132 70.6043 29.4249C70.5702 28.9467 70.6002 28.9154 70.9408 29.0621C71.4981 29.2966 71.7621 29.2974 71.7213 29.1018C71.6563 28.9189 70.3972 28.5879 69.7464 28.5886C69.5253 28.5807 69.5022 28.6548 69.6183 28.935C69.7472 29.2394 69.6858 29.2406 69.1771 28.9806C68.8481 28.7968 68.4622 28.5344 68.3185 28.4083C68.1677 28.2394 67.9952 28.206 67.8864 28.2941C67.7777 28.3823 67.7731 28.4622 67.8716 28.4725C68.241 28.5265 68.4346 28.6884 68.465 28.9825C68.4641 29.2465 68.427 29.235 68.1767 28.9944C68.0202 28.844 67.7352 28.7147 67.5696 28.7241C67.3426 28.7348 67.2673 28.6503 67.3365 28.4279C67.3885 28.2611 67.3189 28.1581 67.1846 28.1976C67.0561 28.2186 66.937 28.4052 66.9349 28.6078C66.9155 28.8661 66.8368 28.9229 66.6931 28.7968C66.5621 28.6951 66.3224 28.6814 66.1395 28.7465C65.8837 28.8498 65.8211 28.7897 65.8335 28.4886C65.8599 28.2732 65.972 28.0438 66.1178 27.9672C66.3123 27.8651 66.2925 27.7979 66.0701 27.7287C65.9033 27.6767 65.7562 27.692 65.7645 27.7962C65.7624 27.9988 64.7231 28.5291 64.6337 28.359C64.6012 28.2676 64.7087 28.1181 64.8904 27.9917C65.1507 27.8084 65.1137 27.7969 64.6252 27.9294C64.0695 28.0817 64.0139 28.0644 63.7528 27.5968C63.6124 27.3295 63.4502 27.1977 63.4213 27.2903C63.3867 27.4015 63.4831 27.6145 63.621 27.7591C63.7717 27.928 63.7985 28.038 63.6873 28.0034C63.5946 27.9745 63.4381 27.8241 63.3488 27.654C63.2722 27.5082 63.0902 27.3092 62.9291 27.2388C62.7183 27.1324 62.7137 27.2124 62.8463 27.7009C62.9986 28.2565 62.9928 28.2751 62.7181 28.0473C62.5558 27.9154 62.3693 27.7963 62.3322 27.7848C62.2766 27.7675 62.324 27.6806 62.4385 27.5739C62.5716 27.4731 62.5403 27.443 62.3689 27.471C62.2103 27.5232 62.0353 27.3671 61.9262 27.1298C61.7891 26.7212 61.7834 26.7397 61.7989 27.2122C61.8194 27.9301 61.5961 28.1249 61.0932 27.8464C60.7769 27.6869 60.7189 27.5468 60.868 27.329C61.1663 26.8932 60.8163 26.581 60.3928 26.8964C60.1996 27.0599 60.062 27.2407 60.076 27.3264C60.1085 27.4178 60.0101 27.4075 59.8791 27.3057C59.7296 27.1982 59.5883 27.1949 59.5537 27.3061C59.5191 27.4173 59.3976 27.4811 59.2864 27.4465C59.1937 27.4176 59.1797 27.3319 59.2699 27.238C59.5534 26.9807 58.7248 26.3771 58.2605 26.4969C57.8935 26.5656 57.9248 26.5957 58.4195 26.77C58.7902 26.8854 58.9652 27.0415 58.9075 27.2269C58.8555 27.3937 58.7699 27.4077 58.669 27.2746C58.4857 27.0143 56.0207 26.2469 55.963 26.4322C55.94 26.5063 55.692 26.3885 55.4116 26.1792C54.9874 25.8438 54.8704 25.8277 54.6414 26.041C54.4667 26.2103 54.2212 26.2152 53.8678 26.0442C53.5886 25.8963 53.2748 25.8595 53.166 25.9477C53.0816 26.023 52.8859 26.0638 52.7747 26.0291C52.645 25.9888 52.6866 25.9204 52.8938 25.8426C53.1809 25.7693 53.1739 25.7265 52.86 25.6898C52.5276 25.6473 52.2928 25.8791 52.0237 26.5476C51.8943 26.8326 51.6662 26.7819 51.5801 26.4705C51.5592 26.3419 51.6008 26.2736 51.712 26.3082C51.8232 26.3428 51.8949 26.2432 51.8854 26.0776C51.8702 25.9305 51.7566 25.7732 51.6454 25.7386C51.5156 25.6982 51.2248 25.5873 50.9711 25.488C50.6062 25.3541 50.5807 25.3054 50.8493 25.2264C51.0264 25.1799 51.0923 25.0988 50.9811 25.0642C50.6475 24.9603 50.4671 25.1481 50.5774 25.4467C50.6737 25.6597 50.6078 25.7408 50.3751 25.77C50.191 25.7737 50.0971 25.6835 50.149 25.5167C50.2009 25.3499 50.107 25.2597 49.9229 25.2633C49.6902 25.2925 49.6705 25.2254 49.8138 25.0261C50.0775 24.7015 49.9292 24.6554 49.2207 24.8414C48.7936 24.9727 48.5839 24.9278 48.3093 24.7C48.1029 24.5137 47.7751 24.3914 47.4868 24.4032C46.843 24.4468 46.8883 24.5625 47.5971 24.7019C47.9666 24.7559 48.1218 24.8449 47.9945 24.9273C47.8545 24.9853 47.3565 24.9523 46.8446 24.8335C46.1044 24.6641 45.992 24.5681 46.1354 24.3688C46.2348 24.2235 46.1854 24.2082 45.9871 24.3226C45.5995 24.5882 44.5784 24.7989 44.8445 24.5971C44.9347 24.5033 44.945 24.4048 44.8338 24.3702C44.7412 24.3413 44.5175 24.2107 44.3495 24.0974C44.1003 23.9182 44.0946 23.9367 44.265 24.1728C44.5109 24.4933 44.4067 24.5015 43.246 24.1808C42.7827 24.0366 42.3795 23.8297 42.3342 23.714C42.2947 23.5797 41.9948 23.6287 41.606 23.8329C41.2414 24.0243 40.783 24.1256 40.5663 24.0378C40.2199 23.9096 40.2442 23.8969 40.6924 23.8941C41.0321 23.8914 41.0617 23.8396 40.7814 23.7388C40.5462 23.6453 40.4396 23.5307 40.5298 23.4368C40.62 23.3429 40.5516 23.3014 40.386 23.3108C40.2019 23.3145 40.0689 23.4153 40.1014 23.5068C40.1339 23.5982 39.9082 23.6703 39.6071 23.6578C39.3118 23.6269 39.0581 23.5276 39.0243 23.3748C38.9906 23.2219 38.7567 23.1898 38.2912 23.2482C37.7772 23.3321 37.5432 23.2999 37.2986 23.0408C37.0667 22.806 36.9741 22.7771 36.9164 22.9625C36.8644 23.1293 36.5448 23.1111 35.9204 22.8964C35.3644 22.7233 34.8722 22.6717 34.6963 22.7796C34.5633 22.8805 34.3792 22.8841 34.3038 22.7997C34.109 22.5764 33.4023 22.2344 33.5102 22.4103C33.5485 22.4832 33.3853 22.6154 33.1353 22.7002C32.8853 22.785 32.6434 22.974 32.5973 23.1223C32.5338 23.3262 32.4469 23.2788 32.2242 22.8841C31.868 22.265 31.6641 22.2015 31.5314 22.6278C31.4679 22.8317 31.2978 22.921 31.0569 22.846C30.853 22.7826 30.7208 22.6194 30.7612 22.4897C30.8535 22.1931 30.5813 22.0881 30.1739 22.2865C30.0038 22.3759 29.5614 22.3601 29.215 22.232C28.2072 21.8775 25.3006 21.7452 25.214 22.0232C25.1678 22.1714 25.0232 22.3094 24.8704 22.3432C24.7176 22.3769 24.7048 22.3526 24.8251 22.2274C24.9339 22.1393 24.9059 21.9679 24.7437 21.8361C24.5814 21.7043 24.4031 21.6894 24.3314 21.7891C24.2597 21.8887 24.0385 21.8809 23.8705 21.7676C23.6155 21.6069 23.4998 21.6522 23.4063 21.8873C23.3428 22.0912 23.2699 22.1295 23.2674 22.0067C23.2428 21.6941 22.2526 21.6095 21.865 21.8751C21.7018 22.0073 21.512 22.0295 21.4794 21.938C21.4284 21.8408 21.2002 21.7901 20.9802 21.8436C20.7047 21.8798 20.5935 21.8452 20.6339 21.7154C20.7493 21.3448 20.1912 21.3743 19.843 21.7742C19.4348 22.2367 19.2194 22.2103 18.9513 21.6999C18.7796 21.4025 18.7055 21.3794 18.3537 21.5951C18.0806 21.7541 17.7123 21.7614 17.403 21.6448C17.0937 21.5282 16.7869 21.5343 16.6909 21.6467C16.5718 21.8333 16.4606 21.7987 16.2102 21.5581C15.903 21.2388 15.7757 21.3212 15.6768 21.9003C15.6665 21.9987 15.5853 21.9328 15.5075 21.7256C15.3659 21.3969 15.3103 21.3796 14.8786 21.5908C14.6112 21.7312 14.2801 21.7501 14.1063 21.6553C13.9568 21.5478 13.5515 21.5436 13.203 21.618C12.8731 21.6983 12.2338 21.6619 11.8133 21.5107C11.4056 21.3837 11.0732 21.3413 11.093 21.4084C11.1465 21.6284 10.6856 21.6069 10.0056 21.3748C9.65921 21.2467 9.38942 21.2643 9.34903 21.3941C9.30864 21.5238 9.08869 21.5773 8.84775 21.5023C8.51414 21.3984 8.50715 21.3556 8.77571 21.2766C8.95283 21.2301 9.01875 21.1489 8.92031 21.1386C8.8091 21.104 8.43633 21.1912 8.06478 21.3399C7.68746 21.507 7.28916 21.5457 7.1582 21.4439C7.02724 21.3421 6.77021 21.3841 6.56424 21.5233C6.37103 21.6868 6.15684 21.7217 6.10579 21.6245C6.05473 21.5273 5.71081 21.5219 5.31373 21.6219C4.91665 21.7219 4.56695 21.735 4.53443 21.6436C4.47761 21.5649 4.41047 21.5846 4.37585 21.6958C4.34123 21.8071 4.15711 21.8107 3.96478 21.7102C3.77245 21.6096 3.58833 21.6133 3.55371 21.7245C3.52486 21.8172 3.39635 21.8382 3.26539 21.7364C3.13443 21.6347 2.93877 21.6754 2.81271 21.8191C2.66933 22.0184 2.58943 22.0139 2.53015 21.8125C2.48941 21.6168 2.35514 21.6563 2.10301 21.9438C1.85664 22.2127 1.67375 22.2777 1.5358 22.1331C1.44767 22.0244 1.43281 22.2027 1.52583 22.557C1.64053 22.9722 1.58779 23.0981 1.3676 22.9346C1.11844 22.7554 0.989923 22.7764 0.926453 22.9803C0.874523 23.1471 0.90827 23.2999 1.01947 23.3345ZM3.07918 21.9427C3.17185 21.9716 3.25298 22.0375 3.24144 22.0746C3.22413 22.1302 3.10261 22.194 2.99263 22.2207C2.86412 22.2417 2.80152 22.1816 2.83037 22.0889C2.86499 21.9777 2.96798 21.9081 3.07918 21.9427ZM5.44312 23.4919C5.53579 23.5207 5.61691 23.5866 5.60537 23.6237C5.58806 23.6793 5.46655 23.7431 5.35657 23.7699C5.22805 23.7909 5.16545 23.7307 5.1943 23.6381C5.22892 23.5269 5.33191 23.4573 5.44312 23.4919ZM16.1842 22.0989C16.2966 22.1949 16.3905 22.2851 16.379 22.3222C16.3674 22.3592 16.2389 22.3802 16.0919 22.3954C15.9263 22.4049 15.8382 22.2961 15.8785 22.1664C15.9189 22.0366 16.0532 21.9971 16.1842 22.0989ZM26.6268 22.0564C26.7553 22.0354 26.7507 22.1153 26.649 22.2463C26.4154 22.5395 26.2683 22.5547 26.3491 22.2953C26.3837 22.1841 26.4983 22.0774 26.6268 22.0564ZM27.6634 22.3182C27.7017 22.3911 27.5744 22.4734 27.3718 22.4713C27.0777 22.5017 27.0649 22.4774 27.2894 22.344C27.4596 22.2547 27.6251 22.2453 27.6634 22.3182ZM28.5865 22.4225C28.6989 22.5185 28.5947 22.5268 28.3352 22.446C28.0757 22.3652 27.9946 22.2993 28.1231 22.2783C28.2644 22.2816 28.4868 22.3509 28.5865 22.4225ZM31.9523 23.1044C31.9906 23.1774 31.8888 23.3083 31.7187 23.3977C31.4814 23.5068 31.4686 23.4825 31.6606 23.2576C31.7739 23.0896 31.914 23.0315 31.9523 23.1044ZM37.2033 23.804C37.5749 23.6554 37.5876 23.6797 37.2601 23.8827C36.9211 24.1228 36.744 24.1693 36.7901 24.021C36.8017 23.984 36.9961 23.8818 37.2033 23.804ZM44.7163 24.9435C44.7719 24.9608 44.8415 25.0638 44.8625 25.1923C44.8892 25.3023 44.8233 25.3834 44.7307 25.3546C44.6195 25.32 44.5556 25.1984 44.5845 25.1058C44.6191 24.9946 44.6793 24.932 44.7163 24.9435ZM47.6387 26.7885C47.8043 26.7791 47.8727 26.8207 47.7824 26.9146C47.6922 27.0085 47.5394 27.0422 47.4282 27.0076C47.1687 26.9268 47.2647 26.8144 47.6387 26.7885ZM48.8619 27.1693C49.432 27.4281 49.5675 27.45 49.4097 27.2382C49.1639 26.9177 49.4592 26.9487 49.8834 27.284C50.3389 27.6495 50.06 27.8269 49.3928 27.6192C49.0407 27.5096 48.721 27.4914 48.6864 27.6026C48.6576 27.6953 48.536 27.7591 48.4434 27.7302C48.3322 27.6956 48.2984 27.5428 48.3446 27.3945C48.3907 27.2463 48.3385 27.0877 48.2458 27.0588C48.1346 27.0242 48.072 26.964 48.0893 26.9084C48.1066 26.8528 48.4588 26.9625 48.8619 27.1693ZM60.6189 27.1497C60.7474 27.1288 60.7428 27.2087 60.6411 27.3396C60.4075 27.6329 60.2604 27.6481 60.3412 27.3886C60.3758 27.2774 60.4904 27.1707 60.6189 27.1497ZM64.4594 28.8536C64.6077 28.8998 64.7143 29.0143 64.6797 29.1255C64.6509 29.2182 64.5096 29.2149 64.3786 29.1131C64.2534 28.9928 64.1468 28.8783 64.1583 28.8412C64.1699 28.8042 64.3111 28.8075 64.4594 28.8536ZM61.5674 42.3877C61.6601 42.4166 61.7239 42.5381 61.6893 42.6493C61.6604 42.742 61.5562 42.7502 61.4809 42.6657C61.387 42.5755 61.3417 42.4598 61.359 42.4042C61.3705 42.3671 61.4562 42.3531 61.5674 42.3877ZM61.8736 41.7308C62.0218 41.777 62.117 41.9286 62.0708 42.0769C61.9727 42.3919 61.6576 42.2938 61.6445 41.9441C61.6235 41.8156 61.6026 41.6871 61.6083 41.6686C61.5898 41.6628 61.7253 41.6847 61.8736 41.7308ZM69.086 29.3385C69.4579 29.5153 69.7293 29.8844 69.3957 29.7805C69.1548 29.7055 68.6808 29.3343 68.7096 29.2416C68.7211 29.2046 68.8937 29.238 69.086 29.3385ZM68.1702 36.9821C68.3011 37.0839 68.2282 37.1222 68.0244 37.0587C67.8147 37.0138 67.7208 36.9236 67.8123 36.891C67.8852 36.8528 68.0578 36.8862 68.1702 36.9821ZM75.9112 21.8472C76.0039 21.876 76.055 21.9732 76.0203 22.0844C75.9915 22.1771 75.8329 22.2294 75.6661 22.1775C75.5178 22.1313 75.4725 22.0155 75.557 21.9402C75.6472 21.8463 75.8 21.8125 75.9112 21.8472ZM73.665 29.5849C73.7749 29.5581 73.8931 29.6356 73.9326 29.7699C73.9594 29.8798 73.8564 29.9494 73.7081 29.9033C73.3745 29.7994 73.3536 29.6709 73.665 29.5849ZM79.2659 22.8915C79.34 22.9146 79.391 23.0118 79.3622 23.1045C79.3276 23.2157 79.2188 23.3038 79.1274 23.3364C79.0174 23.3631 78.9663 23.2659 79.0125 23.1176C79.0587 22.9693 79.1732 22.8627 79.2659 22.8915ZM75.59 36.5272C75.8112 36.5351 75.9294 36.6125 75.8264 36.6821C75.742 36.7575 75.5521 36.7797 75.4038 36.7335C75.0331 36.6181 75.1291 36.5057 75.59 36.5272ZM84.3728 25.2946C84.4655 25.3235 84.5177 25.4821 84.4716 25.6304C84.4254 25.7786 84.2924 25.8795 84.1997 25.8507C84.0885 25.816 84.0548 25.6632 84.1009 25.515C84.1471 25.3667 84.2616 25.26 84.3728 25.2946ZM98.287 32.7776C98.5893 32.8514 98.7944 32.9763 98.7157 33.0331C98.6556 33.0957 98.7379 33.223 98.8932 33.312C99.067 33.4067 99.0995 33.4982 98.9895 33.5249C98.8124 33.5714 97.6918 32.7956 97.738 32.6474C97.7437 32.6288 97.9904 32.6853 98.287 32.7776ZM106.27 42.0734C106.325 42.0907 106.395 42.1937 106.416 42.3222C106.443 42.4322 106.377 42.5133 106.284 42.4845C106.173 42.4498 106.109 42.3283 106.138 42.2357C106.172 42.1244 106.233 42.0619 106.27 42.0734Z" fill="#282732"/>
<path fillRule="evenodd" clipRule="evenodd" d="M45.2758 24.3861C45.4784 24.3882 45.6057 24.3059 45.5674 24.233C45.5291 24.1601 45.3635 24.1695 45.1934 24.2589C44.9689 24.3923 44.9817 24.4166 45.2758 24.3861Z" fill="#282732"/>
<path d="M46.8415 24.3856C46.8733 24.2833 46.8162 24.1745 46.7138 24.1426C46.6115 24.1107 46.5027 24.1679 46.4708 24.2702C46.4389 24.3726 46.4961 24.4814 46.5984 24.5133C46.7008 24.5451 46.8096 24.488 46.8415 24.3856Z" fill="#282732"/>
<path fillRule="evenodd" clipRule="evenodd" d="M56.9922 26.326C57.0849 26.3548 57.262 26.3083 57.3464 26.233C57.4367 26.1391 57.4412 26.0592 57.33 26.0246C57.2373 25.9957 57.066 26.0237 56.9758 26.1176C56.8913 26.1929 56.881 26.2914 56.9922 26.326Z" fill="#282732"/>
<path fillRule="evenodd" clipRule="evenodd" d="M61.3024 27.5661C61.3963 27.6563 61.4379 27.588 61.4285 27.4224C61.4026 27.0484 61.2902 26.9524 61.2094 27.2119C61.1748 27.3231 61.2085 27.4759 61.3024 27.5661Z" fill="#282732"/>
<path fillRule="evenodd" clipRule="evenodd" d="M65.5443 37.3843C65.8363 37.5565 65.9162 37.561 65.8141 37.3666C65.7503 37.2451 65.5638 37.126 65.4225 37.1227C65.2569 37.1321 65.3265 37.2351 65.5443 37.3843Z" fill="#282732"/>
<path fillRule="evenodd" clipRule="evenodd" d="M70.6954 26.5866C70.8045 26.8239 71.0698 26.8861 71.1275 26.7008C71.1563 26.6081 71.0497 26.4936 70.9014 26.4474C70.5863 26.3493 70.562 26.3621 70.6954 26.5866Z" fill="#282732"/>
<path fillRule="evenodd" clipRule="evenodd" d="M71.501 36.535C71.5936 36.5638 71.7708 36.5173 71.8552 36.442C71.9454 36.3481 71.95 36.2682 71.8388 36.2335C71.7461 36.2047 71.5748 36.2327 71.4845 36.3266C71.4001 36.4019 71.3898 36.5004 71.501 36.535Z" fill="#282732"/>
<path fillRule="evenodd" clipRule="evenodd" d="M104.086 35.7009C104.474 36.0861 104.585 36.1207 104.672 35.8427C104.706 35.7315 104.662 35.6771 104.589 35.7154C104.498 35.7479 104.3 35.6659 104.149 35.497C103.974 35.3409 103.837 35.2576 103.826 35.2947C103.809 35.3503 103.935 35.532 104.086 35.7009Z" fill="#282732"/>
</svg>
