<svg xmlns="http://www.w3.org/2000/svg" width="25" height="24" viewBox="0 0 25 24" fill="none">
<path d="M20.7501 14.15V18.4C20.7501 19.494 19.9631 20.436 18.8781 20.58C16.7911 20.857 14.6621 21 12.5001 21C10.3381 21 8.20906 20.857 6.12206 20.58C5.03706 20.436 4.25006 19.494 4.25006 18.4V14.15M20.7501 14.15C20.9875 13.9436 21.1775 13.6883 21.307 13.4016C21.4364 13.1149 21.5023 12.8036 21.5001 12.489V8.706C21.5001 7.625 20.7321 6.691 19.6631 6.531C18.5304 6.36142 17.392 6.23234 16.2501 6.144M20.7501 14.15C20.5561 14.315 20.3301 14.445 20.0771 14.53C17.6333 15.3408 15.0748 15.7528 12.5001 15.75C9.85206 15.75 7.30506 15.321 4.92306 14.53C4.67631 14.4479 4.44778 14.3189 4.25006 14.15M4.25006 14.15C4.0126 13.9436 3.82262 13.6883 3.69315 13.4016C3.56369 13.1149 3.49782 12.8036 3.50006 12.489V8.706C3.50006 7.625 4.26806 6.691 5.33706 6.531C6.46975 6.36142 7.60814 6.23233 8.75006 6.144M16.2501 6.144V5.25C16.2501 4.65326 16.013 4.08097 15.591 3.65901C15.1691 3.23705 14.5968 3 14.0001 3H11.0001C10.4033 3 9.83102 3.23705 9.40907 3.65901C8.98711 4.08097 8.75006 4.65326 8.75006 5.25V6.144M16.2501 6.144C13.7538 5.95108 11.2463 5.95108 8.75006 6.144M12.5001 12.75H12.5081V12.758H12.5001V12.75Z" stroke="#232323" stroke-width="1.5" stroke-linecap="round" stroke-linejoin="round"/>
</svg>
