<svg width="696" height="627" viewBox="0 0 696 627" fill="none" xmlns="http://www.w3.org/2000/svg">
<path fill-rule="evenodd" clip-rule="evenodd" d="M327.697 634.134H551.631L670.36 428.488C721.524 339.871 691.161 226.556 602.543 175.393L341.802 24.8536C253.185 -26.3098 139.87 4.05285 88.7065 92.6704L-49.0001 331.185V558.093C-34.5201 577.188 -16.0724 593.773 5.98413 606.507L53.8354 634.134H59.722C76.1252 579.599 84.9252 523.18 75.6318 476.215C65.0214 422.595 62.7853 397.303 80.1661 356.547C122.012 258.42 161.079 229.773 195.766 209.287C212.095 199.643 220.026 211.405 217.098 221.603C217.098 221.603 201.776 295.98 187.99 361.052C186.387 368.619 182.613 389.199 198.764 401.241C199.774 401.994 200.886 402.84 202.102 403.765C225.202 421.333 285.537 467.22 383.088 438.025C402.803 432.125 405.969 415.218 411.654 384.868C412.115 382.408 412.592 379.86 413.096 377.223L434.142 278.977C436.4 263.296 449.518 251.168 463.747 268.895C481.534 291.053 537.941 416.983 487.91 503.64C461.768 548.919 433.138 565.607 402.064 583.72L402.059 583.724C394.669 588.031 387.142 592.419 379.477 597.291C377.267 598.695 374.891 600.14 372.34 601.69C361.077 608.534 346.414 617.444 327.697 634.134Z" fill="url(#paint0_linear_1920_322)" fill-opacity="0.1"/>
<defs>
<linearGradient id="paint0_linear_1920_322" x1="851.454" y1="413.315" x2="17.5364" y2="266.337" gradientUnits="userSpaceOnUse">
<stop stop-color="white"/>
<stop offset="1" stop-color="white" stop-opacity="0"/>
</linearGradient>
</defs>
</svg>
