<svg width="25" height="24" viewBox="0 0 25 24" fill="none" xmlns="http://www.w3.org/2000/svg">
<g id="lets-icons:bookmark-duotone">
<path id="Vector" d="M4.77271 9C4.77271 6.172 4.77271 4.757 5.65171 3.879C6.52971 3 7.94471 3 10.7727 3H14.7727C17.6007 3 19.0157 3 19.8937 3.879C20.7727 4.757 20.7727 6.172 20.7727 9V15.828C20.7727 18.511 20.7727 19.852 19.9287 20.263C19.0837 20.673 18.0287 19.844 15.9187 18.187L15.2437 17.656C14.0577 16.724 13.4637 16.258 12.7727 16.258C12.0817 16.258 11.4877 16.724 10.3017 17.656L9.6257 18.186C7.5157 19.844 6.4617 20.673 5.6167 20.263C4.7727 19.853 4.77271 18.51 4.77271 15.828V9Z" stroke="#232323" stroke-width="1.5"/>
</g>
</svg>
