<svg width="257" height="257" viewBox="0 0 257 257" fill="none" xmlns="http://www.w3.org/2000/svg">
<path fill-rule="evenodd" clip-rule="evenodd" d="M60.4254 7.5342C61.2128 3.24788 64.9681 0 69.4821 0C73.996 0 77.7514 3.24788 78.5387 7.5342H177.624C178.411 3.24788 182.167 0 186.681 0C191.195 0 194.95 3.24788 195.737 7.5342H235.235C247.255 7.5342 257 17.2789 257 29.2997V235.235C257 247.255 247.255 257 235.235 257H21.7655C9.74472 257 0 247.255 0 235.235V29.2997C0 17.2789 9.74474 7.5342 21.7655 7.5342H60.4254ZM69.4821 38.5081C64.3964 38.5081 60.2736 34.3854 60.2736 29.2997V25.9511H21.7655C19.9161 25.9511 18.4169 27.4503 18.4169 29.2997V85.3876H238.583V29.2997C238.583 27.4503 237.084 25.9511 235.235 25.9511H195.889V29.2997C195.889 34.3854 191.766 38.5081 186.681 38.5081C181.595 38.5081 177.472 34.3854 177.472 29.2997V25.9511H78.6906V29.2997C78.6906 34.3854 74.5678 38.5081 69.4821 38.5081ZM18.4169 103.805V235.235C18.4169 237.084 19.9161 238.583 21.7655 238.583H235.235C237.084 238.583 238.583 237.084 238.583 235.235V103.805H18.4169Z" fill="#2583F0"/>
<path fill-rule="evenodd" clip-rule="evenodd" d="M257 85V29.2997C257 17.2789 247.255 7.5342 235.235 7.5342H195.737C194.95 3.24788 191.195 0 186.681 0C182.167 0 178.411 3.24788 177.624 7.5342H78.5387C77.7514 3.24788 73.996 0 69.4821 0C64.9681 0 61.2128 3.24788 60.4254 7.5342H21.7655C9.74474 7.5342 0 17.2789 0 29.2997V85H18.4169V29.2997C18.4169 27.4503 19.9161 25.9511 21.7655 25.9511H60.2736V29.2997C60.2736 34.3854 64.3964 38.5081 69.4821 38.5081C74.5678 38.5081 78.6906 34.3854 78.6906 29.2997V25.9511H177.472V29.2997C177.472 34.3854 181.595 38.5081 186.681 38.5081C191.766 38.5081 195.889 34.3854 195.889 29.2997V25.9511H235.235C237.084 25.9511 238.583 27.4503 238.583 29.2997V85H257Z" fill="#003168"/>
<path d="M171.354 132.004C169.043 131.935 166.795 132.765 165.088 134.32L111.727 167.738C104.44 164.467 88.0861 151.88 80.5676 157.492C76.5978 160.455 75.8217 166.083 78.842 170.005L102.065 200.954C105.183 205.111 111.198 205.722 115.092 202.277L176.895 147.598C183.044 142.312 179.468 132.247 171.354 132.004Z" fill="#003168"/>
</svg>
