<svg width="450" height="450" viewBox="0 0 450 450" fill="none" xmlns="http://www.w3.org/2000/svg">
<path fill-rule="evenodd" clip-rule="evenodd" d="M142.132 2.25533C153.149 0.768032 163.601 7.34107 166.983 17.8837L201.357 125.03C204.467 134.724 200.798 145.354 192.344 151.139L146.513 182.506C156.891 206.66 171.056 230.199 188.607 250.861C206.526 271.206 227.779 288.613 250.187 302.361L287.827 261.526C294.771 253.994 305.818 251.893 314.963 256.367L416.041 305.815C425.987 310.68 430.986 321.97 427.927 332.658L399.629 431.546C396.351 442.999 384.974 450.003 373.508 448.06C277.309 442.243 183.523 400.649 113.927 324.78C113.253 324.168 112.609 323.509 111.998 322.803C111.061 321.719 110.131 320.632 109.208 319.541C108.261 318.47 107.319 317.393 106.382 316.31C105.772 315.604 105.212 314.872 104.704 314.117C39.6486 234.319 11.9961 135.52 20.0952 39.4869C19.824 27.8599 28.393 17.6101 40.1985 16.0163L142.132 2.25533ZM144.151 289.316C202.015 354.547 279.734 392.087 360.625 400.797L378.377 338.761L309.889 305.257L271.817 346.561C270.518 348.037 269.054 349.32 267.469 350.399C264.774 352.24 261.77 353.455 258.668 354.034C255.235 354.68 251.645 354.554 248.174 353.572C246.477 353.095 244.825 352.418 243.252 351.54C211.921 334.912 181.571 312.054 156.281 284.022C155.876 283.62 155.484 283.199 155.104 282.761C154.623 282.204 154.143 281.645 153.666 281.085C153.18 280.532 152.697 279.977 152.215 279.42C151.836 278.982 151.476 278.533 151.136 278.075C127.039 249.011 108.791 215.685 96.8482 182.286C96.2059 180.603 95.7745 178.87 95.5468 177.123C95.0744 173.546 95.4671 169.975 96.6007 166.671C97.6204 163.686 99.2552 160.887 101.465 158.486C102.761 157.072 104.242 155.809 105.889 154.736L152.247 123.009L128.956 50.4097L65.0101 59.0424C61.9787 140.344 87.934 222.66 144.151 289.316Z" />
<path fill-rule="evenodd" clip-rule="evenodd" d="M142.132 2.25533C153.149 0.768032 163.601 7.34107 166.983 17.8837L201.357 125.03C204.467 134.724 200.798 145.354 192.344 151.139L146.513 182.506C156.891 206.66 171.056 230.199 188.607 250.861C206.526 271.206 227.779 288.613 250.187 302.361L287.827 261.526C294.771 253.994 305.818 251.893 314.963 256.367L416.041 305.815C425.987 310.68 430.986 321.97 427.927 332.658L399.629 431.546C396.351 442.999 384.974 450.003 373.508 448.06C277.309 442.243 183.523 400.649 113.927 324.78C113.253 324.168 112.609 323.509 111.998 322.803C111.061 321.719 110.131 320.632 109.208 319.541C108.261 318.47 107.319 317.393 106.382 316.31C105.772 315.604 105.212 314.872 104.704 314.117C39.6486 234.319 11.9961 135.52 20.0952 39.4869C19.824 27.8599 28.393 17.6101 40.1985 16.0163L142.132 2.25533ZM144.151 289.316C202.015 354.547 279.734 392.087 360.625 400.797L378.377 338.761L309.889 305.257L271.817 346.561C270.518 348.037 269.054 349.32 267.469 350.399C264.774 352.24 261.77 353.455 258.668 354.034C255.235 354.68 251.645 354.554 248.174 353.572C246.477 353.095 244.825 352.418 243.252 351.54C211.921 334.912 181.571 312.054 156.281 284.022C155.876 283.62 155.484 283.199 155.104 282.761C154.623 282.204 154.143 281.645 153.666 281.085C153.18 280.532 152.697 279.977 152.215 279.42C151.836 278.982 151.476 278.533 151.136 278.075C127.039 249.011 108.791 215.685 96.8482 182.286C96.2059 180.603 95.7745 178.87 95.5468 177.123C95.0744 173.546 95.4671 169.975 96.6007 166.671C97.6204 163.686 99.2552 160.887 101.465 158.486C102.761 157.072 104.242 155.809 105.889 154.736L152.247 123.009L128.956 50.4097L65.0101 59.0424C61.9787 140.344 87.934 222.66 144.151 289.316Z" />
</svg>
