<svg width="20" height="22" viewBox="0 0 20 22" fill="none" xmlns="http://www.w3.org/2000/svg">
<g id="Group">
<path id="Vector" d="M9.5 21C5.493 21 3.49 21 2.245 19.535C1 18.072 1 15.714 1 11C1 6.286 1 3.929 2.245 2.464C3.49 0.999 5.493 1 9.5 1C13.507 1 15.51 1 16.755 2.464C17.757 3.644 17.953 5.401 17.991 8.5M6 7H13M6 12H9" stroke="#454545" stroke-width="1.5" stroke-linecap="round" stroke-linejoin="round"/>
<path id="Vector_2" d="M17.6097 17.105C18.1862 16.6859 18.6152 16.0951 18.8353 15.4173C19.0554 14.7394 19.0553 14.0092 18.8349 13.3314C18.6145 12.6536 18.1852 12.063 17.6085 11.6442C17.0318 11.2254 16.3374 10.9999 15.6247 11H15.3737C14.661 11.0001 13.9667 11.2257 13.3902 11.6446C12.8136 12.0635 12.3845 12.6541 12.1643 13.3319C11.944 14.0096 11.9439 14.7397 12.1641 15.4175C12.3842 16.0953 12.8132 16.686 13.3897 17.105M13.3897 17.105C13.9658 17.5251 14.6606 17.751 15.3737 17.75H15.6237C16.3367 17.751 17.0315 17.5251 17.6077 17.105L18.1907 18.94C18.4127 19.64 18.5247 19.99 18.4937 20.208C18.4307 20.662 18.0607 20.998 17.6237 21C17.4137 21 17.0997 20.836 16.4707 20.506C16.2007 20.364 16.0667 20.294 15.9287 20.252C15.6481 20.1681 15.3492 20.1681 15.0687 20.252C14.9307 20.294 14.7957 20.364 14.5267 20.506C13.8977 20.836 13.5837 21.001 13.3737 21C12.9367 20.998 12.5667 20.662 12.5037 20.208C12.4737 19.99 12.5837 19.64 12.8067 18.94L13.3897 17.105Z" stroke="#454545" stroke-width="1.5" stroke-linecap="round" stroke-linejoin="round"/>
</g>
</svg>
