<svg width="264" height="264" viewBox="0 0 264 264" fill="none" xmlns="http://www.w3.org/2000/svg">
<path fill-rule="evenodd" clip-rule="evenodd" d="M162.379 23.0756C136.249 15.788 108.37 18.1365 83.8273 29.6927C59.2848 41.2488 39.7142 61.2425 28.6857 86.0266C17.6571 110.811 15.9055 138.734 23.7503 164.702C31.5952 190.67 48.5136 212.952 71.4196 227.485C94.3256 242.018 121.693 247.832 148.528 243.867C175.364 239.902 199.88 226.422 217.605 205.886C235.33 185.35 245.081 159.127 245.081 132C245.081 126.776 249.316 122.541 254.541 122.541C259.765 122.541 264 126.776 264 132C264 163.665 252.617 194.276 231.927 218.247C211.237 242.219 182.619 257.954 151.294 262.582C119.968 267.21 88.0227 260.424 61.2845 243.46C34.5463 226.496 14.7974 200.485 5.64009 170.173C-3.51719 139.86 -1.47251 107.266 11.4011 78.3353C24.2748 49.4048 47.1195 26.0661 75.768 12.5766C104.417 -0.912871 136.96 -3.65426 167.461 4.85254C189.442 10.9828 210.116 23.7931 226.483 40.2118L226.556 25.7504C226.582 20.5263 230.838 16.3125 236.062 16.3387C241.287 16.3648 245.5 20.6211 245.474 25.8452L245.271 66.4682C245.258 69.0164 244.218 71.4517 242.385 73.2226C240.553 74.9935 238.083 75.9502 235.536 75.8761L194.93 74.6945C189.708 74.5425 185.598 70.1861 185.75 64.9641C185.902 59.7421 190.258 55.632 195.48 55.7839L215.799 56.3752C201.206 40.787 182.227 28.6113 162.379 23.0756Z" fill="#838383"/>
<path fill-rule="evenodd" clip-rule="evenodd" d="M162.379 23.0756C136.249 15.788 108.37 18.1365 83.8273 29.6927C59.2848 41.2488 39.7142 61.2425 28.6857 86.0266C17.6571 110.811 15.9055 138.734 23.7503 164.702C31.5952 190.67 48.5136 212.952 71.4196 227.485C94.3256 242.018 121.693 247.832 148.528 243.867C175.364 239.902 199.88 226.422 217.605 205.886C235.33 185.35 245.081 159.127 245.081 132C245.081 126.776 249.316 122.541 254.541 122.541C259.765 122.541 264 126.776 264 132C264 163.665 252.617 194.276 231.927 218.247C211.237 242.219 182.619 257.954 151.294 262.582C119.968 267.21 88.0227 260.424 61.2845 243.46C34.5463 226.496 14.7974 200.485 5.64009 170.173C-3.51719 139.86 -1.47251 107.266 11.4011 78.3353C24.2748 49.4048 47.1195 26.0661 75.768 12.5766C104.417 -0.912871 136.96 -3.65426 167.461 4.85254C189.442 10.9828 210.116 23.7931 226.483 40.2118L226.556 25.7504C226.582 20.5263 230.838 16.3125 236.062 16.3387C241.287 16.3648 245.5 20.6211 245.474 25.8452L245.271 66.4682C245.258 69.0164 244.218 71.4517 242.385 73.2226C240.553 74.9935 238.083 75.9502 235.536 75.8761L194.93 74.6945C189.708 74.5425 185.598 70.1861 185.75 64.9641C185.902 59.7421 190.258 55.632 195.48 55.7839L215.799 56.3752C201.206 40.787 182.227 28.6113 162.379 23.0756Z" fill="#838383"/>
<path fill-rule="evenodd" clip-rule="evenodd" d="M162.379 23.0756C136.249 15.788 108.37 18.1365 83.8273 29.6927C59.2848 41.2488 39.7142 61.2425 28.6857 86.0266C17.6571 110.811 15.9055 138.734 23.7503 164.702C31.5952 190.67 48.5136 212.952 71.4196 227.485C94.3256 242.018 121.693 247.832 148.528 243.867C175.364 239.902 199.88 226.422 217.605 205.886C235.33 185.35 245.081 159.127 245.081 132C245.081 126.776 249.316 122.541 254.541 122.541C259.765 122.541 264 126.776 264 132C264 163.665 252.617 194.276 231.927 218.247C211.237 242.219 182.619 257.954 151.294 262.582C119.968 267.21 88.0227 260.424 61.2845 243.46C34.5463 226.496 14.7974 200.485 5.64009 170.173C-3.51719 139.86 -1.47251 107.266 11.4011 78.3353C24.2748 49.4048 47.1195 26.0661 75.768 12.5766C104.417 -0.912871 136.96 -3.65426 167.461 4.85254C189.442 10.9828 210.116 23.7931 226.483 40.2118L226.556 25.7504C226.582 20.5263 230.838 16.3125 236.062 16.3387C241.287 16.3648 245.5 20.6211 245.474 25.8452L245.271 66.4682C245.258 69.0164 244.218 71.4517 242.385 73.2226C240.553 74.9935 238.083 75.9502 235.536 75.8761L194.93 74.6945C189.708 74.5425 185.598 70.1861 185.75 64.9641C185.902 59.7421 190.258 55.632 195.48 55.7839L215.799 56.3752C201.206 40.787 182.227 28.6113 162.379 23.0756Z" fill="#2583F0"/>
<path d="M135.919 66.4593C135.919 61.2351 131.683 57 126.459 57C121.235 57 117 61.2351 117 66.4593L117 135.254C117 137.763 117.997 140.169 119.771 141.943L167.66 189.832C171.354 193.526 177.344 193.526 181.038 189.832C184.732 186.138 184.732 180.149 181.038 176.455L145.959 125.394L135.919 66.4593Z" fill="#838383"/>
<path d="M135.919 66.4593C135.919 61.2351 131.683 57 126.459 57C121.235 57 117 61.2351 117 66.4593L117 135.254C117 137.763 117.997 140.169 119.771 141.943L167.66 189.832C171.354 193.526 177.344 193.526 181.038 189.832C184.732 186.138 184.732 180.149 181.038 176.455L145.959 125.394L135.919 66.4593Z" fill="#838383"/>
<path d="M135.919 66.4593C135.919 61.2351 131.683 57 126.459 57C121.235 57 117 61.2351 117 66.4593L117 135.254C117 137.763 117.997 140.169 119.771 141.943L167.66 189.832C171.354 193.526 177.344 193.526 181.038 189.832C184.732 186.138 184.732 180.149 181.038 176.455L145.959 125.394L135.919 66.4593Z" fill="#003168"/>
</svg>
