<svg width="265" height="265" viewBox="0 0 265 265" fill="none" xmlns="http://www.w3.org/2000/svg">
<path fill-rule="evenodd" clip-rule="evenodd" d="M132.5 245C194.632 245 245 194.632 245 132.5C245 70.368 194.632 20 132.5 20C70.368 20 20 70.368 20 132.5C20 194.632 70.368 245 132.5 245ZM132.5 265C205.678 265 265 205.678 265 132.5C265 59.3223 205.678 0 132.5 0C59.3223 0 0 59.3223 0 132.5C0 205.678 59.3223 265 132.5 265Z" fill="#2583F0"/>
<path d="M120.686 54.5604C120.686 50.385 124.075 47 128.254 47H136.767C140.946 47 144.335 50.385 144.335 54.5604V63.6481C153.223 64.7807 160.518 67.5393 166.217 71.9237C173.962 77.8354 179.461 85.6386 182.712 95.3335L163.912 100.654C162.729 97.5208 160.985 94.4763 158.679 91.5205C156.433 88.5058 153.358 86.023 149.456 84.0719C145.554 82.1212 140.558 81.1459 134.469 81.1459C126.133 81.1459 119.186 83.0671 113.629 86.9097C108.13 90.6929 105.381 95.5109 105.381 101.363C105.381 106.565 107.273 110.674 111.057 113.689C114.841 116.704 120.753 119.216 128.793 121.226L149.013 126.192C161.192 129.148 170.267 133.67 176.238 139.759C182.21 145.789 185.195 153.562 185.195 163.08C185.195 170.883 182.949 177.859 178.455 184.007C174.021 190.155 167.814 195.002 159.832 198.549C155.119 200.643 149.953 202.12 144.335 202.977V211.44C144.335 215.615 140.946 219 136.767 219H128.254C124.075 219 120.686 215.615 120.686 211.44V203.135C111.729 201.906 103.997 199.135 97.4884 194.825C88.3837 188.795 82.6193 179.987 80.1953 168.4L100.06 163.435C101.952 170.765 105.529 176.263 110.791 179.928C116.112 183.593 123.058 185.426 131.631 185.426C141.386 185.426 149.131 183.356 154.866 179.219C160.66 175.021 163.557 169.997 163.557 164.144C163.557 159.415 161.901 155.454 158.591 152.262C155.28 149.011 150.195 146.587 143.337 144.99L120.635 139.67C108.16 136.714 98.996 132.133 93.1429 125.926C87.349 119.659 84.4521 111.827 84.4521 102.427C84.4521 94.7423 86.61 87.944 90.9259 82.0326C95.3009 76.1211 101.243 71.4805 108.751 68.1108C112.485 66.4484 116.463 65.1958 120.686 64.3536V54.5604Z" fill="#003168"/>
</svg>
