<svg width="24" height="24" viewBox="0 0 24 24" fill="none" xmlns="http://www.w3.org/2000/svg">
<path fill-rule="evenodd" clip-rule="evenodd" d="M21 16C21.5128 16 21.9355 16.386 21.9933 16.8833L22 17V19C22 20.5976 20.7511 21.9036 19.1763 21.9949L19 22H5C3.40232 22 2.09634 20.751 2.00509 19.1762L2 19V17C2 16.4477 2.44772 16 3 16C3.51284 16 3.93551 16.386 3.99327 16.8833L4 17V19C4 19.5128 4.38604 19.9355 4.88338 19.9932L5 20H19C19.5128 20 19.9355 19.6139 19.9933 19.1166L20 19V17C20 16.4477 20.4477 16 21 16ZM12.1485 15.989L12.09 15.996V15.996L12 16L11.9248 15.9972V15.9972L11.7993 15.9798V15.9798L11.6879 15.9503V15.9503L11.5768 15.9063V15.9063L11.4793 15.854V15.854L11.3745 15.7803V15.7803L11.2929 15.7071L8.29289 12.7071C7.90237 12.3166 7.90237 11.6834 8.29289 11.2929C8.68342 10.9024 9.31658 10.9024 9.70711 11.2929L11 12.586L11 3C11 2.44772 11.4477 2 12 2C12.5523 2 13 2.44772 13 3L13 12.586L14.2929 11.2929C14.6834 10.9024 15.3166 10.9024 15.7071 11.2929C16.0976 11.6834 16.0976 12.3166 15.7071 12.7071L12.7071 15.7071C12.6717 15.7425 12.6343 15.7747 12.5953 15.8037L12.4841 15.8753V15.8753L12.3713 15.9288V15.9288L12.266 15.9642V15.9642L12.1485 15.989V15.989Z" />
</svg>
