<svg width="53" height="52" viewBox="0 0 53 52" fill="none" xmlns="http://www.w3.org/2000/svg">
<path fill-rule="evenodd" clip-rule="evenodd" d="M26.2611 4.03906C25.4354 4.03906 24.6573 4.46152 24.2154 5.17344C22.7738 7.49459 19.5558 12.7665 16.6938 18.2538C15.2636 20.9958 13.9087 23.8175 12.9077 26.3669C11.9268 28.865 11.2109 31.2823 11.2109 33.1469C11.2109 41.3528 17.9742 47.9601 26.2611 47.9601C34.5481 47.9601 41.3113 41.3528 41.3113 33.1469C41.3113 31.2823 40.5954 28.8649 39.6146 26.3667C38.6136 23.8171 37.2587 20.9953 35.8285 18.2531C32.9667 12.766 29.7486 7.494 28.3067 5.17322C27.8648 4.46143 27.0867 4.03906 26.2611 4.03906ZM19.3537 19.6411C21.8698 14.8171 24.6759 10.1456 26.2612 7.5694C27.8465 10.1448 30.6525 14.8163 33.1685 19.6404C34.5742 22.3356 35.8757 25.0526 36.8221 27.4631C37.7887 29.925 38.3113 31.889 38.3113 33.1469C38.3113 39.6463 32.9413 44.9601 26.2611 44.9601C19.5809 44.9601 14.2109 39.6463 14.2109 33.1469C14.2109 31.889 14.7335 29.9251 15.7001 27.4634C16.6466 25.053 17.948 22.3362 19.3537 19.6411ZM21.5686 37.6965C20.9744 37.1193 20.0248 37.1331 19.4475 37.7273C18.8703 38.3215 18.884 39.2711 19.4783 39.8484C21.2893 41.6076 23.7298 42.5868 26.2655 42.5801C27.0939 42.5779 27.7637 41.9045 27.7615 41.0761C27.7593 40.2477 27.0859 39.5779 26.2575 39.5801C24.4975 39.5847 22.8123 38.9047 21.5686 37.6965Z" />
</svg>
