<svg width="53" height="52" viewBox="0 0 53 52" fill="none" xmlns="http://www.w3.org/2000/svg">
<path fill-rule="evenodd" clip-rule="evenodd" d="M26.0727 6.92089L26.0748 6.92205L43.7405 16.5046C44.3128 16.7161 44.7207 17.2664 44.7207 17.9121V44.042C44.7207 44.8705 44.0491 45.542 43.2207 45.542C42.3923 45.542 41.7207 44.8705 41.7207 44.042V20.4421L26.0748 28.9016L26.0716 28.9033C24.7067 29.6474 23.1411 29.6473 21.7763 28.903L21.7737 28.9016L5.03334 19.8358C4.22708 19.3974 3.94727 18.5472 3.94727 17.9118C3.94727 17.2765 4.22708 16.4262 5.03334 15.9878L21.7737 6.92205L21.7762 6.92072C23.1414 6.17611 24.7075 6.17617 26.0727 6.92089ZM24.6369 9.55497C24.1665 9.29808 23.6821 9.29808 23.2117 9.55497L23.207 9.55751L7.7804 17.9118L23.2117 26.2686C23.6821 26.5255 24.1665 26.5255 24.6369 26.2686L24.6424 26.2656L40.0678 17.9253L24.6406 9.55702L24.6369 9.55497Z" />
<path d="M13.8516 30.9922C13.8516 30.1638 13.18 29.4922 12.3516 29.4922C11.5231 29.4922 10.8516 30.1638 10.8516 30.9922V38.8312C10.8516 39.1792 10.9726 39.5164 11.1939 39.785C14.5725 43.886 19.1656 46.0647 23.9276 45.5664C28.6896 46.0647 33.2827 43.886 36.6614 39.785C36.8826 39.5164 37.0036 39.1792 37.0036 38.8312V30.9922C37.0036 30.1638 36.3321 29.4922 35.5036 29.4922C34.6752 29.4922 34.0036 30.1638 34.0036 30.9922V38.2797C31.1585 41.5168 27.5903 42.9805 24.104 42.5676C23.9868 42.5537 23.8684 42.5537 23.7512 42.5676C20.2649 42.9805 16.6967 41.5168 13.8516 38.2797V30.9922Z" />
</svg>
