<svg width="53" height="52" viewBox="0 0 53 52" fill="none" xmlns="http://www.w3.org/2000/svg">
<path fill-rule="evenodd" clip-rule="evenodd" d="M6.94966 6.81819C7.2474 6.76031 7.55532 6.84068 7.78677 7.0367C10.5371 9.36585 13.6052 10.2917 16.6845 11.221L16.8983 11.2855C19.9854 12.2179 23.1724 13.2068 25.4786 15.9252C27.1896 17.9453 28.68 20.4807 28.5192 23.1014C28.3707 25.5239 26.8495 27.6892 23.6408 29.4139C25.7472 33.0226 27.4563 36.8661 28.728 40.8782C29.198 39.9358 29.8148 38.7971 30.5792 37.5839C31.1025 36.7533 31.6996 35.8802 32.3713 35.0073C30.3587 33.3989 29.5283 31.5409 29.7633 29.6648C30.0138 27.6651 31.4423 25.9774 33.1218 24.855C35.0325 23.578 36.9915 23.0716 38.84 22.5938C39.0238 22.5462 39.2073 22.4988 39.3888 22.4511C41.4139 21.919 43.3996 21.3128 45.5042 19.7226C45.7601 19.5293 46.0932 19.4704 46.3999 19.5644C46.7066 19.6583 46.9496 19.8937 47.0533 20.1973C48.9875 25.8595 48.1156 32.1069 44.7048 37.0198C44.6761 37.0613 44.6442 37.1005 44.6095 37.1371C43.1033 38.728 40.9514 40.1309 38.6839 40.1332C36.6941 40.1353 34.8975 39.072 33.5526 36.7645C33.0883 37.3973 32.661 38.0314 32.2713 38.65C31.3317 40.1414 30.6263 41.5164 30.1565 42.5172C29.9218 43.0171 29.7466 43.4222 29.6309 43.7C29.5731 43.8389 29.5302 43.9459 29.5022 44.0168C29.4882 44.0523 29.478 44.0788 29.4715 44.0957L29.4645 44.114L29.463 44.1179C29.3104 44.5255 28.9117 44.7875 28.477 44.7659C28.0421 44.7443 27.6712 44.4439 27.5598 44.023C26.3326 39.3855 24.5088 34.9544 22.1516 30.8341C21.3429 32.3136 20.431 33.4079 19.4228 34.144C18.1234 35.0926 16.7194 35.404 15.3252 35.2341C12.6341 34.9061 10.1169 32.8097 8.23718 30.5865C6.20373 28.1814 4.89888 23.9434 4.48197 19.6399C4.06358 15.3212 4.51108 10.6519 6.2554 7.33443C6.39656 7.06597 6.65193 6.87608 6.94966 6.81819ZM34.91 35.0551C36.0551 37.4718 37.4611 38.1345 38.6818 38.1332C40.1447 38.1317 41.7836 37.1922 43.1054 35.8164C45.8643 31.8035 46.7371 26.8055 45.5418 22.1228C43.5461 23.3691 41.6494 23.925 39.8971 24.3854C39.7203 24.4319 39.5458 24.4772 39.3733 24.5221L39.3717 24.5225C37.4867 25.0124 35.8487 25.4381 34.2331 26.5178C32.8207 27.4618 31.8993 28.7044 31.7478 29.9134C31.622 30.9177 32.0002 32.1658 33.6436 33.4649C35.2967 31.5997 37.3041 29.8544 39.6732 28.667C40.1669 28.4195 40.7678 28.6191 41.0153 29.1129C41.2627 29.6066 41.0631 30.2075 40.5694 30.4549C38.3678 31.5585 36.4785 33.2352 34.91 35.0551ZM26.523 22.979C26.4302 24.4923 25.4962 26.1776 22.6011 27.7028C19.9507 23.5095 16.7493 19.6622 13.0637 16.2718C12.6573 15.8979 12.0247 15.9243 11.6508 16.3308C11.2768 16.7373 11.3032 17.3699 11.7097 17.7438C15.2736 21.0221 18.3683 24.7436 20.9287 28.8002C20.0671 30.7149 19.1383 31.8753 18.2435 32.5286C17.3657 33.1695 16.4726 33.3591 15.5672 33.2488C13.6591 33.0163 11.5667 31.4269 9.76446 29.2952C8.11594 27.3454 6.87382 23.588 6.47265 19.4471C6.12205 15.8281 6.43553 12.1336 7.52308 9.36885C10.3167 11.3909 13.3207 12.2961 16.0065 13.1055L16.3201 13.2001C19.478 14.1539 22.0825 15.0137 23.953 17.2184C25.5758 19.1346 26.6347 21.1565 26.523 22.979Z" />
</svg>
