<svg width="49" height="65" viewBox="0 0 49 65" fill="none" xmlns="http://www.w3.org/2000/svg">
<path d="M15.7087 0.135391C15.8253 0.135225 15.9419 0.135059 16.0621 0.134888C19.2904 0.135408 22.4724 0.380366 25.6774 0.760391C25.8602 0.781891 26.0429 0.80339 26.2312 0.825541C30.14 1.28979 34.0113 1.91875 37.8753 2.66664C38.0091 2.69246 38.1429 2.71827 38.2807 2.74487C45.1545 4.07883 45.1545 4.07883 47.3753 5.66664C47.2826 6.60802 47.0208 7.37085 46.6566 8.23956C44.9483 12.5184 44.5302 17.2878 44.5023 21.8659C44.5015 21.9752 44.5007 22.0846 44.4999 22.1972C44.4938 23.0273 44.4912 23.8574 44.4899 24.6875C44.4896 24.871 44.4896 24.871 44.4892 25.0582C44.4827 29.1632 44.6622 33.2031 45.1622 37.2804C45.2392 37.9207 45.3081 38.562 45.3779 39.2031C45.7554 42.6268 46.1964 46.0457 46.8406 49.4303C47.0083 50.3132 47.1671 51.1975 47.3226 52.0827C47.3711 52.3573 47.4196 52.6319 47.4681 52.9066C47.5416 53.3228 47.6149 53.7392 47.6874 54.1556C47.965 55.7472 48.2595 57.3253 48.6685 58.8893C48.8495 59.6075 48.9309 60.26 48.8753 61C48.3798 61.4955 47.7823 61.4911 47.1136 61.5918C46.8914 61.6266 46.8914 61.6266 46.6647 61.6621C46.1727 61.7382 45.6803 61.812 45.1878 61.8854C44.9358 61.9236 44.9358 61.9236 44.6787 61.9627C41.5918 62.4293 38.4972 62.7793 35.3902 63.0816C35.2264 63.0976 35.0625 63.1135 34.8937 63.13C34.5874 63.1597 34.2811 63.1887 33.9748 63.2172C33.8391 63.2301 33.7035 63.2431 33.5637 63.2564C33.4462 63.2673 33.3287 63.2782 33.2076 63.2895C32.8734 63.327 32.8734 63.327 32.5464 63.4165C32.1787 63.5074 31.8273 63.5469 31.45 63.5796C31.3006 63.5928 31.1512 63.6059 30.9972 63.6194C30.8358 63.6328 30.6744 63.6463 30.5082 63.6601C30.3381 63.6745 30.168 63.6889 29.9928 63.7037C24.5462 64.155 19.1006 64.3827 13.6363 64.3851C13.2759 64.3854 12.9156 64.3862 12.5553 64.3871C9.86814 64.3922 7.21221 64.3262 4.54201 64C4.43443 63.7608 4.32716 63.5215 4.22003 63.2822C4.16026 63.1489 4.10049 63.0157 4.03891 62.8784C3.68349 62.0561 3.45739 61.1923 3.20867 60.3333C3.11361 60.0214 3.11361 60.0214 3.01662 59.7031C2.35293 57.4745 1.92735 55.1967 1.49176 52.915C1.40431 52.4781 1.3089 52.0463 1.20786 51.6126C1.03116 50.8231 0.925327 50.0336 0.833023 49.2304C0.815393 49.081 0.797763 48.9316 0.779599 48.7776C0.742667 48.4625 0.706132 48.1474 0.669978 47.8322C0.615717 47.361 0.559582 46.8901 0.50327 46.4192C0.0849806 42.8606 0.00200194 39.3318 0.00034078 35.75C0.000228323 35.5306 0.000115865 35.3112 0 35.0851C0.00339523 25.9188 0.998264 16.7312 3.10003 7.79913C3.21967 7.28615 3.3334 6.772 3.44761 6.25779C3.53084 5.89747 3.61438 5.53723 3.69826 5.17706C3.73435 5.01213 3.77044 4.84719 3.80763 4.67726C4.1132 3.40731 4.59099 2.45762 5.65594 1.66859C6.97586 1.03391 8.26332 0.708291 9.70867 0.499975C9.87158 0.474234 9.87158 0.474234 10.0378 0.447973C11.9208 0.158384 13.8077 0.136097 15.7087 0.135391ZM6.04201 3.66664C5.78976 4.15145 5.78976 4.15145 5.65724 4.71807C5.62851 4.82245 5.59977 4.92682 5.57017 5.03435C5.4767 5.37957 5.38935 5.72598 5.30242 6.07289C5.23855 6.3172 5.17461 6.56149 5.11061 6.80576C3.83915 11.7484 3.06164 16.8199 2.49074 21.8864C2.43772 22.3552 2.38314 22.8237 2.32847 23.2923C2.29321 23.6015 2.25806 23.9108 2.223 24.22C2.2072 24.3545 2.1914 24.489 2.17512 24.6275C1.90683 27.0477 1.84652 29.481 1.83563 31.914C1.83461 32.1132 1.83461 32.1132 1.83357 32.3164C1.83013 33.0218 1.82773 33.7272 1.82615 34.4326C1.82469 34.9994 1.82124 35.566 1.81589 36.1328C1.77909 40.1244 1.9963 44.0217 2.4976 47.9824C2.54311 48.342 2.58784 48.7017 2.63244 49.0614C2.91897 51.3627 3.24598 53.5997 3.87534 55.8333C3.95646 56.1594 4.03755 56.4855 4.11696 56.8121C4.38632 57.9178 4.67739 59.0173 4.97951 60.1146C5.03105 60.3032 5.03105 60.3032 5.08363 60.4957C5.25889 61.1254 5.44986 61.7314 5.70867 62.3333C7.07649 62.5225 8.43736 62.53 9.81544 62.5338C10.073 62.535 10.3306 62.5362 10.5881 62.5374C11.42 62.5407 12.2518 62.5415 13.0837 62.5416C13.2971 62.5417 13.2971 62.5417 13.5149 62.5418C22.8069 62.5423 31.9821 61.7817 41.2106 60.7415C41.3812 60.7227 41.5517 60.7038 41.7275 60.6844C43.4587 60.4857 45.1664 60.1706 46.8753 59.8333C46.7796 58.6778 46.6116 57.5535 46.3858 56.4166C46.3575 56.2712 46.3293 56.1257 46.3001 55.9759C46.1914 55.4176 46.0821 54.8595 45.9664 54.3026C45.6811 52.9205 45.4495 51.5288 45.2125 50.1378C45.1369 49.6942 45.0607 49.2508 44.9844 48.8073C44.8337 47.9276 44.6868 47.0473 44.542 46.1666C44.5201 46.0345 44.4983 45.9024 44.4757 45.7663C44.0846 43.3787 43.8278 40.9797 43.5862 38.5729C43.5213 37.9285 43.4546 37.2844 43.3877 36.6403C43.1814 34.6219 42.9935 32.6098 42.9248 30.5815C42.9061 30.043 42.8808 29.5317 42.7898 28.9998C42.6812 28.3305 42.6817 27.6756 42.6807 26.9987C42.68 26.8536 42.6793 26.7086 42.6786 26.5591C42.6769 26.088 42.6769 25.6169 42.6774 25.1458C42.6775 24.9044 42.6775 24.9044 42.6776 24.6581C42.681 21.9812 42.7658 19.3312 43.042 16.6666C43.059 16.4986 43.076 16.3305 43.0934 16.1573C43.4443 12.8108 44.1764 9.64357 45.3753 6.49997C44.0076 5.95576 42.6283 5.53968 41.2015 5.18487C41.0272 5.14152 40.8529 5.09817 40.6733 5.05351C38.8188 4.60053 36.9513 4.23578 35.0733 3.89581C34.8105 3.84773 34.8105 3.84773 34.5424 3.79868C31.386 3.22383 28.2352 2.80008 25.042 2.49997C24.6924 2.46461 24.3428 2.42904 23.9932 2.3932C23.1213 2.30603 22.2491 2.23104 21.3753 2.16664C21.1799 2.15218 21.1799 2.15218 20.9805 2.13743C19.0626 2.004 17.142 1.98007 15.2202 1.97077C14.9603 1.96943 14.7005 1.9676 14.4407 1.96522C9.99462 1.9168 9.99462 1.9168 6.04201 3.66664Z" fill="#1C4837"/>
<path d="M28.5146 7.17579C29.1354 7.36151 29.4863 7.62277 29.9788 8.04168C30.2089 8.23375 30.2089 8.23375 30.4436 8.4297C31.1956 9.13395 31.6109 9.62323 31.7079 10.6667C31.9777 10.6944 31.9777 10.6944 32.2529 10.7227C33.3529 10.8598 34.4266 11.137 35.5038 11.3932C35.6681 11.4306 35.8323 11.468 36.0016 11.5065C36.1493 11.5412 36.297 11.576 36.4493 11.6117C36.9177 11.6722 37.2557 11.6313 37.7079 11.5C37.7851 11.4154 37.8622 11.3307 37.9417 11.2435C38.3595 10.8614 38.7498 10.9338 39.3017 10.9375C39.4944 10.9362 39.6871 10.9349 39.8857 10.9336C40.047 10.9555 40.2084 10.9774 40.3746 11C41.0045 11.9448 40.8321 13.391 40.7079 14.5C40.5064 15.3982 40.1996 16.3417 39.5413 17C39.0888 17.0137 39.0888 17.0137 38.5517 16.9688C38.3749 16.9561 38.198 16.9434 38.0159 16.9303C37.513 16.8276 37.3356 16.7466 37.0413 16.3333C37.0413 16.2233 37.0413 16.1133 37.0413 16C36.2226 16.0032 35.4042 16.0119 34.5856 16.0254C34.3073 16.0293 34.0289 16.0317 33.7505 16.0326C33.3499 16.0342 32.9496 16.041 32.5491 16.0488C32.3628 16.0479 32.3628 16.0479 32.1728 16.0469C31.5394 16.0646 31.2723 16.0986 30.8287 16.5674C30.7339 16.7102 30.639 16.8529 30.5413 17C30.1339 17.2927 29.6897 17.4995 29.2392 17.7188C29.0676 17.8085 29.0676 17.8085 28.8925 17.9001C28.1224 18.2826 27.5663 18.3995 26.7079 18.3333C25.4269 15.4437 25.1358 12.8576 26.2079 9.83334C26.4414 9.29455 26.7072 8.8156 27.0413 8.33334C27.1205 8.21604 27.1998 8.09873 27.2815 7.97787C27.8928 7.16382 27.8928 7.16382 28.5146 7.17579Z" fill="#E97474"/>
<path d="M10.7187 49.9375C10.8616 49.9362 11.0045 49.9349 11.1517 49.9336C11.6199 50.0133 11.7666 50.1172 12.0417 50.5C12.2268 51.7135 11.8448 52.6466 11.3829 53.7504C11.0773 54.4417 11.0773 54.4417 11.2083 55.1667C12.07 55.5975 13.431 55.4547 14.375 55.3333C15.555 54.9368 16.3747 54.2311 17.2083 53.3333C17.3183 53.3333 17.4283 53.3333 17.5417 53.3333C17.5339 53.2107 17.5262 53.088 17.5182 52.9616C17.4907 52.2181 17.4721 51.6542 17.7812 50.9687C18.4061 50.5268 18.9666 50.5953 19.7083 50.6667C19.8281 51.0312 19.8281 51.0312 19.875 51.5C19.6067 51.9567 19.2868 52.3393 18.9531 52.75C18.6682 53.1495 18.6682 53.1495 18.7246 53.6068C18.9889 54.2978 19.5522 54.6719 20.2083 55C21.2254 55.1505 21.9884 54.973 22.8613 54.4395C23.523 53.9193 24.0002 53.2495 24.375 52.5C24.7604 52.4479 24.7604 52.4479 25.2083 52.5C25.4792 52.8958 25.4792 52.8958 25.7083 53.3333C26.5193 53.874 27.4251 53.7263 28.375 53.6667C28.7815 53.5842 29.1468 53.465 29.5417 53.3333C30.0312 53.3125 30.0312 53.3125 30.375 53.3333C30.43 53.5533 30.485 53.7733 30.5417 54C30.3059 54.1083 30.0697 54.2158 29.8333 54.3229C29.6361 54.4128 29.6361 54.4128 29.4349 54.5046C28.3718 54.9428 27.0591 55.0824 25.9655 54.6842C25.653 54.5202 25.3468 54.3442 25.0417 54.1667C24.5459 54.1109 24.5459 54.1109 24.2845 54.3984C24.1488 54.5518 24.1488 54.5518 24.0104 54.7083C23.045 55.6957 22.269 56.0372 20.875 56.1042C19.7523 56.0729 19.148 55.7963 18.375 55C18.1687 54.8041 18.1687 54.8041 17.9583 54.6042C17.8758 54.5148 17.7933 54.4254 17.7083 54.3333C17.6334 54.4079 17.5584 54.4824 17.4811 54.5592C15.9412 56.0066 14.3358 56.5367 12.2617 56.5436C11.7282 56.5016 11.3878 56.3961 10.9062 56.1771C10.5614 56.0203 10.5614 56.0203 10.2083 56C9.6861 56.3128 9.2984 56.7339 8.875 57.1667C8.12662 57.6196 7.22623 57.637 6.375 57.5C5.81646 57.101 5.59626 56.8556 5.40625 56.1979C5.39594 56.0776 5.38562 55.9573 5.375 55.8333C5.76042 55.875 5.76042 55.875 6.20833 56C6.27708 56.1169 6.34583 56.2337 6.41667 56.3542C6.6747 56.6972 6.6747 56.6972 7.03125 56.7083C8.08177 56.6515 8.66278 56.2489 9.375 55.5C9.26252 54.9826 9.08121 54.5343 8.86458 54.0521C8.4948 53.131 8.30638 52.2849 8.66927 51.3314C9.15813 50.406 9.66211 49.9279 10.7187 49.9375Z" fill="#E97474"/>
<path d="M8.37546 30.6667C8.37546 30.8317 8.37546 30.9967 8.37546 31.1667C8.04659 31.3955 7.71289 31.6174 7.37546 31.8334C6.98561 32.4181 6.97331 32.6452 7.04213 33.3334C7.27508 33.8899 7.48233 34.1254 7.97963 34.4688C8.88058 34.7858 9.61093 34.8399 10.5089 34.4792C10.9172 34.2759 11.3151 34.0635 11.7088 33.8334C11.6991 33.6866 11.6895 33.5399 11.6795 33.3887C11.6181 31.8081 11.6181 31.8081 12.063 31.1146C12.6276 30.7832 12.8992 30.7103 13.5421 30.8334C13.9484 31.073 13.9484 31.073 14.2088 31.5C14.2504 32.2093 14.1504 32.807 13.8025 33.4271C13.5421 33.6667 13.5421 33.6667 13.2088 33.6667C13.8553 34.3851 14.3453 34.6221 15.3025 34.7396C17.2634 34.6731 18.7107 33.3999 19.9842 32.0391C20.2088 31.8334 20.2088 31.8334 20.5421 31.8125C21.0736 32.1115 21.1594 32.6166 21.3755 33.1667C22.3061 33.632 23.6214 33.3929 24.5734 33.0834C26.3304 32.5647 28.0853 32.773 29.86 33.0731C33.4071 33.6692 36.9561 33.5618 40.5421 33.5C40.6463 33.8125 40.6463 33.8125 40.7088 34.1667C39.7053 35.1702 36.969 34.7185 35.6346 34.7213C33.3475 34.7119 31.1273 34.3923 28.8755 34C27.4847 33.7622 26.3327 33.7037 24.9796 34.1667C23.837 34.548 22.5236 34.8278 21.3624 34.3607C20.9876 34.1187 20.6902 33.8147 20.3755 33.5C19.8378 33.5568 19.5605 33.7582 19.1775 34.125C17.9605 35.2136 16.765 35.7206 15.1424 35.7038C14.3339 35.6346 13.6465 35.3775 13.0005 34.875C12.7269 34.6288 12.7269 34.6288 12.4093 34.7103C11.9824 34.8534 11.6078 35.052 11.2088 35.2605C10.0951 35.7705 8.99224 35.9495 7.81556 35.5248C6.9684 35.0566 6.41398 34.3904 6.04213 33.5C5.87572 32.5681 6.14755 32.0426 6.64434 31.2832C7.16638 30.6436 7.59678 30.6321 8.37546 30.6667Z" fill="#E97474"/>
<path d="M7.04199 23.6666C7.84604 23.7762 8.64057 23.9096 9.43783 24.0625C9.6724 24.1068 9.90699 24.1511 10.1416 24.1953C10.3221 24.2293 10.3221 24.2293 10.5063 24.264C11.1186 24.379 11.7311 24.4928 12.3441 24.6041C12.4534 24.6246 12.5627 24.6451 12.6754 24.6662C15.9633 25.2573 19.8367 25.4017 23.042 24.3333C24.051 24.2383 24.9447 24.2496 25.8857 24.6458C26.6728 24.9666 27.4332 25.0998 28.2738 25.1823C28.4104 25.1961 28.5471 25.2099 28.6879 25.2242C30.4517 25.3889 32.2198 25.4101 33.9899 25.4375C34.3368 25.4438 34.6837 25.4504 35.0306 25.457C35.8677 25.4727 36.7048 25.4868 37.542 25.5C37.6057 25.776 37.661 26.0541 37.7087 26.3333C37.4498 26.5922 37.2019 26.5237 36.8416 26.5268C36.6922 26.5284 36.5428 26.53 36.3889 26.5317C36.1434 26.5327 36.1434 26.5327 35.8929 26.5338C35.7235 26.5348 35.554 26.5357 35.3795 26.5367C35.0178 26.5383 34.6562 26.5394 34.2946 26.54C33.7532 26.5416 33.2119 26.5467 32.6706 26.552C31.0022 26.5608 29.3603 26.5263 27.7067 26.289C27.5765 26.271 27.4463 26.2529 27.3121 26.2343C26.4882 26.0997 25.7937 25.8453 25.0452 25.4761C23.7755 24.9373 22.1522 25.5598 20.9014 25.9224C16.4597 26.8814 11.3493 25.4132 7.04199 24.3333C7.04199 24.1133 7.04199 23.8933 7.04199 23.6666Z" fill="#E97474"/>
<path d="M28.708 39.3333C28.9872 39.3809 29.2653 39.4362 29.5413 39.4999C29.5413 39.9949 29.5413 40.4899 29.5413 40.9999C30.2077 41.3331 30.4556 41.3745 31.1722 41.3717C31.4619 41.3713 31.4619 41.3713 31.7574 41.371C32.0681 41.3678 32.0681 41.3678 32.3851 41.3645C32.5975 41.3634 32.8099 41.3624 33.0288 41.3612C35.2012 41.3441 37.3712 41.2653 39.5413 41.1666C39.605 41.4426 39.6603 41.7207 39.708 41.9999C38.6803 43.0276 34.7487 42.5461 33.2742 42.5588C33.0234 42.5612 32.7725 42.5647 32.5217 42.5693C31.1625 42.5922 30.0422 42.6045 28.8747 41.8333C28.72 41.9673 28.5653 42.1014 28.4059 42.2395C27.6617 42.8845 26.9496 42.8902 25.9958 42.8801C25.1523 42.7931 24.7178 42.3525 24.1559 41.7603C23.8684 41.3237 23.7669 41.015 23.708 40.4999C24.083 40.5312 24.083 40.5312 24.5413 40.6666C24.7711 40.9381 24.9935 41.2162 25.208 41.4999C25.7891 41.9207 26.3409 41.9057 27.0413 41.8333C27.4761 41.5837 27.8531 41.3549 28.208 40.9999C28.2692 40.7512 28.3238 40.5009 28.3747 40.2499C28.5228 39.5184 28.5228 39.5184 28.708 39.3333Z" fill="#E97474"/>
<path d="M13.6149 41.9688C14.042 42 14.042 42 14.3753 42.3333C14.3753 42.4983 14.3753 42.6633 14.3753 42.8333C13.9903 42.8333 13.6053 42.8333 13.2087 42.8333C13.1149 42.5104 13.1149 42.5104 13.042 42.1667C13.2087 42 13.2087 42 13.6149 41.9688Z" fill="#E97474"/>
<path d="M39.698 10.9375C39.8321 10.9581 39.9662 10.9788 40.1043 11C40.7342 11.9448 40.5617 13.391 40.4376 14.5C40.2361 15.3982 39.9293 16.3417 39.271 17C38.8543 16.9792 38.8543 16.9792 38.4376 16.8333C37.8303 15.9643 37.999 14.6815 38.1043 13.6667C38.646 11.0915 38.646 11.0915 39.698 10.9375Z" fill="#282825"/>
</svg>
