<svg width="284" height="284" viewBox="0 0 284 284" fill="none" xmlns="http://www.w3.org/2000/svg">
<path fill-rule="evenodd" clip-rule="evenodd" d="M198.378 41.7457C198.246 41.9548 198.044 42.4285 197.946 43.3725C197.805 44.7293 198.066 45.8871 198.501 47.0275C198.725 47.6165 198.987 48.1789 199.278 48.7965L199.315 48.875C199.581 49.4412 199.888 50.0919 200.129 50.7419C200.652 52.1542 201.029 53.9842 200.091 55.9566C199.234 57.7579 197.485 59.2186 195.062 60.5982C194.202 61.0873 193.273 61.4419 192.287 61.4923C191.239 61.5459 190.315 61.2461 189.552 60.7299C188.844 60.2516 188.339 59.6322 187.977 59.1173C187.642 58.6384 187.336 58.107 187.086 57.6729L187.034 57.5815C186.447 56.5634 186.042 55.9249 185.541 55.5064C185.179 55.2033 184.675 54.9368 183.628 55.0485C181.165 55.3115 175.568 55.3674 168.592 55.3017C161.545 55.2353 152.914 55.0414 144.259 54.7764C127.024 54.2487 109.471 53.4328 104.254 52.7622C99.932 52.2065 96.6066 50.9989 94.3675 49.5438C93.2584 48.8231 92.3112 47.9731 91.6836 47.0094C91.1767 46.2311 90.7346 45.1285 90.9271 43.9273C90.4097 43.9986 89.7999 44.0731 89.1101 44.15C87.2709 44.355 84.7887 44.5854 81.8142 44.8248C75.8613 45.3038 67.8836 45.8227 59.0292 46.2474C41.794 47.0741 21.1261 47.5493 5.57927 46.6588C5.46333 46.9693 5.45983 47.3938 5.6188 48.0338C5.91387 49.2218 6.68483 50.5624 7.46534 51.647C7.86378 52.0906 8.31346 52.508 8.84688 53.0032C8.91669 53.068 8.98794 53.1342 9.06069 53.2019C9.66338 53.7628 10.4185 54.4746 11.0092 55.2871C11.6252 56.1345 12.1869 57.2553 12.1971 58.6468C12.2073 60.0358 11.6658 61.3222 10.8021 62.5054C9.59717 64.156 9.51225 65.8716 9.87239 67.1475C9.93079 67.3544 9.999 67.5426 10.0723 67.7115C10.0787 67.6897 10.0852 67.6676 10.0917 67.6451C10.4416 66.4459 11.0488 64.3651 12.5762 62.8433C13.8226 61.6015 15.4701 61.3247 16.7447 61.3054C18.0575 61.2856 19.4539 61.5323 20.6885 61.808C21.4814 61.9851 22.3366 62.2063 23.1078 62.4057C23.5105 62.5099 23.8904 62.6081 24.2264 62.691C25.347 62.9675 26.0475 63.0915 26.4371 63.0915C26.7211 63.0915 27.2216 62.9943 28.0902 62.6803C28.6708 62.4703 29.2623 62.2243 29.947 61.9393C30.2893 61.7969 30.6549 61.6448 31.0542 61.4826C33.3069 60.5677 36.2215 59.5062 39.5145 59.5062C40.6732 59.5062 41.6561 59.5646 42.5234 59.7915C43.5 60.0469 44.1763 60.4732 44.7648 60.9333C44.9691 61.0931 45.165 61.2576 45.3727 61.432C46.1336 62.0711 47.052 62.8423 49.1172 63.9934C53.5208 65.8734 57.1796 66.11 60.2623 66.3094L60.4081 66.3188C61.875 66.4136 63.4681 66.5165 64.8367 66.9066C66.3735 67.3447 67.8292 68.1945 68.8066 69.8626C70.8408 73.3344 71.8556 74.6596 72.906 75.7057C73.4502 76.2477 74.0285 76.7396 74.8606 77.4475L74.9192 77.4974C75.7695 78.2207 76.813 79.1124 78.1637 80.374C81.8426 83.8103 82.3745 87.5506 82.0592 90.2235L84.1216 90.8106C86.4906 91.0397 90.05 91.0248 93.1107 90.5234C94.6942 90.2641 95.9972 89.8974 96.8996 89.4566C97.7856 89.0238 97.9087 88.713 97.9101 88.7136C98.6234 86.0562 100.273 84.2726 101.993 83.1833C103.655 82.131 105.488 81.6553 106.862 81.6553C106.903 81.6553 106.945 81.6564 106.986 81.6584C107.807 81.6994 109.451 81.5787 110.903 80.9515C112.276 80.3586 113.266 79.4328 113.556 77.8436C113.937 75.7588 114.646 74.0655 115.738 72.7862C116.857 71.4755 118.228 70.7731 119.604 70.4452C120.928 70.1299 122.24 70.1638 123.318 70.2598C123.864 70.3085 124.391 70.3777 124.85 70.4396L124.995 70.4591C125.409 70.515 125.753 70.5613 126.071 70.5931C127.277 70.7132 128.806 71.2011 130.48 71.9481C132.2 72.716 134.224 73.8267 136.452 75.3202C140.909 78.3093 146.238 82.8721 151.619 89.4062C154.15 92.4792 156.119 95.0886 157.754 97.2805C157.951 97.544 158.142 97.8002 158.327 98.0496C159.706 99.8998 160.802 101.371 161.836 102.594C164.053 105.218 165.768 106.45 168.853 107.118C172.967 108.009 176.218 109.711 178.348 111.811C180.407 113.84 181.769 116.669 180.83 119.475C180.763 119.676 180.695 120.247 180.811 121.311C180.92 122.302 181.156 123.462 181.457 124.676C181.756 125.88 182.104 127.077 182.419 128.14C182.465 128.296 182.511 128.45 182.557 128.604C182.809 129.451 183.046 130.249 183.179 130.804C183.225 130.994 183.247 131.189 183.247 131.385C183.247 132.308 183.27 133.18 183.292 134.016C183.329 135.412 183.363 136.708 183.283 137.975C183.144 140.196 182.679 142.6 181.504 146.447C180.978 148.169 180.522 149.436 180.15 150.434C180.063 150.669 179.983 150.881 179.91 151.076C179.659 151.742 179.488 152.197 179.357 152.633C179.099 153.486 179 154.199 179.302 156.46C179.507 157.986 180.454 158.846 181.171 159.105C181.366 159.175 181.497 159.187 181.572 159.186C181.578 159.168 181.585 159.144 181.592 159.115C181.86 158.045 182.287 156.865 183.152 156.06C183.649 155.598 184.306 155.247 185.091 155.173C185.842 155.102 186.478 155.306 186.929 155.531C187.75 155.94 188.355 156.616 188.693 157.02C188.948 157.325 189.214 157.683 189.41 157.948C190.594 158.874 191.948 160.239 193.056 161.827C194.24 163.524 195.344 165.767 195.344 168.192C195.344 171.409 193.22 173.39 191.936 174.588C191.881 174.64 191.827 174.69 191.775 174.738C190.255 176.164 189.786 176.759 189.786 177.638C189.786 178.162 190.112 179.504 190.937 181.58C191.712 183.528 192.792 185.801 193.983 188.017C195.176 190.235 196.451 192.341 197.601 193.965C198.178 194.779 198.698 195.435 199.138 195.913C199.574 196.388 199.808 196.547 199.84 196.569C199.843 196.572 199.844 196.573 199.843 196.572C200.146 196.723 200.354 196.731 200.497 196.712C200.659 196.691 200.857 196.618 201.072 196.457C201.291 196.294 201.486 196.071 201.623 195.835C201.69 195.72 201.734 195.617 201.76 195.536C201.788 195.453 201.79 195.411 201.79 195.413C201.832 194.665 202.207 193.975 202.813 193.533C203.418 193.091 204.19 192.944 204.915 193.133C206.114 193.444 207.197 194.223 208.028 194.963C208.912 195.751 209.759 196.72 210.475 197.725C211.188 198.724 211.83 199.84 212.247 200.942C212.624 201.938 212.997 203.381 212.554 204.777C211.591 207.817 211.576 209.206 211.882 210.067C212.173 210.887 212.962 211.805 215.394 213.286C215.612 213.419 215.826 213.549 216.036 213.677C218.581 215.224 220.623 216.465 222.042 217.665C223.739 219.1 224.827 220.699 225.079 222.962C225.093 223.084 225.097 223.206 225.093 223.328L224.813 231.133C226.129 232.047 228.054 233.213 230.155 234.257C232.935 235.637 235.628 236.603 237.445 236.703C239.89 236.839 241.601 237.098 242.778 237.41C243.361 237.565 243.891 237.753 244.339 237.992C244.563 238.111 244.824 238.273 245.073 238.494C245.291 238.688 245.68 239.084 245.889 239.709C246.119 240.396 246.465 241.258 247.178 242.078C247.868 242.871 249.008 243.746 251.017 244.273C253.986 245.051 254.63 244.64 254.72 244.583C254.827 244.515 254.982 244.377 255.309 243.931C255.371 243.846 255.447 243.739 255.534 243.615C255.818 243.213 256.223 242.639 256.662 242.129C258.124 240.43 260.035 240.089 261.592 240.317C263.03 240.528 264.256 241.213 264.992 241.783C265.517 242.19 265.859 242.79 265.941 243.449C266.015 244.034 265.879 244.623 265.562 245.114C265.557 245.139 265.552 245.173 265.548 245.215C265.526 245.424 265.534 245.768 265.653 246.21C265.884 247.063 266.541 248.315 268.226 249.574C271.952 252.358 273.269 256.177 273.668 259.148C274.011 258.939 274.497 258.519 275.172 257.594C275.159 257.613 275.315 257.357 275.546 256.562C275.754 255.845 275.966 254.895 276.176 253.735C276.594 251.421 276.97 248.441 277.286 245.172C277.917 238.638 278.288 231.129 278.288 225.845C278.288 223.25 278.017 221.293 277.727 219.192C277.599 218.271 277.468 217.322 277.354 216.279C276.987 212.911 276.908 209.154 278.007 203.541C280.206 192.315 274.607 184.712 270.28 178.838C269.938 178.373 269.604 177.92 269.283 177.476C267.615 175.175 265.263 170.656 263.055 166.081C260.814 161.435 258.611 156.495 257.231 153.196C257.207 153.14 257.186 153.082 257.167 153.025C256.39 150.705 255.891 148.63 255.466 146.71C255.362 146.243 255.264 145.791 255.169 145.35C254.864 143.945 254.583 142.645 254.219 141.306C253.3 137.919 251.878 134.376 248.37 129.61C241.094 119.724 235.936 110.621 233.572 101.041C231.953 94.4817 227.191 79.0829 221.137 69.5334C214.046 58.3475 212.701 50.6749 213.281 45.5198C212.516 45.7229 211.532 45.9398 210.498 45.9399C209.58 45.9399 208.676 45.6108 208.042 45.3472C207.336 45.0535 206.566 44.6642 205.825 44.2795C205.584 44.1542 205.344 44.0284 205.105 43.9031C203.795 43.2173 202.514 42.5461 201.278 42.0662C199.71 41.457 198.897 41.4443 198.591 41.5484C198.539 41.566 198.477 41.5869 198.378 41.7457ZM10.7575 68.695C10.7574 68.6956 10.7514 68.6927 10.7398 68.6846C10.7517 68.6904 10.7575 68.6945 10.7575 68.695ZM210.553 40.9393C210.54 40.933 210.366 40.8983 209.961 40.73C209.471 40.5264 208.868 40.2262 208.13 39.8427C207.924 39.7352 207.707 39.6213 207.481 39.5031C206.185 38.8225 204.612 37.9969 203.088 37.4053C201.408 36.7527 199.104 36.0937 196.983 36.814C194.459 37.6711 193.269 40.0073 192.973 42.8561C192.727 45.2264 193.213 47.1947 193.829 48.8098C194.13 49.5985 194.47 50.3211 194.754 50.9247C195.053 51.5618 195.277 52.0382 195.441 52.4802C195.749 53.3125 195.681 53.5869 195.575 53.8092C195.388 54.2026 194.741 55.0269 192.588 56.2531C192.428 56.3441 192.305 56.4018 192.215 56.4382C192.175 56.3897 192.128 56.327 192.072 56.247C191.867 55.9559 191.663 55.6013 191.368 55.089L191.366 55.0852L191.328 55.0191C190.803 54.1075 190.004 52.7209 188.748 51.6706C187.323 50.4791 185.464 49.8241 183.098 50.0767C180.984 50.3023 175.711 50.3686 168.639 50.3019C161.638 50.236 153.044 50.0431 144.412 49.7788C127.075 49.2479 109.81 48.4352 104.892 47.803C101.106 47.3163 98.5471 46.2969 97.092 45.3513C96.5633 45.0078 96.2326 44.7082 96.0404 44.4935C96.155 44.2306 96.2633 43.9523 96.3563 43.6673C96.5338 43.1238 96.7355 42.3221 96.6585 41.4783C96.5714 40.5241 96.0494 39.1848 94.5324 38.6312C93.3586 38.2029 92.1581 38.498 91.2984 38.8094C91.3368 38.7955 91.3363 38.7956 91.2786 38.8071C91.1985 38.8231 91.0079 38.8612 90.6574 38.9145C90.1451 38.9924 89.4424 39.082 88.5561 39.1808C86.7876 39.3779 84.3612 39.6037 81.4132 39.8409C75.521 40.315 67.5976 40.8307 58.7896 41.2532C41.1486 42.0993 20.0762 42.5657 4.69027 41.5964C4.09809 41.559 3.51194 41.7336 3.03662 42.0888C0.360849 44.0882 0.209702 46.9984 0.766229 49.2391C1.30162 51.3947 2.55384 53.3997 3.4943 54.688C3.53833 54.7484 3.58504 54.8067 3.63429 54.8628C4.23258 55.5447 4.90403 56.1667 5.44802 56.6707C5.51913 56.7365 5.58807 56.8004 5.65437 56.8621C6.28786 57.4516 6.69747 57.8593 6.96501 58.2273C7.20203 58.5533 7.19754 58.6757 7.19726 58.6832C7.19747 58.694 7.20253 58.9561 6.76359 59.5574C4.56655 62.5672 4.32469 65.8992 5.0604 68.5057C5.42342 69.7918 6.04366 70.9734 6.8638 71.8808C7.64021 72.7398 8.86247 73.6264 10.4178 73.6264C11.973 73.6264 13.0717 72.8132 13.7367 71.8426C14.2824 71.0463 14.58 70.0809 14.771 69.4531C14.7882 69.3966 14.8051 69.341 14.8217 69.2863C15.2649 67.8279 15.5207 66.9863 16.0785 66.4125C16.1232 66.3914 16.3198 66.3124 16.8202 66.3049C17.5303 66.2941 18.4632 66.4342 19.5988 66.6878C20.3249 66.85 21.0107 67.0278 21.7171 67.211C22.1423 67.3213 22.5751 67.4335 23.0286 67.5454C24.0944 67.8084 25.3554 68.0915 26.4371 68.0915C27.6242 68.0915 28.7992 67.7407 29.7901 67.3824C30.4839 67.1316 31.2564 66.8104 32.0041 66.4995C32.3218 66.3675 32.635 66.2373 32.9358 66.1151C35.0967 65.2374 37.2497 64.5062 39.5145 64.5062C40.5788 64.5062 41.0344 64.5702 41.2582 64.6287C41.3726 64.6587 41.44 64.6807 41.6852 64.8723C41.8105 64.9703 41.9533 65.0909 42.1215 65.2328C42.8941 65.885 44.2014 66.9885 46.8044 68.4283C46.8754 68.4676 46.9484 68.5034 47.0229 68.5356C52.2743 70.8041 56.6838 71.0888 59.8487 71.2931L59.9901 71.3022C61.6439 71.4092 62.6883 71.4934 63.4661 71.7151C64.1056 71.8974 64.3255 72.1052 64.4925 72.3903C66.592 75.9734 67.8655 77.7426 69.3778 79.2486C70.0647 79.9326 70.7811 80.5418 71.5522 81.1975L71.6793 81.3056C72.5125 82.0145 73.4859 82.8467 74.7507 84.028C77.9126 86.9813 77.1798 89.9772 76.7526 91.0413C76.4887 91.6987 76.516 92.4372 76.8279 93.0732C77.1397 93.7093 77.7068 94.1832 78.3882 94.3772L82.9652 95.6801C83.1029 95.7193 83.2437 95.7466 83.3861 95.7617C86.143 96.0539 90.2761 96.0543 93.9189 95.4577C95.7328 95.1606 97.5725 94.6926 99.0942 93.9493C100.557 93.2347 102.199 92.027 102.738 90.0133C103.072 88.7658 103.818 87.9458 104.668 87.4075C105.546 86.8516 106.426 86.6684 106.82 86.656C108.193 86.7128 110.594 86.5315 112.885 85.5416C115.304 84.4972 117.801 82.4372 118.475 78.7411C118.748 77.2429 119.183 76.4525 119.542 76.032C119.874 75.6428 120.259 75.4291 120.763 75.3091C121.319 75.1766 122.01 75.1631 122.874 75.2401C123.298 75.2779 123.726 75.3334 124.184 75.3949C124.232 75.4014 124.281 75.408 124.33 75.4147C124.729 75.4686 125.164 75.5275 125.576 75.5684C126.005 75.6112 126.968 75.8561 128.441 76.5138C129.868 77.1507 131.644 78.1164 133.667 79.4729C137.71 82.184 142.679 86.4158 147.76 92.5848C150.215 95.5657 152.128 98.1004 153.747 100.27C153.941 100.53 154.132 100.787 154.319 101.039C155.678 102.863 156.876 104.472 158.017 105.822C160.744 109.048 163.361 111.045 167.795 112.005C171.201 112.743 173.526 114.079 174.838 115.372C176.221 116.735 176.167 117.652 176.088 117.889C175.665 119.154 175.706 120.619 175.841 121.855C175.984 123.164 176.279 124.569 176.605 125.88C176.932 127.2 177.307 128.487 177.625 129.561C177.677 129.735 177.726 129.901 177.773 130.06C177.98 130.754 178.142 131.299 178.248 131.699C178.252 132.835 178.278 133.723 178.301 134.496C178.335 135.664 178.362 136.568 178.293 137.662C178.187 139.349 177.835 141.342 176.722 144.987C176.234 146.583 175.815 147.75 175.465 148.687C175.399 148.866 175.332 149.043 175.266 149.218C175.003 149.916 174.754 150.578 174.569 151.19C174.026 152.993 173.995 154.499 174.346 157.123C174.796 160.482 176.987 162.911 179.474 163.808C180.712 164.255 182.186 164.371 183.561 163.798C184.61 163.36 185.431 162.591 185.959 161.597C186.015 161.647 186.073 161.694 186.134 161.738C186.951 162.338 188.065 163.412 188.955 164.687C189.868 165.997 190.344 167.229 190.344 168.192C190.344 169.07 189.875 169.666 188.355 171.091C188.303 171.14 188.249 171.19 188.194 171.241C186.91 172.439 184.786 174.42 184.786 177.638C184.786 179.231 185.481 181.39 186.291 183.427C187.151 185.591 188.319 188.041 189.579 190.385C190.839 192.727 192.22 195.019 193.522 196.855C194.171 197.772 194.826 198.612 195.459 199.299C196.048 199.939 196.785 200.634 197.614 201.047C200.058 202.265 202.423 201.686 204.06 200.466C204.513 200.128 204.932 199.726 205.298 199.278C205.678 199.68 206.056 200.139 206.404 200.628C206.94 201.379 207.345 202.115 207.571 202.714C207.724 203.117 207.746 203.324 207.753 203.378C206.778 206.48 206.282 209.237 207.17 211.739C208.083 214.312 210.236 216 212.794 217.557L213.191 217.798C215.994 219.504 217.706 220.546 218.815 221.484C219.734 222.261 219.995 222.761 220.089 223.357L219.769 232.27C219.741 233.062 220.09 233.82 220.709 234.314C222.243 235.537 224.985 237.272 227.931 238.735C230.813 240.166 234.277 241.535 237.168 241.696C239.43 241.821 240.771 242.05 241.495 242.243C241.496 242.243 241.497 242.243 241.498 242.243C241.867 243.137 242.447 244.258 243.405 245.359C244.77 246.928 246.79 248.333 249.749 249.109C252.991 249.959 255.454 250.045 257.408 248.799C258.323 248.216 258.924 247.457 259.342 246.886C259.503 246.666 259.635 246.479 259.754 246.31C259.992 245.972 260.181 245.705 260.452 245.39C260.487 245.349 260.516 245.322 260.539 245.304C260.528 245.999 260.619 246.746 260.827 247.514C261.375 249.543 262.734 251.712 265.233 253.579C268.433 255.971 268.904 259.714 268.809 261.891C268.78 262.572 269.03 263.236 269.501 263.729C269.973 264.221 270.625 264.5 271.307 264.5H271.361C272.443 264.5 273.846 264.5 275.262 263.926C276.77 263.314 278.007 262.191 279.211 260.542C279.747 259.807 280.096 258.823 280.348 257.956C280.622 257.009 280.871 255.873 281.096 254.624C281.549 252.12 281.941 248.988 282.263 245.653C282.907 238.979 283.288 231.309 283.288 225.845C283.288 222.888 282.947 220.418 282.641 218.192C282.523 217.342 282.411 216.528 282.325 215.736C282.006 212.818 281.921 209.572 282.914 204.502C285.553 191.03 278.658 181.734 274.349 175.924C273.989 175.439 273.648 174.979 273.331 174.542C271.967 172.661 269.797 168.548 267.559 163.908C265.374 159.38 263.227 154.567 261.879 151.352C261.201 149.309 260.752 147.455 260.347 145.628C260.255 145.214 260.165 144.795 260.074 144.374C259.763 142.942 259.445 141.473 259.045 139.997C257.972 136.044 256.289 131.934 252.397 126.646C245.288 116.988 240.563 108.503 238.426 99.8424C236.775 93.1552 231.86 77.1109 225.36 66.8564C217.737 54.8307 217.71 48.0271 218.491 44.6555C218.615 44.1216 218.708 43.4976 218.64 42.8627C218.568 42.1852 218.288 41.3366 217.523 40.6971C216.8 40.0935 215.991 39.9703 215.48 39.955C214.965 39.9395 214.483 40.0245 214.129 40.102C213.72 40.1915 213.146 40.3583 212.667 40.4977C212.433 40.5655 212.222 40.6269 212.064 40.6696C211.434 40.8393 210.943 40.9314 210.553 40.9393ZM91.6767 41.8237C91.6767 41.8236 91.6766 41.8249 91.6763 41.8277Z" />
</svg>
