<svg width="198" height="242" viewBox="0 0 198 242" fill="none" xmlns="http://www.w3.org/2000/svg">
<path fillRule="evenodd" clipRule="evenodd" d="M175.153 198.004C179.248 198.834 183.329 197.795 186.019 196.168C188.606 194.602 191.972 195.431 193.538 198.018C195.103 200.605 194.275 203.971 191.688 205.536C186.897 208.435 180.04 210.167 172.979 208.736C165.684 207.259 158.685 202.508 153.798 193.382C150.214 186.687 145.754 183.456 142.434 181.909C140.739 181.119 139.324 180.761 138.451 180.622C138.341 180.604 138.246 180.591 138.164 180.581C137.827 180.645 137.479 180.679 137.124 180.678C134.1 180.674 131.652 178.219 131.656 175.196C131.66 172.136 133.939 170.699 134.425 170.418C135.147 169.999 135.803 169.837 136.07 169.777C136.693 169.636 137.261 169.608 137.61 169.602C138.392 169.587 139.272 169.664 140.18 169.809C142.033 170.105 144.425 170.756 147.059 171.983C152.398 174.471 158.685 179.311 163.452 188.212C166.916 194.682 171.291 197.222 175.153 198.004ZM142.606 175.21C142.605 176.409 142.25 177.354 141.795 178.073C142.308 177.24 142.605 176.26 142.606 175.21Z" />
                    <path fillRule="evenodd" clipRule="evenodd" d="M168.341 216.966C176.055 219.219 183.363 218.564 187.346 216.758C190.1 215.509 193.345 216.73 194.593 219.484C195.842 222.238 194.621 225.483 191.867 226.731C184.985 229.851 174.898 230.289 165.271 227.477C155.458 224.612 145.49 218.19 139.348 206.827C137.581 203.558 135.517 202.169 134.133 201.537C133.406 201.205 132.799 201.053 132.424 200.985C132.238 200.951 132.115 200.939 132.071 200.935C132.071 200.935 132.071 200.935 132.071 200.935C129.108 200.865 126.728 198.441 126.728 195.462C126.728 192.438 129.179 189.987 132.203 189.987L132.203 195.462C132.203 189.987 132.206 189.987 132.209 189.987L132.216 189.987L132.23 189.987L132.26 189.987C132.282 189.987 132.305 189.987 132.33 189.988C132.379 189.989 132.437 189.99 132.501 189.993C132.631 189.998 132.789 190.007 132.974 190.022C133.343 190.053 133.822 190.109 134.387 190.212C135.516 190.418 137.011 190.813 138.682 191.576C142.096 193.135 146.012 196.127 148.981 201.62C153.492 209.965 160.812 214.768 168.341 216.966Z" />
                    <path fillRule="evenodd" clipRule="evenodd" d="M6.27539 56.941C6.27539 47.8695 13.6293 40.5156 22.7007 40.5156H132.203C141.274 40.5156 148.628 47.8695 148.628 56.941V98.5518H137.678V56.941C137.678 53.9171 135.227 51.4659 132.203 51.4659H22.7007C19.6769 51.4659 17.2256 53.9171 17.2256 56.941V98.5518H6.27539V56.941Z" />
                    <path fillRule="evenodd" clipRule="evenodd" d="M0.344796 112.822C-1.75818 102.631 6.02518 93.0771 16.4312 93.0771H138.473C148.879 93.0771 156.663 102.631 154.56 112.822L130.608 228.894C129.034 236.526 122.314 242 114.522 242H40.3827C32.5906 242 25.8709 236.526 24.2962 228.894L0.344796 112.822ZM16.4312 104.027C12.9625 104.027 10.3681 107.212 11.0691 110.609L35.0205 226.681C35.5454 229.225 37.7853 231.05 40.3827 231.05H114.522C117.119 231.05 119.359 229.225 119.884 226.681L143.835 110.609C144.536 107.212 141.942 104.027 138.473 104.027H16.4312Z" />
                    <path fillRule="evenodd" clipRule="evenodd" d="M24 16.4253C24 7.35388 31.3539 0 40.4253 0H112.697C121.768 0 129.122 7.35388 129.122 16.4253V45.991H118.172V16.4253C118.172 13.4015 115.721 10.9502 112.697 10.9502H40.4253C37.4015 10.9502 34.9502 13.4015 34.9502 16.4253V45.991H24V16.4253Z" />
                </svg>