<svg width="244" height="458" viewBox="0 0 244 458" fill="none" xmlns="http://www.w3.org/2000/svg">
<path d="M311.947 70.106C289.074 52.9928 258.249 40.0039 230.306 43.9473C230.237 43.9556 230.172 43.9814 230.116 44.0222C230.06 44.063 230.016 44.1174 229.987 44.1804C229.958 44.2433 229.946 44.3126 229.951 44.3816C229.957 44.4507 229.98 44.5172 230.018 44.5748C213.824 50.9868 216.157 50.1532 215.67 50.0433C200.039 46.7398 183.808 47.7071 168.677 52.8439C167.535 53.2287 166.369 53.5974 165.268 54.0851C164.812 54.2567 164.41 54.5467 164.104 54.9254C163.797 55.3041 163.596 55.7579 163.522 56.24C163.326 57.4697 163.403 55.1156 165.122 84.2902C165.122 84.4045 165.166 84.5143 165.245 84.5964C165.325 84.6784 165.433 84.7263 165.547 84.7299C176.753 85.2505 187.72 88.1601 197.715 93.2647C208.032 98.5317 215.691 106.728 225.871 106.455C231.636 106.302 237.159 104.032 242.96 105.198C245.72 105.752 248.369 106.753 251.106 107.394C265.289 110.717 272.496 98.6096 288.443 96.6631C296.068 95.7311 298.23 97.7211 299.806 95.5387C300.263 94.9112 309.417 76.0737 312.109 70.7151C312.165 70.6121 312.179 70.4914 312.149 70.3781C312.119 70.2648 312.046 70.1674 311.947 70.106ZM262.865 73.8249C262.8 74.3926 262.611 74.939 262.311 75.4253C262.012 75.9115 261.609 76.3258 261.132 76.6385C260.655 76.9513 260.115 77.155 259.55 77.2351C258.986 77.3151 258.41 77.2697 257.865 77.1019C255.052 83.4429 251.467 90.132 245.298 93.3609C243.72 94.3865 241.861 94.892 239.982 94.8066C238.103 94.7212 236.298 94.0492 234.819 92.8846C233.371 91.6186 231.998 90.2698 230.706 88.845C228 85.8222 226.899 82.93 221.998 72.7349C219.242 73.0074 216.568 70.4815 216.893 66.5336C216.891 65.468 217.3 64.4429 218.035 63.6734C218.453 63.3166 218.973 63.1046 219.521 63.0688C221.008 60.8338 233.002 58.2781 240.25 44.7488C240.302 44.664 240.371 44.5919 240.454 44.5379C240.537 44.4839 240.631 44.4493 240.729 44.4368C240.828 44.4243 240.927 44.4341 241.021 44.4655C241.115 44.4969 241.201 44.5491 241.272 44.6183C254.093 56.3843 252.096 57.9575 257.561 63.2795C258.948 64.4047 260.056 65.8368 260.797 67.4633C261.24 68.203 262.374 67.8045 262.803 69.4075C263.105 70.8625 263.126 72.362 262.865 73.8249Z" fill="#3EC491"/>
<path d="M243.452 26.841C241.765 27.4639 241.196 28.1692 240.71 28.2677C240.616 28.2265 240.524 28.183 240.433 28.1372C238.902 27.2902 237.198 26.8054 235.452 26.7201C233.705 26.6347 231.962 26.9511 230.356 27.6448C221.5 31.2241 213.038 43.4756 214.638 54.3096C214.792 55.541 215.071 56.7534 215.472 57.9278C215.879 58.885 215.997 61.3811 217.046 62.5605C216.198 63.3396 215.59 64.3469 215.297 65.4622C215.004 66.5776 215.037 67.754 215.392 68.8511C215.498 70.0606 215.993 71.2029 216.801 72.107C217.61 73.0111 218.689 73.6284 219.877 73.8662C222.688 74.1524 220.714 71.3907 222.832 77.0722C225.615 84.5238 231.892 95.7998 239.871 96.4845C243.03 96.4226 246.055 95.2002 248.374 93.0495C252.846 89.1379 256.231 84.132 258.199 78.5195C258.742 78.6848 259.315 78.7275 259.876 78.6443C260.438 78.5612 260.974 78.3543 261.446 78.0386C262.84 76.9542 263.82 75.4218 264.219 73.6989C264.619 71.9761 264.414 70.168 263.64 68.5786C263.142 67.8916 263.199 68.4824 263.921 67.5618C265.301 65.5037 266.364 63.2497 267.076 60.875C273.543 40.0314 254.015 22.932 243.452 26.841ZM220.439 71.835C219.215 72.0479 218.237 70.919 217.759 69.6549C216.927 67.4496 216.845 64.2871 219.119 63.6688C220.444 63.8772 219.42 62.8307 220.46 68.4984C220.666 69.6175 220.909 70.7281 221.189 71.8304C220.941 71.7815 220.686 71.7831 220.439 71.835ZM256.353 77.4936C253.869 83.5712 251.024 89.0603 245.629 92.5709C244.24 93.5783 242.632 94.2428 240.938 94.5105C234.083 94.9983 227.914 84.391 225.233 78.1302C223.315 73.4791 222.045 68.5851 221.461 63.5864C229.017 62.3635 234.335 56.0294 239.071 50.5746C239.672 49.8876 241.379 47.9067 241.626 47.5976C246.484 58.285 253.174 64.7886 259.408 67.9923C258.657 71.2397 257.635 74.418 256.353 77.4936ZM258.907 76.7401C259.896 74.1967 260.709 71.5884 261.341 68.9335C264.282 69.19 262.186 77.6035 258.907 76.7401Z" fill="#282732"/>
<path d="M228.455 66.9183C228.848 65.0062 231.606 64.9467 232.609 68.2351C232.731 68.6555 232.875 69.0691 233.041 69.474C233.13 69.6231 233.264 69.7391 233.425 69.8044C233.585 69.8697 233.762 69.8807 233.93 69.8358C235.139 69.5083 234.158 67.0878 233.553 66.1077C231.224 62.3612 226.817 64.1635 227.255 66.9206C227.351 67.5275 228.334 67.5 228.455 66.9183Z" fill="#282732"/>
<path d="M241.191 76.644C240.316 75.8035 239.646 76.2753 238.597 75.2929C238.438 75.1468 238.299 74.9796 238.184 74.7959C238.296 74.6196 238.424 74.4524 238.538 74.2784C240.283 71.7075 240.975 68.5619 240.469 65.4939C240.327 64.8298 239.37 65.0245 239.326 65.6474C239.307 68.6598 238.342 71.5897 236.568 74.0219C235.51 76.0829 239.781 78.966 241.184 77.3378C241.275 77.2456 241.326 77.1217 241.327 76.9923C241.329 76.8628 241.28 76.7379 241.191 76.644Z" fill="#282732"/>
<path d="M239.912 86.4178C241.253 89.6009 247.057 89.2597 246.749 83.0698C246.719 82.5156 246.749 81.9248 246.26 81.5721C246.146 81.5052 246.013 81.4779 245.882 81.4945C245.751 81.511 245.629 81.5705 245.536 81.6637C245.06 82.1813 245.419 82.6851 245.307 84.3133C245.079 87.5742 242.024 87.8284 240.78 85.9163C240.709 85.812 240.601 85.7385 240.477 85.7106C240.354 85.6826 240.225 85.7022 240.115 85.7654C240.006 85.8287 239.924 85.9309 239.887 86.0518C239.849 86.1727 239.858 86.3033 239.912 86.4178Z" fill="#282732"/>
<path d="M158.748 56.3339C138.041 55.505 114.282 57.5224 97.7087 70.1358C87.3188 78.0431 78.3753 90.9748 72.8754 102.883C72.4971 103.702 72.1979 104.555 71.9819 105.432C71.9467 105.636 71.9819 105.847 72.0817 106.028C72.1815 106.21 72.3399 106.353 72.5311 106.433C72.7223 106.513 72.9348 106.525 73.134 106.468C73.3331 106.411 73.507 106.288 73.6271 106.119C75.0781 103.929 82.6871 85.5406 97.2152 73.4082C114.844 58.6858 137.456 59.059 158.748 57.211C158.855 57.1976 158.953 57.1457 159.024 57.0649C159.095 56.9842 159.134 56.8802 159.134 56.7725C159.134 56.6648 159.095 56.5608 159.024 56.48C158.953 56.3993 158.855 56.3473 158.748 56.3339Z" fill="#282732"/>
<path d="M76.7653 112.366C76.9938 112.173 103.315 89.3581 112.372 85.2613C117.738 83.2856 123.382 82.1712 129.094 81.9591C154.873 79.3393 155.036 80.6469 159.647 79.6233C159.75 79.5926 159.841 79.5292 159.906 79.4425C159.97 79.3558 160.005 79.2506 160.005 79.1424C160.005 79.0342 159.97 78.9289 159.906 78.8423C159.841 78.7556 159.75 78.6922 159.647 78.6615C154.668 77.4455 136.306 79.3073 131.141 79.8202C118.567 81.066 113.814 81.295 105.812 87.02C95.2839 94.4675 85.3005 102.66 75.9381 111.534C75.3988 112.084 76.194 112.831 76.7653 112.366Z" fill="#282732"/>
<path d="M97.3847 146.897C95.7029 141.831 90.7856 139.003 86.1882 136.244C83.3434 134.538 83.613 134.844 83.9032 134.737C84.4026 134.56 84.8474 134.256 85.194 133.854C85.5405 133.453 85.7768 132.968 85.8797 132.447C86.0808 130.492 85.6507 128.524 84.6527 126.832C78.6911 114.028 58.5054 105.535 42.988 112.975C13.564 127.095 21.2942 177.853 54.3399 176.742C59.2366 176.577 64.5127 175.801 68.3469 172.71C68.9922 172.093 69.5614 171.401 70.0424 170.649C81.1384 172.769 89.1313 172.689 94.3616 162.81C96.9825 157.87 99.1441 152.235 97.3847 146.897ZM95.8469 151.314C95.2936 156.28 93.4586 161.016 90.5229 165.054C87.2027 169.197 82.5139 170.145 77.2401 169.769C69.6996 169.231 56.9425 165.496 56.5837 165.553C53.7089 164.152 51.2645 161.999 49.5083 159.322C47.7521 156.644 46.7492 153.542 46.6051 150.341C46.1664 141.767 49.2877 134.327 57.66 131.716C65.87 129.158 73.8972 132.245 81.4468 136.367C84.8523 138.176 88.1347 140.209 91.2723 142.452C92.7397 143.401 93.9338 144.718 94.7363 146.273C95.5387 147.828 95.9216 149.565 95.8469 151.314Z" fill="#282732"/>
<path d="M55.5904 151.321C55.9971 150.634 55.2134 149.993 54.569 150.297C53.8571 150.594 53.255 151.106 52.8461 151.761C52.3528 152.638 52.1088 153.634 52.1406 154.64C52.1724 155.647 52.4789 156.625 53.0266 157.47C53.167 157.719 53.3551 157.938 53.5802 158.115C53.8052 158.291 54.0628 158.421 54.3382 158.498C54.5387 158.551 54.7495 158.55 54.9496 158.496C55.1496 158.442 55.3321 158.336 55.4786 158.189C55.6252 158.042 55.7308 157.859 55.7849 157.659C55.839 157.458 55.8397 157.247 55.7869 157.046C55.1658 156.23 54.8133 155.241 54.7781 154.215C54.7429 153.189 55.0268 152.178 55.5904 151.321Z" fill="#282732"/>
<path d="M60.8933 138.971C60.9488 139.167 61.0731 139.336 61.2434 139.448C61.4136 139.559 61.6184 139.605 61.8198 139.577C62.0213 139.55 62.2059 139.45 62.3396 139.296C62.4734 139.143 62.5472 138.946 62.5476 138.742C62.5779 138.169 62.7268 137.608 62.9848 137.095C63.2429 136.583 63.6044 136.13 64.0466 135.765C65.2622 134.968 65.8083 135.25 66.423 134.711C66.9394 134.253 66.9645 133.828 66.7589 133.509C65.2622 131.199 59.3829 134.734 60.8933 138.971Z" fill="#282732"/>
<path d="M64.7963 157.158C64.3119 156.849 63.9966 157.126 63.1466 156.56C62.8198 156.231 62.6896 155.933 63.2563 155.404C63.5624 155.196 63.5922 155.214 64.2959 155.074C64.4327 155.081 64.5679 155.042 64.6804 154.964C64.7929 154.886 64.8763 154.772 64.9175 154.641C64.9588 154.511 64.9556 154.37 64.9085 154.241C64.8613 154.112 64.7729 154.002 64.657 153.929C64.3923 153.789 64.0993 153.71 63.8001 153.7C63.3665 153.725 62.9447 153.851 62.5679 154.068C62.1912 154.284 61.8699 154.586 61.6293 154.948C61.4678 155.216 61.3605 155.512 61.3137 155.821C61.2668 156.13 61.2812 156.445 61.3562 156.749C61.4311 157.052 61.5651 157.338 61.7504 157.589C61.9356 157.841 62.1686 158.053 62.4359 158.214C63.0709 158.633 63.8222 158.839 64.5816 158.802C64.7469 158.749 64.8938 158.65 65.0051 158.517C65.1164 158.384 65.1875 158.221 65.21 158.049C65.2325 157.876 65.2056 157.701 65.1323 157.543C65.0591 157.385 64.9425 157.252 64.7963 157.158Z" fill="#282732"/>
<path d="M70.0176 144.169C70.14 144.168 70.2592 144.13 70.3606 144.061C70.462 143.993 70.541 143.895 70.588 143.782C70.6349 143.669 70.6476 143.544 70.6246 143.424C70.6016 143.303 70.5439 143.192 70.4586 143.104C69.5446 142.344 69.1538 141.357 69.7731 140.773C70.7168 140.196 72.0124 140.952 72.2683 139.813C72.3052 139.694 72.3173 139.568 72.3038 139.444C72.2903 139.319 72.2515 139.199 72.1898 139.09C72.1282 138.981 72.0449 138.887 71.9453 138.811C71.8456 138.736 71.7315 138.682 71.6102 138.652C70.7501 138.503 69.8649 138.623 69.0761 138.998C68.6022 139.302 68.2293 139.74 68.0047 140.257C67.7801 140.774 67.7141 141.346 67.8151 141.9C67.916 142.455 68.1794 142.967 68.5716 143.371C68.9639 143.775 69.4672 144.053 70.0176 144.169Z" fill="#282732"/>
<path d="M78.0491 153.292C78.5894 152.457 78.8342 151.465 78.7443 150.473C78.6544 149.482 78.2349 148.55 77.5533 147.826C77.4431 147.723 77.3056 147.653 77.1571 147.626C77.0086 147.599 76.8554 147.615 76.7159 147.673C76.5764 147.731 76.4564 147.827 76.3703 147.952C76.2841 148.076 76.2355 148.222 76.2303 148.374C76.2417 149.702 77.4619 150.881 76.5364 152.106C76.3217 152.299 76.3194 152.363 76.0223 152.434C75.4145 152.402 75.266 152.125 73.8653 151.163C69.9705 148.406 65.41 146.746 60.658 146.354C60.5039 146.36 60.3569 146.42 60.2426 146.523C60.1283 146.627 60.0542 146.768 60.0332 146.921C60.0122 147.074 60.0457 147.23 60.1278 147.36C60.2098 147.491 60.3353 147.589 60.482 147.636C63.5841 148.394 66.6031 149.459 69.4941 150.817C73.5842 152.919 74.2926 154.387 75.9652 154.371C76.371 154.359 76.769 154.256 77.1297 154.07C77.4905 153.883 77.8047 153.617 78.0491 153.292Z" fill="#282732"/>
<path d="M83.6753 146.246C83.1954 146.164 81.653 146.562 81.5776 147.24C81.1069 151.412 79.8573 155.458 77.8942 159.167C77.7633 159.397 77.7275 159.67 77.7945 159.927C77.8616 160.183 78.0261 160.404 78.2529 160.541C79.9538 161.59 81.9567 162.038 83.9415 161.813C85.9263 161.588 87.7786 160.703 89.2027 159.299C93.7292 154.33 90.3657 147.41 83.6753 146.246ZM89.189 154.804C89.009 155.769 88.6059 156.679 88.012 157.46C87.4181 158.241 86.6499 158.872 85.769 159.302C84.8881 159.732 83.9189 159.95 82.9391 159.937C81.9593 159.924 80.9961 159.681 80.1266 159.228C81.5462 156.529 82.4674 153.595 82.8458 150.568C82.9279 149.729 82.9164 148.884 82.8115 148.049C83.104 148.216 89.5683 149.139 89.189 154.804Z" fill="#282732"/>
<path d="M155.915 43.3909C159.343 42.9741 168.206 40.1368 177.463 42.5711C178.337 42.9231 179.28 43.0741 180.221 43.013C180.329 43.0091 180.433 42.9742 180.522 42.9123C180.611 42.8505 180.68 42.7644 180.722 42.6643C180.763 42.5642 180.775 42.4543 180.756 42.3476C180.737 42.241 180.687 42.1421 180.614 42.0627C180.37 41.7182 180.013 41.4703 179.606 41.3619C173.779 38.7857 161.056 39.6879 155.6 42.223C155.485 42.2948 155.396 42.4018 155.347 42.5281C155.297 42.6543 155.29 42.7932 155.325 42.9242C155.36 43.0552 155.437 43.1712 155.543 43.2553C155.649 43.3393 155.78 43.3869 155.915 43.3909Z" fill="#282732"/>
<path d="M116.967 191.673C112.765 186.133 103.467 182.428 96.6512 181.006C96.3727 180.937 96.0785 180.98 95.8311 181.126C95.5837 181.271 95.4027 181.508 95.3265 181.785C95.2503 182.062 95.285 182.358 95.4231 182.61C95.5613 182.861 95.792 183.049 96.0663 183.133C101.886 184.286 107.404 186.636 112.271 190.033C120.529 196.216 117.913 205.605 109.269 205.399C102.871 205.241 97.7343 199.216 90.4246 193.113C90.2825 192.971 90.0899 192.891 89.8891 192.892C89.6883 192.892 89.4959 192.972 89.3541 193.114C89.2123 193.257 89.1327 193.45 89.1329 193.651C89.1331 193.852 89.2131 194.045 89.3552 194.187C91.0022 196.172 92.8155 198.012 94.7752 199.688C98.0597 203.121 102.128 205.702 106.63 207.208C108.54 207.737 110.558 207.734 112.468 207.201C114.377 206.667 116.105 205.623 117.468 204.181C118.787 202.338 119.454 200.107 119.363 197.841C119.273 195.575 118.429 193.404 116.967 191.673ZM108.138 205.321C108.218 205.321 108.218 205.321 108.138 205.321V205.321Z" fill="#282732"/>
<path d="M127.565 151.369C122.884 149.241 117.741 148.335 112.617 148.736C112.465 148.729 112.314 148.753 112.173 148.806C112.031 148.859 111.902 148.941 111.792 149.045C111.683 149.15 111.596 149.276 111.536 149.415C111.477 149.555 111.446 149.705 111.446 149.857C111.446 150.008 111.477 150.158 111.536 150.298C111.596 150.437 111.683 150.563 111.792 150.668C111.902 150.772 112.031 150.854 112.173 150.907C112.314 150.96 112.465 150.984 112.617 150.977C118.329 150.835 124.172 151.071 128.68 154.598C134.31 159.006 133.815 165.281 130.556 167.298C124.158 171.26 110.969 159.496 108.801 158.12C108.638 158.025 108.447 157.993 108.262 158.029C108.078 158.065 107.913 158.167 107.798 158.316C107.683 158.465 107.626 158.651 107.638 158.839C107.649 159.027 107.729 159.205 107.861 159.338C108.562 160.182 109.361 160.938 110.242 161.589C115.288 165.78 124.387 172.08 130.481 169.652C136.984 167.053 137.032 156.407 127.565 151.369Z" fill="#282732"/>
<path d="M117.424 155.491C117.196 157.323 116.915 159.144 116.766 160.987C116.77 161.198 116.835 161.402 116.953 161.577C117.071 161.751 117.238 161.886 117.432 161.967C117.626 162.047 117.84 162.069 118.046 162.03C118.252 161.99 118.443 161.891 118.594 161.745C119.508 160.744 120.397 159.748 121.295 158.745C121.357 160.669 120.973 162.62 121.788 163.572C121.913 163.717 122.066 163.835 122.237 163.919C122.409 164.003 122.596 164.051 122.786 164.06C122.977 164.068 123.167 164.038 123.346 163.97C123.524 163.903 123.687 163.799 123.824 163.666C124.605 162.664 125.284 161.586 125.851 160.449C126.253 159.849 126.61 159.22 126.918 158.566C126.978 158.349 126.964 158.118 126.879 157.91C126.794 157.701 126.643 157.527 126.449 157.413C126.254 157.3 126.028 157.254 125.805 157.283C125.582 157.312 125.375 157.414 125.216 157.573C124.558 158.465 123.959 159.399 123.422 160.369C123.595 158.848 123.399 157.308 122.851 155.88C122.767 155.737 122.652 155.614 122.514 155.522C122.376 155.43 122.219 155.37 122.054 155.348C121.89 155.326 121.723 155.342 121.565 155.395C121.408 155.447 121.265 155.535 121.146 155.651C120.435 156.439 119.728 157.23 119.026 158.024C119.044 157.179 119.051 156.336 119.072 155.489C119.071 155.38 119.05 155.273 119.008 155.173C118.967 155.073 118.906 154.982 118.829 154.905C118.753 154.829 118.662 154.768 118.562 154.727C118.462 154.685 118.355 154.664 118.247 154.664C118.139 154.664 118.031 154.686 117.932 154.728C117.832 154.769 117.741 154.83 117.665 154.907C117.588 154.984 117.528 155.075 117.486 155.175C117.445 155.275 117.424 155.383 117.424 155.491Z" fill="#282732"/>
<path d="M102.122 191.998C102.119 191.8 102.046 191.609 101.915 191.46C101.785 191.312 101.605 191.215 101.409 191.188C101.211 191.156 101.008 191.198 100.839 191.307C100.67 191.416 100.548 191.584 100.495 191.778C100.155 193.665 99.9383 195.572 99.8461 197.487C99.8514 197.692 99.9157 197.89 100.031 198.059C100.147 198.228 100.309 198.359 100.497 198.437C100.686 198.516 100.893 198.537 101.094 198.5C101.295 198.463 101.48 198.368 101.628 198.227C102.405 197.377 103.18 196.521 103.952 195.667L104.263 199.965C104.267 200.156 104.32 200.342 104.417 200.506C104.514 200.669 104.652 200.805 104.817 200.9C104.981 200.995 105.168 201.046 105.358 201.047C105.548 201.049 105.735 201.001 105.901 200.909C107.695 199.922 108.275 197.868 109.267 196.528C109.69 196.031 110.053 195.781 109.866 195.919C110.086 195.766 110.24 195.535 110.298 195.273C110.356 195.011 110.313 194.736 110.177 194.505C110.042 194.273 109.824 194.101 109.568 194.024C109.311 193.946 109.035 193.969 108.794 194.087C107.683 194.94 106.805 196.061 106.242 197.345L105.926 193.063C105.923 192.85 105.857 192.642 105.738 192.466C105.618 192.289 105.45 192.152 105.253 192.07C105.056 191.988 104.84 191.966 104.631 192.006C104.422 192.045 104.229 192.145 104.076 192.294C103.415 193.031 102.759 193.775 102.106 194.517C102.163 193.672 102.138 192.839 102.122 191.998Z" fill="#282732"/>
<path d="M218.032 107.811C218.084 107.618 218.064 107.413 217.977 107.233C217.889 107.054 217.74 106.912 217.556 106.835C217.373 106.757 217.167 106.749 216.978 106.811C216.789 106.874 216.628 107.002 216.527 107.174C213.686 112.819 211.842 128.998 213.478 131.613C213.533 131.703 213.609 131.777 213.7 131.828C213.791 131.88 213.894 131.907 213.998 131.907C214.103 131.907 214.205 131.88 214.297 131.828C214.388 131.777 214.464 131.703 214.518 131.613C214.626 131.424 214.717 131.226 214.792 131.022C214.838 130.846 214.872 129.378 214.868 129.19C214.756 121.939 215.825 114.718 218.032 107.811Z" fill="#282732"/>
<path d="M229.687 108.546C229.744 107.795 228.569 107.653 228.391 108.37C226.369 116.495 231.133 126.642 229.874 135.341C229.687 136.642 229.221 137.762 229.646 138.451C229.745 138.61 229.901 138.725 230.082 138.773C230.263 138.821 230.455 138.797 230.619 138.708C231.398 138.337 231.638 136.713 231.762 135.863C233.096 126.93 228.894 118.991 229.687 108.546Z" fill="#282732"/>
<path d="M225.361 132.012C225.406 133.319 225.285 134.627 225.002 135.905C224.872 136.385 224.818 136.884 224.845 137.382C225.007 138.637 227.42 139.253 226.716 132.018C226.692 131.856 226.611 131.708 226.487 131.6C226.363 131.493 226.205 131.433 226.042 131.433C225.878 131.432 225.719 131.49 225.595 131.596C225.47 131.702 225.387 131.85 225.361 132.012Z" fill="#282732"/>
<path d="M222.064 132.27C221.093 135.856 221.083 135.705 221.209 136.598C221.25 136.721 221.324 136.83 221.423 136.912C221.523 136.995 221.643 137.047 221.771 137.064C221.899 137.081 222.029 137.061 222.146 137.007C222.264 136.953 222.363 136.867 222.434 136.759C222.845 136.172 222.836 136.053 223.526 132.671C223.57 132.48 223.539 132.278 223.439 132.11C223.338 131.941 223.176 131.818 222.987 131.766C222.798 131.714 222.596 131.738 222.424 131.832C222.252 131.926 222.123 132.083 222.064 132.27Z" fill="#282732"/>
<path d="M217.857 130.933C217.651 130.903 217.442 130.949 217.268 131.063C217.094 131.177 216.968 131.351 216.913 131.551C216.456 134.173 216.195 134.998 216.671 136.118C216.705 136.226 216.769 136.321 216.856 136.394C216.942 136.467 217.048 136.513 217.16 136.528C217.272 136.542 217.386 136.525 217.488 136.477C217.59 136.429 217.677 136.353 217.738 136.257C218.469 135.282 218.437 134.176 218.606 131.783C218.605 131.574 218.528 131.373 218.391 131.217C218.253 131.061 218.063 130.96 217.857 130.933Z" fill="#282732"/>
<path d="M97.7592 380.925C96.178 390.607 95.561 401.244 100.814 409.523C112.374 427.74 146.217 426.37 160.147 389.579C165.068 376.577 169.744 369.768 171.078 362.85C171.98 358.965 171.385 354.881 169.412 351.416C167.344 348.638 164.692 346.35 161.643 344.714C151.023 337.974 142.1 332.428 129.697 330.412C118.5 328.592 117.358 333.351 112.815 336.495C110.281 338.251 107.185 339.014 104.564 340.617C102.625 341.838 101 343.499 99.8189 345.465C98.6377 347.431 97.9338 349.648 97.7638 351.936C97.9045 355.778 98.3979 359.598 99.2376 363.35C99.5686 369.249 99.071 375.165 97.7592 380.925ZM108.567 370.073C109.531 367.695 110.904 365.506 112.623 363.604C118.411 356.683 126.134 350.78 135.082 349.706C144.03 348.632 147.421 354.215 149.158 363.233C151.071 373.181 151.804 383.779 145.81 391.991C142.573 393.713 140.64 395.487 136.883 394.81C133.617 393.878 130.591 392.251 128.01 390.039C117.17 382.4 111.33 382.654 108.736 377.545C108.207 376.374 107.919 375.107 107.89 373.822C107.861 372.536 108.091 371.258 108.567 370.064V370.073Z" fill="#3EC491"/>
<path d="M141.78 381.564C141.035 383.094 138.848 383.282 138.416 381.658C138.188 380.834 138.416 379.693 137.676 379.247C137.534 379.165 137.375 379.119 137.211 379.11C137.048 379.102 136.885 379.133 136.736 379.2C136.587 379.267 136.455 379.368 136.352 379.496C136.25 379.623 136.179 379.773 136.145 379.934C135.969 380.758 136.03 381.614 136.321 382.405C136.52 383.182 136.986 383.863 137.636 384.33C138.287 384.797 139.081 385.019 139.879 384.958C140.677 384.896 141.428 384.555 142 383.994C142.572 383.433 142.928 382.688 143.007 381.89C143.002 381.747 142.951 381.609 142.863 381.498C142.774 381.386 142.651 381.306 142.514 381.27C142.376 381.233 142.23 381.242 142.098 381.295C141.966 381.348 141.854 381.443 141.78 381.564Z" fill="#282732"/>
<path d="M121.65 373.788C121.49 373.719 121.31 373.712 121.145 373.766C120.98 373.821 120.84 373.933 120.752 374.083C120.647 374.237 120.509 374.364 120.347 374.456C120.186 374.547 120.005 374.6 119.82 374.609C119.635 374.619 119.45 374.586 119.28 374.512C119.11 374.438 118.959 374.326 118.839 374.184C117.975 372.931 118.72 372.473 118.766 370.962C118.791 370.046 118.03 369.794 117.457 370.24C117.158 370.435 116.909 370.696 116.728 371.003C116.547 371.31 116.439 371.655 116.412 372.011C115.848 375.157 118.327 377.184 120.459 376.455C121.766 376.018 122.648 374.186 121.65 373.788Z" fill="#282732"/>
<path d="M138.058 370.721L136.385 369.224C135.828 368.727 134.884 367.662 134.1 368.45C133.938 368.647 133.853 368.896 133.861 369.152C133.869 369.407 133.969 369.651 134.144 369.837C134.29 370.002 135.087 370.664 135.912 371.376C133.165 373.559 130.932 376.322 129.373 379.469C129.295 379.616 129.277 379.787 129.322 379.947C129.368 380.106 129.473 380.242 129.616 380.326C129.759 380.41 129.929 380.435 130.09 380.396C130.252 380.357 130.391 380.257 130.481 380.117C131.006 379.359 131.6 378.661 132.156 377.923C133.764 375.745 135.69 373.821 137.868 372.217C137.991 372.141 138.096 372.039 138.174 371.917C138.253 371.796 138.303 371.658 138.321 371.515C138.339 371.371 138.325 371.225 138.279 371.088C138.234 370.951 138.158 370.825 138.058 370.721Z" fill="#282732"/>
<path d="M132.116 365.225C133.258 364.792 134.474 364.589 135.695 364.628C136.915 364.668 138.116 364.948 139.227 365.454C139.176 365.701 139.213 365.959 139.334 366.181C139.454 366.403 139.649 366.575 139.884 366.666C140.119 366.757 140.379 366.761 140.617 366.678C140.855 366.595 141.056 366.43 141.183 366.212C144.293 359.759 140.315 353.026 136.012 354.785C132.841 356.079 130.947 360.709 130.723 364.174C130.725 364.343 130.767 364.508 130.843 364.658C130.919 364.809 131.029 364.939 131.163 365.041C131.298 365.142 131.454 365.211 131.619 365.243C131.784 365.275 131.954 365.269 132.116 365.225ZM137.644 356.681C139.986 357.27 140.438 361.463 139.803 363.815C137.807 362.593 135.423 362.175 133.131 362.644C133.593 360.373 135.315 356.681 137.644 356.681Z" fill="#282732"/>
<path d="M171.83 351.694C174.107 348.645 176.228 345.483 178.187 342.22C179.343 339.957 180.303 337.097 178.146 335.698C177.618 335.432 177.039 335.281 176.449 335.253C175.859 335.226 175.269 335.322 174.718 335.538C170.729 336.65 167.055 338.683 163.99 341.473C163.731 341.705 163.521 341.987 163.373 342.301C163.224 342.616 163.141 342.957 163.127 343.305C163.128 343.448 163.185 343.584 163.285 343.685C163.386 343.785 163.521 343.842 163.663 343.843C164.458 343.776 165.201 343.421 165.752 342.843C167.756 341.09 170.026 339.667 172.477 338.629C173.748 338.096 175.072 337.696 176.425 337.436C177.047 337.406 177.182 337.69 177.234 338.089C177.504 340.088 174.165 344.359 170.471 350.894C170.365 351.075 170.335 351.29 170.388 351.493C170.44 351.696 170.571 351.869 170.752 351.975C170.932 352.081 171.147 352.111 171.349 352.058C171.551 352.005 171.724 351.874 171.83 351.694Z" fill="#282732"/>
<path d="M135.743 330.321C138.028 314.586 131.858 312.448 128.719 314.88C127.116 316.423 126.076 318.459 125.762 320.664C123.705 328.945 123.735 328.512 123.934 329.222C123.983 329.394 124.076 329.55 124.203 329.675C124.33 329.8 124.488 329.89 124.66 329.936C124.833 329.983 125.014 329.983 125.186 329.938C125.359 329.893 125.517 329.804 125.645 329.68C126.274 329.034 126.102 329.132 127.661 322.878C127.928 320.69 128.762 318.609 130.078 316.842C132.1 315.056 133.686 318.951 133.963 322.533C134.523 329.565 133.538 330.745 134.82 330.912C135.019 330.948 135.226 330.908 135.397 330.798C135.568 330.689 135.692 330.518 135.743 330.321Z" fill="#282732"/>
<path d="M56.4028 319.652C56.4686 319.716 56.5481 319.765 56.6355 319.795C56.7228 319.824 56.8156 319.833 56.907 319.821C56.9983 319.809 57.0858 319.777 57.1627 319.726C57.2396 319.675 57.3041 319.607 57.3511 319.528C58.0229 318.333 57.5156 317.357 58.0366 311.543C58.4873 308.136 58.4911 304.685 58.048 301.277C57.8585 300.553 57.6164 299.844 57.3237 299.156C57.2612 298.973 57.1313 298.82 56.9604 298.73C56.7896 298.639 56.5907 298.617 56.4043 298.669C56.218 298.72 56.0582 298.841 55.9577 299.007C55.8572 299.172 55.8236 299.37 55.8636 299.559C55.9298 299.903 56.1926 302.983 56.2155 303.331C56.5811 309.196 54.6045 317.575 56.4028 319.652Z" fill="#282732"/>
<path d="M55.3776 337.718C55.6927 338.836 56.3057 339.847 57.1508 340.642C57.6078 340.976 58.1585 340.518 58.1882 340.044C58.3139 338.002 52.7042 329.989 53.3737 312.903C53.363 312.707 53.2778 312.523 53.1356 312.388C52.9935 312.253 52.8051 312.178 52.6094 312.178C52.4136 312.178 52.2252 312.253 52.0831 312.388C51.9409 312.523 51.8557 312.707 51.845 312.903C50.9028 321.341 52.1185 329.881 55.3776 337.718Z" fill="#282732"/>
<path d="M41.8821 329.048C41.9783 330.195 42.328 331.307 42.9058 332.302C43.148 332.668 43.8449 332.68 43.9363 332.164C44.0851 330.164 43.9923 328.152 43.6598 326.174C43.0634 317.105 45.0674 309.592 46.2327 301.671C46.276 301.489 46.2473 301.298 46.1527 301.138C46.0582 300.977 45.9051 300.86 45.7258 300.81C45.5465 300.761 45.355 300.783 45.1917 300.872C45.0283 300.961 44.9059 301.11 44.8503 301.288C42.5881 309.251 40.6824 320.856 41.8821 329.048Z" fill="#282732"/>
<path d="M49.8569 334.658C50.5629 336.831 51.4244 336.875 51.6186 336.261C52.2036 334.402 50.6246 333.383 49.1462 318.953C49.1462 318.768 49.0726 318.589 48.9414 318.458C48.8103 318.326 48.6325 318.253 48.447 318.253C48.2616 318.253 48.0837 318.326 47.9526 318.458C47.8215 318.589 47.7478 318.768 47.7478 318.953C47.7095 324.262 48.4195 329.549 49.8569 334.658Z" fill="#282732"/>
<path d="M45.9448 320.101C45.9448 319.943 45.8822 319.791 45.7708 319.68C45.6594 319.568 45.5083 319.505 45.3507 319.505C45.1931 319.505 45.042 319.568 44.9306 319.68C44.8192 319.791 44.7566 319.943 44.7566 320.101C44.236 323.884 44.6511 327.737 45.9654 331.322C46.0904 331.883 46.3828 332.394 46.804 332.785C46.8783 332.857 46.9719 332.905 47.0734 332.925C47.1748 332.944 47.2797 332.933 47.375 332.893C47.4704 332.854 47.5521 332.787 47.6102 332.701C47.6683 332.616 47.7002 332.515 47.702 332.412C47.6883 331.038 47.6426 331.94 47.0165 329.334C46.2295 326.322 45.8688 323.214 45.9448 320.101Z" fill="#282732"/>
<path d="M95.5566 377.463C77.4617 368.193 62.728 358.339 49.4133 343.369C39.7642 332.655 32.284 320.163 27.3882 306.59C23.7322 296.227 15.753 266.398 14.3751 249.976C18.6984 249.614 28.5033 248.643 33.1784 247.643C34.4169 247.377 34.1632 245.291 32.8745 245.399C28.0554 245.808 24.9981 246.544 12.995 247.503C12.6541 247.508 12.3284 247.646 12.0873 247.887C11.8462 248.129 11.7087 248.455 11.704 248.797C12.9613 261.171 15.3127 273.409 18.7304 285.366C24.5388 307.746 29.1362 323.101 45.3278 342.373C58.7842 358.288 75.7739 370.823 94.9351 378.972C95.7851 379.32 96.3838 377.886 95.5566 377.463Z" fill="#282732"/>
<path d="M99.7387 340.014C97.0858 337.857 88.5628 333.868 81.4198 328.221C69.4533 318.763 65.025 308.655 64.7759 293.667C64.8738 282.575 66.1911 271.528 68.7038 260.725C70.2759 253.775 70.8426 253.361 70.2256 252.214C69.6564 251.439 68.8061 250.92 67.8584 250.769C66.9444 250.464 66.0601 250.173 65.1301 249.946C64.8644 249.876 64.5824 249.904 64.3356 250.025C64.0888 250.146 63.8939 250.352 63.7865 250.606C63.6766 250.858 63.6623 251.142 63.7465 251.405C63.8306 251.667 64.0073 251.889 64.2435 252.03C65.6145 252.639 66.8598 253.049 67.9429 253.423C64.418 266.146 62.5486 279.273 62.3812 292.476C62.4635 317.705 74.6151 329.08 97.6091 340.795C98.0517 340.998 98.5103 341.163 98.9801 341.29C99.693 341.503 100.335 340.5 99.7387 340.014Z" fill="#282732"/>
<path d="M24.2653 245.488C23.5291 234.003 25.8307 222.527 30.9375 212.219C31.1546 211.791 31.5544 210.797 31.4265 211.108C32.2216 209.263 30.5879 208.454 29.5391 210.076C27.3304 214.1 25.6112 218.375 24.4184 222.81C22.3615 230.179 21.7309 237.875 22.5607 245.481C22.5598 245.708 22.6487 245.925 22.8079 246.086C22.9671 246.247 23.1835 246.338 23.4095 246.339C23.6356 246.34 23.8527 246.251 24.0132 246.091C24.1737 245.932 24.2644 245.715 24.2653 245.488Z" fill="#282732"/>
<path d="M31.0305 225.693C31.0324 225.869 31.0974 226.038 31.2137 226.169C31.33 226.3 31.4897 226.385 31.6635 226.408C31.8368 226.434 32.0136 226.395 32.1605 226.299C32.3074 226.203 32.4143 226.057 32.4609 225.888C34.0604 214.646 37.7827 210.052 37.6159 208.532C37.6126 208.434 37.5842 208.338 37.5336 208.254C37.483 208.169 37.4117 208.1 37.3265 208.051C37.2414 208.002 37.1452 207.976 37.047 207.974C36.9489 207.973 36.8521 207.997 36.7659 208.044C35.2006 208.782 31.3481 217.255 31.0305 225.693Z" fill="#282732"/>
<path d="M159.836 53.3433C159.314 48.9109 157.871 44.6374 155.599 40.7987C155.478 40.5975 155.296 40.441 155.079 40.3522C154.862 40.2635 154.622 40.2474 154.395 40.3063C141.275 43.566 129.004 49.6035 118.406 58.0126C117.993 58.363 118.534 59.0637 118.984 58.766C120.607 57.7012 122.215 56.792 122.323 56.7187C127.74 53.1173 133.477 50.0241 139.46 47.4786C139.748 47.8221 140.573 48.4862 142.333 50.1716C144.023 51.7688 145.422 53.6507 146.464 55.7318C146.587 55.9305 146.777 56.0787 146.999 56.1497C147.222 56.2207 147.462 56.2098 147.677 56.119C147.892 56.0282 148.068 55.8634 148.173 55.6543C148.278 55.4452 148.304 55.2055 148.248 54.9783C146.845 50.7991 143.221 46.5214 141.652 46.5832C145.719 44.9578 149.896 43.6202 154.151 42.5803C155.995 46.3906 157.36 50.416 158.213 54.5639C158.298 54.7024 158.421 54.8133 158.568 54.8832C158.714 54.9532 158.878 54.9792 159.039 54.9582C159.199 54.9371 159.351 54.8699 159.474 54.7646C159.598 54.6592 159.689 54.5204 159.735 54.3646C159.826 54.0323 159.86 53.687 159.836 53.3433Z" fill="#3EC491"/>
<path d="M134.008 83.0032C131.201 89.5743 128.627 96.2432 126.292 102.997C122.586 99.4202 113.464 92.0693 108.51 91.0343C108.246 90.9271 107.963 90.8746 107.679 90.8797C107.394 90.8848 107.113 90.9475 106.853 91.064C106.652 91.189 106.506 91.3867 106.446 91.6164C106.385 91.846 106.415 92.0901 106.529 92.2983C106.858 93.0632 109.559 94.1761 110.443 94.6204C117.84 98.3256 124.66 104.58 125.696 104.719C122.784 113.243 120.929 119.556 119.371 124.915C111.958 117.186 111.083 115.837 109.362 114.321C105.112 110.469 100.48 107.062 95.5381 104.154C94.3937 103.376 93.0896 102.866 91.7222 102.661C91.5535 102.665 91.3888 102.712 91.2438 102.799C91.0989 102.885 90.9787 103.008 90.8948 103.154C90.8109 103.301 90.7663 103.467 90.7651 103.636C90.7639 103.805 90.8063 103.971 90.8882 104.119C91.8022 105.631 95.8626 106.506 104.472 113.508C109.546 117.642 114.33 122.12 118.793 126.909C117.326 132.273 115.572 137.553 113.537 142.726C111.481 141.009 108.709 138.646 107.406 137.613C103.668 134.652 88.3792 123.66 85.948 122.632C85.034 122.247 84.7506 122.02 84.0766 122.153C83.9287 122.196 83.8036 122.296 83.7276 122.43C83.6517 122.564 83.631 122.723 83.6698 122.872C83.9326 124.106 87.6206 126.408 88.9002 127.271C105.725 138.618 108.816 141.378 112.836 144.389C111.249 148.085 109.518 151.716 107.646 155.276C107.653 155.126 107.619 154.978 107.546 154.848C107.474 154.717 107.367 154.609 107.237 154.536C102.612 152.141 102.558 152.04 101.479 152.246C101.367 152.279 101.263 152.337 101.177 152.415C101.09 152.494 101.022 152.591 100.978 152.7C100.934 152.808 100.915 152.925 100.923 153.042C100.93 153.159 100.964 153.273 101.022 153.375C101.555 154.261 101.664 154.247 106.593 156.068C106.712 156.107 106.839 156.115 106.963 156.093C107.086 156.07 107.202 156.017 107.299 155.937C105.318 159.716 99.3015 170.77 98.3258 172.551C98.274 172.435 98.1994 172.331 98.1063 172.244C98.0132 172.158 97.9037 172.091 97.7843 172.048C93.2668 170.156 93.8998 170.374 92.675 170.2C92.4679 170.134 92.2438 170.149 92.0468 170.24C91.8498 170.332 91.694 170.494 91.6102 170.695C91.5263 170.896 91.5204 171.121 91.5935 171.326C91.6667 171.53 91.8136 171.701 92.0055 171.803C93.1732 172.49 92.691 172.309 97.3501 173.648C97.477 173.679 97.6094 173.679 97.7363 173.648C94.9943 178.712 92.2523 183.798 89.5788 188.913C80.8776 183.99 86.7729 186.427 67.7594 179.119C66.9099 178.756 65.9796 178.625 65.0631 178.739C64.9501 178.774 64.8461 178.833 64.7588 178.913C64.6714 178.992 64.6029 179.091 64.558 179.2C64.5132 179.31 64.4932 179.428 64.4996 179.546C64.5059 179.664 64.5384 179.78 64.5947 179.884C65.0951 180.768 66.5598 181.54 81.2066 186.791C82.4474 187.249 86.3684 189.383 88.7471 190.505C86.4758 194.861 84.2578 199.239 82.0932 203.64C77.3358 202.099 67.147 199.491 63.5847 198.474C49.4177 194.423 48.6773 193.764 44.0959 192.381C44.9551 188.717 45.8622 185.053 46.7694 181.389C46.8282 181.126 46.7841 180.851 46.6461 180.621C46.5082 180.39 46.2871 180.222 46.0285 180.15C45.77 180.079 45.4939 180.11 45.2574 180.236C45.021 180.363 44.8424 180.577 44.7586 180.832C42.3693 188.457 40.5139 196.24 39.206 204.124C33.4244 236.574 34.5191 269.88 42.4187 301.879C42.5093 302.191 42.7176 302.454 42.9992 302.614C43.2809 302.774 43.6137 302.818 43.9268 302.736L58.5714 298.517C58.8271 298.442 59.0521 298.287 59.2136 298.074C59.3751 297.862 59.4647 297.603 59.4694 297.336C58.2743 240.67 93.1731 189.671 111.583 152.725C122.446 130.921 121.116 118.833 135.715 83.6948C136.106 82.7582 134.422 82.0391 134.008 83.0032ZM44.4844 300.038C42.9854 293.872 41.7401 287.651 40.7484 281.377C43.3967 281.475 43.1339 281.336 52.6898 280.042C54.441 279.862 56.1628 279.464 57.8151 278.855C57.1847 284.693 56.9138 290.563 57.0039 296.434L44.4844 300.038ZM58.0321 276.939C56.6977 277.218 53.9191 277.729 52.4773 277.855C48.4803 278.525 44.4426 278.924 40.3919 279.048C39.417 272.445 38.7277 265.804 38.324 259.125C38.6669 259.257 39.021 259.357 39.382 259.425C45.5301 259.933 51.7061 260.013 57.8653 259.665C58.0414 259.611 58.1953 259.501 58.3046 259.352C58.414 259.203 58.4729 259.023 58.4729 258.839C58.4729 258.654 58.414 258.474 58.3046 258.325C58.1953 258.176 58.0414 258.067 57.8653 258.012C56.5058 257.648 42.9191 257.311 40.7278 257.13C39.8327 257.035 38.9644 256.766 38.1709 256.34C37.8236 249.121 37.8167 241.879 38.1504 234.615C41.3608 237.713 57.6848 240.445 61.2563 240.855C62.2828 241.055 63.3376 241.061 64.3662 240.871C64.5397 240.82 64.6948 240.72 64.8126 240.582C64.9305 240.444 65.006 240.276 65.0302 240.096C65.0544 239.916 65.0261 239.733 64.9488 239.569C64.8715 239.405 64.7485 239.267 64.5947 239.172C63.2945 238.485 60.7102 238.508 54.2299 237.134C50.4128 236.352 46.6408 235.362 42.9306 234.171C41.2351 233.564 39.3408 232.11 38.2989 231.945C38.6279 226.25 39.1733 220.559 39.9349 214.871C40.2779 215.034 40.6305 215.176 40.9906 215.297C49.8633 218.37 58.6605 221.48 68.7739 222.327C69.0062 222.323 69.2292 222.235 69.4026 222.08C69.5759 221.925 69.6881 221.713 69.7188 221.482C69.7495 221.252 69.6966 221.017 69.5698 220.822C69.443 220.627 69.2506 220.484 69.0276 220.419C60.8998 218.42 57.125 217.882 48.3072 215.106C46.454 214.525 42.5535 212.899 40.3097 212.267C41.1582 206.449 42.2344 200.647 43.5384 194.863C53.1926 198.406 63.0759 201.289 73.12 203.489C74.1734 203.691 79.9476 205.335 81.2135 205.472C70.0947 228.393 61.0209 252.033 58.0321 276.939Z" fill="#3EC491"/>
<path d="M428.938 193.484C434.025 190.125 440.61 183.55 437.85 178.141C438.757 176.162 439.237 174.013 439.26 171.835C439.282 169.657 438.846 167.498 437.98 165.5C436.681 161.121 434.486 157.061 431.534 153.579C429.148 151.072 426.197 149.177 422.928 148.051C419.659 146.924 416.168 146.601 412.749 147.107C411.429 147.394 410.234 148.093 409.337 149.105C408.44 150.117 407.887 151.389 407.759 152.736C407.61 154.028 407.564 152.317 398.781 155.757C398.299 152.23 393.1 151.825 389.748 154.076C386.871 156.008 385.329 159.514 387.783 161.04C388.012 161.04 379.329 165.723 375.992 168.205C368.553 173.754 368.982 180.358 372.492 188.852C375.725 196.674 378.723 202.672 387.244 202.706C392.144 202.417 396.961 201.311 401.498 199.434C401.726 199.447 401.916 199.736 402.323 200.121C404.005 201.609 406.198 202.383 408.44 202.278C410.681 202.173 412.794 201.198 414.33 199.56C417.429 199.573 424.272 196.246 426.843 194.769C435.24 211.097 442.794 229 443.359 247.604C443.677 264.881 441.743 282.125 437.605 298.9C434.912 308.563 431.157 317.897 426.409 326.73C420.92 325.683 415.552 324.08 410.386 321.946C416.268 309.173 423.868 287.264 420.826 273.563C416.092 252.305 369.051 224.631 364.268 158.163C363.938 149.05 362.6 140.001 360.279 131.183C349.987 97.0089 335.025 88.7397 314.254 64.8641C317.339 59.7652 321.415 55.3389 326.239 51.8478C361.599 74.3264 383.211 110.355 401.815 147.982C402.343 149.051 403.899 148.115 403.415 147.05C385.72 109.123 362.079 71.3174 326.89 49.07C326.686 48.9475 326.452 48.8829 326.214 48.8829C325.976 48.8829 325.742 48.9475 325.537 49.07C324.996 49.4456 324.461 49.8349 323.938 50.231C323.863 49.7593 323.681 49.3112 323.405 48.9212C319.318 41.6046 310.838 35.0346 303.741 30.9355C303.037 30.5302 302.395 31.5378 302.941 31.9751C309.746 37.4299 316.905 41.5313 321.575 49.6082C321.87 50.1211 322.213 50.9363 322.738 51.1608C318.939 54.208 315.632 57.8244 312.933 61.8826C311.448 61.3673 311.498 61.5093 309.963 60.923C301.965 57.8865 299.804 52.6264 296.431 49.9173C294.816 48.6189 291.918 46.9953 290.177 48.1082C290.062 48.1783 289.967 48.2768 289.901 48.3943C289.835 48.5118 289.801 48.6444 289.801 48.7792C289.801 48.914 289.835 49.0465 289.901 49.164C289.967 49.2815 290.062 49.3801 290.177 49.4501C291.717 50.3341 292.398 49.7524 294.63 51.4104C298.188 54.0553 300.645 60.2338 310.456 63.2817C310.913 63.4214 311.357 63.5611 311.816 63.6596C311.409 64.3466 310.847 65.045 311.638 65.961C331.154 88.5817 345.394 97.0203 355.389 124.864C361.439 141.719 360.578 148.028 362.493 170.161C357.975 171.846 353.227 173.907 350.252 177.869C349.332 178.845 348.832 180.144 348.86 181.487C348.887 182.829 349.441 184.106 350.4 185.043C352.465 186.261 354.89 186.718 357.255 186.333C359.694 186.394 362.126 186.039 364.446 185.284C365.568 191.304 367.651 197.104 370.616 202.459C366.542 204.432 362.785 207.005 359.47 210.091C356.321 213.565 358.508 217.303 362.116 218.189C367.571 218.809 373.089 217.866 378.031 215.468C385.887 228.157 401.486 248.886 405.254 253.482C404.112 254.822 401.125 268.754 386.821 284.626C378.776 293.586 369.037 300.858 358.169 306.022C353.371 308.282 348.344 309.862 343.411 311.79C342.865 310.043 339.405 300.196 338.934 298.966C338.077 296.724 337.173 296.292 334.984 295.302C325.117 290.876 325.579 290.933 324.93 291.203C324.002 291.595 324.514 291.872 322.706 297.972C321.068 303.498 320.222 304.183 321.141 305.646C321.424 306.104 331.261 317.634 331.7 318.129C324.93 323.687 324.959 329.389 321.589 334.638C305.964 321.15 310.776 320.176 304.842 320.211L294.973 320.266C294.659 320.272 294.359 320.4 294.137 320.623C293.915 320.846 293.787 321.146 293.78 321.461C293.767 321.69 292.976 334.539 292.988 334.844C293.077 336.905 293.774 336.66 305.88 344.37C297.638 350.702 297.791 361.101 291.219 372.168C287.821 377.893 285.326 379.725 281.681 384.065C281.54 383.641 280.045 378.846 279.143 375.773C279.052 375.451 278.839 375.178 278.549 375.013C278.259 374.848 277.916 374.805 277.594 374.891C263.853 380.368 249.433 383.942 234.729 385.515C213.479 387.768 198.626 385.54 176.594 369.572C175.815 369.006 174.869 368.621 174.117 368.03C173.94 367.852 173.699 367.752 173.448 367.752C173.197 367.752 172.956 367.852 172.778 368.03C172.601 368.208 172.501 368.45 172.501 368.701C172.501 368.953 172.601 369.194 172.778 369.372C174.026 370.621 175.376 371.762 176.816 372.782C196.924 387.28 213.234 389.884 231.738 388.26C247.277 386.901 262.55 383.368 277.111 377.765C278.003 380.797 278.924 383.82 279.876 386.834C260.138 404.428 237.375 406.003 214.009 413.116C213.126 413.348 212.259 413.635 211.413 413.977C209.491 414.843 209.873 417.139 209.96 418.914C191.362 417.742 173.336 412.007 157.469 402.213C156.495 401.604 155.714 403.067 156.589 403.72C168.243 412.399 185.837 419.661 210.04 421.621L210.213 427.845C210.241 428.818 210.085 429.888 210.874 430.593C211.415 431.067 212.016 431.079 214.025 431.28C227.995 432.679 242.149 430.442 256.014 427.488C285.285 421.252 312.492 414.623 339.937 383.291C341.733 381.23 341.745 381.104 342.097 380.822C342.149 381.441 342.714 381.912 343.797 381.493C343.143 381.747 346.715 379.604 360.77 380.742C363.396 380.966 365.981 381.541 368.454 382.453C368.616 382.548 368.81 382.575 368.992 382.528C369.173 382.48 369.329 382.362 369.424 382.2C369.519 382.037 369.546 381.844 369.499 381.661C369.452 381.479 369.334 381.323 369.172 381.228C366.104 379.342 362.577 378.338 358.978 378.326C356.198 378.109 350.343 378.223 347.709 378.326C346.059 378.388 346.968 378.532 346.477 377.868C342.364 372.29 333.507 358.632 331.917 351.952C329.765 342.898 336.716 337.296 347.295 341.466C356.516 345.584 364.961 351.26 372.263 358.245C372.469 358.44 372.684 358.623 372.901 358.804C370.223 366.043 368.246 373.858 370.435 381.228C370.483 381.394 370.588 381.537 370.733 381.632C370.877 381.727 371.05 381.766 371.221 381.743C371.394 381.723 371.552 381.64 371.668 381.509C371.783 381.379 371.846 381.211 371.845 381.038C370.07 367.195 377.409 355.818 377.418 352.839C397.983 332.863 411.483 305.266 418.793 277.985C419.912 289.96 412.959 310.338 407.471 321.953C407.301 322.262 407.256 322.625 407.346 322.966C407.436 323.307 407.653 323.6 407.953 323.785C411.072 325.159 409.929 324.326 409.552 325.036C407.803 328.989 405.819 332.834 403.611 336.55C402.121 338.904 401.879 338.748 402.08 340.044C402.135 340.402 402.517 340.523 402.919 340.468C403.908 340.333 404.432 339.282 405.254 338.004C407.803 334.207 409.731 330.027 410.967 325.622C410.991 325.515 410.994 325.405 410.976 325.297C410.957 325.189 410.916 325.086 410.857 324.994C415.594 326.864 420.494 328.289 425.495 329.249C424.83 329.826 424.903 332.867 424.713 334.667C424.009 341.393 420.998 348.268 418.509 354.659C418.19 355.479 419.531 356.033 419.924 355.257C423.47 348.208 426.793 340.415 427.067 332.554C427.098 331.494 426.918 330.438 426.539 329.448L426.795 329.499C427.077 329.569 427.374 329.548 427.643 329.438C427.912 329.328 428.139 329.135 428.292 328.887C441.773 303.189 445.456 279.089 445.85 250.592C446.11 231.114 437.85 210.797 428.938 193.484ZM396.932 156.178C396.932 156.221 396.955 156.269 396.932 156.178V156.178ZM388.784 158.901C388.402 157.953 390.489 156.04 391.722 155.429C393.322 154.644 396.464 154.415 396.912 156.134C397.2 156.764 395.031 157.05 389.828 159.917C389.753 159.482 388.98 159.402 388.784 158.91V158.901ZM405.483 199.555C403.614 198.742 403.198 197.281 401.614 197.194C400.321 197.123 399.862 197.833 395.845 199.026C391.311 200.373 385.247 201.513 381.348 198.822C380.181 197.97 379.175 196.916 378.378 195.708C375.855 191.575 373.931 187.102 372.666 182.426C370.52 172.938 376.55 170.08 384.689 165.233C391.807 160.625 399.579 157.123 407.743 154.845C408.357 164.294 414.52 174.75 419.033 182.343C419.401 182.987 419.82 183.6 420.287 184.175C417.309 185.602 414.602 187.54 412.29 189.9C412.158 190.038 412.059 190.203 411.999 190.384C411.94 190.565 411.921 190.757 411.946 190.946C411.97 191.135 412.036 191.317 412.139 191.477C412.242 191.637 412.379 191.772 412.541 191.872C416.192 195.536 411.833 201.857 405.483 199.564V199.555ZM323.079 304.371C323.079 304.419 323.079 304.533 323.079 304.371C322.955 304.128 324.557 300.757 326.17 293.85C335.996 298.162 336.133 297.911 336.8 299.443C337.285 300.775 341.085 311.181 341.624 312.496C338.798 313.62 336.097 315.036 333.565 316.721C332.413 315.333 323.296 304.716 323.079 304.38V304.371ZM295.391 334.899C295.337 334.578 295.524 331.97 296.077 322.649C307.164 322.588 306.273 322.553 306.702 322.702C307.522 323.16 312.479 330.859 320.478 336.124C317.343 339.788 312.296 340.486 308.126 342.863C307.136 342.256 295.14 334.908 295.391 334.908V334.899Z" fill="#282732"/>
<path d="M206.836 428.393C203.034 429.13 199.14 429.273 195.294 428.816C192.608 428.471 189.971 427.806 187.441 426.838C180.312 424.135 177.387 420.261 175.525 419.539C175.401 419.506 175.27 419.506 175.146 419.539C175.022 419.573 174.909 419.638 174.818 419.729C174.727 419.82 174.662 419.933 174.629 420.058C174.596 420.182 174.596 420.313 174.629 420.437C174.741 420.761 174.911 421.062 175.129 421.326C180.421 427.884 193.825 432.76 203.436 430.639C204.693 430.362 205.949 430.041 207.183 429.659C207.345 429.607 207.48 429.495 207.56 429.346C207.641 429.197 207.661 429.022 207.616 428.859C207.571 428.695 207.465 428.555 207.319 428.469C207.174 428.382 207.001 428.354 206.836 428.393Z" fill="#282732"/>
<path d="M186.751 422.629C187.436 422.858 187.93 421.74 187.251 421.435C178.603 417.542 176.818 414.458 175.609 415.213C175.152 415.504 175.296 416.178 175.609 416.523C178.898 419.256 182.681 421.328 186.751 422.629Z" fill="#282732"/>
<path d="M268.303 47.6458C268.214 47.4077 268.038 47.2132 267.809 47.1031C267.581 46.9929 267.319 46.9757 267.078 47.0549C265.849 47.4488 265.309 49.8465 261.327 51.6349C258.683 52.7691 255.82 53.2987 252.946 53.1854C250.072 53.0721 247.26 52.3188 244.712 50.98C247.184 51.2843 249.684 50.7088 251.775 49.3541C257.115 45.9443 259.73 40.1529 261.258 34.0477C261.318 33.8705 261.341 33.6828 261.326 33.4963C261.311 33.3097 261.258 33.1282 261.171 32.9629C261.083 32.7976 260.963 32.6519 260.817 32.5348C260.672 32.4177 260.504 32.3317 260.324 32.282C260.144 32.2324 259.955 32.2201 259.77 32.2459C259.585 32.2718 259.408 32.3352 259.248 32.4323C259.088 32.5295 258.95 32.6583 258.842 32.8109C258.734 32.9634 258.658 33.1365 258.619 33.3195C258.179 35.0086 257.624 36.6658 256.96 38.2797C255.852 41.3537 253.919 44.0615 251.373 46.1046C245.405 50.5907 241.639 46.4206 240.213 47.6893C239.475 47.79 239.217 47.9366 238.113 48.058C236.848 48.2154 235.564 48.1007 234.347 47.7216C233.129 47.3426 232.006 46.7078 231.053 45.8596C230.203 45.2947 229.471 44.569 228.898 43.723C227.344 41.4055 223.974 35.1195 223.855 32.4745C223.855 32.3284 223.826 32.1836 223.77 32.0486C223.715 31.9136 223.633 31.7909 223.53 31.6875C223.427 31.5842 223.304 31.5022 223.169 31.4463C223.035 31.3904 222.89 31.3616 222.745 31.3616C222.599 31.3616 222.454 31.3904 222.32 31.4463C222.185 31.5022 222.062 31.5842 221.959 31.6875C221.856 31.7909 221.774 31.9136 221.719 32.0486C221.663 32.1836 221.634 32.3284 221.634 32.4745C222.345 36.0603 223.678 39.4933 225.573 42.6169C226.552 44.8315 228.159 46.7092 230.194 48.0167C232.122 49.5061 234.477 50.3346 236.912 50.38C238.893 50.38 239.299 49.9449 239.005 50.2312C238.166 51.1159 237.143 51.8041 236.009 52.2464C229.771 54.5982 219.772 51.193 215.227 43.0177C215.152 42.8903 215.053 42.779 214.935 42.6901C214.817 42.6012 214.682 42.5365 214.54 42.4996C214.397 42.4627 214.248 42.4544 214.102 42.4751C213.956 42.4958 213.815 42.5452 213.688 42.6204C213.561 42.6955 213.45 42.7951 213.361 42.9133C213.272 43.0315 213.208 43.166 213.171 43.3092C213.134 43.4524 213.126 43.6015 213.147 43.748C213.167 43.8944 213.216 44.0353 213.291 44.1627C220.162 56.6684 237.005 58.292 240.778 50.8403C242.115 52.3524 243.801 53.5136 245.688 54.2226C255.783 58.4843 265.899 53.8288 267.887 49.7251C268.1 49.4284 268.248 49.0893 268.32 48.7306C268.392 48.3719 268.386 48.002 268.303 47.6458Z" fill="#3EC491"/>
<path d="M242.043 59.872C241.962 59.5894 241.794 59.3397 241.563 59.1583C241.332 58.9768 241.05 58.8729 240.757 58.8612C240.464 58.8495 240.174 58.9308 239.93 59.0933C239.685 59.2558 239.498 59.4914 239.395 59.7667C239.305 60.0697 239.314 60.3936 239.421 60.691C239.528 60.9884 239.727 61.2438 239.989 61.42C240.226 61.5531 240.498 61.6141 240.769 61.5957C241.041 61.5772 241.301 61.4801 241.519 61.3162C241.736 61.1522 241.902 60.9284 241.995 60.6721C242.088 60.4157 242.105 60.1377 242.043 59.872Z" fill="#3EC491"/>
</svg>
