<svg width="284" height="284" viewBox="0 0 284 284" fill="none" xmlns="http://www.w3.org/2000/svg">
<path fill-rule="evenodd" clip-rule="evenodd" d="M94.0146 12C94.0146 10.6193 95.1339 9.5 96.5146 9.5H210.103C211.356 9.5 212.416 10.4279 212.581 11.6703C212.593 11.7578 212.607 11.8555 212.622 11.963C212.725 12.6738 212.89 13.8103 212.797 15.2317C212.688 16.8913 212.246 18.8702 211.16 21.3195C210.992 21.6994 210.986 21.9091 210.993 22.0072C211 22.1074 211.034 22.2549 211.177 22.4926C211.544 23.0988 212.232 23.7241 213.462 24.8294C215.695 26.8355 219.05 29.88 219.05 35.3796C219.05 38.9987 219.298 41.0614 219.6 42.2455C219.747 42.821 219.89 43.1213 219.977 43.2667C220.05 43.3898 220.095 43.4246 220.12 43.444C220.183 43.4932 220.228 43.5185 220.415 43.6252C220.464 43.6531 220.523 43.6865 220.594 43.7273C220.884 43.8933 221.396 44.1931 221.874 44.7049C222.9 45.8043 223.258 47.2892 223.345 49.1041C223.436 51.0262 223.406 83.9062 223.376 116.264C223.362 132.08 223.348 147.771 223.348 159.661C223.348 160.972 222.334 162.061 221.026 162.154C220.265 162.209 219.311 162.291 218.571 162.566C218.397 162.63 218.278 162.691 218.2 162.737C218.217 162.753 218.235 162.769 218.257 162.788C218.503 163 218.722 163.13 219.056 163.329C219.258 163.449 219.502 163.594 219.819 163.797C220.136 164.001 220.618 164.327 221.025 164.78C221.465 165.268 221.973 166.082 221.927 167.181C221.883 168.214 221.367 169.001 220.91 169.517C220.443 170.044 219.837 170.52 219.166 170.968C219.109 171.007 219.057 171.042 219.011 171.075C219.131 171.28 219.309 171.556 219.568 171.934C219.714 172.147 219.889 172.397 220.085 172.677C220.469 173.225 220.93 173.883 221.394 174.58C223.078 177.111 223.049 179.323 222.919 181.107C222.907 181.263 222.896 181.413 222.885 181.559C222.779 182.93 222.709 183.855 223.103 185.006C223.994 186.47 224.622 188.518 224.48 190.49C224.402 191.577 224.078 192.775 223.285 193.818C222.466 194.896 221.288 195.621 219.856 195.94C219.594 195.998 219.372 196.045 219.179 196.086C218.758 196.176 218.47 196.237 218.188 196.324C218.137 196.34 218.095 196.355 218.059 196.367C218.057 196.393 218.054 196.423 218.052 196.456C218.029 196.854 218.086 197.567 218.369 198.773C218.521 199.417 218.579 200.145 218.397 200.891C218.206 201.676 217.789 202.309 217.262 202.782C216.372 203.581 215.201 203.862 214.623 204.001L214.603 204.005C214.394 204.056 214.209 204.098 214.044 204.136C213.571 204.245 213.25 204.319 212.924 204.445C212.857 204.471 212.801 204.495 212.754 204.518C212.39 206.58 211.762 208.586 210.763 210.266C209.705 212.044 208.156 213.568 206.014 214.239C206.029 214.359 206.05 214.505 206.078 214.681C206.094 214.78 206.113 214.89 206.133 215.009C206.242 215.653 206.396 216.56 206.416 217.454C206.442 218.575 206.278 219.93 205.494 221.24C205.049 221.982 204.536 222.687 204.092 223.297C204.006 223.416 203.922 223.532 203.842 223.643C203.32 224.366 202.876 225.017 202.506 225.743C201.813 227.105 201.272 228.939 201.542 232.044C201.804 235.066 201.535 236.918 200.667 238.409C200.377 238.907 199.988 239.387 199.78 239.644C199.734 239.7 199.697 239.746 199.672 239.779C199.586 239.889 199.513 239.99 199.448 240.095L199.652 242.549L201.196 245.127C201.497 245.629 201.612 246.222 201.521 246.8C201.324 248.045 200.885 249.564 199.498 250.838C198.196 252.035 196.35 252.744 193.973 253.177C193.123 253.332 192.384 253.457 191.702 253.572C190.913 253.705 190.199 253.826 189.476 253.966C188.191 254.214 187.305 254.45 186.68 254.73C186.098 254.99 185.901 255.218 185.803 255.387C185.692 255.58 185.524 256.024 185.583 257.032C185.677 258.622 185.986 259.578 186.323 260.618C186.474 261.084 186.63 261.567 186.775 262.132C186.997 262.998 187.167 264.085 186.841 265.306C186.521 266.509 185.804 267.532 184.857 268.48C184.337 269.001 183.693 269.508 182.896 269.792C182.022 270.102 181.147 270.078 180.35 269.803C179.635 269.557 179.073 269.14 178.677 268.808C178.295 268.487 177.913 268.107 177.589 267.784L177.543 267.74C176.191 266.395 174.625 264.861 171.545 264.244L171.506 264.236C170.114 263.957 167.42 263.417 164.816 263.51C162.023 263.611 160.455 264.379 159.87 265.624C159.062 267.345 159.082 268.808 159.103 270.303C159.106 270.541 159.109 270.78 159.109 271.021C159.109 271.433 159.098 271.972 158.993 272.505C158.887 273.047 158.642 273.812 157.995 274.46C156.649 275.809 154.781 275.542 153.705 275.311C150.905 274.71 147.662 272.585 145.02 270.06C142.349 267.506 139.849 264.123 138.919 260.582C138.476 258.895 138.474 257.354 138.898 255.958C139.319 254.572 140.099 253.528 140.899 252.734C141.649 251.99 142.488 251.401 143.102 250.97L143.159 250.93C143.159 250.93 143.159 250.93 143.159 250.93L141.92 248.268C141.63 247.857 141.336 247.547 141.002 247.216C140.961 247.176 140.916 247.132 140.868 247.085C140.531 246.757 140.017 246.255 139.615 245.664C138.622 244.205 138.422 242.511 138.716 240.237C138.531 240.198 138.313 240.156 138.068 240.108C136.918 239.884 135.171 239.543 133.433 238.921C132.927 238.74 132.492 238.4 132.194 237.952C131.408 236.77 130.739 235.293 130.225 234.158C130.056 233.786 129.904 233.451 129.77 233.175C129.458 232.532 129.228 232.146 129.051 231.927C127.389 231.646 124.882 230.703 122.485 229.577C119.866 228.346 116.965 226.702 114.868 224.95C112.944 223.344 110.182 220.748 108.071 217.968C107.019 216.583 106.05 215.052 105.457 213.497C104.874 211.968 104.538 210.104 105.234 208.293C106.129 205.961 107.811 204.651 108.768 203.907C108.943 203.771 109.094 203.653 109.212 203.552C109.63 203.19 109.795 202.965 109.894 202.727C109.996 202.478 110.127 201.959 109.997 200.872C109.749 198.802 109.779 197.203 110.092 195.901C110.429 194.495 111.056 193.602 111.668 192.931C111.982 192.586 112.157 192.413 112.269 192.303C112.403 192.171 112.448 192.126 112.536 191.98C112.579 191.908 112.742 191.631 112.742 190.731C112.742 189.352 113.231 188.233 113.725 187.399C114.051 186.848 114.504 186.243 114.809 185.836C114.907 185.704 114.99 185.593 115.048 185.511C115.105 185.431 115.152 185.363 115.191 185.304C114.481 184.662 113.126 183.936 111.226 183.231C109.806 182.704 108.247 182.246 106.747 181.862C105.77 183.013 104.43 184.197 102.796 184.904C101.56 185.439 100.099 185.721 98.5226 185.426C96.9423 185.131 95.4647 184.295 94.1323 182.96C92.0788 180.903 91.5591 178.118 91.7198 175.864C91.8018 174.713 92.0644 173.593 92.4729 172.616C92.591 172.334 92.7288 172.046 92.8887 171.761C89.8787 166.666 85.8377 160.541 81.9145 156.872C79.0932 154.233 75.9242 151.8 72.7293 149.346C72.0511 148.825 71.3716 148.303 70.6941 147.778C66.911 144.848 63.1525 141.796 60.486 138.456C60.1324 138.013 59.9398 137.463 59.9398 136.896L59.9388 119.977C59.939 119.461 59.8498 118.917 59.7225 118.142L59.7101 118.067C59.5998 117.396 59.4369 116.406 59.5272 115.438C59.6328 114.306 60.0907 113.074 61.2716 112.136C62.3293 111.296 63.7086 110.905 65.2092 110.727C65.1993 110.612 65.1805 110.461 65.1457 110.269C65.0498 109.738 64.8993 109.193 64.7143 108.523C64.6425 108.263 64.5656 107.985 64.4846 107.681C64.2292 106.722 63.9309 105.493 63.9309 104.288C63.9309 103.748 64.1058 103.222 64.4293 102.79C64.4933 102.704 64.5648 102.606 64.644 102.498C65.9035 100.771 69.119 96.3638 75.2345 96.8745C76.8529 97.0097 77.5994 96.7947 77.8875 96.6519C78.0572 96.5678 78.1035 96.5079 78.1592 96.3244C78.2508 96.0228 78.2829 95.5435 78.2297 94.7708C78.2184 94.6071 78.1976 94.384 78.174 94.1317C78.1198 93.5503 78.0511 92.8137 78.0511 92.2904C78.0511 92.1747 78.0509 92.0603 78.0507 91.9474C78.0494 91.1843 78.0482 90.4907 78.1074 89.9511C78.198 89.1248 78.4461 88.3881 79.0196 87.6743C79.2985 87.327 79.7219 86.9305 80.0625 86.6114C80.1579 86.5219 80.2469 86.4386 80.3244 86.3641C80.7941 85.9126 81.44 85.2606 82.3285 84.2131C83.8435 82.4271 84.2777 80.4647 84.1034 79.2887C84.0186 78.7164 83.8276 78.5183 83.7828 78.4814C83.7626 78.4649 83.7337 78.4454 83.6669 78.4305C83.5933 78.414 83.4305 78.3946 83.1495 78.4458C81.9125 78.6711 80.5248 78.6017 79.2663 77.9381C77.954 77.2461 77.0627 76.0539 76.6492 74.5888C75.8839 71.8772 76.7189 68.2229 78.9281 63.7955C80.1103 61.4262 81.7396 59.7133 84.2324 59.0353C86.187 58.5036 88.3989 58.7012 90.7821 59.1722L94.5134 56.6802C94.8417 56.461 95.2172 56.3226 95.6091 56.2764C97.0386 56.1078 98.208 56.0752 99.1763 56.0651C99.3978 56.0628 99.6 56.0615 99.7868 56.0603C100.462 56.0559 100.937 56.0528 101.396 56.009C101.905 55.9605 102.28 55.8673 102.663 55.686C103.068 55.4943 103.595 55.1506 104.328 54.468C106.506 52.4418 107.723 51.1881 108.445 50.0431C109.074 49.0447 109.364 48.0634 109.364 46.4541C109.364 44.8989 109.839 43.6469 110.681 42.6469C111.345 41.8585 112.198 41.3034 112.729 40.9581C112.779 40.9256 112.826 40.8949 112.87 40.8661C113.485 40.4615 113.818 40.2122 114.066 39.9053C114.27 39.6537 114.503 39.2537 114.602 38.454C114.814 36.7583 114.727 35.0258 114.492 33.5707C114.377 32.8581 114.237 32.2739 114.104 31.8271L108.47 31.0907C107.367 30.9465 106.492 30.0908 106.323 28.9912C106.084 27.4307 105.26 25.406 104.031 23.6759C102.77 21.899 101.386 20.8509 100.25 20.5882C97.9146 20.0479 96.353 18.3911 95.4304 16.8272C94.5152 15.2759 94.0146 13.4703 94.0146 12ZM99.8699 14.5C100.345 15.2199 100.878 15.6015 101.377 15.7168C104.231 16.377 106.531 18.559 108.108 20.7813C109.316 22.4829 110.278 24.4514 110.841 26.358L116.179 27.0558C116.927 27.1535 117.591 27.5837 117.985 28.2264C118.65 29.3089 119.144 31.0145 119.428 32.774C119.726 34.6157 119.844 36.831 119.564 39.0729C119.357 40.7342 118.783 42.0262 117.951 43.0532C117.164 44.0249 116.23 44.6407 115.617 45.0437C114.898 45.5164 114.661 45.683 114.505 45.868C114.503 45.8704 114.501 45.8729 114.499 45.8755C114.455 45.926 114.364 46.0316 114.364 46.4541C114.364 48.844 113.887 50.7851 112.674 52.7092C111.554 54.4866 109.855 56.1554 107.734 58.1284C106.749 59.0454 105.802 59.7322 104.801 60.2058C103.778 60.6898 102.813 60.8965 101.871 60.9864C101.168 61.0535 100.408 61.0576 99.7029 61.0615C99.5414 61.0624 99.3827 61.0633 99.2283 61.0649C98.4954 61.0725 97.7015 61.0937 96.7782 61.1802L92.6842 63.9144C92.1166 64.2935 91.4187 64.424 90.7525 64.2757C88.0128 63.6657 86.5004 63.6 85.5447 63.86C84.841 64.0514 84.1685 64.4918 83.402 66.0279C81.3133 70.214 81.2281 72.4046 81.4612 73.2307C81.5093 73.4011 81.5602 73.4743 81.5755 73.494C81.5875 73.5096 81.5921 73.512 81.5974 73.5148L81.5984 73.5153C81.616 73.5246 81.8019 73.609 82.2533 73.5267C83.9722 73.2136 85.6451 73.5407 86.9562 74.6176C88.2133 75.6501 88.8373 77.1245 89.0494 78.5557C89.469 81.3867 88.425 84.7554 86.1415 87.4475C85.1307 88.639 84.3664 89.4141 83.7893 89.9689C83.6502 90.1026 83.4418 90.2988 83.2928 90.439C83.2156 90.5116 83.1544 90.5693 83.127 90.5955C83.1041 90.6173 83.0835 90.6371 83.0649 90.6552C83.0508 90.9064 83.0509 91.2945 83.051 92.0305C83.051 92.1127 83.0511 92.1993 83.0511 92.2904C83.0511 92.611 83.0789 92.888 83.1171 93.2678C83.1471 93.5667 83.1835 93.9294 83.2178 94.427C83.2798 95.3253 83.3119 96.5648 82.9432 97.7781C82.5386 99.1096 81.6642 100.361 80.1074 101.132C78.669 101.845 76.8832 102.03 74.8183 101.857C71.9018 101.614 70.2787 103.36 69.0034 105.026C69.0669 105.402 69.1718 105.852 69.3161 106.393C69.3661 106.581 69.4229 106.786 69.483 107.003C69.6859 107.737 69.926 108.604 70.0661 109.38C70.2401 110.344 70.4023 111.814 69.74 113.171C68.9544 114.78 67.419 115.501 65.8012 115.692C65.2715 115.754 64.9128 115.839 64.6785 115.919C64.6033 115.944 64.5448 115.968 64.5004 115.987C64.4929 116.23 64.5362 116.6 64.6517 117.303C64.6597 117.352 64.6682 117.403 64.6769 117.455C64.7869 118.119 64.939 119.036 64.9388 119.977L64.9397 135.995C67.1588 138.576 70.2397 141.102 73.7561 143.826C74.3956 144.321 75.0491 144.823 75.7112 145.331C78.9105 147.787 82.3136 150.399 85.3299 153.22C90.2355 157.808 94.9996 165.388 98.0685 170.718C98.6942 171.805 98.4179 173.187 97.4225 173.95C97.43 173.944 97.4294 173.945 97.422 173.954C97.3919 173.989 97.2493 174.154 97.086 174.545C96.8997 174.991 96.753 175.576 96.7071 176.219C96.6119 177.554 96.962 178.717 97.6715 179.428C98.4267 180.185 99.0289 180.434 99.4422 180.512C99.8594 180.59 100.305 180.534 100.811 180.315C101.92 179.835 102.99 178.703 103.604 177.718C104.17 176.812 105.248 176.365 106.289 176.605C108.335 177.078 110.753 177.722 112.966 178.543C115.094 179.333 117.375 180.407 118.854 181.889C119.853 182.89 120.476 184.157 120.318 185.632C120.186 186.875 119.516 187.859 119.12 188.413C118.92 188.694 118.758 188.909 118.617 189.096C118.385 189.405 118.211 189.636 118.026 189.948C117.791 190.345 117.742 190.572 117.742 190.731C117.742 192.292 117.445 193.515 116.826 194.548C116.402 195.256 115.732 195.928 115.465 196.195C115.416 196.244 115.381 196.279 115.363 196.298C115.169 196.512 115.048 196.676 114.953 197.068C114.835 197.563 114.749 198.502 114.962 200.278C115.161 201.94 115.035 203.371 114.518 204.629C113.996 205.896 113.18 206.731 112.48 207.335C112.124 207.643 111.817 207.89 111.55 208.106C110.709 208.784 110.263 209.143 109.902 210.084C109.829 210.273 109.762 210.754 110.129 211.715C110.486 212.65 111.148 213.753 112.053 214.944C113.856 217.317 116.313 219.643 118.073 221.113C119.705 222.475 122.176 223.907 124.611 225.051C127.115 226.228 129.176 226.91 129.982 227.011C131.356 227.183 132.297 228.007 132.885 228.717C133.467 229.418 133.915 230.263 134.269 230.992C134.524 231.518 134.746 232.01 134.957 232.474C135.286 233.202 135.585 233.863 135.932 234.483C136.923 234.785 137.776 234.951 138.619 235.114C139.121 235.211 139.62 235.308 140.142 235.432C140.78 235.584 141.831 235.862 142.649 236.58C143.121 236.994 143.511 237.546 143.716 238.236C143.913 238.898 143.894 239.535 143.799 240.077C143.387 242.417 143.71 242.805 143.746 242.848C143.747 242.85 143.748 242.851 143.749 242.851C143.852 243.002 143.975 243.124 144.365 243.51C144.413 243.557 144.464 243.608 144.521 243.664C144.984 244.123 145.582 244.742 146.181 245.642C146.251 245.747 146.313 245.857 146.366 245.971L148.515 250.585C148.935 251.488 148.78 252.555 148.119 253.3C147.51 253.986 146.697 254.556 146.128 254.955L146.033 255.022C145.36 255.494 144.843 255.864 144.42 256.284C144.024 256.677 143.797 257.033 143.682 257.411C143.571 257.778 143.506 258.363 143.755 259.312C144.36 261.615 146.158 264.231 148.475 266.445C150.503 268.384 152.597 269.702 154.095 270.232C154.065 268.706 154.078 266.195 155.344 263.498C157.216 259.514 161.507 258.626 164.637 258.514C167.837 258.399 171.009 259.036 172.407 259.317L172.527 259.341C177.111 260.26 179.559 262.693 181.058 264.183L181.068 264.193C181.268 264.392 181.43 264.552 181.568 264.684C181.933 264.272 181.998 264.065 182.01 264.018L182.01 264.017C182.021 263.977 182.055 263.852 181.932 263.375C181.884 263.188 181.803 262.937 181.702 262.628C181.338 261.504 180.726 259.62 180.592 257.325C180.497 255.717 180.713 254.2 181.475 252.884C182.25 251.543 183.415 250.714 184.637 250.167C185.815 249.639 187.175 249.318 188.528 249.056C189.246 248.918 190.096 248.773 190.975 248.624C191.675 248.505 192.393 248.383 193.077 248.258C195.057 247.898 195.82 247.428 196.115 247.157C196.215 247.065 196.3 246.963 196.374 246.806L195.064 244.619C194.868 244.291 194.749 243.923 194.718 243.542L194.411 239.851C194.38 239.483 194.431 239.113 194.561 238.767C194.908 237.84 195.342 237.204 195.719 236.716C195.879 236.511 195.988 236.375 196.07 236.274C196.205 236.107 196.264 236.034 196.346 235.894C196.444 235.724 196.789 235.116 196.56 232.476C196.216 228.506 196.903 225.726 198.052 223.473C198.603 222.392 199.233 221.486 199.786 220.719C199.891 220.574 199.991 220.436 200.087 220.303C200.527 219.697 200.884 219.205 201.204 218.671C201.341 218.442 201.43 218.121 201.418 217.569C201.406 217.07 201.325 216.585 201.219 215.946C201.194 215.799 201.168 215.643 201.142 215.477L201.138 215.457C201.028 214.773 200.833 213.561 201.146 212.423C201.328 211.758 201.687 211.081 202.309 210.524C202.914 209.983 203.625 209.682 204.321 209.521C205.075 209.347 205.802 208.825 206.465 207.711C207.145 206.568 207.655 204.95 207.935 202.991C207.984 202.646 208.104 202.316 208.288 202.02C209.064 200.777 210.193 200.14 211.121 199.781C211.82 199.511 212.611 199.332 213.134 199.213C213.208 199.196 213.276 199.181 213.338 199.167C213.116 198.06 213.009 197.061 213.061 196.167C213.127 195.029 213.461 193.925 214.263 193.026C215.028 192.17 215.981 191.774 216.705 191.549C217.224 191.388 217.844 191.257 218.352 191.149C218.503 191.117 218.644 191.087 218.769 191.059C219.163 190.972 219.269 190.84 219.304 190.793C219.365 190.712 219.465 190.519 219.493 190.131C219.554 189.28 219.217 188.18 218.766 187.501C218.664 187.348 218.579 187.184 218.514 187.012C217.608 184.652 217.777 182.619 217.896 181.192C217.909 181.035 217.922 180.885 217.932 180.743C218.032 179.374 218.003 178.51 217.231 177.35C216.791 176.689 216.414 176.151 216.057 175.642C215.848 175.345 215.647 175.057 215.444 174.761C214.964 174.061 214.431 173.25 214.121 172.423C213.767 171.479 213.624 170.304 214.208 169.096C214.594 168.296 215.208 167.687 215.834 167.206C215.545 167.011 215.25 166.797 214.997 166.579C214.112 165.818 213.129 164.575 213.129 162.737C213.129 159.83 215.308 158.443 216.831 157.878C217.334 157.691 217.854 157.555 218.348 157.455C218.349 145.557 218.363 130.397 218.377 115.217C218.406 83.2206 218.436 51.1387 218.35 49.3414C218.316 48.615 218.232 48.2576 218.184 48.1095C218.164 48.0976 218.14 48.0835 218.111 48.067C218.091 48.0558 218.067 48.0419 218.037 48.0255C217.837 47.9139 217.429 47.6858 217.047 47.3877C215.981 46.5572 215.232 45.3501 214.756 43.4816C214.3 41.6952 214.05 39.1435 214.05 35.3796C214.05 32.2656 212.339 30.5419 210.12 28.5489C210.042 28.4781 209.96 28.4054 209.877 28.3311C208.909 27.4661 207.674 26.3623 206.898 25.0793C206.438 24.3172 206.083 23.4168 206.006 22.3731C205.929 21.3271 206.144 20.2967 206.589 19.2923C207.468 17.3118 207.742 15.9068 207.808 14.9054C207.817 14.7642 207.822 14.6295 207.824 14.5H99.8699ZM218.149 48.0219C218.149 48.0216 218.152 48.0262 218.157 48.0366C218.151 48.0275 218.149 48.0223 218.149 48.0219ZM155.315 270.5C155.317 270.502 155.301 270.503 155.265 270.501C155.296 270.499 155.314 270.499 155.315 270.5Z" />
</svg>
