<svg xmlns="http://www.w3.org/2000/svg" width="25" height="24" viewBox="0 0 25 24" fill="none">
<path d="M12.268 2.16233C15.4733 2.16233 15.8496 2.17662 17.1165 2.23378C18.2882 2.28617 18.9217 2.48144 19.3455 2.64814C19.9076 2.86724 20.3076 3.12443 20.7268 3.54356C21.1459 3.96269 21.4079 4.36277 21.6222 4.92479C21.7841 5.34868 21.9842 5.98214 22.0366 7.1538C22.0937 8.42072 22.108 8.79698 22.108 12.0024C22.108 15.2078 22.0937 15.584 22.0366 16.851C21.9842 18.0226 21.7889 18.6561 21.6222 19.08C21.4031 19.642 21.1459 20.0421 20.7268 20.4612C20.3076 20.8803 19.9076 21.1423 19.3455 21.3566C18.9217 21.5186 18.2882 21.7186 17.1165 21.771C15.8496 21.8281 15.4733 21.8424 12.268 21.8424C9.06255 21.8424 8.68629 21.8281 7.41937 21.771C6.2477 21.7186 5.61425 21.5233 5.19035 21.3566C4.62833 21.1375 4.22826 20.8803 3.80912 20.4612C3.38999 20.0421 3.12804 19.642 2.91371 19.08C2.75177 18.6561 2.55173 18.0226 2.49934 16.851C2.44219 15.584 2.4279 15.2078 2.4279 12.0024C2.4279 8.79698 2.44219 8.42072 2.49934 7.1538C2.55173 5.98214 2.74701 5.34868 2.91371 4.92479C3.1328 4.36277 3.38999 3.96269 3.80912 3.54356C4.22826 3.12443 4.62833 2.86247 5.19035 2.64814C5.61425 2.48621 6.2477 2.28617 7.41937 2.23378C8.68629 2.17186 9.06731 2.16233 12.268 2.16233ZM12.268 0C9.01016 0 8.60055 0.0142885 7.31935 0.0714428C6.0429 0.128597 5.1713 0.3334 4.40924 0.628696C3.61861 0.933519 2.95181 1.34789 2.28501 2.01469C1.61821 2.68148 1.20861 3.35305 0.899021 4.13892C0.603724 4.90097 0.398922 5.77257 0.341767 7.05378C0.284613 8.33022 0.270325 8.73983 0.270325 11.9976C0.270325 15.2554 0.284613 15.665 0.341767 16.9462C0.398922 18.2227 0.603724 19.0943 0.899021 19.8611C1.20384 20.6517 1.61821 21.3185 2.28501 21.9853C2.95181 22.6521 3.62337 23.0617 4.40924 23.3713C5.1713 23.6666 6.0429 23.8714 7.32411 23.9286C8.60532 23.9857 9.01016 24 12.2727 24C15.5353 24 15.9401 23.9857 17.2213 23.9286C18.4978 23.8714 19.3694 23.6666 20.1362 23.3713C20.9268 23.0665 21.5936 22.6521 22.2604 21.9853C22.9272 21.3185 23.3368 20.647 23.6464 19.8611C23.9417 19.099 24.1465 18.2274 24.2037 16.9462C24.2608 15.665 24.2751 15.2602 24.2751 11.9976C24.2751 8.73507 24.2608 8.33022 24.2037 7.04902C24.1465 5.77257 23.9417 4.90097 23.6464 4.13415C23.3416 3.34352 22.9272 2.67672 22.2604 2.00992C21.5936 1.34312 20.9221 0.933519 20.1362 0.623933C19.3741 0.328637 18.5025 0.123834 17.2213 0.0666799C15.9353 0.0142885 15.5257 0 12.268 0Z" fill="white"/>
<path d="M12.2681 5.8396C8.86743 5.8396 6.10498 8.59729 6.10498 12.0027C6.10498 15.4082 8.86267 18.1659 12.2681 18.1659C15.6735 18.1659 18.4312 15.4082 18.4312 12.0027C18.4312 8.59729 15.6735 5.8396 12.2681 5.8396ZM12.2681 15.9988C10.0581 15.9988 8.26731 14.2079 8.26731 11.998C8.26731 9.788 10.0581 7.99717 12.2681 7.99717C14.4781 7.99717 16.2689 9.788 16.2689 11.998C16.2689 14.2079 14.4781 15.9988 12.2681 15.9988Z" fill="white"/>
<path d="M18.6746 7.03147C19.4692 7.03147 20.1134 6.38728 20.1134 5.59264C20.1134 4.79799 19.4692 4.15381 18.6746 4.15381C17.8799 4.15381 17.2357 4.79799 17.2357 5.59264C17.2357 6.38728 17.8799 7.03147 18.6746 7.03147Z" fill="white"/>
</svg>
