<svg xmlns="http://www.w3.org/2000/svg" width="25" height="24" viewBox="0 0 25 24" fill="none">
<path d="M22.501 0H2.04437C1.5745 0 1.12387 0.186657 0.791615 0.518909C0.459363 0.851161 0.272705 1.30179 0.272705 1.77167V22.2283C0.272705 22.6982 0.459363 23.1488 0.791615 23.4811C1.12387 23.8133 1.5745 24 2.04437 24H22.501C22.9709 24 23.4215 23.8133 23.7538 23.4811C24.0861 23.1488 24.2727 22.6982 24.2727 22.2283V1.77167C24.2727 1.30179 24.0861 0.851161 23.7538 0.518909C23.4215 0.186657 22.9709 0 22.501 0ZM7.42604 20.445H3.81771V8.98333H7.42604V20.445ZM5.61937 7.395C5.21007 7.3927 4.81062 7.2692 4.47144 7.04009C4.13226 6.81098 3.86855 6.48653 3.71358 6.10769C3.55862 5.72885 3.51935 5.31259 3.60074 4.91145C3.68212 4.51032 3.88051 4.14228 4.17086 3.85378C4.46121 3.56529 4.83052 3.36927 5.23217 3.29046C5.63382 3.21165 6.04982 3.25359 6.42766 3.41099C6.8055 3.56838 7.12824 3.83417 7.35517 4.17481C7.5821 4.51546 7.70303 4.91569 7.70271 5.325C7.70657 5.59903 7.65522 5.87104 7.55172 6.1248C7.44822 6.37857 7.29469 6.6089 7.10028 6.80207C6.90587 6.99523 6.67455 7.14728 6.42013 7.24915C6.1657 7.35102 5.89337 7.40062 5.61937 7.395ZM20.726 20.455H17.1194V14.1933C17.1194 12.3467 16.3344 11.7767 15.321 11.7767C14.251 11.7767 13.201 12.5833 13.201 14.24V20.455H9.5927V8.99167H13.0627V10.58H13.1094C13.4577 9.875 14.6777 8.67 16.5394 8.67C18.5527 8.67 20.7277 9.865 20.7277 13.365L20.726 20.455Z" fill="white"/>
</svg>