<svg width="237" height="237" viewBox="0 0 237 237" fill="none" xmlns="http://www.w3.org/2000/svg">
<path d="M65.3793 0C29.2713 0 0 29.2713 0 65.3793V171.621C0 207.729 29.2713 237 65.3793 237H76.5496C73.809 195.158 65.4896 179.972 60.5146 170.89C60.0086 169.966 59.5371 169.105 59.1097 168.286C57.6265 165.444 56.1 162.775 54.6015 160.154C48.3012 149.136 42.4966 138.985 42.4966 120.536C42.4966 85.2267 81.9527 56.6954 91.2976 53.0622C98.7735 50.1556 100.642 56.1764 98.5658 61.3666L87.6635 95.1034C87.3522 95.9982 87.0485 96.861 86.7553 97.6939C83.1376 107.972 81.1224 113.697 86.106 118.979C110.766 145.112 137.3 141.734 147.459 140.441C147.994 140.373 148.483 140.311 148.924 140.259C155.985 139.428 158.462 132.473 159.308 129.878C166.576 107.56 175.016 82.1276 175.016 82.1276C175.921 78.4944 180.419 76.2993 183.708 82.1276C190.694 94.508 197.578 110.155 193.053 147.525C191.173 163.047 186.028 170.381 173.325 184.895C162.002 197.833 154.678 217.068 150.082 237H171.621C207.729 237 237 207.729 237 171.621V65.3793C237 29.2713 207.729 0 171.621 0H65.3793Z" fill="url(#paint0_linear_1988_2)"/>
<defs>
<linearGradient id="paint0_linear_1988_2" x1="118.5" y1="0" x2="118.5" y2="237" gradientUnits="userSpaceOnUse">
<stop stop-color="#0551A8"/>
<stop offset="1" stop-color="#2785F3"/>
</linearGradient>
</defs>
</svg>
