<svg width="221" height="25" viewBox="0 0 221 25" fill="none" xmlns="http://www.w3.org/2000/svg">
<path d="M17.0056 1.58786C17.1108 1.13473 17.5146 0.813965 17.9797 0.813965H27.5653C28.2012 0.813965 28.6755 1.39965 28.5435 2.02166L26.252 12.814H14.3999L17.0056 1.58786Z" fill="#3EC491"/>
<path d="M11.7942 24.0401C11.689 24.4932 11.2852 24.814 10.8201 24.814H1.23452C0.598642 24.814 0.124256 24.2283 0.256322 23.6063L2.37954 13.6063C2.47762 13.1443 2.88549 12.814 3.35773 12.814H14.3999L11.7942 24.0401Z" fill="#3EC491"/>
<path d="M26.2512 12.814H36.6312C37.2671 12.814 37.7415 13.3996 37.6094 14.0217L35.4862 24.0217C35.3881 24.4836 34.9802 24.814 34.508 24.814H24.7245C24.0809 24.814 23.6049 24.2148 23.7504 23.5879L26.2512 12.814Z" fill="#3EC491"/>
<path d="M218.667 5.32165C218.031 5.32165 217.498 5.10627 217.067 4.6755C216.636 4.24473 216.421 3.7114 216.421 3.0755C216.421 2.4396 216.636 1.90627 217.067 1.4755C217.498 1.04473 218.031 0.829346 218.667 0.829346C219.282 0.829346 219.806 1.04473 220.236 1.4755C220.667 1.90627 220.882 2.4396 220.882 3.0755C220.882 3.7114 220.667 4.24473 220.236 4.6755C219.806 5.10627 219.282 5.32165 218.667 5.32165ZM220.39 7.56781V24.5217H216.882V7.56781H220.39Z" fill="white"/>
<path d="M194.614 15.9677C194.614 14.2651 194.962 12.7574 195.66 11.4446C196.378 10.1318 197.342 9.11641 198.552 8.39846C199.783 7.66 201.137 7.29077 202.614 7.29077C203.947 7.29077 205.106 7.55744 206.091 8.09077C207.096 8.60359 207.896 9.24975 208.491 10.0292V7.56769H212.029V24.5215H208.491V21.9985C207.896 22.7985 207.086 23.4651 206.06 23.9985C205.034 24.5318 203.865 24.7985 202.552 24.7985C201.096 24.7985 199.762 24.4292 198.552 23.6908C197.342 22.9318 196.378 21.8856 195.66 20.5523C194.962 19.1985 194.614 17.6703 194.614 15.9677ZM208.491 16.0292C208.491 14.86 208.245 13.8446 207.752 12.9831C207.28 12.1215 206.655 11.4651 205.875 11.0138C205.096 10.5626 204.255 10.3369 203.352 10.3369C202.45 10.3369 201.609 10.5626 200.829 11.0138C200.05 11.4446 199.414 12.0908 198.921 12.9523C198.45 13.7933 198.214 14.7985 198.214 15.9677C198.214 17.1369 198.45 18.1626 198.921 19.0446C199.414 19.9267 200.05 20.6036 200.829 21.0754C201.629 21.5267 202.47 21.7523 203.352 21.7523C204.255 21.7523 205.096 21.5267 205.875 21.0754C206.655 20.6241 207.28 19.9677 207.752 19.1062C208.245 18.2241 208.491 17.1985 208.491 16.0292Z" fill="white"/>
<path d="M189.53 24.7369C188.894 24.7369 188.361 24.5216 187.93 24.0908C187.5 23.66 187.284 23.1267 187.284 22.4908C187.284 21.8549 187.5 21.3216 187.93 20.8908C188.361 20.46 188.894 20.2446 189.53 20.2446C190.146 20.2446 190.669 20.46 191.1 20.8908C191.53 21.3216 191.746 21.8549 191.746 22.4908C191.746 23.1267 191.53 23.66 191.1 24.0908C190.669 24.5216 190.146 24.7369 189.53 24.7369Z" fill="white"/>
<path d="M184.417 15.6292C184.417 16.2651 184.376 16.8395 184.294 17.3523H171.34C171.443 18.7062 171.945 19.7933 172.848 20.6138C173.75 21.4344 174.858 21.8446 176.171 21.8446C178.058 21.8446 179.392 21.0549 180.171 19.4754H183.956C183.443 21.0344 182.509 22.3164 181.156 23.3215C179.822 24.3062 178.161 24.7985 176.171 24.7985C174.55 24.7985 173.094 24.4395 171.802 23.7215C170.53 22.9831 169.525 21.9574 168.786 20.6446C168.068 19.3113 167.709 17.7728 167.709 16.0292C167.709 14.2856 168.058 12.7574 168.756 11.4446C169.474 10.1113 170.468 9.08564 171.74 8.36769C173.033 7.64975 174.509 7.29077 176.171 7.29077C177.771 7.29077 179.197 7.63949 180.448 8.33692C181.699 9.03436 182.674 10.019 183.371 11.2908C184.068 12.5421 184.417 13.9882 184.417 15.6292ZM180.756 14.5215C180.735 13.2292 180.274 12.1933 179.371 11.4138C178.468 10.6344 177.35 10.2446 176.017 10.2446C174.807 10.2446 173.771 10.6344 172.909 11.4138C172.048 12.1728 171.535 13.2087 171.371 14.5215H180.756Z" fill="white"/>
<path d="M149.014 16.0292C149.014 14.2856 149.362 12.7574 150.06 11.4446C150.778 10.1113 151.762 9.08564 153.014 8.36769C154.265 7.64975 155.701 7.29077 157.321 7.29077C159.373 7.29077 161.065 7.78308 162.398 8.76769C163.752 9.7318 164.665 11.1164 165.137 12.9215H161.352C161.044 12.0805 160.552 11.4241 159.875 10.9523C159.198 10.4805 158.347 10.2446 157.321 10.2446C155.885 10.2446 154.737 10.7574 153.875 11.7831C153.034 12.7882 152.614 14.2036 152.614 16.0292C152.614 17.8549 153.034 19.2805 153.875 20.3062C154.737 21.3318 155.885 21.8446 157.321 21.8446C159.352 21.8446 160.696 20.9523 161.352 19.1677H165.137C164.644 20.8908 163.721 22.2651 162.368 23.2908C161.014 24.2959 159.332 24.7985 157.321 24.7985C155.701 24.7985 154.265 24.4395 153.014 23.7215C151.762 22.9831 150.778 21.9574 150.06 20.6446C149.362 19.3113 149.014 17.7728 149.014 16.0292Z" fill="white"/>
<path d="M127.914 15.9677C127.914 14.2651 128.262 12.7574 128.96 11.4446C129.678 10.1318 130.642 9.11641 131.852 8.39846C133.083 7.66 134.437 7.29077 135.914 7.29077C137.247 7.29077 138.406 7.55744 139.39 8.09077C140.396 8.60359 141.196 9.24975 141.79 10.0292V7.56769H145.329V24.5215H141.79V21.9985C141.196 22.7985 140.385 23.4651 139.36 23.9985C138.334 24.5318 137.165 24.7985 135.852 24.7985C134.396 24.7985 133.062 24.4292 131.852 23.6908C130.642 22.9318 129.678 21.8856 128.96 20.5523C128.262 19.1985 127.914 17.6703 127.914 15.9677ZM141.79 16.0292C141.79 14.86 141.544 13.8446 141.052 12.9831C140.58 12.1215 139.955 11.4651 139.175 11.0138C138.396 10.5626 137.555 10.3369 136.652 10.3369C135.749 10.3369 134.908 10.5626 134.129 11.0138C133.349 11.4446 132.714 12.0908 132.221 12.9523C131.749 13.7933 131.514 14.7985 131.514 15.9677C131.514 17.1369 131.749 18.1626 132.221 19.0446C132.714 19.9267 133.349 20.6036 134.129 21.0754C134.929 21.5267 135.77 21.7523 136.652 21.7523C137.555 21.7523 138.396 21.5267 139.175 21.0754C139.955 20.6241 140.58 19.9677 141.052 19.1062C141.544 18.2241 141.79 17.1985 141.79 16.0292Z" fill="white"/>
<path d="M120.536 10.0292C121.048 9.16769 121.725 8.50103 122.566 8.02923C123.428 7.53692 124.443 7.29077 125.612 7.29077V10.9215H124.72C123.346 10.9215 122.3 11.2703 121.582 11.9677C120.884 12.6651 120.536 13.8754 120.536 15.5985V24.5215H117.028V7.56769H120.536V10.0292Z" fill="white"/>
<path d="M94.7593 15.9677C94.7593 14.2651 95.108 12.7574 95.8054 11.4446C96.5234 10.1318 97.4875 9.11641 98.6977 8.39846C99.9285 7.66 101.282 7.29077 102.759 7.29077C104.093 7.29077 105.252 7.55744 106.236 8.09077C107.241 8.60359 108.041 9.24975 108.636 10.0292V7.56769H112.175V24.5215H108.636V21.9985C108.041 22.7985 107.231 23.4651 106.205 23.9985C105.18 24.5318 104.011 24.7985 102.698 24.7985C101.241 24.7985 99.908 24.4292 98.6977 23.6908C97.4875 22.9318 96.5234 21.8856 95.8054 20.5523C95.108 19.1985 94.7593 17.6703 94.7593 15.9677ZM108.636 16.0292C108.636 14.86 108.39 13.8446 107.898 12.9831C107.426 12.1215 106.8 11.4651 106.021 11.0138C105.241 10.5626 104.4 10.3369 103.498 10.3369C102.595 10.3369 101.754 10.5626 100.975 11.0138C100.195 11.4446 99.5593 12.0908 99.067 12.9523C98.5952 13.7933 98.3593 14.7985 98.3593 15.9677C98.3593 17.1369 98.5952 18.1626 99.067 19.0446C99.5593 19.9267 100.195 20.6036 100.975 21.0754C101.775 21.5267 102.616 21.7523 103.498 21.7523C104.4 21.7523 105.241 21.5267 106.021 21.0754C106.8 20.6241 107.426 19.9677 107.898 19.1062C108.39 18.2241 108.636 17.1985 108.636 16.0292Z" fill="white"/>
<path d="M88.3265 10.4292V19.8138C88.3265 20.4497 88.4701 20.9113 88.7573 21.1984C89.065 21.4651 89.5778 21.5984 90.2958 21.5984H92.4496V24.5215H89.6804C88.1009 24.5215 86.8906 24.1523 86.0496 23.4138C85.2086 22.6754 84.7881 21.4754 84.7881 19.8138V10.4292H82.7881V7.56768H84.7881V3.35229H88.3265V7.56768H92.4496V10.4292H88.3265Z" fill="white"/>
<path d="M61.9653 15.9677C61.9653 14.2651 62.3141 12.7574 63.0115 11.4446C63.7294 10.1318 64.6935 9.11641 65.9038 8.39846C67.1346 7.66 68.4884 7.29077 69.9653 7.29077C71.2987 7.29077 72.4576 7.55744 73.4423 8.09077C74.4474 8.60359 75.2474 9.24975 75.8423 10.0292V7.56769H79.3807V24.5215H75.8423V21.9985C75.2474 22.7985 74.4371 23.4651 73.4115 23.9985C72.3858 24.5318 71.2166 24.7985 69.9038 24.7985C68.4474 24.7985 67.1141 24.4292 65.9038 23.6908C64.6935 22.9318 63.7294 21.8856 63.0115 20.5523C62.3141 19.1985 61.9653 17.6703 61.9653 15.9677ZM75.8423 16.0292C75.8423 14.86 75.5961 13.8446 75.1038 12.9831C74.632 12.1215 74.0064 11.4651 73.2269 11.0138C72.4474 10.5626 71.6064 10.3369 70.7038 10.3369C69.8012 10.3369 68.9602 10.5626 68.1807 11.0138C67.4012 11.4446 66.7653 12.0908 66.273 12.9523C65.8012 13.7933 65.5653 14.7985 65.5653 15.9677C65.5653 17.1369 65.8012 18.1626 66.273 19.0446C66.7653 19.9267 67.4012 20.6036 68.1807 21.0754C68.9807 21.5267 69.8217 21.7523 70.7038 21.7523C71.6064 21.7523 72.4474 21.5267 73.2269 21.0754C74.0064 20.6241 74.632 19.9677 75.1038 19.1062C75.5961 18.2241 75.8423 17.1985 75.8423 16.0292Z" fill="white"/>
<path d="M40.8657 15.9678C40.8657 14.2653 41.2144 12.7576 41.9119 11.4447C42.6298 10.1319 43.5939 9.11654 44.8042 8.39859C46.035 7.66013 47.3991 7.2909 48.8965 7.2909C50.0042 7.2909 51.0914 7.53706 52.158 8.02936C53.2452 8.50116 54.1067 9.13706 54.7426 9.93705V1.75244H58.2811V24.5217H54.7426V21.9678C54.1683 22.7883 53.3683 23.4653 52.3426 23.9986C51.3375 24.5319 50.1785 24.7986 48.8657 24.7986C47.3888 24.7986 46.035 24.4294 44.8042 23.6909C43.5939 22.9319 42.6298 21.8858 41.9119 20.5524C41.2144 19.1986 40.8657 17.6704 40.8657 15.9678ZM54.7426 16.0294C54.7426 14.8601 54.4965 13.8447 54.0042 12.9832C53.5324 12.1217 52.9067 11.4653 52.1273 11.014C51.3478 10.5627 50.5067 10.3371 49.6042 10.3371C48.7016 10.3371 47.8606 10.5627 47.0811 11.014C46.3016 11.4447 45.6657 12.0909 45.1734 12.9524C44.7016 13.7935 44.4657 14.7986 44.4657 15.9678C44.4657 17.1371 44.7016 18.1627 45.1734 19.0447C45.6657 19.9268 46.3016 20.6037 47.0811 21.0755C47.8811 21.5268 48.7221 21.7524 49.6042 21.7524C50.5067 21.7524 51.3478 21.5268 52.1273 21.0755C52.9067 20.6242 53.5324 19.9678 54.0042 19.1063C54.4965 18.2242 54.7426 17.1986 54.7426 16.0294Z" fill="white"/>
</svg>
