<svg width="284" height="284" viewBox="0 0 284 284" fill="none" xmlns="http://www.w3.org/2000/svg">
<path fill-rule="evenodd" clip-rule="evenodd" d="M199.524 68.0592C199.306 68.2758 199.125 68.5356 198.996 68.8312C198.517 69.9249 198.879 71.2043 199.859 71.8859L202.302 73.5851C202.73 74.0796 203.328 74.6096 204.064 75.0362C204.837 75.4846 205.847 75.8648 207.02 75.8942C207.026 75.9331 207.033 75.9744 207.04 76.0181C207.072 76.2223 207.117 76.4897 207.184 76.7646C207.214 76.886 207.252 77.0241 207.301 77.1724C206.716 77.433 206.312 77.852 206.056 78.2341C205.573 78.9535 205.353 79.7514 205.243 80.294C205.196 80.5247 205.162 80.7508 205.137 80.9638L204.96 81.2265C204.458 81.9757 204.397 82.9375 204.803 83.7434L205.351 84.8316C205.688 85.5019 206.307 85.9827 207.034 86.1465C207.296 86.4609 207.59 86.6666 207.79 86.777C208.203 87.006 208.59 87.0741 208.749 87.0988C209.115 87.1557 209.472 87.1466 209.685 87.1368C209.798 87.1315 209.913 87.1236 210.028 87.1138C210.026 87.1381 210.025 87.1616 210.024 87.1841C210.012 87.4241 210.013 87.7159 210.013 88.0118V88.0604C210.013 88.6955 210.135 89.5091 210.651 90.2394C211.224 91.0494 212.067 91.4535 212.881 91.5344C213.561 91.6019 214.178 91.4545 214.696 91.219C214.623 91.6984 214.688 92.2018 214.908 92.6662C214.991 92.8433 215.094 93.0066 215.212 93.1545C214.549 93.1269 214.002 93.3145 213.722 93.4244C213.24 93.6136 212.805 93.8783 212.467 94.108C212.165 94.3142 211.871 94.541 211.603 94.7635C210.904 94.6357 210.254 94.732 209.771 94.863C209.053 95.0574 208.395 95.4061 207.846 95.7698C207.69 95.8731 207.457 95.981 207.175 96.0612C206.892 96.1416 206.643 96.1702 206.489 96.1702C206.214 96.1702 205.948 96.2015 205.767 96.2257C205.569 96.2522 205.356 96.2869 205.165 96.3185L205.053 96.3371C204.686 96.398 204.348 96.4542 204.013 96.4925C203.808 96.5161 203.643 96.5277 203.516 96.5316C203.467 96.4802 203.41 96.4209 203.336 96.3459C203.241 96.2491 203.114 96.1221 202.974 95.9999C202.86 95.9001 202.606 95.6844 202.261 95.5131C201.996 95.3812 200.982 94.9307 199.853 95.5277C198.768 96.1017 198.543 97.144 198.493 97.4168C198.378 98.0477 198.485 98.7174 198.547 99.0838C198.839 100.827 199.919 101.854 200.861 102.416C200.966 102.478 201.07 102.536 201.172 102.588C201.171 102.617 201.17 102.646 201.169 102.675C201.166 102.855 201.169 103.096 201.202 103.358C201.229 103.575 201.289 103.904 201.445 104.264C201.133 104.201 200.782 104.168 200.404 104.2C199.402 104.285 198.529 104.793 197.922 105.597C197.807 105.749 197.7 105.903 197.601 106.053C197.529 106.036 197.454 106.021 197.377 106.01C195.733 105.758 194.807 106.967 194.555 107.343C194.091 108.035 193.986 108.743 194.024 109.328C193.568 109.93 193.446 110.602 193.446 111.082C193.446 111.388 193.495 111.668 193.541 111.869C193.54 111.875 193.539 111.881 193.538 111.886C193.498 112.176 193.446 112.613 193.446 113.089C193.446 113.353 193.461 113.709 193.536 114.101C193.458 114.088 193.382 114.074 193.309 114.059C192.892 113.972 192.744 113.876 192.743 113.878C192.743 113.878 192.745 113.88 192.749 113.883C192.697 113.841 192.646 113.798 192.595 113.756C192.264 113.482 191.946 113.217 191.677 113.012C191.431 112.824 190.932 112.445 190.332 112.246C189.982 112.13 189.431 112.016 188.789 112.163C188.106 112.318 187.607 112.701 187.282 113.085C186.786 113.672 186.609 114.379 186.544 114.635L186.54 114.655C186.528 114.701 186.512 114.76 186.494 114.828C186.357 115.351 186.063 116.469 186.021 117.511C185.997 118.1 186.032 118.982 186.443 119.833C186.904 120.789 187.758 121.524 188.908 121.775C188.979 121.854 189.087 122.004 189.198 122.24C189.47 122.822 189.559 123.488 189.502 123.887C189.245 125.67 189.9 127.308 190.868 128.484C191.834 129.657 193.265 130.565 194.911 130.798C195.391 130.866 195.655 130.957 196.074 131.101C196.256 131.163 196.467 131.235 196.738 131.321C197.667 131.612 198.715 131.808 200.225 131.62C201.045 131.518 201.741 131.299 202.351 130.971C202.946 130.651 203.357 130.277 203.585 130.069C203.612 130.045 203.636 130.023 203.658 130.004C204.362 129.98 204.976 129.82 205.512 129.578C205.96 129.377 206.318 129.132 206.548 128.964C206.868 129.005 207.179 129.028 207.412 129.045L207.594 129.058C208.037 129.09 208.423 129.118 208.785 129.168C208.905 129.184 209.01 129.202 209.1 129.219C209.644 129.991 210.235 130.673 210.947 131.117C211.336 131.359 211.773 131.538 212.255 131.615C212.323 131.626 212.39 131.635 212.455 131.641C212.966 132.419 213.614 133.437 214.172 134.42C214.527 135.046 214.821 135.613 215.018 136.07C215.169 136.418 215.208 136.579 215.217 136.598C215.256 138.028 216.019 139.395 216.598 140.258C217.253 141.235 218.122 142.218 218.96 142.842C219.044 142.905 219.312 143.142 219.691 143.561C220.049 143.956 220.429 144.427 220.749 144.897C220.89 145.104 221.007 145.293 221.101 145.46C220.878 145.567 220.594 145.725 220.329 145.937C219.721 146.424 219.317 147.078 219.124 147.844C218.951 148.532 218.984 149.231 219.017 149.665C219.026 149.781 219.037 149.9 219.05 150.018C218.668 150.149 218.304 150.324 217.988 150.524C217.612 150.761 217.097 151.163 216.725 151.79C216.306 152.496 216.113 153.431 216.436 154.406C216.433 154.399 216.446 154.441 216.478 154.585C216.504 154.699 216.562 154.967 216.61 155.173C216.718 155.638 216.879 156.274 217.136 156.923C217.602 158.101 218.725 160.145 221.24 160.457C221.778 160.524 222.197 160.743 222.95 161.17C222.984 161.189 223.021 161.211 223.063 161.236C223.663 161.584 225.047 162.387 226.691 162.06C227.341 161.931 227.857 161.657 228.24 161.391C228.553 161.704 228.845 161.959 229.115 162.17C229.077 162.493 229.073 162.871 229.152 163.282C229.296 164.028 229.67 164.672 230.192 165.19C230.258 165.256 230.361 165.377 230.477 165.55C230.59 165.718 230.691 165.9 230.767 166.07C230.802 166.148 230.827 166.214 230.845 166.265C230.762 166.614 230.727 166.932 230.708 167.162C230.703 167.215 230.699 167.267 230.696 167.318C230.688 167.428 230.682 167.532 230.677 167.623L230.673 167.71C230.667 167.811 230.663 167.893 230.657 167.976C230.656 167.996 230.655 168.014 230.653 168.032C229.787 169.116 228.912 171.095 229.994 173.246C230.711 174.671 233.687 179.542 240.525 180.836C243.585 181.415 246.266 181.556 248.226 181.626C248.524 181.636 248.796 181.645 249.046 181.653C249.65 181.673 250.125 181.688 250.521 181.715C250.582 181.719 250.636 181.723 250.685 181.728C250.964 182.362 251.419 182.734 251.593 182.871C252.137 183.295 252.812 183.565 253.445 183.708C254.766 184.007 256.76 183.918 258.359 182.329C258.992 181.7 259.343 181.131 259.58 180.721C259.685 180.54 259.741 180.445 259.767 180.399C259.908 180.329 260.522 180.065 262.461 179.761C265.271 179.32 267.922 178.516 270.001 177.668C271.04 177.244 271.972 176.794 272.73 176.351C273.394 175.964 274.221 175.415 274.748 174.717C274.779 174.676 274.821 174.624 274.872 174.561C275.191 174.168 275.854 173.352 276.204 172.208C276.602 170.909 276.615 169.324 276.326 167.165C276.32 167.124 276.315 167.083 276.309 167.042C276.438 167.412 276.554 167.759 276.656 168.079C276.823 168.603 276.944 169.027 277.02 169.345C277.078 169.584 277.093 169.697 277.097 169.719C277.098 169.721 277.098 169.723 277.098 169.722C277.107 170.374 277.281 171.587 277.449 172.747C277.482 172.98 277.517 173.22 277.553 173.468C277.721 174.624 277.91 175.924 278.076 177.232C278.279 178.828 278.439 180.364 278.486 181.591C278.51 182.207 278.502 182.686 278.471 183.025C278.46 183.142 278.449 183.221 278.44 183.269C278.31 183.5 278.189 183.727 278.076 183.944C277.876 183.826 277.661 183.713 277.432 183.611C275.884 182.921 273.818 182.671 270.863 182.965C267.924 183.257 264.417 184.045 261.647 184.811C260.253 185.197 258.999 185.59 258.052 185.933C257.649 186.079 257.268 186.228 256.943 186.374C256.873 186.346 256.799 186.316 256.72 186.283C256.557 186.217 256.37 186.141 256.152 186.054C255.659 185.858 254.915 185.571 254.216 185.453C253.889 185.398 253.269 185.321 252.595 185.517C252.223 185.626 251.781 185.832 251.387 186.216C251.056 186.537 250.831 186.913 250.694 187.298C250.661 187.33 250.616 187.369 250.56 187.412C250.49 187.465 250.413 187.517 250.332 187.563C250.262 187.603 250.197 187.634 250.14 187.658C249.524 187.465 248.959 187.501 248.607 187.55C248.132 187.616 247.693 187.758 247.341 187.894C246.758 188.119 246.159 188.428 245.639 188.718C245.245 188.282 244.616 187.843 243.746 187.773C242.866 187.701 242.179 188.047 241.78 188.312C241.367 188.586 241.022 188.933 240.74 189.26C240.077 190.028 239.649 190.903 239.339 191.622C239.183 191.986 239.038 192.356 238.909 192.686L238.904 192.698C238.768 193.044 238.648 193.352 238.52 193.651C237.999 194.868 237.566 195.409 236.949 195.688C236.578 195.855 235.968 195.995 235.037 196.081C234.293 196.149 233.511 196.172 232.646 196.197C232.439 196.203 232.228 196.209 232.01 196.216C230.956 196.25 229.758 196.303 228.671 196.502C228.272 196.575 227.829 196.678 227.376 196.833C227.397 196.615 227.419 196.39 227.442 196.158C227.559 194.983 227.69 193.664 227.742 192.541C227.778 191.771 227.787 190.952 227.702 190.238C227.692 190.155 227.681 190.068 227.667 189.978C228.036 189.538 228.389 188.967 228.612 188.234C228.92 187.222 228.921 186.102 228.639 184.887C228.344 183.617 228.484 182.801 228.643 182.088C228.653 182.042 228.667 181.986 228.682 181.922C228.76 181.589 228.891 181.036 228.927 180.555C228.984 179.807 228.874 178.856 228.199 177.961C226.975 176.34 224.988 176.183 223.641 176.606C222.609 176.93 221.556 177.706 221.032 178.893C221.031 178.893 221.031 178.892 221.03 178.891L221.022 178.883C220.988 178.847 220.922 178.777 220.854 178.71C220.793 178.65 220.627 178.488 220.396 178.335C220.224 178.221 219.584 177.813 218.679 177.911C217.575 178.03 216.967 178.772 216.721 179.205C216.504 179.589 216.431 179.948 216.404 180.09C216.37 180.272 216.353 180.442 216.343 180.572C216.31 181.008 216.31 181.698 216.31 182.582V182.732C216.31 184.457 215.961 185.357 215.662 185.811C215.392 186.221 215.044 186.449 214.568 186.584C214.359 186.644 213.952 186.599 212.921 186.353C212.899 186.348 212.874 186.342 212.846 186.335C212.514 186.254 211.827 186.088 211.203 186.108C210.837 186.12 210.058 186.2 209.358 186.796C208.563 187.473 208.37 188.372 208.37 188.989C208.37 189.072 208.373 189.154 208.379 189.235C208.183 189.25 207.984 189.27 207.791 189.295C207.12 189.385 206.104 189.594 205.231 190.278C205.211 190.285 205.169 190.299 205.092 190.317C204.987 190.342 204.869 190.363 204.669 190.397C204.496 190.427 204.231 190.471 203.962 190.535C203.407 190.666 202.593 190.929 201.862 191.611C201.118 192.304 200.703 193.2 200.489 194.156C200.379 194.65 200.272 194.98 200.174 195.262C200.161 195.301 200.145 195.346 200.127 195.396C200.037 195.646 199.901 196.027 199.812 196.404C199.576 197.398 199.622 198.397 199.841 199.823C199.777 199.821 199.71 199.819 199.643 199.819C198.651 199.819 197.686 200.08 196.893 200.756C196.766 200.864 196.651 200.978 196.547 201.093C196.034 201.138 195.346 201.28 194.656 201.719C194.559 201.781 194.465 201.846 194.375 201.915C194.338 201.888 194.3 201.861 194.262 201.834C193.592 201.369 192.639 200.907 191.429 200.907C190.906 200.907 190.414 200.974 189.956 201.085L188.713 188.739C188.602 187.634 187.776 186.735 186.684 186.531C185.991 186.402 184.946 186.184 184.071 185.953C183.812 185.885 183.589 185.821 183.406 185.763C183.007 185.035 182.372 183.908 181.699 182.779C181.192 181.927 180.641 181.036 180.133 180.291C179.88 179.92 179.62 179.558 179.368 179.245C179.15 178.974 178.815 178.581 178.41 178.279C177.607 177.681 175.964 176.887 174.576 176.246C173.459 175.73 172.289 175.216 171.365 174.817C171.475 174.543 171.63 174.253 171.801 173.995C171.9 173.844 171.992 173.725 172.064 173.642C172.103 173.597 172.128 173.573 172.137 173.564C172.924 172.966 173.214 172.145 173.333 171.672C173.465 171.148 173.492 170.62 173.486 170.181C173.474 169.291 173.317 168.314 173.127 167.462C172.933 166.598 172.676 165.733 172.408 165.046C172.279 164.715 172.115 164.339 171.913 164.005C171.818 163.847 171.653 163.594 171.41 163.35C171.252 163.191 170.595 162.549 169.523 162.549H169.285L169.285 153.623C169.285 152.946 169.01 152.297 168.523 151.826C168.036 151.355 167.379 151.102 166.702 151.125L135.942 152.143C135.491 151.531 134.768 151.131 133.95 151.123L75.6267 150.579C75.1681 150.575 74.7172 150.697 74.3233 150.932L73.6165 151.353L60.969 150.584C59.8658 150.517 58.8494 151.182 58.4695 152.22L58.3383 152.578C58.1109 151.461 57.1371 150.611 55.9535 150.58L5.54536 149.269C5.42011 148.058 5.50476 146.193 6.43864 143.989C7.39111 141.742 8.89588 136.692 10.3505 131.493C11.8233 126.228 13.3039 120.59 14.2206 116.994L23.2819 84.0695L171.938 87.0234C172.839 87.0413 173.68 86.5729 174.139 85.7975L176.151 82.3991H179.928C181.309 82.3991 182.428 81.2798 182.428 79.8991V75.9809C182.445 75.9499 182.463 75.9163 182.485 75.8808C182.579 75.7267 182.715 75.5557 182.898 75.3978C183.23 75.111 183.813 74.7818 184.857 74.7818C185.925 74.7818 186.586 74.8453 186.963 74.9055C187.194 75.1269 187.472 75.307 187.788 75.4295C189.035 75.9118 190.44 75.3286 190.979 74.1055L192.426 70.8183L195.963 69.7847C196.105 69.7433 196.242 69.6896 196.374 69.624L199.524 68.0592ZM187.347 74.9916C187.347 74.9918 187.339 74.9894 187.325 74.9837C187.341 74.9886 187.348 74.9915 187.347 74.9916ZM53.3885 155.515L3.52418 154.218C2.57509 154.193 1.72188 153.633 1.32188 152.772C0.464359 150.926 -0.181789 146.797 1.83499 142.038C2.63496 140.15 4.05097 135.452 5.53539 130.146C6.99846 124.916 8.47206 119.304 9.3813 115.736C9.38523 115.72 9.38929 115.705 9.39351 115.69L18.9771 80.868C19.2806 79.7653 20.2937 79.0091 21.4372 79.0319L170.579 81.9954L172.575 78.6254C173.025 77.8653 173.842 77.3991 174.726 77.3991H177.428V75.5464C177.428 75.3407 177.454 75.1358 177.504 74.9363C178.004 72.9501 180.22 69.7818 184.857 69.7818C185.831 69.7818 186.66 69.8254 187.361 69.9131L188.319 67.7377C188.617 67.0622 189.198 66.5526 189.906 66.3456L194.348 65.0475L197.983 63.2417C198.089 63.1894 198.198 63.1445 198.31 63.1075C198.986 62.8834 200.053 62.6096 201.118 62.5259C201.646 62.4844 202.298 62.4789 202.95 62.6155C203.576 62.7465 204.521 63.0778 205.198 63.9746C205.288 64.094 205.473 64.2755 205.745 64.4863L206.923 63.836C207.698 63.4086 208.641 63.4222 209.402 63.8719C210.164 64.3215 210.631 65.1402 210.631 66.0248V70.3775C210.631 70.828 210.511 71.2573 210.296 71.6292C210.303 71.6348 210.31 71.6404 210.317 71.646C211.183 72.3262 211.534 73.2317 211.698 73.8013C211.833 74.2715 211.912 74.7954 211.958 75.1017C211.966 75.1531 211.972 75.1983 211.978 75.2362C212.012 75.447 212.035 75.5467 212.042 75.5777C212.108 75.7075 212.199 75.8821 212.304 76.0841C212.565 76.585 212.913 77.2543 213.189 77.8254C213.407 78.2771 213.632 78.7689 213.806 79.23C213.943 79.5892 214.191 80.2791 214.191 80.9873C214.191 81.5031 214.069 81.9809 213.855 82.399C213.896 82.4275 213.936 82.4573 213.976 82.4884C214.066 82.5177 214.172 82.5489 214.326 82.5944L214.332 82.5962C214.481 82.6401 214.676 82.6975 214.873 82.7627C215.227 82.8799 215.848 83.1017 216.406 83.5234C216.733 83.7697 217.075 84.1172 217.333 84.5678C217.482 84.5843 217.621 84.6118 217.746 84.6448C217.872 84.4333 218.006 84.2216 218.147 84.015C218.45 83.57 218.83 83.0775 219.282 82.6518C219.698 82.2598 220.392 81.715 221.335 81.5276C223.817 81.0346 225.428 82.5906 225.972 83.6719C226.068 83.861 226.138 84.0598 226.182 84.2634C226.674 84.393 227.276 84.6501 227.794 85.1775C228.688 86.0871 228.828 87.2553 228.669 88.2019C228.24 90.7603 226.132 91.9692 225.127 92.3196C225.008 93.891 224.307 95.3112 223.963 95.8818C223.51 96.6314 222.698 97.0894 221.823 97.0894H220.453C220.307 97.0894 220.161 97.0765 220.019 97.0515C219.461 97.6416 218.624 98.1777 217.441 98.1777C217.374 98.1777 217.294 98.183 217.162 98.1986C217.146 98.2005 217.114 98.2046 217.071 98.2101C216.945 98.2263 216.73 98.2539 216.593 98.2675C216.23 98.3036 215.786 98.3218 215.275 98.2452C214.917 98.4903 214.519 98.8408 214.275 99.0835C214.084 99.2725 213.865 99.4296 213.625 99.5489C213.115 99.8024 212.049 100.13 210.879 99.7764C210.801 99.8169 210.71 99.8703 210.607 99.9383C210.213 100.2 209.789 100.417 209.353 100.593C210.031 101.353 210.323 102.447 209.954 103.546C209.922 103.642 209.892 103.755 209.844 103.948L209.833 103.994C209.794 104.152 209.729 104.42 209.646 104.668C209.56 104.923 209.367 105.448 208.932 105.926C208.512 106.387 207.95 106.714 207.308 106.833C207.134 106.931 206.897 107.084 206.645 107.264C206.479 107.384 206.329 107.499 206.209 107.596C206.172 107.677 206.133 107.753 206.096 107.823C205.941 108.117 205.734 108.439 205.492 108.74C205.27 109.015 204.904 109.418 204.397 109.725C203.914 110.019 202.791 110.507 201.543 109.887C201.432 109.831 201.328 109.772 201.239 109.718C201.168 109.841 201.088 109.977 200.996 110.13C200.84 110.388 200.541 110.873 200.121 111.265C199.919 111.453 199.571 111.735 199.076 111.914C199.073 111.918 199.07 111.923 199.067 111.927C198.897 112.181 198.699 112.382 198.496 112.541C198.494 112.549 198.493 112.558 198.492 112.568C199.205 113.029 199.72 113.665 200.028 114.277C200.261 114.741 200.473 115.379 200.437 116.105C200.398 116.873 200.026 118.002 198.838 118.592C198.468 118.776 198.07 118.866 197.887 118.906C197.628 118.963 197.335 119.012 197.028 119.053C196.412 119.134 195.652 119.193 194.851 119.193C194.316 119.193 193.733 119.167 193.142 119.094C193.384 119.448 193.577 119.802 193.728 120.123C194.346 121.446 194.667 123.092 194.451 124.598C194.433 124.719 194.464 124.985 194.727 125.306C194.993 125.629 195.343 125.809 195.613 125.848C196.612 125.99 197.452 126.281 197.949 126.453C198.063 126.493 198.159 126.526 198.235 126.55C198.607 126.667 198.928 126.743 199.609 126.658C199.884 126.624 199.975 126.572 199.981 126.568C200.003 126.556 200.037 126.538 200.219 126.373C200.231 126.362 200.245 126.348 200.262 126.333C200.431 126.177 200.826 125.811 201.33 125.533C201.972 125.18 202.684 125.007 203.476 125.007C203.478 125.007 203.48 125.007 203.481 125.007C203.487 125.003 203.494 124.999 203.502 124.993C203.544 124.966 203.595 124.93 203.694 124.856C203.705 124.848 203.718 124.838 203.734 124.826C203.895 124.704 204.307 124.391 204.79 124.181C205.457 123.892 206.241 123.781 207.091 123.993C207.086 123.991 207.083 123.991 207.083 123.991C207.084 123.99 207.134 124 207.262 124.014C207.409 124.03 207.588 124.044 207.821 124.061C207.866 124.065 207.913 124.068 207.962 124.072C208.382 124.102 208.932 124.141 209.463 124.214C210.032 124.292 210.803 124.434 211.513 124.766C212.101 125.041 212.925 125.587 213.365 126.566C213.569 126.566 213.803 126.586 214.055 126.644C215.196 126.907 215.862 127.74 216.231 128.29C216.79 129.123 217.721 130.544 218.52 131.952C218.918 132.652 219.309 133.394 219.608 134.085C219.856 134.659 220.2 135.544 220.215 136.428C220.221 136.452 220.24 136.526 220.294 136.657C220.388 136.88 220.541 137.162 220.749 137.472C221.189 138.127 221.689 138.64 221.947 138.832C222.787 139.458 223.996 140.782 224.881 142.083C225.335 142.748 225.804 143.552 226.091 144.386C226.336 145.099 226.682 146.513 225.879 147.842C225.497 148.476 225.038 148.952 224.532 149.31C224.36 149.431 224.191 149.533 224.035 149.617C224.052 149.763 224.072 149.921 224.095 150.099C224.107 150.189 224.119 150.285 224.132 150.387C224.181 150.781 224.248 151.334 224.241 151.854C224.237 152.119 224.215 152.477 224.119 152.858C224.026 153.228 223.818 153.804 223.311 154.309C223.096 154.522 222.587 154.987 221.815 155.158C221.893 155.344 221.956 155.454 221.998 155.514C223.505 155.731 224.642 156.38 225.322 156.767C225.355 156.786 225.387 156.804 225.418 156.822C225.535 156.888 225.63 156.941 225.708 156.984C225.824 156.873 226.01 156.699 226.226 156.534C226.724 156.153 227.701 155.585 228.998 155.863C230.091 156.097 230.866 156.833 231.382 157.431C232.003 158.15 232.395 158.386 232.591 158.499C232.662 158.541 232.681 158.551 232.704 158.563C232.727 158.576 232.755 158.592 232.849 158.645C232.939 158.697 233.14 158.812 233.345 158.974C233.568 159.149 233.883 159.444 234.123 159.897C234.374 160.368 234.454 160.841 234.454 161.241C234.454 161.611 234.386 161.919 234.331 162.119C234.315 162.176 234.298 162.232 234.281 162.284C234.702 162.822 235.065 163.433 235.331 164.028C235.525 164.463 235.702 164.964 235.799 165.492C235.888 165.976 235.947 166.686 235.707 167.434C235.704 167.452 235.697 167.499 235.69 167.587C235.678 167.72 235.674 167.801 235.669 167.908C235.665 168.003 235.659 168.119 235.646 168.311C235.627 168.598 235.59 169.034 235.475 169.483C235.361 169.927 235.12 170.591 234.548 171.164C235.089 172.145 237.078 175.095 241.455 175.923C244.144 176.432 246.529 176.563 248.403 176.629C248.639 176.637 248.874 176.645 249.106 176.652C249.755 176.673 250.37 176.693 250.865 176.727C251.209 176.751 251.582 176.786 251.933 176.852C252.224 176.907 252.789 177.03 253.323 177.383C253.456 177.472 253.599 177.555 253.788 177.664C253.929 177.746 254.213 177.906 254.45 178.075C254.573 178.162 254.78 178.318 254.985 178.539C254.996 178.551 255.007 178.563 255.019 178.577C255.102 178.471 255.169 178.362 255.249 178.222C255.261 178.202 255.275 178.176 255.292 178.146C255.432 177.895 255.747 177.333 256.239 176.844C257.393 175.697 259.137 175.221 261.686 174.821C264.078 174.446 266.356 173.754 268.112 173.038C268.989 172.68 269.7 172.33 270.208 172.034C270.649 171.776 270.801 171.636 270.805 171.64C270.962 171.434 271.074 171.291 271.155 171.187C271.359 170.927 271.373 170.91 271.423 170.744C271.504 170.48 271.628 169.752 271.37 167.83C271.056 165.488 271.053 163.644 271.2 162.37C271.129 162.28 271.056 162.193 270.983 162.112C270.886 162.317 270.754 162.54 270.574 162.751C270.315 163.056 269.704 163.622 268.721 163.67C267.728 163.719 267.058 163.205 266.762 162.911C266.266 162.418 266.065 161.818 266.004 161.636L266.001 161.628C265.677 160.661 265.464 158.916 265.329 156.773C265.192 154.604 264.996 152.714 264.621 151.31C264.258 149.95 263.903 149.703 263.907 149.697C262.85 149.305 261.741 148.99 260.971 148.982C260.889 149.634 260.709 150.414 260.242 151.076C259.933 151.513 259.451 151.964 258.759 152.199C258.068 152.433 257.424 152.365 256.944 152.218C256.103 151.959 255.53 151.391 255.26 151.098C255.002 150.819 254.779 150.52 254.599 150.245L252.28 147.684C251.539 146.866 251.422 145.659 251.993 144.714C253.222 142.679 256.563 140.896 261.49 141.927C264.284 142.511 266.964 143.424 269.388 145.11C271.831 146.809 273.868 149.191 275.533 152.499C277.08 155.573 278.686 159.25 279.907 162.37C280.517 163.93 281.043 165.377 281.419 166.56C281.607 167.149 281.767 167.698 281.882 168.177C281.984 168.601 282.098 169.155 282.098 169.674C282.098 169.661 282.098 169.71 282.112 169.858C282.124 169.993 282.144 170.169 282.171 170.387C282.225 170.825 282.303 171.38 282.398 172.033C282.43 172.257 282.464 172.491 282.499 172.734C282.667 173.891 282.864 175.244 283.036 176.602C283.244 178.237 283.427 179.948 283.482 181.399C283.51 182.122 283.509 182.84 283.45 183.481C283.4 184.034 283.282 184.878 282.86 185.611C282.627 186.017 282.417 186.433 282.195 186.874L282.169 186.926C281.971 187.318 281.733 187.792 281.488 188.191C281.298 188.5 280.807 189.289 279.939 189.73C279.399 190.005 278.705 190.15 277.958 189.975C277.267 189.814 276.776 189.437 276.467 189.13C276.237 188.902 276.09 188.742 275.982 188.623C275.759 188.38 275.695 188.311 275.398 188.178C274.961 187.984 273.878 187.69 271.357 187.94C268.819 188.192 265.618 188.901 262.98 189.63C261.67 189.993 260.545 190.348 259.755 190.634C259.423 190.754 259.18 190.852 259.02 190.922C258.684 191.209 258.316 191.376 258.008 191.463C257.54 191.596 257.133 191.574 256.922 191.554C256.49 191.512 256.09 191.386 255.856 191.306C255.497 191.185 255.038 190.998 254.66 190.844C254.546 190.797 254.439 190.754 254.344 190.716C254.337 190.723 254.331 190.73 254.324 190.737C253.878 191.202 253.347 191.601 252.8 191.911C252.258 192.219 251.612 192.49 250.917 192.62C250.421 192.712 249.769 192.756 249.083 192.582C248.758 192.714 248.325 192.939 247.81 193.234C247.643 193.329 247.368 193.491 247.09 193.655C246.771 193.843 246.447 194.034 246.277 194.13C246.061 194.252 245.769 194.411 245.483 194.528C245.354 194.581 245.087 194.685 244.756 194.738L244.749 194.739C244.639 194.756 244.118 194.839 243.512 194.642C243.394 194.945 243.261 195.281 243.117 195.617C242.474 197.121 241.401 199.164 239.007 200.245C237.871 200.758 236.599 200.958 235.494 201.06C234.578 201.144 233.6 201.172 232.726 201.197C232.535 201.202 232.35 201.208 232.171 201.213C231.103 201.248 230.248 201.296 229.572 201.42C228.957 201.533 228.775 201.661 228.773 201.659C228.773 201.659 228.773 201.659 228.773 201.659C228.12 202.304 227.03 203.11 225.936 203.884C224.946 204.584 223.803 205.36 222.686 206.119C222.5 206.245 222.316 206.371 222.133 206.495C220.826 207.383 219.599 208.224 218.65 208.923C218.174 209.273 217.803 209.563 217.542 209.787C217.41 209.901 217.338 209.97 217.307 210.001C216.677 210.953 215.739 211.419 215.133 211.662C214.484 211.922 213.764 212.095 213.241 212.221L213.201 212.231C212.592 212.378 212.181 212.479 211.852 212.602C211.744 212.642 211.676 212.674 211.639 212.693C210.61 213.906 209.103 214.542 207.9 214.889C206.632 215.255 205.283 215.418 204.143 215.429C204.128 215.444 204.111 215.464 204.091 215.488C204.065 215.52 204.038 215.552 204 215.599C203.968 215.639 203.915 215.705 203.861 215.768C203.835 215.799 203.501 216.223 202.982 216.504C202.659 216.679 202.064 216.912 201.314 216.787C200.541 216.658 200.03 216.223 199.75 215.89C199.323 215.38 199.179 214.802 199.139 214.642L199.135 214.627C198.811 213.339 199.366 212.261 199.724 211.716C200.135 211.092 200.684 210.559 201.223 210.139C202.224 209.361 203.786 208.525 205.393 208.525C205.393 208.525 205.399 208.525 205.411 208.524C205.418 208.524 205.425 208.523 205.434 208.522C205.443 208.522 205.453 208.521 205.464 208.52C205.509 208.515 205.57 208.507 205.648 208.493C205.804 208.464 206 208.419 206.231 208.353C206.697 208.22 207.238 208.026 207.791 207.797C208.959 207.313 209.898 206.795 210.197 206.572C210.546 206.312 211.293 205.83 212.097 205.312L212.248 205.215C213.128 204.647 214.181 203.968 215.232 203.267C216.313 202.545 217.359 201.821 218.188 201.191C218.604 200.876 218.939 200.604 219.185 200.382C219.408 200.182 219.484 200.089 219.486 200.09C219.486 200.09 219.485 200.091 219.485 200.093C219.972 199.372 220.533 198.891 220.996 198.548C221.188 198.405 221.385 198.271 221.531 198.171L221.589 198.132C221.758 198.017 221.866 197.941 221.957 197.87C222.113 197.747 222.152 197.689 222.177 197.643C222.208 197.59 222.301 197.4 222.345 196.923C222.387 196.457 222.434 195.989 222.48 195.524C222.592 194.396 222.702 193.29 222.748 192.307C222.775 191.718 222.774 191.275 222.751 190.972C222.445 190.582 222.165 190.016 222.193 189.256C222.217 188.573 222.499 188.074 222.694 187.801C222.885 187.535 223.088 187.353 223.192 187.264C223.349 187.129 223.573 186.971 223.636 186.925C223.644 186.92 223.65 186.916 223.652 186.914C223.744 186.848 223.787 186.812 223.815 186.786C223.822 186.779 223.827 186.774 223.831 186.77C223.841 186.729 223.883 186.512 223.768 186.018C223.597 185.28 223.51 184.609 223.479 184.001C223.17 184.104 222.872 184.153 222.615 184.172C222.098 184.208 221.595 184.134 221.255 184.072C221.105 185.839 220.641 187.342 219.836 188.563C218.806 190.125 217.374 190.985 215.933 191.394C215.6 191.489 215.271 191.546 214.956 191.576C214.863 191.814 214.754 192.019 214.653 192.186C213.925 193.39 212.735 193.802 212.011 193.965C211.269 194.133 210.468 194.158 209.916 194.174C209.843 194.177 209.772 194.179 209.705 194.181C209.166 194.196 208.789 194.206 208.455 194.251C208.33 194.268 208.251 194.285 208.206 194.297C207.5 194.824 206.778 195.057 206.233 195.185C205.958 195.25 205.693 195.294 205.515 195.325C205.449 195.336 205.393 195.346 205.344 195.355C205.189 196.029 205.031 196.518 204.896 196.905C204.849 197.042 204.813 197.143 204.785 197.223C204.719 197.409 204.698 197.469 204.677 197.557L204.676 197.562C204.659 197.631 204.588 197.917 204.847 199.457C205.015 200.462 205.049 201.536 204.675 202.519C204.239 203.666 203.371 204.376 202.414 204.693C201.613 204.958 200.836 204.919 200.429 204.889C200.297 204.88 200.158 204.867 200.042 204.855C199.663 205.408 199.143 205.732 198.68 205.898C198.219 206.063 197.803 206.078 197.624 206.081C197.553 206.083 197.476 206.082 197.405 206.081C197.235 206.41 196.983 206.798 196.606 207.13C195.977 207.685 195.12 207.978 194.209 207.824C193.482 207.701 192.966 207.33 192.734 207.15C192.471 206.946 192.238 206.716 192.097 206.575C191.6 206.082 191.411 205.943 191.37 205.909C191.118 205.922 190.83 206.021 190.52 206.221C190.173 206.446 189.948 206.703 189.899 206.771C189.292 207.615 188.227 207.996 187.223 207.727C186.219 207.458 185.486 206.596 185.381 205.562L183.922 191.063C183.545 190.977 183.161 190.884 182.795 190.787C182.287 190.653 181.75 190.496 181.296 190.323C181.074 190.239 180.8 190.124 180.535 189.972L180.523 189.966C180.368 189.878 179.719 189.509 179.338 188.753L179.334 188.745L179.321 188.721C179.316 188.71 179.31 188.698 179.302 188.685C179.296 188.672 179.288 188.657 179.279 188.641C179.244 188.575 179.198 188.489 179.141 188.385C179.028 188.177 178.878 187.904 178.7 187.587C178.345 186.951 177.886 186.147 177.404 185.338C176.919 184.523 176.426 183.731 176.001 183.107C175.788 182.794 175.609 182.55 175.471 182.378C175.418 182.311 175.38 182.268 175.358 182.243C174.99 181.998 173.937 181.459 172.479 180.785C171.041 180.12 169.493 179.452 168.544 179.047C167.164 178.46 166.45 177.288 166.262 176.101C166.099 175.067 166.326 174.074 166.579 173.345C166.845 172.575 167.229 171.844 167.631 171.236C167.866 170.881 168.154 170.497 168.484 170.149C168.468 169.743 168.387 169.179 168.247 168.553C168.167 168.196 168.076 167.853 167.984 167.549H166.785C165.404 167.549 164.285 166.43 164.285 165.049V156.207L134.009 157.21C133.332 157.233 132.675 156.979 132.188 156.508C132.061 156.385 131.948 156.249 131.85 156.104L76.2812 155.586L75.5144 156.043C75.0829 156.3 74.5839 156.421 74.0825 156.391L62.5247 155.688L62.0696 156.931C61.7943 157.683 61.1752 158.258 60.4046 158.477L56.5712 159.565C55.8172 159.779 55.0066 159.627 54.3813 159.154C53.756 158.682 53.3885 157.944 53.3885 157.16V155.515ZM253.382 190.383C253.386 190.384 253.39 190.384 253.394 190.385C253.367 190.382 253.362 190.38 253.382 190.383ZM254.484 178.813C254.484 178.812 254.489 178.814 254.499 178.818C254.489 178.815 254.485 178.813 254.484 178.813ZM222.056 155.579C222.055 155.581 222.045 155.575 222.027 155.552C222.047 155.566 222.056 155.577 222.056 155.579ZM219.084 154.215C219.083 154.214 219.083 154.214 219.084 154.215ZM200.32 109.127C200.321 109.127 200.326 109.129 200.336 109.133C200.325 109.129 200.32 109.127 200.32 109.127ZM203.441 97.9906C203.44 97.9798 203.44 97.9742 203.44 97.9746C203.44 97.9749 203.44 97.9788 203.44 97.9867C203.44 97.9878 203.441 97.9891 203.441 97.9906ZM201.58 105.624C201.58 105.623 201.584 105.619 201.592 105.611C201.583 105.621 201.579 105.625 201.58 105.624ZM221.584 88.7215C221.684 88.6298 221.787 88.5436 221.89 88.4628C221.861 88.435 221.832 88.4066 221.804 88.3775C221.722 88.292 221.649 88.205 221.584 88.1181V88.7215ZM222.759 86.25C222.759 86.2506 222.752 86.2564 222.739 86.2657C222.752 86.2542 222.759 86.2495 222.759 86.25ZM213.835 82.4373C213.842 82.4402 213.851 82.4442 213.864 82.4492C213.852 82.4433 213.842 82.4389 213.836 82.4361C213.835 82.4365 213.835 82.4369 213.835 82.4373ZM214.275 87.2312C214.275 87.2309 214.276 87.2256 214.278 87.2163C214.276 87.2269 214.275 87.2316 214.275 87.2312ZM224.96 92.4099C224.96 92.41 224.96 92.4099 224.96 92.4099ZM225.997 86.2268C225.996 86.2267 225.996 86.2176 225.998 86.1986C225.998 86.2171 225.997 86.227 225.997 86.2268ZM210.968 189.072C210.968 189.073 210.962 189.075 210.948 189.079C210.96 189.074 210.967 189.072 210.968 189.072ZM272.237 157.165C271.847 156.33 271.454 155.517 271.067 154.747C270.72 154.058 270.361 153.433 269.992 152.866C270.147 154.048 270.244 155.274 270.319 156.459C270.321 156.495 270.323 156.53 270.326 156.566C270.464 156.587 270.585 156.613 270.686 156.638C271.157 156.755 271.638 156.97 271.849 157.064C271.877 157.076 271.9 157.087 271.918 157.094C271.948 157.107 271.974 157.118 271.996 157.128C272.079 157.137 272.159 157.15 272.237 157.165ZM272.116 157.174C272.116 157.174 272.112 157.172 272.103 157.169C272.112 157.172 272.117 157.174 272.116 157.174ZM266.383 160.182C266.371 160.231 266.37 160.218 266.388 160.163C266.386 160.172 266.384 160.179 266.383 160.182ZM229.531 160.724C229.532 160.722 229.528 160.735 229.518 160.764C229.525 160.739 229.53 160.725 229.531 160.724ZM221.396 146.135C221.394 146.134 221.389 146.116 221.385 146.084C221.395 146.121 221.397 146.137 221.396 146.135ZM212.025 131.003C212.025 131.002 212.033 131.011 212.049 131.032C212.033 131.015 212.025 131.004 212.025 131.003ZM196.894 114.003C196.895 114.003 196.887 114.006 196.869 114.01C196.885 114.005 196.894 114.003 196.894 114.003ZM193.599 111.474C193.599 111.473 193.598 111.481 193.596 111.498C193.597 111.484 193.598 111.475 193.599 111.474ZM199.647 107.715C199.65 107.719 199.652 107.722 199.654 107.725C199.667 107.742 199.674 107.751 199.675 107.751C199.677 107.752 199.668 107.739 199.647 107.715ZM203.219 96.5189C203.22 96.5184 203.232 96.5199 203.254 96.525C203.229 96.5221 203.218 96.5195 203.219 96.5189ZM206.879 75.1434C206.88 75.1431 206.882 75.1482 206.885 75.1595C206.881 75.1493 206.879 75.1436 206.879 75.1434ZM270.377 211.848C271.066 210.777 272.45 210.395 273.591 210.962C274.171 211.25 274.954 211.759 275.681 212.451C276.398 213.133 277.233 214.157 277.62 215.503C277.729 215.882 278.18 216.762 278.905 217.923C279.574 218.994 280.317 220.056 280.788 220.694C280.813 220.727 280.837 220.762 280.86 220.797C280.874 220.818 280.888 220.84 280.902 220.862C281.345 221.577 281.946 222.736 282.28 223.935C282.446 224.529 282.591 225.289 282.526 226.084C282.459 226.907 282.136 227.979 281.154 228.76C281.106 228.798 281.032 228.865 280.933 228.953C280.458 229.377 279.43 230.295 278.254 230.822C276.599 231.563 274.587 231.733 271.94 231.149C270.811 230.9 270.42 230.892 270.079 230.924C269.742 230.956 269.447 231.02 268.905 231.137C268.559 231.212 268.113 231.308 267.49 231.432C267.043 231.521 266.657 231.472 266.542 231.458C266.359 231.435 266.186 231.401 266.044 231.368C265.755 231.302 265.432 231.209 265.11 231.107C264.457 230.9 263.661 230.611 262.853 230.286C262.044 229.961 261.189 229.587 260.423 229.206C259.701 228.848 258.902 228.408 258.313 227.932C257.365 227.167 257.107 225.83 257.701 224.767L259.07 222.319C259.476 221.592 260.217 221.116 261.046 221.047L267.618 220.503C268.37 220.441 269.088 220.721 269.597 221.232C269.852 220.942 270.161 220.679 270.529 220.473C270.983 220.218 271.444 220.095 271.871 220.054C271.876 219.426 271.832 218.654 271.707 217.825C271.588 217.037 271.414 216.33 271.21 215.792C271.02 215.291 270.877 215.127 270.88 215.124C270.881 215.124 270.883 215.125 270.887 215.129C269.911 214.323 269.691 212.914 270.377 211.848ZM270.287 222.357C270.286 222.357 270.286 222.356 270.285 222.355C270.291 222.362 270.291 222.363 270.287 222.357ZM276.418 223.185C276.288 223.526 276.09 223.905 275.782 224.254C275.353 224.74 274.801 225.064 274.194 225.205C273.643 225.333 273.166 225.283 272.879 225.235C272.851 225.23 272.822 225.225 272.794 225.219C272.527 225.515 272.232 225.799 271.912 226.05C272.257 226.106 272.622 226.179 273.018 226.266C274.923 226.687 275.786 226.449 276.21 226.259C276.621 226.075 276.807 225.909 277.154 225.599C277.247 225.516 277.351 225.423 277.474 225.317C277.471 225.304 277.468 225.291 277.464 225.278C277.305 224.71 276.977 224.037 276.699 223.573C276.611 223.454 276.517 223.324 276.418 223.185ZM267.323 226.36C266.982 226.128 266.708 225.863 266.493 225.613L264.954 225.741C265.586 225.989 266.17 226.198 266.619 226.34C266.749 226.381 266.858 226.414 266.948 226.439C267.074 226.413 267.199 226.386 267.323 226.36Z" />
<path fill-rule="evenodd" clip-rule="evenodd" d="M231.147 203.891C230.916 203.425 230.54 203.032 230.059 202.782C229.163 202.316 228.076 202.435 227.302 203.082C226.765 203.531 225.871 204.215 224.984 204.772C224.54 205.05 224.146 205.266 223.833 205.405C223.658 205.482 223.557 205.513 223.52 205.524C222.694 205.541 221.892 205.769 221.196 206.284C220.529 206.779 220.161 207.396 219.964 207.762C219.879 207.919 219.799 208.083 219.744 208.196C219.735 208.214 219.726 208.231 219.719 208.247C219.654 208.378 219.616 208.452 219.582 208.51C219.576 208.521 219.571 208.53 219.566 208.537C218.815 209.119 218.42 209.869 218.199 210.395C217.996 210.879 217.854 211.397 217.764 211.726C217.755 211.76 217.746 211.792 217.738 211.822C217.718 211.896 217.7 211.961 217.683 212.018C217.35 212.225 217.104 212.458 216.944 212.626C216.637 212.95 216.394 213.306 216.212 213.599C215.901 214.1 215.595 214.71 215.346 215.205C215.309 215.276 215.275 215.345 215.241 215.411C214.998 215.893 214.801 216.265 214.629 216.543C214.582 216.54 214.531 216.536 214.476 216.531C214.365 216.521 214.207 216.505 214.026 216.487C213.66 216.45 213.198 216.404 212.835 216.381C212.228 216.342 211.436 216.325 210.645 216.486C209.832 216.651 208.821 217.046 208.057 217.99C207.388 218.815 207.315 219.974 207.874 220.877C208.473 221.847 209.521 223.257 210.796 224.403C211.435 224.978 212.21 225.558 213.088 225.961C213.967 226.365 215.094 226.654 216.323 226.411C216.852 226.307 217.501 226.111 218.081 225.671C218.752 225.161 219.112 224.495 219.265 223.853C219.347 223.509 219.366 223.166 219.369 222.957C219.78 222.729 220.67 222.377 222.456 222.012C226.166 221.253 230.211 221.306 233.637 221.442C234.077 221.46 234.515 221.479 234.943 221.498C236.116 221.55 237.217 221.599 238.102 221.599C238.711 221.599 239.339 221.578 239.898 221.494C240.304 221.433 241.303 221.267 242.062 220.516C242.566 220.018 242.839 219.436 242.996 219.01C243.16 218.56 243.262 218.095 243.33 217.673C243.464 216.831 243.5 215.908 243.5 215.098C243.5 214.271 243.462 213.477 243.426 212.871C243.412 212.627 243.397 212.406 243.385 212.23C243.382 212.188 243.38 212.149 243.377 212.112C243.37 211.999 243.366 211.931 243.364 211.894C243.361 211.857 243.361 211.851 243.361 211.864V211.863C243.361 211.766 243.362 211.352 243.169 210.882C243.059 210.616 242.812 210.146 242.285 209.776C241.692 209.361 241.022 209.265 240.461 209.351C239.638 209.478 239.143 209.977 239.071 210.049C239.069 210.051 239.067 210.054 239.065 210.055C238.915 210.203 238.812 210.34 238.765 210.404C238.613 210.614 238.467 210.878 238.397 211.006C238.393 211.013 238.389 211.02 238.386 211.026C238.352 211.088 238.317 211.15 238.282 211.214C238.108 211.531 237.922 211.871 237.701 212.222C237.696 212.231 237.691 212.239 237.686 212.247C237.152 211.542 236.334 210.689 234.947 210.198C235.246 209.555 235.338 208.859 235.239 208.179C235.115 207.319 234.711 206.636 234.367 206.178C233.686 205.271 232.747 204.591 232.127 204.223C231.824 204.044 231.49 203.932 231.147 203.891ZM234.135 211.435C234.135 211.434 234.136 211.434 234.136 211.433C234.132 211.442 234.131 211.443 234.135 211.435ZM236.976 213.15C236.976 213.149 236.987 213.14 237.009 213.126C236.987 213.145 236.976 213.152 236.976 213.15ZM226.534 209.648C226.308 209.767 226.08 209.878 225.852 209.979C225.421 210.169 224.837 210.392 224.191 210.482C224.122 210.622 224.026 210.813 223.911 211.013C223.683 211.407 223.339 211.908 222.799 212.355C222.732 212.521 222.673 212.735 222.558 213.152C222.555 213.163 222.552 213.175 222.549 213.187C222.455 213.526 222.29 214.125 222.009 214.665C221.76 215.142 221.286 215.83 220.455 216.245C220.272 216.541 220.079 216.924 219.815 217.447C219.805 217.466 219.796 217.485 219.786 217.504C220.298 217.366 220.853 217.236 221.454 217.113C225.807 216.223 230.381 216.308 233.836 216.446C234.095 216.457 234.345 216.467 234.587 216.478C234.258 216.114 234.04 215.773 233.914 215.576C233.882 215.526 233.856 215.485 233.836 215.456C233.528 215.011 233.44 214.936 233.096 214.86C232.329 214.692 231.546 214.437 230.878 214C230.159 213.53 229.487 212.782 229.271 211.712C229.249 211.607 229.233 211.504 229.222 211.402C228.838 211.434 228.368 211.39 227.884 211.16C227.243 210.855 226.871 210.363 226.675 209.975C226.619 209.864 226.572 209.753 226.534 209.648ZM238.363 211.983C238.362 211.939 238.361 211.901 238.361 211.869C238.361 211.871 238.361 211.873 238.361 211.875C238.361 211.893 238.361 211.93 238.363 211.983ZM222.841 212.262C222.841 212.262 222.84 212.266 222.836 212.272C222.839 212.265 222.841 212.262 222.841 212.262ZM224.399 210.077C224.399 210.077 224.397 210.079 224.394 210.084C224.397 210.079 224.399 210.076 224.399 210.077Z" />
</svg>
