<svg width="284" height="284" viewBox="0 0 284 284" fill="none" xmlns="http://www.w3.org/2000/svg">
<path fill-rule="evenodd" clip-rule="evenodd" d="M141.523 3.64684C144.518 2.78513 147.569 2.5 149.521 2.5C149.974 2.5 150.42 2.62352 150.809 2.85732L214.287 41.0149C215.04 41.467 215.5 42.2802 215.5 43.1576V45.781C215.5 46.1123 215.434 46.4404 215.306 46.7461C214.338 49.0581 212.872 52.9562 211.653 57.0581C210.415 61.2238 209.511 65.341 209.511 68.1985C209.511 74.4432 206.824 78.0104 204.196 79.394C202.956 82.1027 199.672 85.2461 193.597 85.2461C192.329 85.2461 191.555 85.4265 191.113 85.6077C190.697 85.7778 190.592 85.9375 190.573 85.9675C190.521 86.0484 190.464 86.2999 190.574 86.6368C190.901 87.2269 191.028 87.8661 191.068 88.4065C191.121 89.1182 191.044 89.9072 190.844 90.7578C190.446 92.4566 189.514 94.5966 187.781 97.2352C186.15 99.7186 186.491 101.417 186.875 102.131C186.954 102.277 187.036 102.389 187.11 102.472C188.285 101.67 189.685 101.53 190.751 101.546C192.038 101.565 193.431 101.824 194.725 102.138C196.039 102.457 197.379 102.866 198.573 103.24C198.788 103.307 198.997 103.373 199.199 103.437C200.147 103.735 200.958 103.99 201.638 104.171C201.659 104.122 201.682 104.073 201.706 104.024C201.867 103.692 202.169 103.19 202.728 102.784C203.323 102.352 203.993 102.187 204.616 102.187C206.432 102.187 208.558 103.358 209.657 106.073C210.695 108.634 210.806 112.467 209.442 118.149C208.357 122.666 208.307 126.054 208.251 129.947C208.243 130.504 208.234 131.072 208.223 131.655C208.13 136.353 207.816 141.702 205.587 149.715C203.708 156.471 203.541 163.68 203.386 170.359C203.372 170.981 203.357 171.599 203.342 172.212C203.252 175.729 203.117 179.131 202.609 182.039C202.108 184.912 201.181 187.71 199.193 189.69C197.984 190.894 196.437 193.072 194.737 195.865C193.066 198.611 191.345 201.786 189.773 204.857C188.204 207.923 186.796 210.859 185.752 213.115C185.23 214.243 184.801 215.195 184.49 215.905C184.335 216.261 184.211 216.55 184.121 216.766C184.021 217.007 183.988 217.097 183.99 217.091C183.847 217.518 183.616 217.875 183.488 218.065C183.328 218.303 183.138 218.552 182.938 218.799C182.535 219.297 182.01 219.886 181.403 220.528C180.183 221.816 178.55 223.402 176.721 225.025C173.134 228.206 168.496 231.793 164.606 233.395C161.653 234.612 158.425 237.38 155.87 240.324C154.615 241.77 153.592 243.18 152.898 244.34C152.55 244.921 152.307 245.403 152.159 245.767C152.053 246.03 152.025 246.159 152.02 246.179C152.011 246.562 151.93 246.898 151.879 247.091C151.814 247.337 151.729 247.592 151.639 247.839C151.457 248.336 151.207 248.926 150.91 249.575C150.314 250.879 149.472 252.547 148.464 254.413C146.447 258.149 143.71 262.783 140.812 267.065C137.947 271.298 134.802 275.374 131.959 277.844C130.588 279.035 128.957 280.15 127.226 280.431C126.286 280.584 125.258 280.499 124.284 279.991C123.327 279.491 122.645 278.699 122.172 277.827C119.261 272.466 120.292 267.813 122.206 263.835C122.978 262.23 123.93 260.658 124.806 259.214C124.971 258.942 125.133 258.674 125.291 258.411C126.325 256.69 127.202 255.138 127.772 253.591C128.304 252.146 128.216 251.367 128.09 250.989C127.971 250.632 127.705 250.282 127.109 249.93C125.759 249.132 123.723 248.862 121.776 248.604L121.644 248.587C120.234 248.399 119.056 247.785 118.178 247.263C117.741 247.003 117.409 246.792 117.119 246.607C116.71 246.345 116.384 246.138 115.962 245.923C115.38 245.628 115.07 245.588 114.857 245.61C114.665 245.63 114.192 245.74 113.385 246.499C111.592 248.185 109.464 249.473 107.289 248.784C105.086 248.086 104.513 245.93 104.399 244.971C104.388 244.873 104.382 244.775 104.382 244.677C104.382 243.333 104.157 241.52 103.627 240.286C103.363 239.671 103.129 239.451 103.055 239.401C103.053 239.4 103.052 239.398 103.05 239.398C103.049 239.398 103.048 239.398 103.046 239.398C103.041 239.397 103.033 239.397 103.022 239.398C103.017 239.398 103.011 239.399 103.005 239.399C102.967 239.403 102.902 239.413 102.807 239.441C100.241 240.208 98.0427 239.816 96.3595 238.824C94.8874 237.955 93.9264 236.698 93.426 235.633C92.9052 234.862 92.2107 233.984 91.5701 233.374C90.9959 234.023 90.1606 234.591 88.9918 234.579C87.3416 234.562 86.3441 233.342 85.9664 232.823C85.1644 231.72 84.6087 230.182 84.3706 229.051C84.3081 228.995 84.2235 228.925 84.1119 228.839C83.6133 228.454 82.9119 228.018 82.0537 227.5C81.9669 227.447 81.8782 227.394 81.7882 227.339C81.0508 226.895 80.2218 226.395 79.5282 225.907C79.1337 225.629 78.7199 225.313 78.3549 224.965C78.0175 224.644 77.5626 224.148 77.2779 223.487C77.1924 223.288 77.1046 223.076 77.013 222.856C76.6461 221.971 76.2193 220.942 75.6355 220.02C75.2814 219.461 74.9646 219.104 74.7168 218.914C74.6033 218.827 74.5351 218.799 74.5135 218.791C74.5111 218.79 74.5092 218.79 74.5077 218.789C72.2051 218.979 70.6465 217.727 69.8031 216.396C69.0322 215.179 68.7526 213.793 68.6951 212.877C68.6832 212.687 68.693 212.496 68.7245 212.308L69.9223 205.153C70.0221 204.557 70.3303 204.033 70.7704 203.66C68.213 201.665 67.162 199.035 67.5913 196.63C67.9196 194.792 69.4252 192.639 71.778 192.528C72.0801 191.958 72.4206 191.137 72.9083 189.963C72.971 189.812 73.0361 189.655 73.1039 189.492C74.3469 186.504 76.1906 182.24 79.5302 178.02C84.4599 171.79 89.7993 171.024 94.7896 170.308C95.575 170.195 96.3518 170.084 97.117 169.952C100.493 169.373 102.978 168.705 104.564 168.124C104.978 167.973 105.307 167.835 105.562 167.717C105.556 164.103 106.05 161.296 107.016 159.082C108.12 156.553 109.764 154.972 111.582 153.878C112.937 153.063 114.47 152.489 115.744 152.013C116.047 151.899 116.336 151.791 116.604 151.687C118.124 151.094 119.301 150.521 120.251 149.618C121.716 148.225 123.009 147.336 124.224 146.761C125.453 146.179 126.486 145.977 127.26 145.842L127.278 145.838C128.078 145.698 128.336 145.653 128.618 145.519C128.835 145.417 129.22 145.179 129.824 144.406C131.265 142.562 132.719 141.391 134.272 140.767C135.838 140.137 137.236 140.177 138.263 140.264C138.585 140.291 138.843 140.316 139.055 140.337C139.62 140.392 139.861 140.415 140.15 140.364L140.153 140.363C140.283 140.341 140.572 140.289 141.083 139.636C141.239 139.436 141.426 139.008 141.124 137.987C140.819 136.958 140.106 135.711 139.096 134.451C138.101 133.21 136.931 132.095 135.873 131.312C135.344 130.921 134.887 130.645 134.531 130.477C134.28 130.357 134.151 130.326 134.127 130.319C132.479 130.293 131.192 129.237 130.421 128.474C129.533 127.594 128.702 126.458 127.975 125.32C126.855 123.567 125.833 121.576 125.077 119.934L123.683 119.818C122.942 119.756 122.267 119.369 121.841 118.759C121.415 118.15 121.282 117.383 121.478 116.666L122.032 114.645C121.793 114.198 120.812 112.81 116.786 112.163C113.695 111.667 111.091 110.522 110.301 108.08C109.662 106.11 110.569 104.412 111.369 103.422C111.395 103.29 111.419 103.114 111.432 102.894C111.464 102.385 111.437 101.679 111.274 100.783C111.022 99.4025 110.45 97.5955 109.3 95.4138C109.12 95.6884 108.869 95.98 108.522 96.2282C107.768 96.7664 106.894 96.8645 106.139 96.6903C105.486 96.5397 104.974 96.2043 104.627 95.9326C103.928 95.3857 103.217 94.5469 102.468 93.5217C99.0175 88.7983 98.8095 82.2643 99.3997 77.3785C99.7031 74.8665 100.24 72.5965 100.804 70.9246C101.081 70.103 101.393 69.3401 101.73 68.7437C101.89 68.4611 102.125 68.0894 102.448 67.7622C102.635 67.5736 103.561 66.6577 104.975 66.9391C105.228 66.9896 105.321 67.0035 105.359 67.0076C105.365 67.0063 105.372 67.0046 105.38 67.0024C105.647 66.9325 106.174 66.7122 107.674 65.9659C107.69 65.9534 107.799 65.8651 107.952 65.5725C108.148 65.2005 108.329 64.6598 108.467 63.9696C108.744 62.5864 108.769 61.0175 108.7 60.0243C108.652 59.3329 108.893 58.6527 109.366 58.146C109.839 57.6393 110.501 57.3516 111.194 57.3516H112.255C110.665 55.7679 110.102 53.7568 109.793 52.2442C109.701 51.7958 109.625 51.3555 109.559 50.9626L109.545 50.8822C109.482 50.5098 109.427 50.1869 109.366 49.8807C109.23 49.1919 109.109 48.8451 109.011 48.6686C108.951 48.5619 108.771 48.361 108.193 47.8407C108.177 47.8266 108.161 47.8121 108.145 47.7973C107.918 47.5937 107.62 47.3257 107.352 47.0476C107.07 46.7549 106.692 46.3232 106.415 45.7701C106.116 45.1752 105.9 44.3696 106.091 43.4515C106.276 42.5659 106.774 41.894 107.285 41.4099C108.228 40.5166 109.701 39.8089 111.534 39.1398C114.241 38.1518 115.821 37.2122 116.681 36.533C117.023 36.2629 117.229 36.0518 117.343 35.9162C117.553 33.5457 119.088 29.5575 123.893 28.1225C126.641 27.3015 127.124 25.4275 127.144 25.1146C127.152 24.9862 127.17 24.8586 127.197 24.733C127.577 23.0117 128.322 20.2086 129.345 17.2851C130.355 14.3978 131.699 11.208 133.325 8.83407C135.261 6.00727 138.613 4.48441 141.523 3.64684ZM117.459 35.7586C117.459 35.7585 117.455 35.766 117.446 35.7812C117.453 35.7662 117.458 35.7586 117.459 35.7586ZM107.725 92.0075C107.725 92.0078 107.721 92.0047 107.711 91.9974C107.721 92.0036 107.725 92.0072 107.725 92.0075ZM105.486 88.8072C105.653 88.4401 105.964 87.9316 106.54 87.5494C107.483 86.9236 108.499 87.0273 109.184 87.3068C109.767 87.5442 110.201 87.9279 110.477 88.2039C111.057 88.782 111.673 89.6403 112.35 90.7124C114.603 94.282 115.736 97.3817 116.192 99.8861C116.634 102.309 116.472 104.362 115.872 105.706C115.747 105.986 115.571 106.242 115.353 106.458C115.318 106.494 115.285 106.529 115.257 106.564C115.632 106.766 116.342 107.028 117.579 107.227C124.046 108.265 127.108 111.619 127.108 114.703C127.108 114.831 127.098 114.959 127.079 115.085C127.962 115.197 128.722 115.771 129.069 116.596C129.752 118.22 130.923 120.647 132.188 122.628C132.826 123.626 133.428 124.414 133.94 124.922C134.185 125.165 134.343 125.278 134.418 125.326C135.26 125.372 136.048 125.662 136.673 125.959C137.399 126.302 138.137 126.768 138.847 127.293C140.267 128.344 141.747 129.763 142.998 131.324C144.233 132.866 145.362 134.69 145.918 136.567C146.476 138.453 146.544 140.767 145.023 142.714C143.861 144.201 142.535 145.019 141.023 145.287C139.981 145.472 138.86 145.353 138.181 145.28C138.051 145.266 137.937 145.254 137.842 145.246C137.102 145.184 136.629 145.208 136.136 145.406C135.631 145.609 134.839 146.108 133.765 147.484C132.812 148.703 131.849 149.522 130.756 150.039C129.831 150.477 128.914 150.632 128.309 150.735C128.244 150.746 128.182 150.756 128.125 150.766C127.491 150.877 126.982 150.987 126.363 151.28C125.728 151.58 124.865 152.13 123.695 153.242C122.011 154.843 120.073 155.701 118.42 156.345C118.015 156.503 117.635 156.646 117.276 156.781C116.06 157.239 115.083 157.607 114.159 158.163C113.103 158.798 112.232 159.632 111.599 161.082C110.932 162.61 110.465 164.975 110.579 168.764C110.611 169.83 110.035 170.557 109.764 170.853C109.441 171.206 109.067 171.476 108.748 171.676C108.094 172.086 107.246 172.467 106.284 172.819C104.331 173.535 101.534 174.267 97.9629 174.88C97.0328 175.04 96.1552 175.171 95.3213 175.296C90.4617 176.023 87.0865 176.528 83.451 181.122C80.5625 184.772 78.9328 188.498 77.7204 191.412C77.6511 191.579 77.5818 191.746 77.5126 191.913C77.0111 193.125 76.513 194.329 76.0128 195.202C75.7278 195.699 75.3124 196.33 74.709 196.815C74.1465 197.267 73.3855 197.611 72.5034 197.593C72.4802 197.923 72.5936 198.765 73.9023 199.761C74.8444 200.478 75.632 201.253 76.1268 202.124C76.6577 203.058 76.9045 204.226 76.4503 205.401C76.0379 206.467 75.2173 207.082 74.6244 207.408C74.6207 207.41 74.617 207.412 74.6134 207.414L73.7122 212.797C73.7297 212.907 73.7558 213.032 73.7926 213.162C73.8599 213.4 73.9448 213.59 74.0265 213.719C74.0519 213.76 74.0732 213.788 74.0892 213.807C74.0918 213.807 74.0946 213.807 74.0976 213.806C77.0883 213.558 78.9575 215.92 79.8598 217.345C80.7048 218.679 81.3429 220.232 81.6978 221.095C81.7346 221.184 81.7684 221.267 81.799 221.34C81.8007 221.342 81.8023 221.344 81.804 221.345C81.9182 221.454 82.1107 221.61 82.4049 221.817C82.9446 222.197 83.6131 222.601 84.3824 223.065C84.4671 223.116 84.5531 223.168 84.6403 223.221C85.4589 223.715 86.4044 224.293 87.1634 224.878C87.5446 225.171 87.9612 225.529 88.3147 225.943C88.6416 226.326 89.108 226.981 89.2351 227.867C89.2506 227.975 89.2857 228.14 89.3417 228.34C90.0561 227.911 90.821 227.795 91.5061 227.86C92.7299 227.977 93.737 228.668 94.3653 229.178C95.7225 230.278 96.9789 231.932 97.7132 233.05C97.7997 233.182 97.8736 233.322 97.9338 233.467C98.0321 233.705 98.3554 234.196 98.9 234.517C99.3527 234.784 100.108 235.029 101.376 234.65C102.993 234.167 104.559 234.38 105.858 235.261C107.042 236.062 107.766 237.255 108.221 238.313C108.92 239.941 109.231 241.845 109.337 243.399C109.519 243.254 109.727 243.076 109.96 242.856C111.309 241.588 112.753 240.803 114.335 240.637C115.897 240.473 117.218 240.954 118.223 241.464C118.829 241.771 119.55 242.226 120.114 242.581C120.356 242.733 120.569 242.868 120.73 242.964C121.447 243.389 121.916 243.579 122.302 243.63C122.42 243.646 122.547 243.662 122.683 243.679C124.388 243.898 127.381 244.282 129.653 245.626C130.974 246.406 132.234 247.606 132.834 249.411C133.427 251.194 133.249 253.187 132.464 255.319C131.716 257.35 130.616 259.256 129.577 260.986C129.399 261.282 129.223 261.573 129.05 261.859C128.175 263.305 127.37 264.634 126.711 266.003C125.212 269.119 124.686 271.979 126.566 275.442C126.569 275.447 126.572 275.453 126.575 275.459C126.94 275.343 127.638 274.974 128.68 274.069C131.003 272.052 133.846 268.437 136.671 264.263C139.462 260.139 142.114 255.65 144.065 252.038C145.04 250.231 145.827 248.667 146.363 247.496C146.632 246.906 146.824 246.447 146.943 246.122C146.984 246.01 147.011 245.929 147.028 245.873C147.07 245.146 147.3 244.445 147.527 243.887C147.799 243.216 148.172 242.499 148.607 241.773C149.477 240.318 150.684 238.672 152.094 237.047C154.869 233.85 158.708 230.418 162.701 228.772C165.758 227.513 169.864 224.423 173.403 221.284C175.137 219.746 176.663 218.262 177.771 217.091C178.328 216.503 178.759 216.015 179.052 215.654C179.183 215.491 179.271 215.373 179.324 215.297C179.588 214.607 180.294 213.004 181.215 211.015C182.281 208.709 183.718 205.713 185.323 202.578C186.925 199.448 188.707 196.155 190.465 193.266C192.194 190.426 194 187.804 195.665 186.146C196.552 185.264 197.242 183.71 197.684 181.179C198.119 178.685 198.253 175.633 198.344 172.085C198.359 171.465 198.374 170.832 198.388 170.187C198.537 163.6 198.714 155.767 200.77 148.375C202.853 140.886 203.137 135.98 203.224 131.556C203.235 131.003 203.242 130.452 203.25 129.901C203.304 125.999 203.358 122.068 204.58 116.981C205.767 112.039 205.524 109.44 205.112 108.193C204.764 108.543 204.306 108.86 203.705 109.065C202.623 109.434 201.464 109.298 200.381 109.011C199.576 108.797 198.619 108.496 197.66 108.194C197.466 108.133 197.272 108.072 197.079 108.012C195.893 107.64 194.687 107.274 193.546 106.997C192.385 106.715 191.413 106.556 190.678 106.545C190.183 106.538 189.969 106.601 189.916 106.617C188.587 107.748 186.916 107.843 185.544 107.322C184.213 106.815 183.149 105.758 182.472 104.5C181.06 101.876 181.161 98.2077 183.602 94.4905C185.127 92.1685 185.752 90.5723 185.977 89.616C186.065 89.2395 186.084 88.9931 186.084 88.8601C186.065 88.8215 186.047 88.7824 186.03 88.7428C185.484 87.4743 185.084 85.2767 186.356 83.2809C187.687 81.1919 190.246 80.2461 193.597 80.2461C198.36 80.2461 199.641 77.5657 199.783 76.9431C199.993 76.024 200.702 75.3012 201.616 75.0735C201.842 75.0172 204.511 73.8247 204.511 68.1985C204.511 64.5693 205.603 59.8625 206.86 55.6335C208.058 51.6029 209.479 47.771 210.5 45.2836V44.5718L148.849 7.51315C147.278 7.57177 145.053 7.8339 142.906 8.45183C140.347 9.18827 138.389 10.2887 137.45 11.6593C136.202 13.4826 135.03 16.1755 134.064 18.9364C133.142 21.572 132.465 24.1008 132.114 25.6554C131.874 27.9081 130.077 31.4937 125.324 32.9133C122.869 33.6465 122.317 35.7012 122.317 36.48C122.317 36.5635 122.313 36.6469 122.305 36.7299C122.222 37.5544 121.829 38.2609 121.45 38.7788C121.036 39.3442 120.477 39.9067 119.779 40.4575C118.384 41.5589 116.291 42.726 113.249 43.8366C112.68 44.0444 112.217 44.2332 111.845 44.4029C112.027 44.5706 112.226 44.7604 112.417 44.9613C112.725 45.285 113.086 45.7101 113.377 46.2321C113.877 47.1288 114.116 48.1235 114.271 48.9103C114.346 49.2867 114.412 49.6752 114.472 50.0316L114.488 50.1257C114.555 50.5209 114.618 50.8855 114.691 51.2419C114.993 52.7196 115.379 53.5364 116.043 54.0326C117.564 55.1685 118.546 56.6008 118.626 58.2598C118.701 59.8487 117.915 61.0682 117.148 61.7366C116.693 62.1331 116.109 62.3516 115.506 62.3516H113.693C113.644 63.1887 113.544 64.0805 113.37 64.951C113.177 65.9163 112.872 66.9585 112.378 67.8987C111.888 68.8323 111.117 69.8371 109.913 70.4366C108.546 71.1169 107.518 71.6111 106.647 71.8392C106.317 71.9257 106.013 71.9738 105.731 71.9952C105.671 72.1509 105.608 72.3266 105.542 72.5227C105.095 73.8467 104.629 75.7801 104.364 77.9781C103.91 81.7344 104.1 85.7506 105.486 88.8072ZM106.122 71.1391C106.122 71.1391 106.121 71.1415 106.118 71.146C106.121 71.1412 106.122 71.139 106.122 71.1391ZM186.077 88.7369C186.077 88.7371 186.079 88.7443 186.08 88.7595C186.077 88.7447 186.077 88.7368 186.077 88.7369ZM204.461 107.166C204.461 107.166 204.469 107.168 204.484 107.175C204.468 107.171 204.46 107.167 204.461 107.166ZM179.373 215.221C179.375 215.219 179.372 215.225 179.362 215.241C179.368 215.229 179.372 215.223 179.373 215.221ZM81.7349 221.273C81.7351 221.273 81.7381 221.277 81.7432 221.283C81.7371 221.277 81.7346 221.273 81.7349 221.273ZM114.972 106.371C114.972 106.371 114.974 106.373 114.977 106.377C114.973 106.373 114.971 106.371 114.972 106.371ZM84.5101 229.187C84.5268 229.207 84.5233 229.206 84.5079 229.185C84.5087 229.186 84.5094 229.187 84.5101 229.187Z" />
</svg>
