<svg width="284" height="284" viewBox="0 0 284 284" fill="none" xmlns="http://www.w3.org/2000/svg">
<path fill-rule="evenodd" clip-rule="evenodd" d="M266.224 33.5074C265.308 36.6961 265.689 39.9998 266.403 43.3286C266.455 43.5703 266.476 43.7555 266.483 43.8916C265.999 44.0123 265.558 44.2759 265.221 44.6549C264.67 45.2734 264.032 46.2681 263.649 47.4761C263.259 48.7098 263.089 50.3324 263.762 52.0145C264.083 52.8141 264.468 53.4948 264.984 54.0291C265.095 54.1448 265.207 54.247 265.317 54.3375C265.285 54.7325 265.227 55.2964 265.145 56.033L265.111 56.3449C265.001 57.3321 264.873 58.4881 264.785 59.6078C264.689 60.8236 264.627 62.1335 264.714 63.2204C264.757 63.7504 264.846 64.3856 265.065 64.9779C265.232 65.4291 265.649 66.3197 266.61 66.8202C266.664 66.8976 266.738 67.0131 266.827 67.1745C267.114 67.6958 267.424 68.4436 267.689 69.2805C267.954 70.1132 268.142 70.936 268.225 71.5856C268.248 71.7709 268.261 71.9251 268.267 72.0489C268.256 72.056 268.246 72.0635 268.234 72.0711C268.019 72.2164 267.846 72.3154 267.619 72.4457C267.451 72.542 267.253 72.6554 266.986 72.8171C266.545 73.0847 265.762 73.5744 265.206 74.3241C264.896 74.7423 264.611 75.2978 264.516 75.9846C264.419 76.6815 264.543 77.3401 264.791 77.917C265.096 78.6285 265.231 79.1243 265.249 79.7068C265.269 80.3328 265.157 81.2322 264.699 82.7191C264.365 83.8022 264.243 84.8925 264.526 85.9395C264.824 87.0401 265.474 87.7375 265.992 88.1686C266.095 88.2548 266.2 88.335 266.294 88.4051C266.286 88.4797 266.277 88.5608 266.266 88.6493L266.261 88.6979C266.212 89.1116 266.148 89.6582 266.129 90.2439C266.088 91.5204 266.255 93.071 267.165 94.7081C267.405 95.1383 267.55 95.7675 267.574 96.5098C267.597 97.222 267.503 97.8427 267.433 98.1335C267.135 99.2456 267.254 100.952 268.418 102.347C267.437 103.523 266.347 105.336 266.347 108.047C266.347 109.348 266.462 110.456 266.739 111.33C266.876 111.764 267.097 112.283 267.482 112.746C267.884 113.229 268.573 113.764 269.549 113.834C270.504 113.902 271.237 113.488 271.67 113.119C272.073 112.776 272.345 112.375 272.527 112.031C272.839 112.636 273.192 113.16 273.615 113.576C273.858 113.815 274.131 114.027 274.436 114.196C274.441 114.4 274.446 114.632 274.451 114.892C274.466 115.817 274.478 117.062 274.486 118.558C274.502 121.547 274.503 125.506 274.496 129.83C274.481 138.372 274.432 148.317 274.391 154.965L266.648 193.372C266.58 193.708 266.582 194.055 266.654 194.391L267.345 197.607L266.097 238.707C266.086 239.078 266.157 239.447 266.306 239.786L267.218 241.868L259.433 246.982C258.886 247.342 258.524 247.882 258.378 248.474C258.316 248.124 258.221 247.801 258.124 247.523C257.811 246.632 257.302 245.724 256.82 244.968C256.324 244.189 255.779 243.452 255.316 242.883C255.197 242.736 255.078 242.595 254.963 242.463C254.969 242.427 254.975 242.389 254.981 242.35L254.982 242.347C255.043 241.965 255.13 241.413 255.152 240.866C255.172 240.387 255.169 239.508 254.749 238.668C254.52 238.212 254.21 237.798 254.032 237.562L253.993 237.51C253.78 237.225 253.643 237.035 253.526 236.83C253.346 236.512 253.168 236.076 253.244 235.246C253.262 235.04 253.279 234.798 253.272 234.564C253.269 234.459 253.26 234.246 253.206 233.998C253.179 233.876 253.121 233.649 252.992 233.39C252.878 233.16 252.58 232.647 251.945 232.298C251.185 231.882 250.382 231.933 249.792 232.172C249.301 232.37 249 232.671 248.876 232.806C248.617 233.086 248.477 233.365 248.435 233.45C248.32 233.681 248.239 233.916 248.19 234.067C247.982 234.713 247.745 235.771 247.563 236.915C247.377 238.077 247.225 239.467 247.229 240.78C247.233 241.959 247.355 243.584 248.108 244.839C248.585 245.631 249.01 246.257 249.378 246.8C250.429 248.349 251.018 249.217 251.018 251.33V252.219C248.653 250.628 244.146 247.881 239.328 245C233.291 241.39 226.508 237.419 222.104 234.864C221.876 234.732 221.628 234.636 221.37 234.581C221.373 234.582 221.375 234.582 221.375 234.582C221.376 234.579 221.27 234.538 221.154 234.407C221.053 234.293 220.837 233.989 220.837 233.263C220.837 232.795 220.815 232.338 220.748 231.924C220.697 231.612 220.559 230.874 220.008 230.242C219.677 229.864 219.189 229.516 218.551 229.375C217.94 229.241 217.414 229.346 217.062 229.469C216.45 229.682 216.029 230.071 215.883 230.206C215.747 230.332 215.616 230.468 215.512 230.58C215.419 230.55 215.3 230.513 215.137 230.463C214.333 230.219 213.271 229.955 211.688 229.805C211.622 229.581 211.53 229.347 211.403 229.115C210.835 228.08 209.862 227.503 208.887 227.149C208.438 226.986 208.256 226.751 208.153 226.544C208.091 226.42 208.051 226.288 208.029 226.163C208.005 226.031 208.011 225.954 208.01 225.961C208.044 225.586 207.993 225.208 207.861 224.856C207.705 224.441 207.431 223.848 207.036 223.283C207.06 223.223 207.084 223.162 207.107 223.101C207.488 222.084 207.487 220.987 207.429 220.166C207.367 219.292 207.209 218.393 207.065 217.642C207.016 217.388 206.97 217.157 206.928 216.945C206.835 216.471 206.759 216.091 206.71 215.753C206.703 215.706 206.697 215.664 206.692 215.626C206.897 215.037 206.904 214.493 206.902 214.226C206.898 213.722 206.829 213.207 206.749 212.768C206.588 211.879 206.326 210.969 206.133 210.389C206.027 210.074 205.86 209.783 205.641 209.533C205.216 209.047 204.519 208.39 203.669 207.811C202.842 207.246 201.662 206.611 200.301 206.441C199.522 206.344 198.838 206.386 198.216 206.527C197.804 206.62 197.451 206.751 197.195 206.857C197.192 206.797 197.196 206.742 197.203 206.699C197.205 206.687 197.207 206.678 197.209 206.67C197.324 206.525 197.492 206.308 197.623 206.083C197.667 206.007 197.734 205.884 197.797 205.729C197.852 205.596 197.963 205.298 197.986 204.904C198.012 204.484 197.943 203.749 197.371 203.092C196.817 202.457 196.133 202.29 195.778 202.246C195.559 202.219 195.356 202.224 195.184 202.242C195.06 201.758 194.81 201.217 194.32 200.717C193.714 200.1 192.937 199.757 192.237 199.524C191.939 199.425 191.64 199.392 191.57 199.384L191.56 199.383C191.424 199.368 191.271 199.355 191.113 199.343C190.794 199.32 190.372 199.298 189.863 199.276C188.84 199.23 187.399 199.183 185.592 199.133C181.974 199.033 176.845 198.923 170.56 198.805C157.99 198.57 140.773 198.307 121.728 198.041C84.7224 197.525 40.8044 197.001 10.6413 196.665L11.214 186.372C11.3046 186.28 11.4304 186.164 11.5995 186.026C12.1979 185.54 13.2583 184.858 15.0001 184.126C17.6584 183.008 18.9594 181.805 19.717 180.588C19.7417 180.589 19.7665 180.589 19.7914 180.589C20.2863 180.589 20.9208 180.534 21.6281 180.236C22.906 179.699 23.9452 178.556 25.0768 177.049C26.0667 175.732 27.3538 174.444 28.638 173.44C29.9817 172.39 31.0738 171.846 31.661 171.715C31.8665 171.67 32.0842 171.633 32.3734 171.585L32.4222 171.577C32.6838 171.534 33.009 171.481 33.3421 171.41C34.0829 171.253 34.954 170.994 35.8679 170.442C37.6984 169.336 39.223 167.35 40.6948 164.009C40.8827 163.583 41.0366 163.228 41.1641 162.931C41.2664 162.919 41.3684 162.903 41.47 162.885C42.6463 162.671 44.0418 162.003 45.8236 160.816C47.5308 159.68 48.7442 158.763 49.5043 157.961C50.2121 157.214 51.2302 155.794 50.5284 154.042C50.2701 153.397 49.8506 152.961 49.6502 152.761C49.5462 152.657 49.4388 152.558 49.3673 152.492L49.3516 152.477C49.2683 152.4 49.2177 152.353 49.1732 152.308C49.1732 152.308 49.1731 152.308 49.1732 152.308C49.1334 151.841 49.1203 151.34 49.1133 150.788C49.112 150.682 49.1109 150.573 49.1098 150.461C49.1048 149.962 49.0992 149.408 49.0702 148.9C49.035 148.286 48.9579 147.531 48.7202 146.812C48.5076 146.168 48.1104 145.39 47.3544 144.802C47.4686 144.666 47.6304 144.495 47.8569 144.294C48.7333 143.517 49.6738 142.19 49.2507 140.5C48.8975 139.089 47.7682 138.328 47.185 137.995C46.49 137.598 45.7314 137.342 45.1443 137.186C44.6056 137.042 43.9484 136.913 43.433 136.913C43.2161 136.913 43.0213 136.938 42.9278 136.95C42.8184 136.964 42.702 136.982 42.6138 136.996L42.6085 136.997C42.5422 137.007 42.4796 137.017 42.4193 137.026C42.4895 136.766 42.5938 136.446 42.7451 136.06C43.306 134.628 43.6819 133.441 43.7204 132.488C43.7377 132.059 43.6994 131.441 43.3899 130.823C43.9897 130.692 44.6514 130.486 45.3889 130.183C47.3009 129.397 47.9801 129.367 48.5218 129.367C48.6575 129.367 48.8062 129.371 48.9709 129.376C49.7561 129.398 50.9032 129.43 52.7181 129.067C54.4554 128.721 55.8139 128.318 56.951 127.981C57.1344 127.927 57.312 127.874 57.4846 127.824C58.7256 127.461 59.7267 127.204 60.9799 127.1C62.4435 126.978 65.344 126.793 68.3007 126.731C71.3504 126.668 74.146 126.747 75.5787 127.053C77.5195 127.468 80.0712 127.733 82.2196 127.767C83.2884 127.783 84.3561 127.745 85.2444 127.609C85.5622 127.56 85.9139 127.491 86.2631 127.384C86.2806 127.402 86.2982 127.421 86.3161 127.44L86.342 127.467C86.48 127.612 86.6391 127.779 86.7903 127.93C86.941 128.081 87.1537 128.286 87.3877 128.467C87.5048 128.557 87.6865 128.688 87.9158 128.806C88.1096 128.906 88.5628 129.116 89.1693 129.116C89.7607 129.116 90.2278 128.916 90.35 128.864L90.3617 128.859C90.4029 128.841 90.4448 128.823 90.48 128.807C90.7007 128.904 91.2447 129.21 92.1775 130.141C93.1219 131.085 94.0337 131.765 94.978 132.156C96.0066 132.582 96.9115 132.598 97.67 132.467C97.7462 132.453 97.8209 132.439 97.8922 132.423C97.9871 132.61 98.1095 132.891 98.3083 133.347L98.3112 133.354C98.4627 133.702 98.76 134.384 99.2866 134.959C99.9358 135.667 100.856 136.142 101.986 136.142C103.417 136.142 104.312 135.331 104.786 134.742C104.988 134.491 105.158 134.226 105.259 134.068L105.269 134.053C105.391 133.862 105.46 133.755 105.534 133.655C105.655 133.491 105.705 133.467 105.731 133.455L105.732 133.454C105.763 133.439 105.983 133.336 106.594 133.376C108.871 133.528 110.139 133.07 111.074 132.733C111.132 132.712 111.188 132.692 111.244 132.672C111.624 132.536 111.834 132.478 112.091 132.453C112.356 132.427 112.795 132.428 113.558 132.581C117.57 133.382 120.784 133.382 122.578 133.382H122.592C122.593 133.382 122.594 133.382 122.594 133.382C122.709 133.565 122.889 133.851 123.106 134.14C123.281 134.372 123.533 134.667 123.878 134.923C124.225 135.179 124.81 135.499 125.584 135.499C127.278 135.499 128.011 134.111 128.157 133.82C128.394 133.348 128.524 132.835 128.604 132.482C128.624 132.392 128.644 132.3 128.663 132.207C128.998 132.269 129.411 132.373 129.916 132.524C132.317 133.243 134.141 131.844 135.076 130.794C135.504 130.314 135.867 129.785 136.168 129.266C136.379 129.317 136.623 129.349 136.892 129.339C137.972 129.297 138.695 128.639 139.044 128.041C139.301 127.6 139.373 127.176 139.395 127.05L139.396 127.047C139.425 126.875 139.442 126.703 139.45 126.618L139.455 126.565C139.463 126.48 139.47 126.414 139.479 126.34C139.498 126.176 139.525 126.022 139.571 125.861C139.701 125.404 140.208 124.034 143.437 122.637C145.471 121.757 146.851 120.872 147.756 119.919C148.133 119.522 148.411 119.131 148.616 118.756C148.664 118.765 148.712 118.774 148.762 118.784C151.757 119.353 154.226 119.077 156.034 118.075C157.811 117.089 159.079 115.236 158.732 113.156C158.692 112.919 158.645 112.683 158.604 112.485L158.593 112.426C158.555 112.241 158.523 112.083 158.494 111.926C158.465 111.764 158.446 111.635 158.434 111.531C158.686 111.424 159.033 111.254 159.332 111.008C159.516 110.857 160.368 110.125 160.286 108.84C160.205 107.581 159.294 106.965 159.124 106.852C158.85 106.669 158.588 106.569 158.493 106.533C158.37 106.486 158.246 106.445 158.173 106.421L158.134 106.409C158.084 106.392 158.041 106.378 158.002 106.366C158.351 104.83 158.656 103.215 158.573 101.815C158.528 101.043 158.359 100.172 157.891 99.3584C157.784 99.173 157.666 98.9979 157.538 98.8332C158.674 98.603 159.634 98.1615 160.387 97.485C161.236 96.722 161.695 95.757 161.808 94.8118C161.874 94.7575 161.946 94.6981 162.027 94.632C162.254 94.4463 162.529 94.2195 162.802 93.9751C163.289 93.5395 164.043 92.8146 164.481 91.8738C164.72 91.3615 164.912 90.6875 164.839 89.9112C164.763 89.1091 164.424 88.4105 163.943 87.8494C163.125 86.8966 162.042 86.4919 161.002 86.4679C160.816 86.4636 160.635 86.4712 160.458 86.4883C160.461 86.4293 160.462 86.3697 160.462 86.3097C160.462 85.156 159.914 84.1056 158.943 83.446C158.089 82.8656 157.102 82.7118 156.266 82.7118C154.961 82.7118 153.941 83.2508 153.219 83.9379C153.092 84.0587 152.975 84.1837 152.867 84.3099C152.853 84.2948 152.839 84.2797 152.825 84.2645C153.546 83.6254 154.42 82.7819 155.01 81.9324C155.035 81.909 155.08 81.8684 155.15 81.8096C155.334 81.6568 155.603 81.4556 155.96 81.2092C156.671 80.7184 157.612 80.1303 158.661 79.507C160.753 78.2642 163.15 76.9559 164.717 76.1328C165.47 75.7369 165.965 74.9882 166.043 74.1511C166.622 74.0981 167.167 73.8446 167.582 73.4305L172.162 68.8566L174.695 67.2472C175.417 66.7885 175.854 65.9925 175.854 65.1372V63.139L189.742 48.8171H190.442C191.823 48.8171 192.942 47.6978 192.942 46.3171V45.3575L198.314 41.5831C199.288 41.3041 200.623 40.881 201.925 40.385C203.315 39.8554 205.066 39.099 206.141 38.1791C206.573 37.8091 206.693 37.7681 207.29 37.5644C207.363 37.5397 207.443 37.5125 207.531 37.4821C208.532 37.136 209.835 36.6125 212.114 35.1436C212.172 35.2182 212.235 35.2932 212.303 35.3679C213.189 36.3446 214.421 36.7723 215.824 36.7723C216.959 36.7723 217.835 36.6073 218.632 36.2303C218.959 36.0754 219.231 35.9023 219.383 35.8055L219.412 35.7874C219.577 35.6828 219.637 35.6473 219.703 35.6158C219.89 35.5256 220.792 35.1347 225.16 35.5085C228.893 35.8281 236.607 35.5397 244.522 35.0807C252.482 34.619 260.884 33.9686 266.224 33.5074ZM211.298 33.6001C211.28 33.5663 211.281 33.5604 211.296 33.5959C211.297 33.5973 211.297 33.5987 211.298 33.6001ZM187.946 43.9284C187.986 43.1636 188.375 42.4563 189.005 42.0132L195.79 37.2455C196.027 37.079 196.291 36.9549 196.571 36.8788C197.428 36.6454 198.818 36.2181 200.144 35.7128C201.586 35.1633 202.557 34.665 202.89 34.3805C204.058 33.3805 204.922 33.0874 205.691 32.8269C205.76 32.8033 205.829 32.78 205.897 32.7564C206.524 32.5399 207.473 32.1892 209.441 30.9178C210.027 30.5393 210.566 30.228 211.063 30.0026C211.531 29.7897 212.139 29.5704 212.816 29.5503C213.615 29.5266 214.408 29.7854 215.036 30.3675C215.551 30.8443 215.795 31.402 215.891 31.6239C215.914 31.6784 215.935 31.7272 215.954 31.771C216.197 31.7658 216.338 31.7465 216.412 31.7324C216.453 31.7245 216.474 31.718 216.48 31.7158C216.486 31.7139 216.489 31.7126 216.494 31.7105C216.518 31.6992 216.548 31.6831 216.732 31.5663L216.745 31.5581C216.911 31.4528 217.187 31.2775 217.536 31.1096C219.045 30.3841 221.158 30.1477 225.586 30.5268C228.889 30.8095 236.211 30.5542 244.233 30.0891C252.172 29.6286 260.566 28.9781 265.868 28.5196C265.884 28.5181 265.901 28.5169 265.917 28.5158C266.753 28.4602 268.223 28.5189 269.476 29.2337C270.166 29.6272 270.911 30.2948 271.286 31.3435C271.658 32.3862 271.535 33.4449 271.197 34.3751C270.442 36.4477 270.562 38.8766 271.292 42.2795C271.689 44.1291 271.495 45.8479 270.48 47.1508C269.937 47.8492 269.264 48.2864 268.599 48.5368C268.532 48.6712 268.468 48.8224 268.416 48.9849C268.271 49.445 268.274 49.8299 268.404 50.1552C268.453 50.2786 268.496 50.3715 268.529 50.4396C268.878 50.604 269.493 50.9771 269.899 51.7137C270.323 52.4848 270.342 53.3383 270.342 53.8451C270.342 54.5196 270.225 55.5827 270.115 56.5819L270.081 56.889C269.97 57.8876 269.851 58.965 269.769 60.0018C269.677 61.1699 269.644 62.1497 269.698 62.8194C269.699 62.8305 269.7 62.8415 269.701 62.8521C269.964 63.0613 270.169 63.2784 270.318 63.4516C270.668 63.8574 270.963 64.32 271.206 64.7622C271.696 65.6524 272.124 66.7239 272.456 67.769C272.788 68.8183 273.055 69.9403 273.185 70.953C273.249 71.4579 273.286 71.9886 273.264 72.4986C273.243 72.9609 273.167 73.6374 272.842 74.2864C272.355 75.2597 271.541 75.8712 271.031 76.2155C270.689 76.4467 270.214 76.7221 269.882 76.9148C269.846 76.9353 269.812 76.955 269.781 76.9735C270.035 77.7397 270.216 78.5776 270.247 79.5504C270.29 80.9318 270.025 82.4163 269.478 84.1915C269.441 84.3091 269.417 84.4047 269.401 84.4805C269.42 84.494 269.441 84.5087 269.464 84.5248C269.593 84.616 269.846 84.7917 270.089 85.0068C270.659 85.5115 271.347 86.3904 271.347 87.7212C271.347 88.2514 271.284 88.7897 271.237 89.1894L271.232 89.2318C271.179 89.6833 271.138 90.0419 271.126 90.4053C271.105 91.0735 271.189 91.6559 271.535 92.2772C272.301 93.6537 272.533 95.1575 272.571 96.3473C272.607 97.4546 272.481 98.4732 272.32 99.192C272.353 99.2166 272.404 99.2491 272.477 99.2858C272.853 99.4737 273.579 99.8818 274.024 100.698C274.598 101.75 274.367 102.775 274.057 103.402C273.806 103.911 273.442 104.301 273.267 104.486C273.175 104.584 272.999 104.762 272.855 104.908C272.77 104.994 272.695 105.069 272.655 105.111C272.64 105.127 272.625 105.143 272.609 105.159C274.642 105.426 275.979 107.334 276.697 109.125C276.788 109.353 276.868 109.529 276.933 109.662C277.262 109.723 277.669 109.856 278.071 110.149C278.727 110.625 279.01 111.259 279.14 111.643C279.271 112.033 279.335 112.439 279.374 112.789C279.443 113.411 279.47 115.636 279.486 118.531C279.502 121.538 279.503 125.511 279.496 129.838C279.481 138.494 279.431 148.586 279.389 155.238C279.388 155.399 279.371 155.559 279.34 155.716L271.652 193.85L272.297 196.855C272.339 197.052 272.358 197.253 272.352 197.455L271.112 238.296L272.645 241.795C273.134 242.912 272.747 244.218 271.728 244.888L264.161 249.859L266.483 253.833C266.965 254.658 266.934 255.687 266.403 256.482L261.753 263.447C261.701 263.936 261.599 264.494 261.416 265.037C261.175 265.754 260.447 267.451 258.531 267.834C258.458 267.848 258.316 267.882 258.127 267.926C257.52 268.068 256.433 268.323 255.628 268.426C255.088 268.496 254.258 268.569 253.464 268.377C253.046 268.277 252.425 268.054 251.89 267.517C251.29 266.915 251.018 266.14 251.018 265.382C251.018 264.854 251.169 263.972 251.306 263.219C251.464 262.345 251.681 261.256 251.918 260.108C251.994 259.74 252.073 259.364 252.153 258.985C251.765 258.824 251.396 258.61 251.07 258.404C250.563 258.082 249.951 257.642 249.211 257.061C247.963 256.082 242.874 252.946 236.761 249.291C230.875 245.771 224.27 241.903 219.875 239.352C218.546 238.925 216.979 237.782 216.249 235.758C216.192 235.761 216.134 235.763 216.075 235.763C215.499 235.763 215.015 235.652 214.644 235.547C214.484 235.501 214.206 235.413 213.98 235.341C213.856 235.301 213.747 235.266 213.683 235.247C213.116 235.075 212.291 234.862 210.857 234.752C209.997 234.686 208.828 234.519 207.943 233.746C207.187 233.085 206.954 232.279 206.883 231.734C204.133 230.599 203.218 228.233 203.044 226.553C202.732 226.477 202.214 226.293 201.888 226.093C201.367 225.565 200.893 224.256 200.938 223.592C201.042 223.226 201.308 222.704 201.43 222.537C201.509 222.442 201.65 222.294 201.709 222.239C201.819 222.139 201.915 222.071 201.946 222.049C202.006 222.007 202.058 221.974 202.083 221.959C202.139 221.9 202.284 221.721 202.426 221.343C202.421 221.355 202.485 221.135 202.442 220.521C202.402 219.96 202.293 219.306 202.154 218.583C202.122 218.414 202.086 218.234 202.049 218.049C201.945 217.519 201.832 216.949 201.763 216.481C201.715 216.156 201.669 215.763 201.672 215.373C201.674 215.167 201.682 214.668 201.894 214.118C201.884 214.007 201.864 213.854 201.829 213.658C201.76 213.275 201.655 212.859 201.552 212.498C201.365 212.327 201.124 212.127 200.851 211.941C200.342 211.593 199.929 211.434 199.682 211.403C199.365 211.363 199.298 211.393 198.958 211.541L198.919 211.558C198.907 211.563 198.894 211.569 198.88 211.575C198.646 211.678 198.154 211.895 197.563 211.99C196.863 212.103 196.156 212.037 195.433 211.796C193.539 211.166 192.634 209.449 192.337 208.116C192.263 207.785 192.215 207.428 192.2 207.057C191.863 206.851 191.541 206.576 191.256 206.219C190.746 205.584 190.486 204.93 190.375 204.307C190.172 204.295 189.928 204.283 189.643 204.271C188.661 204.227 187.253 204.181 185.454 204.131C181.859 204.032 176.747 203.922 170.467 203.804C157.908 203.57 140.701 203.306 121.659 203.041C83.5756 202.51 38.1686 201.97 7.97231 201.636C7.29001 201.628 6.64045 201.342 6.17431 200.844C5.70817 200.345 5.46596 199.678 5.50386 198.997L6.25776 185.446C6.2681 185.261 6.29915 185.077 6.35035 184.898C6.52079 184.302 6.85544 183.794 7.16093 183.413C7.4961 182.995 7.92518 182.569 8.44636 182.146C9.48982 181.298 10.9843 180.39 13.0622 179.517C15.0403 178.685 15.4054 178.061 15.487 177.922L15.4921 177.913C15.537 177.837 15.57 177.771 15.6412 177.629L15.6653 177.581C15.7283 177.455 15.8759 177.159 16.0865 176.875C16.3489 176.521 16.7403 176.133 17.3147 175.867C17.8567 175.617 18.3857 175.557 18.8058 175.557C19.0602 175.557 19.286 175.568 19.4501 175.576C19.5887 175.583 19.6707 175.586 19.7343 175.588C19.7786 175.553 19.8431 175.498 19.9292 175.414C20.1842 175.168 20.5503 174.75 21.0789 174.047C22.3508 172.353 23.9536 170.755 25.5593 169.5C27.1055 168.292 28.9034 167.206 30.5779 166.834C30.9378 166.754 31.2855 166.697 31.5637 166.651L31.5747 166.649C31.8672 166.601 32.0886 166.565 32.305 166.519C32.7107 166.433 33.0019 166.332 33.2816 166.163C33.8385 165.826 34.8269 164.926 36.1193 161.993C36.4313 161.285 36.6872 160.681 36.8872 160.209C37.081 159.752 37.2222 159.418 37.3107 159.235C37.3629 159.127 37.4846 158.878 37.6726 158.631C37.8137 158.445 38.4212 157.673 39.5633 157.592C40.1251 157.552 40.5842 157.702 40.9036 157.861C41.2747 157.716 41.9539 157.386 43.0529 156.654C43.9713 156.043 44.6259 155.571 45.0864 155.21C44.6906 154.677 44.3104 153.941 44.2124 152.962C44.138 152.219 44.1217 151.484 44.1137 150.851C44.112 150.713 44.1106 150.583 44.1093 150.458C44.1042 149.969 44.1 149.565 44.0784 149.186C44.0622 148.904 44.039 148.707 44.0166 148.575C43.0443 147.867 42.1267 146.688 42.1267 145.028C42.1267 143.895 42.5616 142.868 43.2328 141.96C43.057 141.987 42.8281 142.02 42.582 142.045C42.0002 142.105 40.9614 142.168 39.9349 141.792C38.6901 141.337 37.6498 140.296 37.3662 138.682C37.1292 137.333 37.4673 135.824 38.0898 134.235C38.2264 133.887 38.3366 133.589 38.4249 133.334C37.179 132.222 37.3115 130.608 37.444 129.748C37.5061 129.346 37.5658 128.973 37.6299 128.662C37.6858 128.391 37.7851 127.952 37.9975 127.528C38.2604 127.002 38.7667 126.368 39.6469 126.073C40.2882 125.859 40.8776 125.931 41.0363 125.95C41.0433 125.951 41.0494 125.952 41.0547 125.952C41.161 125.965 41.2449 125.976 41.3157 125.985C41.5217 126.013 41.6167 126.026 41.8327 126.011C42.1082 125.993 42.6289 125.911 43.4875 125.558C45.8476 124.588 47.1788 124.367 48.5218 124.367C48.7618 124.367 48.9752 124.372 49.1784 124.377C49.9085 124.395 50.5076 124.41 51.7389 124.164C53.2386 123.865 54.3763 123.528 55.5092 123.193C55.6996 123.137 55.89 123.08 56.0819 123.024C57.4167 122.634 58.803 122.264 60.5653 122.117C62.1173 121.988 65.1223 121.797 68.1967 121.733C71.1782 121.671 74.5394 121.718 76.6249 122.164C78.2023 122.501 80.4252 122.738 82.2976 122.767C83.2392 122.782 83.9934 122.742 84.4873 122.667C84.5043 122.664 84.5206 122.661 84.5361 122.659C84.9239 122.294 85.4389 122.013 86.0801 121.928C86.9443 121.814 87.6262 122.125 87.9347 122.288C88.5734 122.626 89.1257 123.165 89.428 123.467C89.5471 123.586 89.6642 123.706 89.7726 123.819C90.03 123.78 90.3159 123.76 90.6285 123.773C92.2879 123.845 93.9223 124.818 95.7104 126.603C96.3639 127.256 96.7359 127.467 96.8714 127.528C96.9117 127.519 96.9751 127.502 97.1015 127.468L97.1136 127.464C97.2723 127.422 97.5978 127.334 97.9684 127.297C98.9607 127.196 99.9386 127.474 100.82 128.207C101.435 128.719 101.882 129.333 102.205 129.892C102.555 129.557 102.992 129.227 103.54 128.96C104.522 128.481 105.652 128.302 106.926 128.387C108.165 128.47 108.67 128.286 109.366 128.034C109.43 128.011 109.496 127.987 109.564 127.962C110.064 127.784 110.733 127.561 111.607 127.476C112.472 127.392 113.416 127.453 114.537 127.677C118.054 128.38 120.866 128.382 122.592 128.382C123.299 128.382 123.982 128.471 124.613 128.716C124.748 128.531 124.904 128.355 125.083 128.189C125.784 127.54 126.613 127.272 127.326 127.179C128.551 127.02 129.919 127.317 131.137 127.671C131.189 127.628 131.258 127.564 131.343 127.469C131.732 127.031 132.079 126.367 132.269 125.861C132.486 125.125 133.088 124.03 134.478 123.665C134.688 123.61 134.893 123.578 135.094 123.565C135.925 121.651 137.742 119.653 141.452 118.048C143.188 117.297 143.881 116.739 144.13 116.476C144.169 116.436 144.194 116.405 144.21 116.384C144.216 116.336 144.216 116.336 144.215 116.336C144.214 116.337 144.213 116.338 144.232 116.184C144.245 116.082 144.278 115.813 144.378 115.511C144.489 115.175 144.704 114.729 145.126 114.333C145.546 113.94 146.012 113.745 146.39 113.649C147.023 113.489 147.656 113.552 148.024 113.595C148.474 113.648 149.032 113.745 149.697 113.872C151.979 114.306 153.154 113.954 153.608 113.702C153.66 113.674 153.701 113.648 153.735 113.625C153.725 113.577 153.715 113.531 153.705 113.482C153.673 113.334 153.636 113.158 153.574 112.817C153.49 112.352 153.396 111.722 153.422 111.052C153.442 110.551 153.532 109.962 153.786 109.366C153.763 109.336 153.741 109.306 153.72 109.276C152.94 108.188 152.757 106.857 153.076 105.476C153.459 103.819 153.621 102.769 153.582 102.109C153.579 102.055 153.574 102.01 153.57 101.972C152.927 101.67 152.302 101.247 151.778 100.793C151.236 100.323 150.561 99.6132 150.189 98.7212C149.995 98.2554 149.811 97.5639 149.96 96.7677C150.123 95.8955 150.629 95.204 151.279 94.7505C152.362 93.9963 153.766 93.9413 154.905 94.0082C155.899 94.0665 156.469 93.9675 156.769 93.8775C156.772 93.7246 156.788 93.579 156.813 93.4419C156.419 93.3767 155.96 93.2661 155.506 93.0921C155.065 92.923 154.395 92.6076 153.849 92.0184C153.499 91.6409 153.204 91.146 153.064 90.5721C152.401 90.524 151.859 90.2419 151.5 89.9732C150.876 89.5052 150.002 88.5844 149.316 87.8361C148.562 87.0144 147.799 86.1359 147.322 85.5734C146.873 85.0428 146.664 84.3488 146.747 83.6582C146.831 82.9677 147.198 82.343 147.761 81.9343C148.163 81.642 148.84 81.1152 149.5 80.5305C150.203 79.9074 150.708 79.374 150.92 79.056C151.233 78.587 151.662 78.2069 151.955 77.9635C152.297 77.6798 152.698 77.3854 153.12 77.0944C153.966 76.5104 155.016 75.8563 156.107 75.2083C157.756 74.229 159.568 73.2205 161.054 72.4193V71.6614C161.054 70.2807 162.173 69.1614 163.554 69.1614H164.781L168.823 65.1246C168.952 64.9958 169.095 64.8815 169.249 64.7837L170.854 63.7637V62.126C170.854 61.4762 171.107 60.8521 171.559 60.3856L186.889 44.5768C187.184 44.2724 187.548 44.0512 187.946 43.9284ZM157.665 90.8165C157.665 90.8165 157.67 90.8104 157.682 90.7982C157.672 90.8104 157.666 90.8164 157.665 90.8165ZM156.655 87.5712C156.664 87.56 156.669 87.5556 156.669 87.5562C156.669 87.5568 156.664 87.5624 156.655 87.5712ZM155.52 85.9511C155.524 85.9417 155.527 85.937 155.527 85.9369C155.528 85.9369 155.526 85.9416 155.52 85.9511ZM153.857 113.517C153.859 113.518 153.854 113.527 153.837 113.543C153.848 113.525 153.856 113.517 153.857 113.517ZM46.1394 156.323C46.1389 156.323 46.1327 156.317 46.1222 156.304C46.1347 156.317 46.14 156.323 46.1394 156.323ZM153.805 99.019C153.806 99.0188 153.809 99.0178 153.817 99.0162C153.809 99.0185 153.805 99.0193 153.805 99.019ZM134.649 128.416C134.648 128.415 134.661 128.422 134.689 128.441C134.663 128.427 134.649 128.418 134.649 128.416ZM40.4929 130.921C40.4373 130.918 40.4247 130.913 40.4713 130.918C40.4771 130.919 40.4843 130.92 40.4929 130.921ZM11.0216 186.596C11.0213 186.596 11.0247 186.59 11.0328 186.579C11.026 186.59 11.022 186.596 11.0216 186.596ZM211.853 231.16C211.853 231.16 211.853 231.161 211.853 231.161C211.853 231.196 211.854 231.212 211.855 231.211C211.855 231.21 211.855 231.192 211.853 231.16ZM254.868 243.135C254.868 243.134 254.868 243.133 254.868 243.132C254.868 243.154 254.867 243.157 254.868 243.135ZM258.411 249.792C258.347 250.24 258.19 250.746 257.853 251.225C257.837 251.336 257.828 251.52 257.846 251.778C257.887 252.344 258.035 252.951 258.151 253.299C258.296 253.731 258.319 254.195 258.219 254.64C257.844 256.303 257.282 258.86 256.815 261.121C256.661 261.862 256.519 262.566 256.398 263.193C256.487 263.172 256.58 263.15 256.675 263.128C256.702 263.122 256.729 263.115 256.756 263.109C256.76 263.085 256.763 263.059 256.767 263.033C256.79 262.865 256.798 262.716 256.798 262.622C256.798 262.128 256.945 261.645 257.219 261.234L261.377 255.006L258.647 250.333C258.546 250.159 258.467 249.977 258.411 249.792ZM256.652 263.508C256.653 263.508 256.653 263.507 256.653 263.507C256.651 263.511 256.651 263.511 256.652 263.508ZM257.867 251.152C257.868 251.151 257.867 251.154 257.865 251.161C257.866 251.155 257.867 251.152 257.867 251.152ZM270.244 103.759C270.28 103.777 270.271 103.777 270.232 103.754C270.236 103.755 270.24 103.757 270.244 103.759ZM268.261 72.362C268.261 72.3617 268.262 72.3551 268.264 72.3428C268.263 72.3562 268.261 72.3623 268.261 72.362ZM266.511 66.6946C266.511 66.694 266.517 66.7003 266.53 66.7152C266.517 66.7026 266.511 66.6952 266.511 66.6946Z" />
</svg>
