<svg width="284" height="284" viewBox="0 0 284 284" fill="none" xmlns="http://www.w3.org/2000/svg">
<path fill-rule="evenodd" clip-rule="evenodd" d="M44.4445 57.9109C45.1869 58.3989 45.6145 59.2442 45.5679 60.1313L44.7597 75.4944C78.5221 76.2175 128.299 76.116 170.181 75.9887C173.081 75.9799 175.943 75.971 178.76 75.9622C196.794 75.9059 212.947 75.8555 225.122 75.8808C232.157 75.8955 237.88 75.9354 241.873 76.0147C243.866 76.0542 245.455 76.104 246.57 76.1671C247.12 76.1983 247.601 76.2352 247.975 76.2824C248.151 76.3047 248.378 76.3383 248.6 76.394C248.705 76.4203 248.895 76.4721 249.108 76.5677L249.117 76.5718C249.236 76.6242 249.872 76.906 250.289 77.6212C252.226 80.9429 254.889 83.2922 258.566 84.3434C259.863 84.714 261.036 85.2319 262.008 86.0264C263.016 86.8509 263.674 87.8652 264.085 89.0103C264.477 90.1017 264.634 91.2871 264.709 92.476C264.782 93.6511 264.782 94.9953 264.782 96.4425V96.502C264.782 99.3104 265.108 101.208 265.68 102.684C266.242 104.132 267.106 105.344 268.454 106.692C269.717 107.956 271.134 108.752 272.835 109.529C273.254 109.72 273.71 109.918 274.192 110.127C275.562 110.72 277.138 111.403 278.639 112.279C279.866 112.995 281.007 114.247 280.878 116.089C280.78 117.493 279.926 118.635 279.357 119.325C278.823 119.972 278.143 120.668 277.506 121.319C277.381 121.446 277.259 121.572 277.139 121.695C276.36 122.496 275.609 123.295 274.957 124.143C273.585 125.929 272.453 128.159 271.194 130.639L271.116 130.792C269.883 133.221 268.504 135.923 266.719 138.065C265.902 139.047 265.189 139.704 264.625 140.193C264.415 140.374 264.26 140.506 264.144 140.606C263.991 140.737 263.904 140.811 263.845 140.867C263.845 141.097 263.888 141.549 264.072 142.426C265.593 147.206 263.712 152.362 261.561 155.743C258.99 159.786 259.222 162.809 260.123 165.145C260.862 167.064 261.969 168.47 263.054 169.847C263.491 170.404 263.926 170.955 264.331 171.534C266.535 174.684 270.088 178.693 273.396 182.3C274.216 183.194 275.014 184.055 275.766 184.867C276.516 185.678 277.223 186.441 277.855 187.13C279.069 188.454 280.136 189.646 280.671 190.395C281.09 190.981 281.724 191.925 281.93 193.116C282.166 194.474 281.801 195.787 280.932 196.979C280.13 198.078 278.891 199.095 277.27 200.115C275.622 201.151 273.42 202.288 270.532 203.572C267.174 205.065 265.457 206.283 264.604 207.227C263.879 208.029 263.779 208.618 263.831 209.27C263.962 210.912 263.098 212.263 262.273 213.173C261.399 214.136 260.213 215.007 258.892 215.771C256.233 217.31 252.618 218.651 248.633 219.47C248.122 219.575 247.591 219.518 247.114 219.306C242.001 217.032 238.888 217.632 236.962 218.751C234.878 219.96 233.581 222.117 232.83 223.948C232.443 224.893 231.521 225.507 230.5 225.5L2.48275 223.927C1.80942 223.922 1.16643 223.646 0.699336 223.161C0.232237 222.676 -0.0194747 222.023 0.00117761 221.35L4.40427 77.8596C4.43256 76.9378 4.96611 76.1063 5.79239 75.6966L41.9606 57.7603C42.7565 57.3656 43.7021 57.4229 44.4445 57.9109ZM9.35597 79.5104L5.07735 218.944L228.925 220.489C229.988 218.431 231.716 216.015 234.451 214.426C237.931 212.407 242.535 212.007 248.38 214.409C251.625 213.672 254.429 212.577 256.388 211.444C257.451 210.828 258.165 210.26 258.569 209.813C258.717 209.651 258.795 209.538 258.833 209.473C258.725 207.568 259.267 205.676 260.894 203.875C262.449 202.154 264.926 200.593 268.5 199.003C271.273 197.77 273.239 196.743 274.608 195.882C276.004 195.004 276.632 194.388 276.892 194.032C276.933 193.977 276.96 193.934 276.978 193.904C276.938 193.816 276.839 193.632 276.602 193.3C276.284 192.855 275.458 191.915 274.169 190.508C273.582 189.868 272.927 189.161 272.221 188.398L272.097 188.265C271.346 187.453 270.54 186.583 269.711 185.679C266.424 182.095 262.653 177.858 260.234 174.4C260.064 174.158 259.81 173.836 259.501 173.445C258.366 172.009 256.501 169.65 255.457 166.944C253.992 163.144 253.91 158.457 257.342 153.06C259.173 150.181 260.192 146.596 259.281 143.864C259.252 143.776 259.228 143.687 259.209 143.597C258.966 142.462 258.805 141.435 258.855 140.52C258.914 139.452 259.256 138.571 259.878 137.806C260.259 137.338 260.791 136.888 261.154 136.581C261.227 136.519 261.293 136.463 261.35 136.414C261.787 136.036 262.288 135.573 262.877 134.865C264.238 133.232 265.375 131.056 266.658 128.529C266.714 128.419 266.77 128.308 266.827 128.196C268.009 125.864 269.329 123.261 270.994 121.096C271.833 120.004 272.756 119.031 273.554 118.21C273.702 118.057 273.844 117.913 273.979 117.774C274.582 117.156 275.061 116.666 275.438 116.218C274.457 115.694 273.498 115.278 272.461 114.829C271.919 114.594 271.356 114.35 270.757 114.077C268.842 113.202 266.799 112.109 264.917 110.227C263.24 108.548 261.902 106.771 261.019 104.492C260.146 102.241 259.782 99.6724 259.782 96.502C259.782 94.9825 259.781 93.7908 259.718 92.7891C259.655 91.7851 259.538 91.1415 259.379 90.6988C259.239 90.3099 259.072 90.085 258.842 89.8967C258.575 89.6783 258.097 89.4096 257.192 89.1508C252.491 87.807 249.052 84.9102 246.612 81.179C246.512 81.1724 246.404 81.1658 246.287 81.1591C245.267 81.1013 243.752 81.0529 241.774 81.0137C237.828 80.9354 232.143 80.8954 225.111 80.8808C212.951 80.8555 196.812 80.9059 178.776 80.9622C175.959 80.971 173.097 80.9799 170.196 80.9887C127.258 81.1192 75.919 81.2232 42.0697 80.4356C41.3941 80.4199 40.7537 80.1314 40.2943 79.6358C39.8349 79.1402 39.5958 78.4798 39.6313 77.805L40.3501 64.14L9.35597 79.5104ZM277.009 193.84C277.009 193.84 277.009 193.843 277.006 193.849C277.008 193.843 277.009 193.84 277.009 193.84Z" />
</svg>
