<svg width="227" height="285" viewBox="0 0 227 285" fill="none" xmlns="http://www.w3.org/2000/svg">
<path fill-rule="evenodd" clip-rule="evenodd" d="M181.634 183.5C185.098 185.166 187 183.156 187 187V275C187 278.723 184.932 282.137 181.634 283.862C178.335 285.587 174.351 285.337 171.294 283.213L114 235.5L49.3399 283.455C46.2592 285.401 42.364 285.517 39.173 283.758C35.9819 281.999 34 278.644 34 275V187C34 183.384 35.9522 180.05 39.1054 178.28C42.2587 176.51 46.2531 187.617 49.3399 189.5L76 204.817L111 212.809L150.5 207.807L172.5 194C175.502 191.599 178.169 181.835 181.634 183.5ZM42 194L68.2914 236.5L108.327 222.546C108.718 222.298 109.123 222.081 109.537 221.893C109.412 221.874 109.289 221.854 109.165 221.831L71.665 214.831C70.4712 214.608 69.328 214.169 68.2914 213.537L42 194ZM116.119 221.305C117.263 221.595 118.367 222.089 119.372 222.788L156.089 236.5L179 194L160.747 212.809C159.398 213.888 157.794 214.599 156.089 214.873L116.119 221.305Z" fill="#003168"/>
<circle cx="113.5" cy="113.5" r="103.5" stroke="#2583F0" stroke-width="20"/>
</svg>
