<svg width="53" height="52" viewBox="0 0 53 52" fill="none" xmlns="http://www.w3.org/2000/svg">
<path fill-rule="evenodd" clip-rule="evenodd" d="M26.2617 3.7959C25.4462 3.7959 24.7149 4.29766 24.4214 5.05844L22.6573 9.6308H19.611L19.5967 9.6309C18.7468 9.64305 18.0002 10.1983 17.7441 11.0088C17.488 11.8191 17.7801 12.7027 18.4684 13.2011L20.9292 14.9866L19.3319 18.6572L19.3294 18.6632C18.9989 19.4365 19.195 20.3343 19.8179 20.8993C20.4407 21.4643 21.3533 21.5724 22.0909 21.1683L26.2616 18.8222L30.4396 21.1636L30.4481 21.1683C31.1856 21.5723 32.0982 21.4643 32.721 20.8993C33.3439 20.3343 33.54 19.4365 33.2095 18.6632L31.6097 14.9866L34.0711 13.2006C34.7633 12.6991 35.0537 11.8089 34.7904 10.9957C34.5271 10.1823 33.7693 9.63117 32.9143 9.6308L29.8643 9.6308L28.102 5.05852C27.8085 4.2977 27.0771 3.7959 26.2617 3.7959ZM24.5232 10.3507L26.2617 5.84489L27.9982 10.3501C28.2956 11.1218 29.0373 11.6308 29.8643 11.6308H32.829L30.4351 13.3679C29.6756 13.919 29.4014 14.9241 29.7758 15.7846L31.3378 19.3743L27.2394 17.0775C26.631 16.7365 25.8889 16.7371 25.2811 17.079L21.2012 19.3741L22.7631 15.7846C23.1375 14.9241 22.8633 13.919 22.1038 13.3679L19.7099 11.6308H22.6573C23.4841 11.6308 24.2256 11.1221 24.5232 10.3507Z" />
<path fill-rule="evenodd" clip-rule="evenodd" d="M21.1523 25.2568C20.0478 25.2568 19.1523 26.1523 19.1523 27.2568V46.2035C19.1523 47.3081 20.0478 48.2035 21.1523 48.2035H31.3712C32.4758 48.2035 33.3712 47.3081 33.3712 46.2035V27.2568C33.3712 26.1523 32.4758 25.2568 31.3712 25.2568H21.1523ZM21.1523 27.2568L31.3712 27.2568V46.2035L21.1523 46.2035V27.2568Z" />
<path fill-rule="evenodd" clip-rule="evenodd" d="M4.5332 35.7305C3.42864 35.7305 2.5332 36.6259 2.5332 37.7305V46.2038C2.5332 47.3084 3.42863 48.2038 4.5332 48.2038H13.0065C14.1111 48.2038 15.0065 47.3084 15.0065 46.2038V37.7305C15.0065 36.6259 14.1111 35.7305 13.0065 35.7305H4.5332ZM4.5332 37.7305H13.0065L13.0065 46.2038L4.5332 46.2038V37.7305Z" />
<path fill-rule="evenodd" clip-rule="evenodd" d="M37.5176 42.9678C37.5176 41.8632 38.413 40.9678 39.5176 40.9678H47.9909C49.0955 40.9678 49.9909 41.8632 49.9909 42.9678V46.2044C49.9909 47.309 49.0955 48.2044 47.9909 48.2044H39.5176C38.413 48.2044 37.5176 47.309 37.5176 46.2044V42.9678ZM47.9909 42.9678H39.5176V46.2044L47.9909 46.2044L47.9909 42.9678Z" />
<path fill-rule="evenodd" clip-rule="evenodd" d="M4.2793 28.4149C4.2793 25.9346 6.29004 23.9238 8.77041 23.9238C11.2508 23.9238 13.2615 25.9346 13.2615 28.4149C13.2615 30.8953 11.2508 32.9061 8.77041 32.9061C6.29004 32.9061 4.2793 30.8953 4.2793 28.4149ZM8.77041 25.9238C7.39461 25.9238 6.2793 27.0391 6.2793 28.4149C6.2793 29.7907 7.39461 30.9061 8.77041 30.9061C10.1462 30.9061 11.2615 29.7907 11.2615 28.4149C11.2615 27.0391 10.1462 25.9238 8.77041 25.9238Z" />
<path fill-rule="evenodd" clip-rule="evenodd" d="M43.7528 29.4736C41.2725 29.4736 39.2617 31.4844 39.2617 33.9647C39.2617 36.4451 41.2725 38.4559 43.7528 38.4559C46.2332 38.4559 48.2439 36.4451 48.2439 33.9647C48.2439 31.4844 46.2332 29.4736 43.7528 29.4736ZM41.2617 33.9647C41.2617 32.5889 42.377 31.4736 43.7528 31.4736C45.1286 31.4736 46.2439 32.5889 46.2439 33.9647C46.2439 35.3406 45.1286 36.4559 43.7528 36.4559C42.377 36.4559 41.2617 35.3406 41.2617 33.9647Z" />
</svg>
