<svg width="202" height="228" viewBox="0 0 202 228" fill="none" xmlns="http://www.w3.org/2000/svg">
<path d="M70.2511 166.249C67.8026 164.091 65.4189 160.641 64.8683 156.859C64.3705 153.439 65.2425 148.953 70.795 143.944C78.2805 137.192 81.2937 130.146 81.6453 123.663C81.9877 117.351 79.7714 112.232 78.0025 109.196C76.6124 106.81 73.5513 106.002 71.1652 107.392C68.7792 108.782 67.9718 111.844 69.3618 114.23C70.5589 116.284 71.8596 119.44 71.66 123.122C71.4695 126.633 69.8815 131.301 64.0968 136.519C56.3794 143.481 53.9359 151.178 54.9726 158.299C55.9566 165.058 59.9576 170.507 63.6397 173.751C65.7115 175.577 68.8711 175.377 70.6967 173.306C72.5224 171.234 72.3229 168.074 70.2511 166.249Z" />
<path d="M96.8058 156.859C97.3564 160.641 99.7401 164.091 102.189 166.249C104.26 168.074 104.46 171.234 102.634 173.306C100.809 175.377 97.649 175.577 95.5772 173.751C91.8951 170.507 87.8941 165.058 86.9101 158.299C85.8734 151.178 88.3169 143.481 96.0343 136.519C101.819 131.301 103.407 126.633 103.597 123.122C103.797 119.44 102.496 116.284 101.299 114.23C99.9093 111.844 100.717 108.782 103.103 107.392C105.489 106.002 108.55 106.81 109.94 109.196C111.709 112.232 113.925 117.351 113.583 123.663C113.231 130.146 110.218 137.192 102.733 143.944C97.18 148.953 96.308 153.439 96.8058 156.859Z" />
<path d="M134.128 166.249C131.68 164.091 129.296 160.641 128.745 156.859C128.247 153.439 129.12 148.953 134.672 143.944C142.157 137.192 145.171 130.146 145.522 123.663C145.865 117.351 143.648 112.232 141.879 109.196C140.489 106.81 137.428 106.002 135.042 107.392C132.656 108.782 131.849 111.844 133.239 114.23C134.436 116.284 135.737 119.44 135.537 123.122C135.346 126.633 133.758 131.301 127.974 136.519C120.256 143.481 117.813 151.178 118.85 158.299C119.834 165.058 123.835 170.507 127.517 173.751C129.588 175.577 132.748 175.377 134.574 173.306C136.399 171.234 136.2 168.074 134.128 166.249Z" />
<path fill-rule="evenodd" clip-rule="evenodd" d="M180 192C180 200.284 173.284 207 165 207L37 207C28.7157 207 22 200.284 22 192L22 87C22 78.7157 28.7157 72 37 72L165 72C173.284 72 180 78.7157 180 87L180 192ZM165 197C167.761 197 170 194.761 170 192L170 87C170 84.2386 167.761 82 165 82L37 82C34.2386 82 32 84.2386 32 87L32 192C32 194.761 34.2386 197 37 197L165 197Z" />
<path d="M97.5 41C101.642 41 105 37.6421 105 33.5C105 29.3579 101.642 26 97.5 26C93.3579 26 90 29.3579 90 33.5C90 37.6421 93.3579 41 97.5 41Z" />
<path d="M130 33.5C130 37.6421 126.642 41 122.5 41C118.358 41 115 37.6421 115 33.5C115 29.3579 118.358 26 122.5 26C126.642 26 130 29.3579 130 33.5Z" />
<path d="M147 41C151.418 41 155 37.6421 155 33.5C155 29.3579 151.418 26 147 26C142.582 26 139 29.3579 139 33.5C139 37.6421 142.582 41 147 41Z" />
<path d="M171.5 41C175.642 41 179 37.6421 179 33.5C179 29.3579 175.642 26 171.5 26C167.358 26 164 29.3579 164 33.5C164 37.6421 167.358 41 171.5 41Z" />
<path fill-rule="evenodd" clip-rule="evenodd" d="M174.981 5.99999L187 5.99999C195.284 5.99999 202 12.7157 202 21L202 213C202 221.284 195.284 228 187 228L15 228C6.71574 228 2.24243e-05 221.284 2.14968e-05 213L0 21C-9.27528e-07 12.7157 6.71573 6 15 6L26.0189 6C26.2743 2.64378 29.0784 4.76454e-06 32.5 4.76454e-06L80.5 0C83.9216 -2.99127e-07 86.7257 2.64377 86.981 6L114.019 6C114.274 2.64378 117.078 4.76454e-06 120.5 4.76454e-06L168.5 0C171.922 -2.99127e-07 174.726 2.64377 174.981 5.99999ZM192 213C192 215.761 189.761 218 187 218L15 218C12.2386 218 10 215.761 10 213L10 60H192L192 213ZM192 50H10L10 21C10 18.2386 12.2386 16 15 16L187 16C189.761 16 192 18.2386 192 21V50Z" />
</svg>
