<svg width="344" height="58" viewBox="0 0 344 58" fill="none" xmlns="http://www.w3.org/2000/svg">
<path fill-rule="evenodd" clip-rule="evenodd" d="M33.7058 2.31525L39.3518 19.5885H57.6228C60.8881 19.5885 62.2458 23.7421 59.6041 25.65L44.8225 36.3254L50.4686 53.5987C51.4776 56.6857 47.9232 59.2528 45.2815 57.3449L30.5 46.6694L15.7184 57.3449C13.0768 59.2528 9.52238 56.6857 10.5314 53.5987L16.1775 36.3254L1.39593 25.65C-1.24575 23.7421 0.111871 19.5885 3.37719 19.5885H21.6482L27.2942 2.31525C28.3033 -0.77174 32.6967 -0.771761 33.7058 2.31525Z" fill="#FFB800"/>
<path fill-rule="evenodd" clip-rule="evenodd" d="M104.153 2.31525L109.707 19.5885H127.678C130.89 19.5885 132.225 23.7421 129.627 25.65L115.088 36.3254L120.641 53.5987C121.634 56.6857 118.138 59.2528 115.539 57.3449L101 46.6694L86.4608 57.3449C83.8624 59.2528 80.3663 56.6857 81.3588 53.5987L86.9123 36.3254L72.373 25.65C69.7747 23.7421 71.11 19.5885 74.3218 19.5885H92.2933L97.8468 2.31525C98.8393 -0.77174 103.161 -0.771761 104.153 2.31525Z" fill="#FFB800"/>
<path fill-rule="evenodd" clip-rule="evenodd" d="M175.153 2.31525L180.707 19.5885H198.678C201.89 19.5885 203.225 23.7421 200.627 25.65L186.088 36.3254L191.641 53.5987C192.634 56.6857 189.138 59.2528 186.539 57.3449L172 46.6694L157.461 57.3449C154.862 59.2528 151.366 56.6857 152.359 53.5987L157.912 36.3254L143.373 25.65C140.775 23.7421 142.11 19.5885 145.322 19.5885H163.293L168.847 2.31525C169.839 -0.77174 174.161 -0.771761 175.153 2.31525Z" fill="#FFB800"/>
<path fill-rule="evenodd" clip-rule="evenodd" d="M245.706 2.31525L251.352 19.5885H269.623C272.888 19.5885 274.246 23.7421 271.604 25.65L256.823 36.3254L262.469 53.5987C263.478 56.6857 259.923 59.2528 257.282 57.3449L242.5 46.6694L227.718 57.3449C225.077 59.2528 221.522 56.6857 222.531 53.5987L228.177 36.3254L213.396 25.65C210.754 23.7421 212.112 19.5885 215.377 19.5885H233.648L239.294 2.31525C240.303 -0.77174 244.697 -0.771761 245.706 2.31525Z" fill="#FFB800"/>
<path fill-rule="evenodd" clip-rule="evenodd" d="M316.706 2.31525L322.352 19.5885H340.623C343.888 19.5885 345.246 23.7421 342.604 25.65L327.823 36.3254L333.469 53.5987C334.478 56.6857 330.923 59.2528 328.282 57.3449L313.5 46.6694L298.718 57.3449C296.077 59.2528 292.522 56.6857 293.531 53.5987L299.177 36.3254L284.396 25.65C281.754 23.7421 283.112 19.5885 286.377 19.5885H304.648L310.294 2.31525C311.303 -0.77174 315.697 -0.771761 316.706 2.31525Z" fill="#FFB800"/>
</svg>
