<svg width="196" height="244" viewBox="0 0 196 244" fill="none" xmlns="http://www.w3.org/2000/svg">
<path d="M64.2511 200.249C61.8026 198.091 59.4189 194.641 58.8683 190.859C58.3705 187.439 59.2425 182.953 64.795 177.944C72.2805 171.192 75.2937 164.146 75.6453 157.663C75.9877 151.351 73.7714 146.232 72.0025 143.196C70.6124 140.81 67.5513 140.002 65.1652 141.392C62.7792 142.782 61.9718 145.844 63.3618 148.23C64.5589 150.285 65.8596 153.44 65.66 157.122C65.4695 160.633 63.8815 165.301 58.0968 170.519C50.3794 177.481 47.9359 185.178 48.9726 192.299C49.9566 199.058 53.9576 204.507 57.6397 207.751C59.7115 209.577 62.8711 209.377 64.6967 207.306C66.5224 205.234 66.3229 202.074 64.2511 200.249Z" />
<path d="M90.8058 190.859C91.3564 194.641 93.7401 198.091 96.1886 200.249C98.2604 202.074 98.4599 205.234 96.6342 207.306C94.8086 209.377 91.649 209.577 89.5772 207.751C85.8951 204.507 81.8941 199.058 80.9101 192.299C79.8734 185.178 82.3169 177.481 90.0343 170.519C95.819 165.301 97.407 160.633 97.5975 157.122C97.7971 153.44 96.4964 150.285 95.2993 148.23C93.9093 145.844 94.7167 142.782 97.1027 141.392C99.4888 140.002 102.55 140.81 103.94 143.196C105.709 146.232 107.925 151.351 107.583 157.663C107.231 164.146 104.218 171.192 96.7325 177.944C91.18 182.953 90.308 187.439 90.8058 190.859Z" />
<path d="M128.128 200.249C125.68 198.091 123.296 194.641 122.745 190.859C122.247 187.439 123.119 182.953 128.672 177.944C136.157 171.192 139.171 164.146 139.522 157.663C139.865 151.351 137.648 146.232 135.879 143.196C134.489 140.81 131.428 140.002 129.042 141.392C126.656 142.782 125.849 145.844 127.239 148.23C128.436 150.285 129.737 153.44 129.537 157.122C129.346 160.633 127.758 165.301 121.974 170.519C114.256 177.481 111.813 185.178 112.85 192.299C113.834 199.058 117.835 204.507 121.517 207.751C123.588 209.577 126.748 209.377 128.574 207.306C130.399 205.234 130.2 202.074 128.128 200.249Z" />
<path d="M72 82C69.2386 82 67 84.2386 67 87C67 89.7614 69.2386 92 72 92L169 92C171.761 92 174 89.7615 174 87C174 84.2386 171.761 82 169 82L72 82Z" />
<path d="M24 87C24 84.2386 26.2386 82 29 82H42C44.7614 82 47 84.2386 47 87C47 89.7614 44.7614 92 42 92H29C26.2386 92 24 89.7614 24 87Z" />
<path d="M166.5 36C170.642 36 174 32.6421 174 28.5C174 24.3579 170.642 21 166.5 21C162.358 21 159 24.3579 159 28.5C159 32.6421 162.358 36 166.5 36Z" />
<path d="M150 28.5C150 32.6421 146.418 36 142 36C137.582 36 134 32.6421 134 28.5C134 24.3579 137.582 21 142 21C146.418 21 150 24.3579 150 28.5Z" />
<path d="M117.5 36C121.642 36 125 32.6421 125 28.5C125 24.3579 121.642 21 117.5 21C113.358 21 110 24.3579 110 28.5C110 32.6421 113.358 36 117.5 36Z" />
<path fill-rule="evenodd" clip-rule="evenodd" d="M196 229C196 237.284 189.284 244 181 244L15 244C6.71575 244 2.19328e-05 237.284 2.11154e-05 229L0 15C-8.17411e-07 6.71574 6.71573 1.40969e-05 15 1.40969e-05L181 0C189.284 -6.41679e-07 196 6.71573 196 15L196 229ZM181 234C183.761 234 186 231.761 186 229V116L10 116L10 229C10 231.761 12.2386 234 15 234L181 234ZM10 106L186 106L186 68H10L10 106ZM86.981 58H108.019C108.006 57.835 108 57.6683 108 57.5C108 53.9102 110.91 51 114.5 51L162.5 51C166.09 51 169 53.9102 169 57.5C169 57.6682 168.994 57.835 168.981 58H186V15C186 12.2386 183.761 10 181 10L15 10C12.2386 10 10 12.2386 10 15L10 58H26.0189C26.0064 57.835 26 57.6683 26 57.5C26 53.9102 28.9101 51 32.5 51L80.5 51C84.0898 51 87 53.9102 87 57.5C87 57.6682 86.9936 57.835 86.981 58Z" />
</svg>
