<svg width="349" height="399" viewBox="0 0 349 399" fill="none" xmlns="http://www.w3.org/2000/svg">
<path d="M254.339 262.801C256.202 262.702 258.002 262.086 259.538 261.022C261.073 259.958 262.283 258.488 263.034 256.776C263.673 254.597 261.372 253.828 260.602 256.263C259.959 257.596 258.988 258.743 257.78 259.595C256.573 260.447 255.168 260.977 253.699 261.135C253.188 261.263 252.165 262.843 254.339 262.801Z" fill="#282732"/>
<path d="M258.174 244.345C257.421 241.521 253.568 244.089 255.872 246.78C256.512 247.549 258.957 247.288 258.174 244.345Z" fill="#282732"/>
<path d="M252.676 232.427C250.883 232.933 250.886 234.99 253.185 234.99C255.756 234.8 258.337 235.198 260.732 236.155C260.897 236.211 261.076 236.208 261.239 236.147C261.402 236.087 261.54 235.973 261.629 235.823C261.719 235.673 261.754 235.498 261.73 235.325C261.706 235.152 261.624 234.993 261.497 234.874C260.29 233.852 258.876 233.105 257.354 232.683C255.831 232.26 254.235 232.173 252.676 232.427Z" fill="#282732"/>
<path d="M245.77 238.825C244.062 237.857 242.048 237.582 240.143 238.056C238.981 238.441 239.12 239.722 240.271 239.851C241.774 239.903 243.251 240.251 244.619 240.876C246.151 241.526 246.528 239.485 245.77 238.825Z" fill="#282732"/>
<path d="M247.813 247.679C247.45 250.528 247.408 253.409 247.686 256.268C248.199 259.599 255.742 257.165 254.593 255.371C253.954 254.345 251.396 256.536 249.732 255.755C249.288 253.087 249.117 250.381 249.222 247.679C249.222 247.492 249.148 247.312 249.016 247.18C248.884 247.048 248.705 246.973 248.518 246.973C248.331 246.973 248.152 247.048 248.02 247.18C247.888 247.312 247.813 247.492 247.813 247.679Z" fill="#282732"/>
<path d="M245.256 248.574C247.17 247.409 245.386 243.448 243.724 244.73C242.443 245.498 242.948 249.974 245.256 248.574Z" fill="#282732"/>
<path d="M232.341 258.956C234.131 264.851 238.479 272.54 243.466 276.129C245.768 277.795 246.919 276.129 244.628 273.95C239.712 269.799 236.002 264.397 233.887 258.313C233.802 258.108 233.639 257.945 233.434 257.86C233.228 257.775 232.998 257.775 232.793 257.86C232.588 257.945 232.425 258.109 232.34 258.314C232.256 258.52 232.256 258.751 232.341 258.956Z" fill="#282732"/>
<path d="M273.902 265.108C274.528 264.579 274.03 263.57 273.263 263.943C266.102 267.018 261.115 278.167 264.567 286.115C265.079 287.14 266.486 286.756 266.23 285.6C264.312 275.744 266.839 271.077 273.902 265.108Z" fill="#282732"/>
<path d="M231.191 267.543C232.195 270.746 233.833 273.714 236.009 276.268C238.184 278.823 240.851 280.911 243.85 282.408C245.513 283.177 247.175 281.895 244.618 280.23C239.355 277.208 235.189 272.584 232.725 267.03C232.086 266.005 230.907 266.396 231.191 267.543Z" fill="#282732"/>
<path d="M236.689 258.7C239.566 264.663 244.395 269.457 250.372 272.284C258.683 276.001 260.348 270.234 267.509 265.492C268.276 264.98 267.891 263.954 266.995 264.211C260.602 265.748 259.962 274.206 251.011 269.849C245.789 266.941 241.389 262.752 238.223 257.675C238.075 257.505 237.87 257.394 237.646 257.365C237.422 257.335 237.195 257.387 237.007 257.513C236.82 257.638 236.684 257.828 236.625 258.047C236.567 258.265 236.589 258.497 236.689 258.7Z" fill="#282732"/>
<path d="M247.814 292.415C248.456 293.438 250.118 292.543 249.604 291.518C247.175 284.98 237.456 283.571 234.004 277.804C233.364 276.779 232.213 277.804 232.609 278.829C236.177 285.612 243.478 285.477 247.814 292.415Z" fill="#282732"/>
<path d="M235.794 238.706C236.263 244.989 237.509 251.188 239.502 257.162C239.758 258.059 241.42 257.675 241.165 256.65C238.468 247.99 237.384 238.907 237.968 229.855C238.873 230.185 239.836 230.322 240.797 230.259C241.757 230.195 242.694 229.932 243.548 229.486C244.402 229.04 245.154 228.421 245.756 227.668C246.359 226.916 246.798 226.045 247.047 225.113C250.502 230.239 260.732 229.727 263.929 225.113C263.033 232.162 271.217 244.592 272.88 242.285C273.647 241.12 274.414 239.851 275.821 239.466C281.064 237.8 281.959 247.796 278.762 249.205C277.367 249.846 274.542 248.04 276.205 252.537C278.412 258.408 280.291 264.398 281.831 270.478C282.087 271.632 283.493 271.119 283.493 269.966C282.368 263.75 280.655 257.657 278.378 251.766C279.568 251.614 280.67 251.062 281.507 250.201C282.343 249.34 282.863 248.22 282.982 247.025C284.478 246.48 285.814 245.569 286.868 244.374C287.922 243.179 288.661 241.739 289.017 240.184C289.373 238.63 289.336 237.011 288.907 235.475C288.479 233.939 287.674 232.534 286.565 231.39C293.47 224.47 292.191 213.063 281.575 213.191C282.234 211.092 282.243 208.843 281.602 206.738C280.961 204.634 279.7 202.773 277.984 201.401C276.269 200.028 274.179 199.208 271.989 199.048C269.8 198.888 267.613 199.395 265.717 200.504C261.88 190.124 246.152 193.199 245.768 202.426C235.794 194.224 222.876 207.039 230.549 216.907C221.855 217.047 221.088 237.809 235.794 238.706Z" fill="#282732"/>
<path d="M253.315 299.582C254.081 300.441 255.09 301.046 256.208 301.314C257.325 301.582 258.498 301.502 259.569 301.084C260.64 300.666 261.558 299.93 262.2 298.974C262.842 298.019 263.177 296.89 263.161 295.738C265.277 294.909 267.329 293.924 269.299 292.791C269.013 291.049 268.359 289.389 267.381 287.921C265.39 288.437 263.461 289.167 261.627 290.099C260.887 289.181 259.876 288.523 258.738 288.22C257.601 287.916 256.396 287.984 255.299 288.412C254.202 288.84 253.27 289.607 252.637 290.601C252.004 291.596 251.703 292.767 251.778 293.944C250.499 294.713 249.093 295.61 248.581 295.994C248.518 297.765 249.005 299.511 249.976 300.992C251.011 300.608 252.28 300.104 253.315 299.582ZM254.463 293.944C254.868 289.459 260.741 289.971 260.22 295.61C259.836 300.223 253.98 299.329 254.463 293.944Z" fill="#282732"/>
<path d="M225.311 342.9C224.927 336.492 224.671 321.368 226.334 315.729C226.589 314.704 227.868 314.448 227.729 316.627C227.298 325.339 227.384 334.069 227.984 342.771C237.64 342.46 247.306 342.931 256.886 344.181C252.792 333.416 247.038 299.967 246.398 295.61C245.759 291.253 237.063 288.303 232.448 283.818C221.707 287.662 206.743 299.711 195.106 316.114C199.387 325.465 202.894 335.152 205.592 345.078C212.119 343.986 218.702 343.258 225.311 342.9Z" fill="#282732"/>
<path d="M285.54 272.797C280.297 278.307 275.821 280.998 267.893 281.126C269.555 292.543 279.532 309.194 288.227 321.37C289.586 318.473 290.574 315.415 291.166 312.269C291.424 310.475 292.561 311.116 292.561 312.141C292.352 316.185 291.489 320.167 290.004 323.933C300.492 338.286 314.184 352.126 319.299 369.557C325.053 362.252 347.562 322.258 331.961 295.738C322.756 279.717 302.677 271.515 285.54 272.797Z" fill="#282732"/>
<path d="M304.339 388.644C313.421 388.772 317.638 388.772 325.311 388.772C329.277 378.905 333.369 359.554 334.776 343.533C326.59 370.069 314.186 382.628 304.339 388.644Z" fill="#282732"/>
<path d="M269.426 380.706C254.991 382.075 240.7 384.691 226.714 388.523C235.026 388.395 264.951 388.139 275.437 388.395C272.722 386.481 270.631 383.806 269.426 380.706Z" fill="#282732"/>
<path d="M267.393 377.502C268.93 377.269 268.671 374.939 267.137 375.196C230.144 380.398 223.999 384.839 208.182 386.216C206.008 386.345 204.229 388.651 207.159 388.651C216.624 388.651 232.225 383.782 242.455 381.859C251.397 380.065 258.444 378.889 267.393 377.502Z" fill="#282732"/>
<path d="M210.216 346.744C204.585 347.872 205.996 349.691 208.042 349.179C222.622 346.103 242.315 346.744 256.895 349.179C258.302 349.435 258.941 347.257 257.535 347C243.082 344.565 224.654 343.857 210.216 346.744Z" fill="#282732"/>
<path d="M300.248 343.412C300.882 343.932 302.166 343.156 301.643 342.247C289.559 327.838 278.814 312.352 269.544 295.983C269.032 295.086 267.498 295.983 267.881 296.88C272.752 306.628 291.871 336.569 300.248 343.412Z" fill="#282732"/>
<path d="M316.104 370.582C316.616 369.301 314.942 368.275 314.314 369.417C310.478 376.209 305.874 383.001 298.458 386.333C290.913 389.793 282.599 388.768 277.1 382.232C265.208 368.136 256.512 323.283 253.313 302.903C253.057 301.621 251.267 302.134 251.523 303.415C254.208 322.894 262.915 368.776 275.566 383.77C285.254 395.341 305.7 392.479 316.104 370.582Z" fill="#282732"/>
<path d="M125.431 319.443C126.326 318.936 125.687 317.906 124.664 318.045C120.06 318.943 116.991 320.224 115.582 324.84C114.161 329.044 113.81 333.537 114.559 337.911C114.815 339.076 116.477 338.808 116.605 337.655C116.733 332.657 115.966 331.632 117.628 326.121C119.035 320.984 121.346 321.773 125.431 319.443Z" fill="#282732"/>
<path d="M127.093 299.839C126.952 302.618 127.038 305.403 127.348 308.168C127.476 309.194 129.267 309.065 129.394 308.168C129.452 305.386 129.324 302.604 129.011 299.839C128.881 298.939 127.114 298.939 127.093 299.839Z" fill="#282732"/>
<path d="M136.812 298.814C140.227 296.95 145.647 293.303 147.937 288.816C148.576 287.534 148.451 287.15 147.553 285.996C146.423 284.715 145.087 283.633 143.601 282.792C142.069 282.024 141.939 282.536 140.79 283.305C133.243 288.559 121.725 287.534 113.804 283.433C113.164 283.049 111.374 284.074 113.036 284.971C122.885 289.971 133.496 290.868 142.578 284.458C144.041 285.389 145.375 286.509 146.544 287.79C143.516 292.104 139.416 295.55 134.65 297.788C132.859 295.61 131.069 293.559 129.279 291.381C126.58 288.378 125.473 293.783 121.093 298.173C116.66 295.979 112.425 293.406 108.433 290.484C109.712 289.2 110.863 287.921 112.141 286.637C112.909 285.996 111.886 284.715 110.979 285.239C109.631 286.218 108.388 287.334 107.27 288.571C106.812 289.1 106.582 289.789 106.63 290.488C106.678 291.187 107 291.838 107.526 292.299C109.572 294.221 119.93 300.885 121.595 300.116C124.408 298.718 125.943 294.99 127.861 292.683C129.651 294.477 132.081 298.066 133.487 299.475C134.382 300.48 135.907 299.308 136.812 298.814Z" fill="#282732"/>
<path d="M150.368 247.293C150.832 245.321 151.004 243.291 150.878 241.27C150.622 239.091 148.578 238.963 148.704 241.398C148.959 244.601 147.811 248.318 148.195 249.087C149.09 251.268 152.287 247.689 153.819 249.986C155.993 253.574 151.261 260.366 148.32 258.572C147.555 258.06 146.925 258.444 146.402 260.11C145.62 262.354 144.591 264.503 143.333 266.517C136.428 276.641 122.489 279.204 114.817 270.478C112.112 266.968 110.351 262.82 109.702 258.432C109.682 258.144 109.587 257.865 109.427 257.625C109.267 257.384 109.046 257.189 108.788 257.06C108.53 256.93 108.243 256.871 107.954 256.887C107.666 256.903 107.387 256.994 107.144 257.151C104.459 259.201 102.029 256.126 101.774 252.281C101.39 247.025 104.587 246.64 106.889 248.434C107.032 248.551 107.208 248.619 107.392 248.63C107.576 248.64 107.759 248.593 107.914 248.494C108.07 248.394 108.19 248.249 108.259 248.077C108.327 247.905 108.34 247.717 108.295 247.537C108.167 246.372 107.528 239.848 107.528 238.439C107.4 237.157 105.866 237.67 105.866 238.823C105.993 241.13 106.121 243.565 106.377 245.743C105.672 245.4 104.894 245.235 104.11 245.262C103.327 245.288 102.561 245.506 101.881 245.897C101.201 246.287 100.626 246.838 100.206 247.501C99.7859 248.165 99.534 248.921 99.4719 249.704C98.4489 256.627 103.308 262.009 107.784 259.446C109.062 265.084 111.236 270.851 115.97 274.311C115.712 276.618 115.586 278.925 115.331 281.231C115.203 283.282 116.609 283.538 117.121 282.513C117.466 280.177 117.68 277.824 117.76 275.465C120.894 277.101 124.408 277.869 127.938 277.689C131.467 277.509 134.885 276.387 137.837 274.439C137.965 276.746 137.837 279.181 138.092 281.488C138.095 281.634 138.128 281.777 138.189 281.909C138.251 282.042 138.34 282.159 138.45 282.255C138.559 282.351 138.688 282.422 138.828 282.464C138.967 282.507 139.113 282.519 139.258 282.501C139.402 282.483 139.541 282.435 139.666 282.359C139.79 282.284 139.898 282.183 139.981 282.063C140.064 281.943 140.121 281.807 140.148 281.664C140.175 281.521 140.172 281.373 140.138 281.231C139.755 277.387 140.011 274.952 139.883 273.03C143.755 269.953 146.572 265.742 147.941 260.984C148.716 261.168 149.522 261.172 150.298 260.994C151.074 260.817 151.799 260.462 152.417 259.958C158.425 255.881 157.911 244.986 150.368 247.293Z" fill="#282732"/>
<path d="M118.526 236.015C117.232 235.99 115.948 236.24 114.757 236.748C113.566 237.256 112.497 238.011 111.618 238.963C110.851 239.732 111.362 241.398 112.897 240.629C114.549 239.44 116.497 238.73 118.526 238.578C120.827 238.322 120.453 236.153 118.526 236.015Z" fill="#282732"/>
<path d="M149.599 316.37C149.241 313.255 148.071 310.29 146.208 307.771C144.346 305.252 141.855 303.268 138.986 302.017C137.591 301.505 137.451 302.914 138.474 303.415C144.996 306.875 147.553 313.539 147.811 320.59C148.065 326.356 145.379 335.327 152.157 338.531C153.319 339.043 154.205 337.133 153.052 336.608C147.297 333.929 150.952 325.094 149.599 316.37Z" fill="#282732"/>
<path d="M120.186 304.196C120.811 303.415 120.058 302.402 119.162 303.031C114.194 307.294 110.554 312.899 108.677 319.178C107.782 322.512 108.037 325.972 107.27 329.176C106.375 332.892 103.178 334.302 100.237 336.352C99.214 336.993 100.109 338.787 101.26 338.274C104.127 337.1 106.577 335.091 108.293 332.508C110.979 327.894 108.293 322.127 113.792 312.514C115.713 309.585 117.85 306.804 120.186 304.196Z" fill="#282732"/>
<path d="M112.513 332.007C112.952 328.046 112.641 323.931 114.815 320.343C115.794 318.861 117.075 317.603 118.574 316.653C120.073 315.704 121.756 315.083 123.512 314.832C125.047 314.576 124.907 313.038 123.512 313.038C121.485 313.105 119.502 313.651 117.724 314.631C115.947 315.61 114.425 316.997 113.282 318.677C111.076 322.701 110.224 327.33 110.853 331.878C110.85 332.775 112.399 333.032 112.513 332.007Z" fill="#282732"/>
<path d="M128.125 330.86C127.66 334.199 128.381 383.789 128.509 386.48C128.509 387.89 130.811 387.761 130.811 386.352C130.811 372.139 130.171 346.495 129.915 330.989C129.778 330.213 128.258 329.828 128.125 330.86Z" fill="#282732"/>
<path d="M141.799 354.433C140.333 353.88 139.027 352.969 138 351.784C136.973 350.598 136.257 349.174 135.917 347.641C134.51 340.849 141.543 334.313 137.963 327.265C137.337 325.947 136.298 324.87 135.005 324.197C133.712 323.524 132.236 323.292 130.799 323.537C130.613 323.537 130.434 323.611 130.302 323.744C130.17 323.876 130.096 324.055 130.096 324.242C130.096 324.429 130.17 324.608 130.302 324.74C130.434 324.873 130.613 324.947 130.799 324.947C131.629 324.978 132.444 325.178 133.194 325.534C133.945 325.89 134.615 326.395 135.165 327.018C135.715 327.641 136.134 328.37 136.395 329.159C136.656 329.949 136.754 330.784 136.684 331.613C136.684 335.329 134.638 338.789 133.871 342.378C133.09 345.199 133.393 348.211 134.718 350.82C136.044 353.429 138.296 355.446 141.032 356.474C142.438 357.124 143.201 354.964 141.799 354.433Z" fill="#282732"/>
<path d="M99.2138 339.44C99.0789 338.414 99.2137 334.954 97.4235 335.478C95.8544 335.769 94.314 336.198 92.82 336.76C90.774 337.657 89.751 339.964 92.5642 339.195C93.843 338.81 95.2496 338.426 96.5167 338.03C97.1681 346.335 100.488 354.204 105.979 360.458C98.488 366.872 90.3896 372.538 81.7995 377.374C79.3699 378.784 80.0092 380.962 82.0552 379.809C91.3496 374.948 99.9876 368.919 107.76 361.868C108.144 361.484 108.656 360.971 108.144 360.202C103.561 353.023 100.309 347.776 99.2138 339.44Z" fill="#282732"/>
<path d="M208.043 368.019C206.627 354.563 197.046 328.29 191.675 316.626C183.488 299.07 170.573 292.662 152.415 288.687C152.177 288.636 151.929 288.681 151.725 288.814C151.52 288.946 151.377 289.154 151.326 289.392C151.274 289.63 151.32 289.879 151.452 290.084C151.584 290.289 151.791 290.432 152.029 290.484C167.76 295.994 179.396 298.044 187.966 314.32C194.104 325.984 207.659 361.74 205.741 375.452C204.207 386.088 198.58 385.576 191.163 386.088C177.862 386.985 155.1 369.172 145.635 360.458C152.029 355.971 156.123 345.719 157.274 338.542C167.455 341.342 177.283 345.298 186.569 350.332C187.85 350.973 188.873 349.307 187.594 348.666C181.681 345.342 175.524 342.472 169.178 340.08C168.626 337.022 167.306 334.155 165.342 331.75C164.319 330.853 163.807 332.007 164.191 332.647C165.44 334.678 166.387 336.879 167.004 339.183C163.975 338.021 160.852 337.12 157.669 336.492C155.24 336.107 155.24 336.492 154.856 338.542C150.634 358.92 141.043 358.405 143.729 361.355C153.194 371.992 175.955 388.01 190.791 388.267C204.718 388.644 209.568 382.502 208.043 368.019Z" fill="#282732"/>
<path d="M143.078 327.265C142.919 325.392 142.218 323.607 141.062 322.127C139.906 320.647 138.344 319.537 136.568 318.933C134.378 318.508 132.147 318.336 129.918 318.421C128.893 318.421 128.893 319.702 129.79 319.961C133.499 320.986 136.568 319.574 139.253 323.421C142.194 327.522 140.532 331.494 141.043 333.929C141.113 334.121 141.237 334.288 141.4 334.411C141.563 334.533 141.757 334.606 141.961 334.619C142.164 334.633 142.367 334.587 142.544 334.487C142.722 334.387 142.867 334.238 142.961 334.057C143.393 331.817 143.432 329.519 143.078 327.265Z" fill="#282732"/>
<path d="M126.581 322.78C125.107 323.249 123.751 324.029 122.603 325.068C121.456 326.107 120.544 327.381 119.929 328.803C114.559 340.08 129.267 348.41 108.037 356.229C107.777 356.307 107.556 356.483 107.422 356.719C107.287 356.956 107.249 357.235 107.315 357.5C107.381 357.764 107.546 357.992 107.775 358.138C108.005 358.283 108.282 358.334 108.549 358.28C111.934 357.481 115.087 355.9 117.756 353.664C129.65 343.668 112.641 334.057 127.221 324.19C127.988 323.549 127.607 322.538 126.581 322.78Z" fill="#282732"/>
<path d="M115.455 247.421C117.101 248.851 119.175 244.345 116.991 243.192C115.071 242.166 114.292 246.409 115.455 247.421Z" fill="#282732"/>
<path d="M141.287 318.164C144.582 321.277 144.356 325.853 144.484 330.085C144.484 331.11 146.018 330.982 146.274 330.085C146.914 325.471 146.402 319.958 142.822 316.498C138.985 312.91 133.103 312.398 128.244 313.166C128.133 313.171 128.025 313.2 127.926 313.25C127.827 313.3 127.739 313.37 127.67 313.457C127.6 313.543 127.549 313.643 127.521 313.751C127.493 313.858 127.488 313.97 127.506 314.08C127.524 314.19 127.565 314.294 127.627 314.386C127.688 314.479 127.769 314.557 127.862 314.616C127.956 314.675 128.062 314.714 128.172 314.729C128.281 314.744 128.393 314.736 128.5 314.704C132.847 314.704 137.8 314.87 141.287 318.164Z" fill="#282732"/>
<path d="M97.5514 244.217C98.7 245.244 99.9811 243.448 98.9581 242.423C91.5413 234.99 91.5413 223.711 96.6563 214.996C111.362 189.62 155.1 194.749 164.179 220.891C165.753 225.071 165.917 229.651 164.647 233.933C163.377 238.215 160.742 241.962 157.146 244.601C156.379 245.242 157.018 246.652 158.041 246.139C168.271 241.013 170.061 227.557 165.841 217.946C153.31 189.366 104.585 187.829 92.6922 217.946C89.1117 226.788 90.2509 237.693 97.5514 244.217Z" fill="#282732"/>
<path d="M101.515 236.528C109.306 237.399 118.909 231.915 122.745 225.251C122.862 225.063 122.903 224.839 122.861 224.622C122.819 224.405 122.696 224.212 122.518 224.082C122.34 223.952 122.119 223.895 121.9 223.921C121.681 223.948 121.48 224.057 121.338 224.226C115.584 231.274 110.339 233.581 101.515 234.606C101.288 234.643 101.081 234.76 100.932 234.936C100.783 235.112 100.701 235.336 100.701 235.567C100.701 235.798 100.783 236.021 100.932 236.197C101.081 236.373 101.288 236.491 101.515 236.528Z" fill="#282732"/>
<path d="M126.07 256.265C126.967 255.627 126.965 254.728 126.07 254.343C125.43 254.087 121.978 254.984 121.722 254.343C121.211 253.062 123.129 247.549 123.512 244.858C123.768 242.935 122.873 242.935 121.978 244.473C121.083 246.011 118.258 253.83 119.546 256.137C120.827 258.059 124.796 257.167 126.07 256.265Z" fill="#282732"/>
<path d="M74.2763 309.962C82.0651 299.06 90.6467 294.584 103.434 290.612C104.713 290.227 104.329 288.177 103.051 288.561C88.3449 292.918 80.798 297.019 71.8467 309.45C70.568 310.988 72.9953 311.754 74.2763 309.962Z" fill="#282732"/>
<path d="M153.7 237.681C153.887 237.625 154.048 237.507 154.158 237.346C154.269 237.185 154.32 236.991 154.306 236.797C154.291 236.602 154.21 236.419 154.076 236.276C153.943 236.134 153.765 236.042 153.572 236.015C145.642 235.887 136.051 234.734 130.041 228.967C124.414 223.585 121.601 214.227 121.206 206.667C121.078 205.385 119.16 205.269 119.288 206.538C119.416 214.484 123.008 224.866 128.751 230.377C134.493 235.887 145.879 238.884 153.7 237.681Z" fill="#282732"/>
<path d="M122.617 263.57C126.763 265.776 131.952 264.467 133.359 260.494C133.614 259.597 132.591 258.828 131.952 259.597C128.232 263.954 125.047 262.16 123.117 262.288C122.106 262.16 121.859 263.167 122.617 263.57Z" fill="#282732"/>
<path d="M139.114 241.91C138.146 239.114 132.72 236.015 130.162 236.912C129.139 237.297 128.756 239.347 130.162 239.604C133.004 239.974 135.673 241.178 137.835 243.064C138.474 243.576 139.472 242.945 139.114 241.91Z" fill="#282732"/>
<path d="M130.929 248.318C133.364 247.833 133.231 243.32 131.313 243.832C129.52 244.217 128.886 248.725 130.929 248.318Z" fill="#282732"/>
<path d="M201.521 167.322C202.802 166.945 204.079 166.553 205.358 166.157C204.59 169.361 203.695 172.565 202.928 175.769C201.649 180.382 203.439 180.766 204.462 179.101C207.659 174.103 210.984 168.977 214.437 164.107C219.17 157.315 220.319 157.956 211.623 158.212C213.158 155.262 214.692 152.315 216.099 149.358C217.506 146.401 208.043 149.743 207.148 150.511C206.968 150.626 206.838 150.804 206.781 151.01C206.724 151.216 206.746 151.435 206.841 151.626C206.936 151.817 207.099 151.966 207.297 152.044C207.495 152.122 207.716 152.124 207.915 152.049C208.938 151.793 211.112 150.768 213.542 150.255L209.322 158.715C209.066 159.356 209.322 160.125 210.089 160.125C211.751 160.125 213.542 159.997 215.204 159.997C212.007 164.61 208.81 169.352 205.613 173.965L208.299 164.738C208.366 164.554 208.382 164.355 208.345 164.162C208.307 163.969 208.218 163.79 208.086 163.645C207.954 163.5 207.785 163.393 207.597 163.338C207.409 163.282 207.209 163.279 207.02 163.329C205.741 163.713 204.335 164.226 203.067 164.61C203.835 160.894 204.858 157.178 205.753 153.331C206.009 152.306 204.474 152.049 204.09 152.946C202.602 157.13 201.406 161.412 200.51 165.761C200.115 166.553 200.628 167.583 201.521 167.322Z" fill="#282732"/>
<path d="M47.0364 264.222C47.6781 264.735 48.7012 264.222 48.3175 263.453C47.4201 260.89 46.6528 258.327 48.5733 255.636C49.3592 254.581 50.4175 253.76 51.6344 253.263C52.8512 252.766 54.1803 252.611 55.4785 252.815C55.6884 252.814 55.8923 252.744 56.0596 252.617C56.2269 252.49 56.3485 252.312 56.4061 252.11C56.4638 251.908 56.4544 251.692 56.3794 251.496C56.3043 251.299 56.1677 251.132 55.99 251.02C52.4095 249.355 45.3741 252.43 45.3741 259.224C45.2742 260.128 45.3711 261.043 45.6581 261.906C45.9451 262.769 46.4153 263.559 47.0364 264.222Z" fill="#282732"/>
<path d="M42.1769 279.333C42.1898 279.613 42.31 279.877 42.5124 280.071C42.7148 280.264 42.984 280.373 43.2638 280.373C43.5437 280.373 43.8128 280.264 44.0152 280.071C44.2177 279.877 44.3378 279.613 44.3508 279.333C44.627 276.972 44.4535 274.58 43.8393 272.284C42.5605 267.799 38.3406 266.133 38.4685 261.648C38.5964 258.957 39.1079 256.265 39.2358 253.702C39.2331 253.493 39.1523 253.292 39.0093 253.139C38.8663 252.987 38.6714 252.893 38.463 252.877C38.2546 252.861 38.0478 252.924 37.8831 253.053C37.7185 253.182 37.608 253.368 37.5734 253.574C37.0619 256.137 36.5504 258.7 36.2946 261.263C35.7831 266.902 39.6194 268.44 41.1539 272.028C42.1864 274.314 42.5415 276.85 42.1769 279.333Z" fill="#282732"/>
<path d="M43.5837 231.53L45.5019 250.368C45.6297 251.137 47.0364 251.137 47.1642 250.24C47.8036 245.499 46.1412 236.144 45.1182 231.134C44.9903 230.377 43.4559 230.633 43.5837 231.53Z" fill="#282732"/>
<path d="M56.501 266.133C56.9985 267.165 58.2912 266.389 58.0355 265.492C57.6519 263.314 56.7568 260.751 60.9766 260.751C64.4293 260.751 64.9291 263.826 64.8129 266.646C64.5571 271.9 60.0815 276.385 60.0815 281.127C60.0861 281.394 60.1874 281.652 60.3668 281.85C60.5461 282.049 60.7912 282.175 61.0567 282.207C61.3221 282.238 61.5899 282.172 61.8103 282.02C62.0308 281.869 62.1889 281.642 62.2554 281.383C63.5341 276.129 64.0456 276.641 65.8359 272.284C67.3826 269.038 67.6118 265.317 66.4753 261.904C63.9178 256.137 52.4322 257.724 56.501 266.133Z" fill="#282732"/>
<path d="M50.7474 259.469C50.5005 261.368 50.8585 263.297 51.7704 264.979C51.8743 265.131 52.0282 265.241 52.2049 265.29C52.3817 265.338 52.57 265.323 52.7366 265.247C52.9033 265.17 53.0377 265.037 53.1161 264.871C53.1945 264.705 53.212 264.516 53.1654 264.339C52.6539 261.648 52.1424 258.444 54.6999 257.034C55.8255 256.344 57.1056 255.947 58.4234 255.88C59.7412 255.813 61.0549 256.078 62.2445 256.65C63.1397 257.162 63.9069 255.753 63.2675 255.112C61.1053 252.421 51.5147 253.446 50.7474 259.469Z" fill="#282732"/>
<path d="M-7.05728 237.938C-7.82453 238.066 -8.59177 238.194 -9.23114 238.322C-10.382 234.734 -13.8346 231.018 -18.0545 232.555C-22.5301 234.221 -22.6603 239.091 -22.4023 241.27C-26.1223 241.654 -29.9492 242.167 -33.6576 242.551C-33.8678 242.601 -34.0534 242.724 -34.1813 242.898C-34.3092 243.073 -34.371 243.287 -34.3556 243.503C-34.3402 243.719 -34.2487 243.922 -34.0973 244.076C-33.946 244.231 -33.7448 244.326 -33.5297 244.345C-29.6935 244.089 -25.8572 243.833 -22.0186 243.704C-19.768 255.236 -6.76897 252.106 -8.59177 240.629C-7.9524 240.501 -7.31302 240.501 -6.80152 240.373C-5.38095 250.345 6.18826 250.653 5.09085 238.835C6.11386 238.835 8.28772 238.322 7.26472 236.784C6.75322 236.015 5.60236 236.528 4.83511 236.656C2.7891 228.198 -6.67365 229.224 -7.05728 237.938ZM-20.3563 242.295C-20.7399 239.347 -20.1005 236.272 -18.1824 235.118C-14.9855 233.068 -11.7886 236.272 -10.7656 240.373C-8.64989 250.184 -19.1147 252.263 -20.3563 242.295ZM0.487358 245.627C-4.20914 247.258 -7.36417 236.565 -3.22102 233.452C2.28225 229.135 5.886 243.742 0.4827 245.627H0.487358Z" fill="#282732"/>
<path d="M2.53356 248.959C2.41266 247.677 1.13857 247.677 1.13857 248.959C1.39432 257.675 0.499189 271.643 -11.9047 272.669C-16.7663 273.053 -22.0091 270.746 -26.229 268.312C-26.9963 267.799 -28.0193 269.08 -27.1241 269.721C-22.8989 272.769 -17.8737 274.507 -12.6719 274.719C-12.4162 276.769 -11.9047 278.948 -11.6489 280.998C-11.0096 284.971 -9.47506 283.049 -9.73081 281.767C-10.0001 279.365 -10.3413 276.972 -10.7538 274.591C1.25481 272.669 3.47984 258.952 2.53356 248.959Z" fill="#282732"/>
<path d="M-1.17539 239.604C-1.44974 240.496 -1.04752 242.807 0.219602 242.295C0.858977 242.038 1.11473 241.398 0.986857 240.244C0.742732 238.825 -0.696444 238.056 -1.17539 239.604Z" fill="#282732"/>
<path d="M-57.4449 232.684C-57.6548 236.661 -56.7321 240.615 -54.7846 244.087C-52.8371 247.558 -49.9449 250.404 -46.4453 252.291C-45.8059 256.007 -43.3763 260.366 -38.7728 260.366C-37.3977 267.216 -36.5004 274.152 -36.0874 281.127C-36.0963 281.25 -36.0797 281.374 -36.0387 281.49C-35.9978 281.607 -35.9333 281.713 -35.8493 281.804C-35.7653 281.894 -35.6636 281.967 -35.5506 282.016C-35.4375 282.065 -35.3156 282.091 -35.1923 282.091C-35.069 282.091 -34.947 282.065 -34.834 282.016C-34.7209 281.967 -34.6192 281.894 -34.5353 281.804C-34.4513 281.713 -34.3868 281.607 -34.3458 281.49C-34.3048 281.374 -34.2883 281.25 -34.2972 281.127C-34.4295 274.454 -35.157 267.806 -36.471 261.263C-36.7268 260.11 -36.7268 257.801 -38.0055 257.929C-40.563 258.185 -43.1205 256.007 -43.8878 251.906C-44.7829 247.549 -42.3533 243.961 -38.9007 245.615C-38.3892 245.871 -38.0055 245.487 -37.7498 245.231C-32.7627 240.361 -26.4968 231.39 -26.4968 221.521C-19.8473 224.47 -3.86058 225.624 3.4283 223.186C2.9168 213.447 -6.41808 198.454 -27.1362 200.504C-50.2815 202.822 -57.217 220.507 -57.4449 232.684Z" fill="#282732"/>
<path d="M-4.24379 228.711C-2.6183 228.214 -0.882153 228.214 0.743339 228.711C2.02209 229.095 1.89421 227.814 0.871205 226.917C-0.00579166 226.452 -0.966406 226.168 -1.95446 226.08C-2.94251 225.991 -3.93816 226.102 -4.88317 226.404C-6.80129 227.301 -6.14331 229.524 -4.24379 228.711Z" fill="#282732"/>
<path d="M78.7513 313.038C62.5112 312.791 35.6551 312.141 20.9495 313.422C9.43839 314.448 6.62515 318.036 3.93977 328.034C0.103523 342.643 -6.03448 367.122 -8.08048 381.09C-23.5332 380.861 -38.987 381.46 -54.3759 382.884C-60.1303 383.653 -60.5139 387.882 -58.7236 389.676C-57.8285 390.573 -56.6776 389.292 -57.3286 388.395C-57.4553 388.168 -57.536 387.918 -57.566 387.66C-57.596 387.401 -57.5747 387.14 -57.5034 386.889C-57.4321 386.639 -57.3122 386.406 -57.1505 386.202C-56.9888 385.999 -56.7886 385.829 -56.5614 385.704C-53.3645 383.525 -14.6137 383.141 -9.1151 383.141C-7.06911 383.141 -6.42973 382.884 -5.91823 380.706C-2.08198 362.637 2.91677 341.874 7.50865 324.83C8.90365 319.317 13.1351 316.37 19.9148 315.857C37.0501 314.448 61.2208 315.217 79.379 315.473C85.7751 315.601 89.609 318.164 89.0999 325.343C88.4605 334.954 80.0184 364.431 76.9494 375.324C75.9766 379.596 74.473 383.729 72.4738 387.626C71.7066 388.908 73.6247 390.319 74.3919 389.024C76.6893 384.21 78.5303 379.19 79.8905 374.03C83.9825 359.678 89.7393 338.915 91.5295 326.228C92.32 317.523 87.4491 313.171 78.7513 313.038Z" fill="#282732"/>
<path d="M43.839 343.797C43.3205 344.561 44.2226 345.719 45.1178 345.078C46.0165 344.344 47.1346 343.933 48.2938 343.909C49.4529 343.886 50.5865 344.253 51.5138 344.95C53.1762 346.488 53.5598 349.691 50.4908 355.202C46.6523 362.253 41.4094 363.278 39.0983 360.458C36.2851 356.998 38.9705 349.948 41.6558 347.128C42.2952 346.36 41.1443 345.206 40.4933 345.847C34.8668 350.973 33.8438 358.536 37.0407 361.996C42.1557 367.635 49.5748 363.021 52.3857 356.998C54.0481 353.408 56.6056 348.538 54.3038 344.822C53.8281 343.887 53.125 343.086 52.2596 342.495C51.3941 341.904 50.394 341.54 49.3515 341.438C48.309 341.336 47.2576 341.499 46.2942 341.911C45.3308 342.323 44.4865 342.971 43.839 343.797Z" fill="#282732"/>
<path d="M59.1864 186.291C62.1415 184.389 58.2913 179.368 55.2339 182.444C52.6648 184.881 56.7684 187.845 59.1864 186.291Z" fill="#282732"/>
<path d="M27.9827 188.467C31.3167 189.723 33.8649 186.032 31.8189 184.11C29.0057 181.419 24.158 187.027 27.9827 188.467Z" fill="#282732"/>
<path d="M42.1774 187.7C46.6554 189.098 48.3154 183.343 43.9677 182.318C41.1544 181.677 38.4714 186.54 42.1774 187.7Z" fill="#282732"/>
<path d="M212.006 210.511C211.381 209.223 209.835 209.614 209.96 210.767C210.474 214.728 218.4 215.381 220.704 211.024C224.794 203.078 211.869 200.772 210.218 205.898C209.579 207.82 211.239 207.692 212.137 206.282C213.285 204.36 220.83 205.117 218.786 209.742C217.891 212.049 213.055 212.678 212.006 210.511Z" fill="#3EC491"/>
<path d="M190.14 183.728C190.012 190.776 197.429 193.339 203.056 194.493C223.646 198.721 232.981 187.701 230.423 180.009C230.409 179.906 230.374 179.806 230.318 179.718C230.263 179.63 230.189 179.554 230.103 179.496C230.016 179.439 229.918 179.4 229.815 179.384C229.712 179.368 229.607 179.373 229.506 179.401C229.406 179.429 229.312 179.478 229.232 179.544C229.152 179.611 229.087 179.695 229.042 179.789C228.997 179.883 228.972 179.985 228.97 180.09C228.967 180.194 228.987 180.298 229.028 180.394C229.796 189.751 218.924 193.209 211.379 193.339C205.497 193.467 189.257 190.392 192.709 181.419C193.349 179.881 192.198 178.984 191.314 179.881C186.072 185.394 178.141 183.856 174.305 177.19C170.213 170.014 172.387 159.89 181.338 161.043C181.61 161.059 181.878 160.974 182.091 160.805C182.305 160.635 182.449 160.393 182.496 160.125C182.544 159.856 182.491 159.579 182.348 159.347C182.205 159.115 181.982 158.943 181.721 158.865C174.177 155.789 172.886 143.997 181.977 138.486C190.675 133.232 197.964 136.18 203.846 143.1C204.869 144.381 206.148 144.125 206.276 141.562C206.915 134.898 215.355 131.054 221.367 132.591C222.962 133.11 224.438 133.941 225.71 135.036C226.981 136.132 228.022 137.47 228.771 138.973C229.521 140.476 229.965 142.114 230.077 143.79C230.189 145.467 229.967 147.149 229.424 148.738C229.04 149.903 230.191 150.278 231.086 150.022C239.014 147.969 247.454 156.686 248.221 164.247C249.5 176.549 238.503 176.934 231.853 175.524C230.574 175.268 230.83 176.689 231.853 177.062C241.444 180.266 251.418 175.78 250.267 164.247C249.5 155.789 240.677 146.56 231.725 147.969C232.348 145.167 232.161 142.244 231.188 139.544C230.214 136.843 228.493 134.476 226.227 132.72C218.04 126.697 205.892 131.951 204.23 140.28C201.643 137.064 198.016 134.855 193.975 134.036C189.935 133.217 185.736 133.839 182.105 135.795C173.41 140.28 169.318 151.944 177.504 158.608C171.491 160.018 168.806 166.041 169.573 172.192C171.468 183.215 182.593 188.982 190.14 183.728Z" fill="#3EC491"/>
<path d="M328.773 393.011C219.512 391.885 39.2713 389.749 -98.0967 395.958C-98.9918 395.958 -98.8639 398.778 -97.9688 398.778C34.1214 395.429 154.859 392.857 328.901 396.727C330.045 396.727 329.915 393.022 328.773 393.011Z" fill="#3EC491"/>
<path d="M32.4585 310.356C38.8522 310.356 51.3863 310.356 59.9539 310.228C61.8269 301.477 63.147 292.616 63.9064 283.699C57.1291 284.596 44.3392 283.955 38.7127 281.776C37.3877 291.454 35.2963 301.011 32.4585 310.356Z" fill="#3EC491"/>
<path d="M-62.2924 388.644C-62.6573 387.062 -62.4767 385.403 -61.7801 383.937C-61.0835 382.471 -59.9118 381.284 -58.4562 380.571C-55.0036 378.905 -19.5775 378.649 -11.2587 378.264C-10.8751 376.214 -9.72419 370.703 -8.06181 363.527C-28.9956 359.316 -50.2713 357.043 -71.6203 356.735C-73.5385 356.735 -72.7712 354.938 -71.6203 354.938C-68.5513 354.81 -65.4823 354.81 -62.4133 354.81C-60.0484 345.437 -56.5251 336.397 -51.9253 327.899C-51.4138 327.002 -50.2629 327.514 -50.6465 328.411C-54.6089 336.943 -57.7773 345.823 -60.1116 354.938C-42.4223 355.616 -24.8092 357.63 -7.42243 360.964C-4.60918 348.787 -0.772942 333.153 2.80756 322.645C5.87656 313.287 10.7358 310.981 17.2598 310.596C21.5197 310.411 25.7845 310.369 30.0473 310.468C30.5588 308.93 31.0703 307.392 31.5818 305.47C25.3159 295.218 11.8867 286.117 -6.39944 284.708C-12.6653 292.143 -30.1865 291.374 -39.7771 282.273C-45.4036 282.913 -63.9571 287.014 -75.073 299.575C-90.676 317.516 -111.903 358.657 -101.673 380.314C-96.5769 391.345 -68.0584 389.292 -62.2924 388.644Z" fill="#3EC491"/>
<path d="M113.92 88.5054C114.312 85.3017 112.129 69.0243 110.467 67.4865C110.369 67.3837 110.247 67.3068 110.112 67.2629C109.978 67.2189 109.834 67.2092 109.695 67.2346C109.555 67.26 109.424 67.3198 109.313 67.4085C109.203 67.4972 109.116 67.612 109.06 67.7428C108.549 68.8961 111.618 86.4527 112.001 88.5054C112.051 88.7233 112.173 88.918 112.347 89.0574C112.521 89.1968 112.737 89.2728 112.96 89.2728C113.183 89.2728 113.4 89.1968 113.574 89.0574C113.748 88.918 113.87 88.7233 113.92 88.5054Z" fill="#3EC491"/>
<path d="M131.952 153.864C132.047 153.671 132.09 153.456 132.077 153.241C132.064 153.026 131.996 152.818 131.879 152.637C131.762 152.456 131.6 152.309 131.409 152.21C131.218 152.11 131.005 152.062 130.79 152.07C128.616 152.07 125.675 156.301 114.931 154.761C113.769 154.633 113.013 156.301 114.164 156.814C120.955 159.372 130.916 156.297 131.952 153.864Z" fill="#3EC491"/>
<path d="M144.995 131.31C149.605 133.993 154.441 136.266 159.448 138.102C159.668 138.136 159.893 138.099 160.091 137.997C160.289 137.894 160.449 137.732 160.548 137.532C160.648 137.333 160.682 137.106 160.645 136.886C160.608 136.666 160.502 136.464 160.343 136.308C155.752 133.624 150.912 131.392 145.891 129.644C145.67 129.525 145.412 129.499 145.172 129.571C144.932 129.643 144.731 129.808 144.612 130.028C144.493 130.249 144.467 130.509 144.539 130.749C144.611 130.989 144.775 131.191 144.995 131.31Z" fill="#3EC491"/>
<path d="M120.572 159.633C120.31 159.577 120.036 159.621 119.805 159.757C119.573 159.893 119.4 160.11 119.32 160.367C119.241 160.623 119.259 160.9 119.372 161.144C119.485 161.387 119.685 161.58 119.932 161.684C123.129 163.478 128.767 161.427 126.582 159.505C125.568 158.608 124.02 160.304 120.572 159.633Z" fill="#3EC491"/>
<path d="M142.182 101.192C144.091 100.4 154.333 88.3773 155.995 86.0706C156.635 85.1735 155.228 84.2765 154.461 84.9172C150.225 89.0131 146.212 93.3337 142.438 97.8604C140.009 100.552 141.283 101.565 142.182 101.192Z" fill="#3EC491"/>
<path d="M109.955 141.69C110.059 141.919 110.239 142.104 110.465 142.214C110.691 142.323 110.948 142.35 111.191 142.289C111.435 142.228 111.649 142.083 111.797 141.88C111.945 141.677 112.017 141.428 112.001 141.177C111.106 135.539 105.991 132.323 103.166 127.721C97.2838 118.108 105.084 107.087 115.058 104.524C123.245 102.345 132.452 105.293 134.626 115.16C136.544 123.621 132.708 129.772 130.022 137.461C129.511 139.127 131.185 139.639 131.94 138.102C135.393 131.578 138.718 123.749 137.695 116.314C135.904 104.396 125.93 99.1417 114.803 101.833C105.084 104.268 96.7723 112.726 98.4347 123.364C99.853 132.079 107.474 134.485 109.955 141.69Z" fill="#3EC491"/>
<path d="M112.78 151.429C115.723 152.478 118.866 152.839 121.969 152.483C125.072 152.128 128.052 151.066 130.683 149.379C131.834 148.482 131.322 146.56 129.66 147.2C122.883 149.635 120.197 150.276 113.545 149.379C112.385 149.251 111.618 150.928 112.78 151.429Z" fill="#3EC491"/>
<path d="M77.6004 142.074C76.7099 143.239 77.6004 144.766 80.1579 142.972C83.7103 140.756 87.0883 138.271 90.2623 135.539C90.4323 135.39 90.5424 135.184 90.5722 134.96C90.602 134.736 90.5493 134.508 90.4241 134.32C90.2989 134.132 90.1097 133.996 89.8917 133.937C89.6737 133.878 89.4418 133.901 89.2393 134.001C85.1295 136.343 81.2347 139.044 77.6004 142.074Z" fill="#3EC491"/>
<path d="M87.2054 107.856C87.4165 107.911 87.6403 107.89 87.8376 107.797C88.0349 107.703 88.1931 107.543 88.2846 107.345C88.376 107.146 88.3949 106.922 88.3379 106.711C88.2808 106.499 88.1516 106.315 87.9726 106.19C82.8577 102.866 77.5156 99.9076 71.9859 97.336C71.7561 97.2638 71.5081 97.2759 71.2863 97.3703C71.0646 97.4647 70.8837 97.6351 70.776 97.851C70.6682 98.067 70.6408 98.3143 70.6984 98.5486C70.7561 98.783 70.8952 98.9892 71.0908 99.1301C76.2497 102.417 81.6347 105.333 87.2054 107.856Z" fill="#3EC491"/>
<path d="M112.78 146.557C117.026 147.892 127.744 145.788 130.046 143.994C131.58 142.713 130.173 140.919 128.255 141.688C123.483 143.504 118.392 144.332 113.292 144.123C110.978 143.994 110.606 145.882 112.78 146.557Z" fill="#3EC491"/>
<path d="M123.128 139.127C122.965 132.373 123.565 125.623 124.919 119.005C124.951 118.791 124.901 118.574 124.78 118.395C124.659 118.217 124.475 118.091 124.265 118.042C124.055 117.993 123.835 118.026 123.648 118.133C123.461 118.241 123.321 118.415 123.256 118.621C121.574 125.316 120.97 132.238 121.466 139.125C121.46 139.238 121.477 139.351 121.516 139.457C121.555 139.563 121.615 139.661 121.692 139.743C121.77 139.825 121.864 139.891 121.967 139.936C122.071 139.981 122.183 140.004 122.296 140.004C122.409 140.004 122.521 139.981 122.625 139.937C122.729 139.892 122.822 139.827 122.9 139.745C122.978 139.663 123.039 139.565 123.078 139.459C123.117 139.353 123.134 139.24 123.128 139.127Z" fill="#3EC491"/>
<path d="M120.06 117.854C116.679 118.758 113.198 119.228 109.699 119.252C109.506 119.253 109.317 119.307 109.152 119.407C108.987 119.506 108.851 119.649 108.76 119.819C108.668 119.99 108.624 120.181 108.632 120.375C108.64 120.568 108.699 120.756 108.804 120.918C111.426 126.857 113.732 132.931 115.712 139.115C116.095 140.28 117.246 140.012 116.991 138.859C115.795 132.809 113.907 126.918 111.362 121.302C114.543 121.152 117.687 120.548 120.699 119.508C120.894 119.407 121.044 119.237 121.121 119.032C121.199 118.826 121.198 118.599 121.119 118.394C121.04 118.189 120.888 118.021 120.692 117.921C120.497 117.821 120.272 117.798 120.06 117.854Z" fill="#3EC491"/>
<path d="M27.3438 207.179C27.6596 213.31 26.697 219.439 24.5173 225.176C22.3376 230.913 18.9887 236.131 14.6841 240.498C12.2545 242.933 14.3005 243.446 16.7301 242.549C28.2389 238.064 38.5851 224.864 41.5379 213.072C42.0494 211.022 40.2591 211.15 40.0034 212.431C38.4336 218.229 35.6947 223.642 31.9558 228.337C28.2168 233.032 23.5572 236.91 18.2646 239.729C26.0932 230.9 30.1798 219.361 29.6571 207.562C29.5292 205.639 29.2735 205.511 26.9718 205.127C7.27668 202.051 -0.0122046 173.728 31.0637 162.322C58.8149 152.196 80.1724 171.036 75.3108 190.005C71.7303 204.23 56.6411 206.408 44.2349 206.408C42.5725 206.408 42.7004 208.459 44.3628 208.459C57.1502 208.715 71.7303 206.921 76.4617 194.106C86.6917 166.807 58.0477 151.933 33.877 158.734C-5.26671 170.014 4.57967 206.282 27.3438 207.179Z" fill="#3EC491"/>
</svg>
