<svg width="233" height="200" viewBox="0 0 233 200" fill="none" xmlns="http://www.w3.org/2000/svg">
<g id="team-brainstorming">
<g id="Group 59456">
<path id="Vector" d="M185.437 114.938C186.369 114.889 187.269 114.58 188.037 114.047C188.805 113.513 189.41 112.777 189.785 111.918C190.105 110.826 188.954 110.441 188.569 111.661C188.248 112.329 187.762 112.904 187.158 113.331C186.554 113.759 185.851 114.024 185.117 114.103C184.861 114.167 184.349 114.959 185.437 114.938Z" fill="#282732"/>
<path id="Vector_2" d="M187.354 105.687C186.978 104.272 185.051 105.559 186.203 106.908C186.523 107.293 187.746 107.162 187.354 105.687Z" fill="#282732"/>
<path id="Vector_3" d="M184.605 99.7133C183.709 99.9667 183.71 100.998 184.86 100.998C186.146 100.903 187.436 101.102 188.634 101.582C188.717 101.61 188.806 101.608 188.888 101.578C188.969 101.548 189.038 101.49 189.083 101.415C189.128 101.34 189.145 101.252 189.133 101.166C189.121 101.079 189.08 100.999 189.017 100.94C188.413 100.428 187.706 100.053 186.944 99.8414C186.183 99.6297 185.385 99.586 184.605 99.7133Z" fill="#282732"/>
<path id="Vector_4" d="M181.151 102.921C180.297 102.435 179.289 102.297 178.337 102.535C177.756 102.728 177.825 103.37 178.401 103.434C179.152 103.461 179.891 103.635 180.575 103.948C181.342 104.274 181.53 103.251 181.151 102.921Z" fill="#282732"/>
<path id="Vector_5" d="M182.173 107.359C181.991 108.787 181.97 110.231 182.109 111.663C182.366 113.334 186.138 112.113 185.564 111.214C185.244 110.7 183.965 111.798 183.132 111.407C182.91 110.069 182.825 108.713 182.878 107.359C182.878 107.265 182.84 107.175 182.774 107.108C182.708 107.042 182.619 107.005 182.525 107.005C182.432 107.005 182.342 107.042 182.276 107.108C182.21 107.175 182.173 107.265 182.173 107.359Z" fill="#282732"/>
<path id="Vector_6" d="M180.894 107.807C181.851 107.223 180.959 105.238 180.128 105.88C179.487 106.265 179.739 108.509 180.894 107.807Z" fill="#282732"/>
<path id="Vector_7" d="M174.434 113.011C175.33 115.966 177.504 119.82 179.998 121.619C181.149 122.454 181.725 121.619 180.58 120.527C178.121 118.446 176.265 115.739 175.208 112.689C175.165 112.586 175.083 112.504 174.981 112.462C174.878 112.419 174.763 112.419 174.66 112.462C174.558 112.505 174.477 112.586 174.434 112.69C174.392 112.793 174.392 112.908 174.434 113.011Z" fill="#282732"/>
<path id="Vector_8" d="M195.221 116.095C195.534 115.83 195.285 115.324 194.901 115.511C191.32 117.052 188.826 122.641 190.552 126.625C190.808 127.139 191.512 126.946 191.384 126.367C190.425 121.426 191.688 119.087 195.221 116.095Z" fill="#282732"/>
<path id="Vector_9" d="M173.86 117.315C174.362 118.921 175.181 120.409 176.269 121.689C177.357 122.969 178.691 124.016 180.191 124.767C181.022 125.152 181.854 124.51 180.575 123.675C177.943 122.16 175.859 119.842 174.627 117.058C174.307 116.544 173.718 116.741 173.86 117.315Z" fill="#282732"/>
<path id="Vector_10" d="M176.609 112.883C178.048 115.871 180.464 118.275 183.452 119.692C187.609 121.555 188.442 118.664 192.023 116.287C192.407 116.03 192.214 115.516 191.766 115.645C188.569 116.416 188.249 120.655 183.772 118.471C181.161 117.014 178.96 114.914 177.377 112.369C177.303 112.284 177.2 112.228 177.088 112.213C176.976 112.198 176.863 112.225 176.769 112.288C176.675 112.351 176.607 112.446 176.577 112.555C176.548 112.665 176.56 112.781 176.609 112.883Z" fill="#282732"/>
<path id="Vector_11" d="M182.173 129.782C182.494 130.295 183.326 129.847 183.069 129.333C181.854 126.056 176.993 125.349 175.266 122.458C174.947 121.945 174.371 122.458 174.569 122.972C176.354 126.372 180.005 126.304 182.173 129.782Z" fill="#282732"/>
<path id="Vector_12" d="M176.162 102.861C176.396 106.01 177.019 109.117 178.016 112.112C178.144 112.562 178.975 112.369 178.848 111.855C177.499 107.514 176.957 102.962 177.249 98.424C177.701 98.5892 178.183 98.6581 178.664 98.6263C179.144 98.5945 179.613 98.4626 180.04 98.2391C180.467 98.0156 180.843 97.7053 181.144 97.328C181.445 96.9506 181.665 96.5145 181.789 96.0472C183.517 98.6167 188.634 98.3597 190.232 96.0472C189.785 99.5802 193.878 105.811 194.709 104.655C195.093 104.071 195.477 103.434 196.18 103.242C198.802 102.407 199.25 107.417 197.651 108.124C196.953 108.445 195.541 107.54 196.372 109.794C197.476 112.736 198.416 115.739 199.186 118.787C199.314 119.365 200.017 119.108 200.017 118.53C199.454 115.414 198.598 112.36 197.459 109.407C198.054 109.331 198.605 109.054 199.024 108.623C199.442 108.191 199.702 107.63 199.761 107.03C200.51 106.757 201.178 106.301 201.705 105.702C202.232 105.103 202.602 104.381 202.78 103.602C202.958 102.822 202.939 102.011 202.725 101.241C202.511 100.471 202.108 99.7671 201.553 99.1936C205.007 95.7249 204.367 90.0068 199.058 90.071C199.387 89.019 199.392 87.8915 199.071 86.8367C198.751 85.782 198.12 84.8493 197.262 84.1613C196.404 83.4733 195.359 83.0622 194.264 82.9819C193.169 82.9017 192.075 83.1561 191.127 83.7117C189.208 78.5086 181.342 80.0502 181.15 84.6752C176.162 80.5641 169.701 86.9877 173.538 91.9338C169.191 92.0039 168.807 102.411 176.162 102.861Z" fill="#282732"/>
<path id="Vector_13" d="M184.924 133.375C185.307 133.806 185.812 134.109 186.371 134.243C186.93 134.378 187.517 134.337 188.052 134.128C188.588 133.918 189.047 133.549 189.368 133.07C189.689 132.591 189.857 132.025 189.849 131.448C190.907 131.033 191.933 130.539 192.919 129.971C192.775 129.098 192.448 128.266 191.959 127.53C190.964 127.789 189.999 128.155 189.081 128.622C188.712 128.162 188.206 127.832 187.637 127.68C187.068 127.527 186.465 127.561 185.917 127.776C185.368 127.99 184.902 128.375 184.585 128.873C184.269 129.372 184.118 129.959 184.156 130.549C183.516 130.934 182.813 131.384 182.557 131.577C182.525 132.464 182.769 133.34 183.255 134.082C183.772 133.889 184.407 133.637 184.924 133.375ZM185.499 130.549C185.701 128.301 188.638 128.558 188.378 131.384C188.186 133.696 185.257 133.248 185.499 130.549Z" fill="#282732"/>
<path id="Vector_14" d="M170.918 155.088C170.726 151.876 170.599 144.295 171.43 141.469C171.558 140.955 172.197 140.827 172.128 141.919C171.912 146.286 171.955 150.662 172.256 155.024C177.085 154.868 181.919 155.104 186.71 155.73C184.662 150.335 181.785 133.568 181.465 131.384C181.145 129.2 176.796 127.721 174.488 125.473C169.116 127.4 161.632 133.44 155.812 141.662C157.953 146.349 159.707 151.205 161.057 156.18C164.321 155.632 167.613 155.268 170.918 155.088Z" fill="#282732"/>
<path id="Vector_15" d="M201.041 119.949C198.419 122.711 196.18 124.06 192.215 124.124C193.047 129.847 198.036 138.193 202.385 144.296C203.065 142.844 203.559 141.311 203.855 139.734C203.984 138.835 204.553 139.156 204.553 139.67C204.448 141.697 204.016 143.693 203.273 145.581C208.519 152.775 215.366 159.713 217.925 168.45C220.803 164.789 232.06 144.741 224.257 131.448C219.654 123.417 209.612 119.306 201.041 119.949Z" fill="#282732"/>
<path id="Vector_16" d="M210.443 178.018C214.985 178.082 217.094 178.082 220.931 178.082C222.915 173.136 224.961 163.436 225.665 155.406C221.571 168.707 215.367 175.002 210.443 178.018Z" fill="#282732"/>
<path id="Vector_17" d="M192.982 174.039C185.763 174.725 178.616 176.036 171.621 177.957C175.778 177.893 190.744 177.764 195.988 177.893C194.63 176.933 193.585 175.592 192.982 174.039Z" fill="#282732"/>
<path id="Vector_18" d="M191.965 172.433C192.734 172.316 192.605 171.148 191.837 171.276C173.336 173.884 170.263 176.11 162.353 176.801C161.265 176.865 160.376 178.021 161.841 178.021C166.575 178.021 174.377 175.58 179.493 174.617C183.965 173.717 187.49 173.128 191.965 172.433Z" fill="#282732"/>
<path id="Vector_19" d="M163.37 157.015C160.554 157.58 161.259 158.492 162.283 158.235C169.574 156.694 179.423 157.015 186.715 158.235C187.419 158.364 187.738 157.272 187.035 157.143C179.807 155.923 170.591 155.568 163.37 157.015Z" fill="#282732"/>
<path id="Vector_20" d="M208.396 155.345C208.714 155.605 209.356 155.216 209.094 154.761C203.051 147.538 197.677 139.776 193.041 131.571C192.785 131.121 192.017 131.571 192.209 132.02C194.645 136.907 204.207 151.915 208.396 155.345Z" fill="#282732"/>
<path id="Vector_21" d="M216.327 168.964C216.583 168.322 215.746 167.808 215.432 168.38C213.513 171.784 211.211 175.189 207.501 176.859C203.728 178.593 199.57 178.079 196.82 174.803C190.872 167.738 186.523 145.255 184.923 135.039C184.796 134.397 183.9 134.654 184.028 135.296C185.371 145.06 189.726 168.059 196.052 175.574C200.898 181.374 211.123 179.94 216.327 168.964Z" fill="#282732"/>
<path id="Vector_22" d="M120.966 143.331C121.414 143.076 121.094 142.56 120.582 142.63C118.28 143.079 116.745 143.722 116.041 146.035C115.33 148.143 115.154 150.395 115.529 152.587C115.657 153.171 116.488 153.037 116.552 152.459C116.616 149.954 116.232 149.44 117.064 146.678C117.767 144.103 118.923 144.498 120.966 143.331Z" fill="#282732"/>
<path id="Vector_23" d="M121.797 133.504C121.727 134.897 121.77 136.293 121.925 137.679C121.989 138.193 122.885 138.129 122.948 137.679C122.977 136.284 122.913 134.89 122.757 133.504C122.692 133.053 121.808 133.053 121.797 133.504Z" fill="#282732"/>
<path id="Vector_24" d="M126.659 132.99C128.367 132.055 131.077 130.228 132.222 127.978C132.542 127.336 132.479 127.143 132.031 126.565C131.465 125.923 130.797 125.38 130.054 124.959C129.288 124.574 129.222 124.831 128.648 125.216C124.874 127.85 119.113 127.336 115.152 125.28C114.832 125.088 113.936 125.602 114.768 126.051C119.693 128.558 125 129.007 129.542 125.794C130.274 126.26 130.941 126.822 131.526 127.464C130.011 129.627 127.961 131.354 125.577 132.476C124.682 131.384 123.786 130.356 122.891 129.264C121.541 127.759 120.988 130.468 118.797 132.669C116.58 131.569 114.462 130.279 112.465 128.814C113.105 128.171 113.681 127.53 114.32 126.886C114.704 126.565 114.192 125.923 113.739 126.186C113.065 126.676 112.443 127.236 111.884 127.856C111.655 128.121 111.54 128.466 111.564 128.817C111.588 129.167 111.749 129.493 112.012 129.724C113.035 130.688 118.215 134.028 119.048 133.643C120.455 132.942 121.222 131.073 122.182 129.917C123.077 130.816 124.292 132.615 124.996 133.321C125.443 133.825 126.206 133.237 126.659 132.99Z" fill="#282732"/>
<path id="Vector_25" d="M133.438 107.165C133.67 106.176 133.756 105.159 133.693 104.146C133.565 103.054 132.543 102.989 132.606 104.21C132.733 105.816 132.159 107.678 132.351 108.064C132.799 109.157 134.397 107.363 135.164 108.515C136.251 110.313 133.885 113.718 132.414 112.819C132.031 112.562 131.716 112.754 131.454 113.589C131.064 114.714 130.549 115.791 129.92 116.801C126.466 121.876 119.495 123.16 115.658 118.787C114.305 117.027 113.424 114.948 113.1 112.748C113.09 112.604 113.042 112.464 112.962 112.344C112.882 112.223 112.772 112.125 112.643 112.06C112.514 111.996 112.37 111.966 112.226 111.974C112.082 111.982 111.942 112.027 111.821 112.106C110.478 113.134 109.263 111.592 109.135 109.665C108.943 107.03 110.542 106.838 111.693 107.737C111.764 107.795 111.852 107.83 111.945 107.835C112.037 107.84 112.128 107.816 112.206 107.767C112.284 107.717 112.344 107.644 112.378 107.558C112.412 107.472 112.419 107.377 112.396 107.287C112.332 106.703 112.013 103.433 112.013 102.727C111.949 102.084 111.181 102.341 111.181 102.919C111.245 104.075 111.309 105.296 111.437 106.388C111.084 106.216 110.695 106.133 110.303 106.147C109.911 106.16 109.529 106.269 109.188 106.465C108.848 106.661 108.56 106.937 108.351 107.269C108.141 107.602 108.015 107.981 107.984 108.373C107.472 111.843 109.902 114.541 112.14 113.256C112.78 116.083 113.867 118.973 116.235 120.708C116.106 121.864 116.043 123.02 115.915 124.177C115.851 125.204 116.554 125.333 116.81 124.819C116.983 123.648 117.09 122.469 117.13 121.286C118.698 122.106 120.455 122.491 122.22 122.401C123.985 122.311 125.694 121.748 127.171 120.772C127.235 121.928 127.171 123.149 127.299 124.305C127.3 124.378 127.316 124.45 127.347 124.516C127.378 124.583 127.422 124.642 127.477 124.69C127.532 124.738 127.597 124.773 127.666 124.795C127.736 124.816 127.809 124.822 127.881 124.813C127.954 124.804 128.023 124.78 128.086 124.742C128.148 124.704 128.201 124.654 128.243 124.593C128.285 124.533 128.313 124.465 128.327 124.393C128.34 124.322 128.339 124.248 128.322 124.177C128.13 122.249 128.258 121.029 128.194 120.065C130.13 118.523 131.539 116.412 132.224 114.027C132.612 114.12 133.015 114.122 133.403 114.033C133.791 113.944 134.154 113.766 134.463 113.513C137.467 111.47 137.21 106.008 133.438 107.165Z" fill="#282732"/>
<path id="Vector_26" d="M117.513 101.512C116.866 101.499 116.223 101.624 115.628 101.879C115.033 102.134 114.498 102.512 114.058 102.989C113.674 103.375 113.93 104.21 114.698 103.824C115.524 103.228 116.498 102.873 117.513 102.797C118.664 102.668 118.477 101.581 117.513 101.512Z" fill="#282732"/>
<path id="Vector_27" d="M133.054 141.79C132.874 140.229 132.289 138.742 131.358 137.48C130.426 136.217 129.18 135.222 127.745 134.596C127.048 134.339 126.978 135.045 127.49 135.296C130.751 137.031 132.03 140.371 132.159 143.905C132.286 146.796 130.943 151.292 134.333 152.898C134.914 153.155 135.357 152.197 134.78 151.935C131.902 150.591 133.73 146.163 133.054 141.79Z" fill="#282732"/>
<path id="Vector_28" d="M118.343 135.688C118.656 135.296 118.279 134.788 117.832 135.104C115.347 137.24 113.526 140.05 112.588 143.197C112.14 144.869 112.268 146.603 111.884 148.209C111.436 150.072 109.838 150.778 108.367 151.806C107.855 152.127 108.303 153.027 108.878 152.77C110.312 152.181 111.537 151.174 112.396 149.879C113.739 147.567 112.396 144.676 115.146 139.857C116.106 138.389 117.175 136.995 118.343 135.688Z" fill="#282732"/>
<path id="Vector_29" d="M114.506 149.628C114.725 147.642 114.57 145.58 115.657 143.781C116.147 143.038 116.787 142.408 117.537 141.932C118.287 141.456 119.129 141.145 120.007 141.019C120.774 140.891 120.705 140.12 120.007 140.12C118.993 140.154 118.001 140.427 117.112 140.918C116.223 141.409 115.462 142.104 114.891 142.946C113.787 144.963 113.361 147.284 113.675 149.564C113.674 150.013 114.449 150.142 114.506 149.628Z" fill="#282732"/>
<path id="Vector_30" d="M122.314 149.053C122.081 150.727 122.442 175.584 122.505 176.933C122.505 177.639 123.657 177.575 123.657 176.869C123.657 169.744 123.337 156.89 123.209 149.118C123.14 148.729 122.38 148.536 122.314 149.053Z" fill="#282732"/>
<path id="Vector_31" d="M129.153 160.869C128.419 160.592 127.766 160.136 127.252 159.541C126.739 158.947 126.381 158.233 126.211 157.465C125.507 154.06 129.025 150.784 127.234 147.251C126.921 146.59 126.402 146.05 125.755 145.713C125.108 145.376 124.37 145.26 123.652 145.383C123.558 145.383 123.469 145.42 123.403 145.486C123.337 145.552 123.3 145.642 123.3 145.736C123.3 145.83 123.337 145.919 123.403 145.986C123.469 146.052 123.558 146.089 123.652 146.089C124.066 146.105 124.474 146.205 124.849 146.383C125.224 146.562 125.56 146.815 125.835 147.127C126.11 147.44 126.319 147.805 126.45 148.201C126.58 148.597 126.63 149.015 126.595 149.431C126.595 151.293 125.571 153.028 125.188 154.826C124.797 156.241 124.948 157.75 125.611 159.058C126.274 160.366 127.401 161.377 128.769 161.892C129.472 162.218 129.854 161.135 129.153 160.869Z" fill="#282732"/>
<path id="Vector_32" d="M107.854 153.354C107.787 152.84 107.854 151.105 106.959 151.368C106.174 151.514 105.404 151.729 104.657 152.011C103.633 152.46 103.122 153.616 104.529 153.231C105.168 153.038 105.872 152.846 106.506 152.647C106.831 156.81 108.492 160.755 111.238 163.89C107.491 167.104 103.441 169.944 99.1451 172.369C97.9299 173.075 98.2497 174.167 99.273 173.589C103.921 171.152 108.241 168.13 112.129 164.596C112.321 164.403 112.576 164.146 112.321 163.761C110.029 160.163 108.402 157.533 107.854 153.354Z" fill="#282732"/>
<path id="Vector_33" d="M162.282 167.679C161.574 160.934 156.782 147.765 154.096 141.918C150.002 133.118 143.543 129.906 134.461 127.914C134.343 127.888 134.218 127.911 134.116 127.977C134.014 128.043 133.942 128.148 133.917 128.267C133.891 128.387 133.914 128.511 133.98 128.614C134.046 128.717 134.15 128.789 134.268 128.814C142.136 131.576 147.956 132.604 152.242 140.762C155.311 146.609 162.091 164.532 161.131 171.405C160.364 176.736 157.55 176.479 153.841 176.736C147.188 177.186 135.805 168.257 131.071 163.889C134.268 161.64 136.316 156.501 136.892 152.904C141.983 154.307 146.899 156.29 151.543 158.814C152.184 159.135 152.695 158.3 152.056 157.978C149.098 156.312 146.019 154.873 142.845 153.675C142.569 152.142 141.909 150.705 140.927 149.499C140.415 149.05 140.159 149.628 140.351 149.949C140.976 150.967 141.45 152.07 141.758 153.225C140.243 152.642 138.681 152.191 137.089 151.876C135.874 151.683 135.874 151.876 135.682 152.904C133.571 163.118 128.774 162.86 130.117 164.339C134.851 169.67 146.235 177.7 153.655 177.828C160.62 178.018 163.045 174.939 162.282 167.679Z" fill="#282732"/>
<path id="Vector_34" d="M129.792 147.251C129.712 146.312 129.362 145.417 128.784 144.676C128.205 143.934 127.424 143.377 126.536 143.075C125.441 142.862 124.325 142.776 123.21 142.818C122.698 142.818 122.698 143.46 123.146 143.59C125.001 144.104 126.536 143.396 127.879 145.324C129.35 147.38 128.519 149.371 128.774 150.591C128.809 150.688 128.871 150.771 128.953 150.833C129.034 150.894 129.132 150.931 129.233 150.937C129.335 150.944 129.436 150.921 129.525 150.871C129.614 150.821 129.686 150.746 129.734 150.656C129.949 149.533 129.969 148.381 129.792 147.251Z" fill="#282732"/>
<path id="Vector_35" d="M121.542 145.003C120.804 145.238 120.126 145.629 119.552 146.15C118.978 146.671 118.522 147.309 118.215 148.022C115.529 153.675 122.885 157.85 112.267 161.769C112.137 161.808 112.027 161.896 111.959 162.015C111.892 162.134 111.873 162.274 111.906 162.406C111.939 162.539 112.021 162.653 112.136 162.726C112.251 162.799 112.39 162.824 112.523 162.797C114.216 162.397 115.793 161.604 117.128 160.484C123.076 155.473 114.569 150.656 121.861 145.709C122.245 145.388 122.054 144.881 121.542 145.003Z" fill="#282732"/>
<path id="Vector_36" d="M115.977 107.229C116.8 107.946 117.838 105.687 116.746 105.109C115.785 104.595 115.396 106.722 115.977 107.229Z" fill="#282732"/>
<path id="Vector_37" d="M128.897 142.689C130.544 144.25 130.432 146.543 130.496 148.664C130.496 149.178 131.263 149.114 131.391 148.664C131.711 146.352 131.455 143.589 129.664 141.854C127.746 140.056 124.804 139.799 122.373 140.184C122.318 140.187 122.264 140.201 122.214 140.226C122.165 140.251 122.121 140.286 122.086 140.33C122.051 140.373 122.026 140.423 122.012 140.477C121.998 140.531 121.995 140.587 122.004 140.642C122.013 140.697 122.034 140.749 122.065 140.796C122.096 140.842 122.136 140.881 122.183 140.911C122.23 140.94 122.282 140.96 122.337 140.967C122.392 140.975 122.448 140.971 122.501 140.955C124.676 140.955 127.153 141.038 128.897 142.689Z" fill="#282732"/>
<path id="Vector_38" d="M107.023 105.623C107.598 106.138 108.238 105.238 107.727 104.724C104.017 100.998 104.017 95.3441 106.575 90.9761C113.93 78.2562 135.805 80.8268 140.345 93.9309C141.132 96.0258 141.215 98.322 140.579 100.468C139.944 102.615 138.626 104.493 136.828 105.816C136.444 106.137 136.764 106.843 137.275 106.586C142.392 104.017 143.287 97.2723 141.177 92.4546C134.909 78.1289 110.541 77.3581 104.593 92.4546C102.802 96.8869 103.372 102.353 107.023 105.623Z" fill="#282732"/>
<path id="Vector_39" d="M109.006 101.769C112.902 102.206 117.704 99.4564 119.623 96.1161C119.681 96.0221 119.702 95.9094 119.681 95.8008C119.66 95.6921 119.599 95.5954 119.509 95.5303C119.42 95.4652 119.31 95.4364 119.2 95.4497C119.091 95.4631 118.991 95.5176 118.92 95.6022C116.042 99.1352 113.418 100.291 109.006 100.805C108.892 100.824 108.788 100.883 108.714 100.971C108.639 101.059 108.598 101.171 108.598 101.287C108.598 101.403 108.639 101.515 108.714 101.603C108.788 101.691 108.892 101.75 109.006 101.769Z" fill="#282732"/>
<path id="Vector_40" d="M121.286 111.662C121.735 111.342 121.733 110.891 121.286 110.699C120.966 110.57 119.239 111.02 119.111 110.699C118.856 110.056 119.815 107.293 120.007 105.944C120.135 104.981 119.687 104.981 119.239 105.751C118.792 106.522 117.379 110.442 118.023 111.598C118.664 112.561 120.649 112.114 121.286 111.662Z" fill="#282732"/>
<path id="Vector_41" d="M95.3827 138.578C99.278 133.113 103.57 130.87 109.965 128.879C110.605 128.686 110.413 127.658 109.773 127.851C102.419 130.035 98.6443 132.09 94.1675 138.321C93.528 139.092 94.742 139.476 95.3827 138.578Z" fill="#282732"/>
<path id="Vector_42" d="M135.104 102.347C135.197 102.319 135.278 102.26 135.333 102.179C135.388 102.098 135.414 102.001 135.407 101.904C135.399 101.806 135.359 101.714 135.292 101.643C135.226 101.572 135.137 101.525 135.04 101.512C131.074 101.448 126.277 100.87 123.272 97.979C120.458 95.2811 119.051 90.5908 118.853 86.8009C118.789 86.1585 117.83 86.1001 117.894 86.7366C117.958 90.7192 119.754 95.9235 122.626 98.6856C125.498 101.448 131.193 102.95 135.104 102.347Z" fill="#282732"/>
<path id="Vector_43" d="M119.559 115.324C121.633 116.43 124.228 115.773 124.931 113.782C125.059 113.332 124.548 112.947 124.228 113.332C122.367 115.516 120.774 114.617 119.809 114.681C119.304 114.617 119.18 115.122 119.559 115.324Z" fill="#282732"/>
<path id="Vector_44" d="M127.809 104.467C127.326 103.065 124.612 101.512 123.332 101.962C122.821 102.154 122.629 103.182 123.332 103.311C124.754 103.496 126.089 104.1 127.17 105.045C127.489 105.302 127.988 104.985 127.809 104.467Z" fill="#282732"/>
<path id="Vector_45" d="M123.716 107.678C124.934 107.436 124.867 105.173 123.908 105.43C123.011 105.623 122.694 107.883 123.716 107.678Z" fill="#282732"/>
<path id="Vector_46" d="M159.021 67.0794C159.662 66.8902 160.3 66.694 160.94 66.4955C160.556 68.1013 160.108 69.7072 159.725 71.3131C159.085 73.6256 159.98 73.8183 160.492 72.9833C162.091 70.4781 163.754 67.9086 165.48 65.4677C167.848 62.0632 168.422 62.3844 164.073 62.5129C164.841 61.0343 165.608 59.5568 166.312 58.0748C167.015 56.5927 162.283 58.2675 161.835 58.6529C161.745 58.7105 161.68 58.7995 161.652 58.9027C161.623 59.0059 161.634 59.116 161.682 59.2117C161.729 59.3075 161.81 59.3821 161.91 59.4213C162.009 59.4604 162.119 59.4613 162.219 59.4237C162.73 59.2952 163.818 58.7814 165.033 58.5244L162.922 62.7651C162.794 63.0863 162.922 63.4717 163.306 63.4717C164.137 63.4717 165.033 63.4075 165.864 63.4075C164.265 65.72 162.666 68.0967 161.068 70.4092L162.411 65.7842C162.444 65.6918 162.452 65.5918 162.434 65.4952C162.415 65.3986 162.37 65.309 162.304 65.2361C162.238 65.1633 162.154 65.11 162.06 65.082C161.966 65.0541 161.866 65.0525 161.771 65.0776C161.132 65.2703 160.428 65.5273 159.794 65.72C160.178 63.8571 160.69 61.9943 161.137 60.0661C161.265 59.5522 160.498 59.4237 160.306 59.8734C159.562 61.9703 158.963 64.1167 158.515 66.2969C158.318 66.694 158.575 67.2102 159.021 67.0794Z" fill="#282732"/>
<path id="Vector_47" d="M81.7592 115.651C82.0801 115.908 82.5917 115.651 82.3999 115.265C81.951 113.981 81.5673 112.696 82.5278 111.347C82.9208 110.818 83.4501 110.407 84.0587 110.157C84.6672 109.908 85.332 109.83 85.9812 109.932C86.0862 109.932 86.1882 109.897 86.2719 109.834C86.3555 109.77 86.4163 109.681 86.4452 109.579C86.474 109.478 86.4693 109.37 86.4318 109.271C86.3943 109.173 86.3259 109.089 86.2371 109.033C84.4464 108.198 80.9278 109.74 80.9278 113.145C80.8778 113.599 80.9263 114.057 81.0698 114.49C81.2133 114.922 81.4485 115.318 81.7592 115.651Z" fill="#282732"/>
<path id="Vector_48" d="M79.3289 123.225C79.3354 123.365 79.3955 123.498 79.4967 123.595C79.598 123.692 79.7326 123.746 79.8725 123.746C80.0125 123.746 80.1471 123.692 80.2483 123.595C80.3496 123.498 80.4097 123.365 80.4161 123.225C80.5543 122.042 80.4675 120.843 80.1603 119.692C79.5208 117.444 77.4103 116.609 77.4743 114.36C77.5382 113.011 77.794 111.662 77.858 110.378C77.8567 110.273 77.8163 110.172 77.7447 110.095C77.6732 110.019 77.5758 109.972 77.4715 109.964C77.3673 109.956 77.2638 109.987 77.1815 110.052C77.0992 110.117 77.0439 110.21 77.0266 110.313C76.7708 111.598 76.515 112.883 76.3871 114.168C76.1313 116.994 78.0499 117.765 78.8173 119.563C79.3337 120.709 79.5113 121.98 79.3289 123.225Z" fill="#282732"/>
<path id="Vector_49" d="M80.0321 99.2637L80.9914 108.706C81.0554 109.092 81.7588 109.092 81.8228 108.642C82.1426 106.265 81.3112 101.576 80.7995 99.0651C80.7356 98.6856 79.9681 98.814 80.0321 99.2637Z" fill="#282732"/>
<path id="Vector_50" d="M86.4926 116.609C86.7414 117.126 87.3879 116.737 87.26 116.287C87.0681 115.195 86.6205 113.911 88.7309 113.911C90.4577 113.911 90.7077 115.452 90.6495 116.865C90.5216 119.499 88.2832 121.747 88.2832 124.124C88.2855 124.258 88.3362 124.387 88.4259 124.487C88.5156 124.586 88.6382 124.65 88.771 124.666C88.9037 124.681 89.0376 124.648 89.1479 124.572C89.2581 124.496 89.3372 124.383 89.3705 124.253C90.01 121.619 90.2658 121.876 91.1612 119.692C91.9347 118.065 92.0494 116.199 91.4809 114.489C90.2019 111.598 84.4577 112.394 86.4926 116.609Z" fill="#282732"/>
<path id="Vector_51" d="M83.6152 113.268C83.4917 114.22 83.6707 115.187 84.1268 116.03C84.1788 116.106 84.2557 116.161 84.3441 116.186C84.4325 116.21 84.5267 116.202 84.61 116.164C84.6934 116.126 84.7606 116.059 84.7998 115.976C84.839 115.893 84.8478 115.798 84.8245 115.709C84.5687 114.36 84.3128 112.754 85.5919 112.048C86.1549 111.702 86.7951 111.503 87.4541 111.469C88.1132 111.436 88.7702 111.568 89.3652 111.855C89.8128 112.112 90.1966 111.405 89.8768 111.084C88.7954 109.735 83.9989 110.249 83.6152 113.268Z" fill="#282732"/>
<path id="Vector_52" d="M54.7055 102.476C54.3218 102.54 53.938 102.604 53.6183 102.668C53.0427 100.87 51.316 99.0069 49.2055 99.7777C46.9671 100.613 46.902 103.054 47.0311 104.146C45.1706 104.338 43.2567 104.595 41.402 104.788C41.2969 104.813 41.204 104.875 41.1401 104.962C41.0761 105.049 41.0452 105.157 41.0529 105.265C41.0606 105.373 41.1064 105.475 41.1821 105.553C41.2578 105.63 41.3584 105.678 41.466 105.687C43.3846 105.559 45.3032 105.43 47.2229 105.366C48.3485 111.146 54.8497 109.578 53.938 103.825C54.2578 103.76 54.5776 103.76 54.8334 103.696C55.5439 108.695 61.3299 108.849 60.7811 102.925C61.2927 102.925 62.3799 102.668 61.8683 101.898C61.6125 101.512 61.0369 101.769 60.6532 101.833C59.6299 97.5937 54.8973 98.1076 54.7055 102.476ZM48.0543 104.66C47.8625 103.182 48.1822 101.641 49.1415 101.062C50.7404 100.035 52.3392 101.641 52.8508 103.696C53.909 108.614 48.6753 109.656 48.0543 104.66ZM58.4787 106.33C56.1299 107.147 54.552 101.788 56.6241 100.227C59.3764 98.0632 61.1787 105.385 58.4764 106.33H58.4787Z" fill="#282732"/>
<path id="Vector_53" d="M54.8338 109.735C53.3628 109.864 53.4907 110.506 54.45 110.635C55.0896 110.699 56.1128 110.57 56.4268 109.992C56.9384 109.093 56.2349 107.614 55.3396 106.779C54.7 106.137 54.3803 106.715 54.6419 107.036C55.221 107.936 56.6245 109.414 54.8338 109.735Z" fill="#282732"/>
<path id="Vector_54" d="M59.502 108C59.4415 107.357 58.8043 107.357 58.8043 108C58.9322 112.369 58.4845 119.371 52.281 119.885C49.8497 120.077 47.2276 118.921 45.1171 117.701C44.7334 117.444 44.2217 118.086 44.6694 118.407C46.7826 119.935 49.2958 120.806 51.8973 120.912C52.0252 121.94 52.2811 123.032 52.409 124.06C52.7287 126.051 53.4962 125.088 53.3683 124.445C53.2336 123.241 53.063 122.042 52.8566 120.848C58.8624 119.885 59.9752 113.009 59.502 108Z" fill="#282732"/>
<path id="Vector_55" d="M50.7403 115.516C51.0942 115.686 51.4799 115.779 51.872 115.789C52.2641 115.799 52.6539 115.726 53.016 115.574C53.3781 115.423 53.7043 115.196 53.9733 114.91C54.2424 114.623 54.4482 114.282 54.5775 113.91C55.0252 112.947 54.7693 112.754 53.938 112.754C53.1294 112.815 52.3177 112.691 51.5641 112.39C50.8105 112.09 50.1347 111.621 49.588 111.02C48.5345 110.137 48.2763 114.574 50.7403 115.516ZM53.81 113.718C52.7868 115.703 49.7159 114.745 49.6531 112.433C50.8661 113.297 52.3232 113.747 53.81 113.718Z" fill="#282732"/>
<path id="Vector_56" d="M50.549 104.467C50.4153 104.851 50.6118 105.88 51.2525 105.751C51.7641 105.687 51.7641 104.981 51.5722 104.531C51.3164 103.889 50.7943 103.757 50.549 104.467Z" fill="#282732"/>
<path id="Vector_57" d="M57.6474 103.31C57.5102 103.758 57.7114 104.916 58.3451 104.659C58.6649 104.531 58.7928 104.21 58.7288 103.632C58.6067 102.92 57.887 102.535 57.6474 103.31Z" fill="#282732"/>
<path id="Vector_58" d="M46.5182 100.677C47.4874 99.5557 48.8284 98.8254 50.2927 98.6214C50.4445 98.5903 50.5802 98.5057 50.6752 98.3828C50.7702 98.2599 50.8182 98.1068 50.8104 97.9514C50.8027 97.796 50.7398 97.6485 50.633 97.5357C50.5263 97.4229 50.3828 97.3523 50.2287 97.3367C49.4887 97.3429 48.7585 97.5065 48.0859 97.8164C47.4133 98.1264 46.8137 98.5759 46.3264 99.1353C44.9194 100.677 46.1241 101.116 46.5182 100.677Z" fill="#282732"/>
<path id="Vector_59" d="M29.5058 99.8419C29.4009 101.835 29.8623 103.818 30.8363 105.558C31.8103 107.298 33.2568 108.724 35.007 109.67C35.3268 111.533 36.5419 113.718 38.8442 113.718C39.532 117.151 39.9807 120.628 40.1872 124.124C40.1828 124.186 40.1911 124.248 40.2116 124.306C40.2321 124.365 40.2643 124.418 40.3063 124.464C40.3483 124.509 40.3992 124.545 40.4557 124.57C40.5123 124.595 40.5733 124.607 40.6349 124.607C40.6966 124.607 40.7576 124.595 40.8141 124.57C40.8706 124.545 40.9215 124.509 40.9635 124.464C41.0055 124.418 41.0378 124.365 41.0583 124.306C41.0787 124.248 41.087 124.186 41.0826 124.124C41.0164 120.779 40.6526 117.447 39.9954 114.168C39.8675 113.589 39.8675 112.432 39.2279 112.496C37.9489 112.625 36.6698 111.533 36.2861 109.477C35.8384 107.293 37.0535 105.495 38.7803 106.324C39.0361 106.452 39.2279 106.26 39.3558 106.131C41.85 103.69 44.9838 99.1937 44.9838 94.2464C48.3093 95.725 56.3047 96.3031 59.95 95.0815C59.6942 90.1996 55.0256 82.684 44.664 83.7118C33.0884 84.8738 29.6198 93.7383 29.5058 99.8419Z" fill="#282732"/>
<path id="Vector_60" d="M56.1129 97.8504C56.9259 97.6017 57.7942 97.6017 58.6071 97.8504C59.2467 98.0431 59.1827 97.4008 58.6711 96.9511C58.2325 96.7183 57.752 96.5757 57.2579 96.5316C56.7637 96.4874 56.2658 96.5427 55.7932 96.6942C54.8339 97.1439 55.1629 98.258 56.1129 97.8504Z" fill="#282732"/>
<path id="Vector_61" d="M31.6797 89.0491C32.4013 87.4542 33.6741 86.1762 35.2622 85.4519C33.9192 75.43 19.9762 74.2738 15.6855 84.2338C11.3948 94.1938 20.0355 98.9496 21.8262 102.606C23.5529 106.268 24.5762 111.922 23.425 114.169C22.2739 116.353 23.6808 116.481 25.2797 113.468C26.5587 111.027 28.8611 103.891 27.0064 97.986C25.0285 91.8755 29.9529 88.5995 31.6797 89.0491Z" fill="#282732"/>
<path id="Vector_62" d="M97.621 140.12C89.4989 139.996 76.0675 139.67 68.7128 140.312C62.9559 140.826 61.5489 142.625 60.2059 147.637C58.2873 154.959 55.2175 167.23 54.1942 174.231C46.466 174.116 38.7371 174.417 31.0407 175.131C28.1628 175.516 27.971 177.636 28.8663 178.535C29.314 178.985 29.8896 178.342 29.564 177.893C29.5006 177.779 29.4603 177.654 29.4453 177.524C29.4303 177.395 29.4409 177.263 29.4766 177.138C29.5123 177.013 29.5722 176.896 29.6531 176.794C29.7339 176.692 29.8341 176.607 29.9477 176.544C31.5466 175.452 50.9268 175.259 53.6768 175.259C54.7001 175.259 55.0198 175.131 55.2756 174.039C57.1942 164.981 59.6942 154.574 61.9907 146.031C62.6884 143.267 64.8047 141.79 68.1954 141.533C76.7652 140.826 88.8535 141.212 97.9349 141.34C101.134 141.404 103.051 142.689 102.797 146.288C102.477 151.105 98.2547 165.881 96.7198 171.341C96.2333 173.482 95.4813 175.554 94.4814 177.507C94.0977 178.15 95.057 178.857 95.4407 178.208C96.5897 175.795 97.5104 173.279 98.1907 170.692C100.237 163.498 103.116 153.091 104.012 146.731C104.407 142.368 101.971 140.186 97.621 140.12Z" fill="#282732"/>
<path id="Vector_63" d="M80.1601 155.538C79.9008 155.921 80.3519 156.501 80.7996 156.18C81.2491 155.812 81.8083 155.606 82.388 155.594C82.9678 155.583 83.5347 155.766 83.9985 156.116C84.8299 156.887 85.0217 158.492 83.4868 161.255C81.5671 164.789 78.945 165.303 77.7892 163.889C76.3822 162.155 77.7252 158.621 79.0682 157.208C79.388 156.822 78.8124 156.244 78.4868 156.565C75.6729 159.135 75.1612 162.926 76.7601 164.66C79.3182 167.487 83.0287 165.174 84.4345 162.155C85.2659 160.355 86.545 157.914 85.3938 156.051C85.1559 155.583 84.8043 155.182 84.3714 154.885C83.9386 154.589 83.4384 154.407 82.917 154.355C82.3956 154.304 81.8698 154.386 81.388 154.592C80.9062 154.799 80.4839 155.124 80.1601 155.538Z" fill="#282732"/>
<path id="Vector_64" d="M87.836 76.5874C89.3139 75.6344 87.3883 73.1175 85.8593 74.6592C84.5744 75.8808 86.6267 77.3664 87.836 76.5874Z" fill="#282732"/>
<path id="Vector_65" d="M72.23 77.6783C73.8975 78.3078 75.1719 76.4578 74.1486 75.4943C72.7417 74.1453 70.3172 76.9565 72.23 77.6783Z" fill="#282732"/>
<path id="Vector_66" d="M79.3289 77.2938C81.5685 77.9946 82.3987 75.1098 80.2243 74.5959C78.8173 74.2747 77.4754 76.7122 79.3289 77.2938Z" fill="#282732"/>
<path id="Vector_67" d="M164.265 88.7277C163.952 88.0819 163.179 88.2781 163.242 88.8562C163.499 90.8417 167.463 91.1687 168.615 88.9847C170.66 85.0021 164.197 83.8458 163.371 86.4153C163.051 87.3788 163.881 87.3146 164.33 86.608C164.905 85.6444 168.678 86.024 167.656 88.3423C167.208 89.4986 164.79 89.8139 164.265 88.7277Z" fill="#3EC491"/>
<path id="Vector_68" d="M153.329 75.3026C153.265 78.8356 156.974 80.1203 159.788 80.6984C170.086 82.8182 174.755 77.2939 173.476 73.4386C173.469 73.3868 173.451 73.337 173.423 73.2926C173.395 73.2483 173.359 73.2104 173.315 73.1815C173.272 73.1526 173.223 73.1334 173.171 73.1252C173.12 73.117 173.067 73.1199 173.017 73.1337C172.967 73.1476 172.92 73.1721 172.88 73.2056C172.84 73.2392 172.808 73.2809 172.785 73.328C172.762 73.3751 172.75 73.4266 172.749 73.4789C172.748 73.5312 172.757 73.5832 172.778 73.6313C173.162 78.3217 167.724 80.0549 163.951 80.1203C161.009 80.1845 152.887 78.6429 154.614 74.1452C154.934 73.3744 154.358 72.9248 153.916 73.3744C151.294 76.1377 147.328 75.3669 145.409 72.0254C143.363 68.4283 144.45 63.3536 148.927 63.9318C149.063 63.9396 149.197 63.8971 149.304 63.8122C149.41 63.7274 149.482 63.6061 149.506 63.4714C149.53 63.3368 149.503 63.198 149.432 63.0816C149.361 62.9652 149.249 62.8791 149.119 62.8398C145.345 61.2981 144.7 55.3873 149.247 52.6251C153.597 49.9915 157.242 51.4689 160.184 54.9376C160.695 55.58 161.335 55.4515 161.399 54.1668C161.719 50.8265 165.94 48.8995 168.947 49.6703C169.744 49.93 170.482 50.3467 171.118 50.8959C171.754 51.4451 172.274 52.1159 172.649 52.8692C173.024 53.6225 173.246 54.4433 173.302 55.2837C173.358 56.124 173.247 56.9672 172.976 57.764C172.784 58.3479 173.359 58.536 173.807 58.4075C177.772 57.3786 181.993 61.7478 182.377 65.5377C183.016 71.7043 177.516 71.897 174.191 71.1904C173.551 71.0619 173.679 71.7743 174.191 71.9612C178.987 73.5671 183.976 71.3189 183.4 65.5377C183.016 61.2981 178.604 56.672 174.127 57.3786C174.438 55.9737 174.345 54.5087 173.858 53.1551C173.371 51.8015 172.51 50.615 171.377 49.7345C167.283 46.7155 161.207 49.3491 160.376 53.5244C159.082 51.9122 157.268 50.8049 155.247 50.3943C153.226 49.9838 151.126 50.2957 149.31 51.2762C144.962 53.5244 142.915 59.371 147.009 62.7113C144.002 63.4179 142.659 66.437 143.043 69.5203C143.991 75.0457 149.555 77.9363 153.329 75.3026Z" fill="#3EC491"/>
<path id="Vector_69" d="M222.663 180.206C168.019 179.642 77.8758 178.571 9.17463 181.684C8.72695 181.684 8.79091 183.097 9.23858 183.097C75.3002 181.419 135.684 180.129 222.727 182.069C223.299 182.069 223.234 180.212 222.663 180.206Z" fill="#3EC491"/>
<path id="Vector_70" d="M74.4688 138.775C77.6664 138.775 83.935 138.775 88.2199 138.711C89.1566 134.325 89.8168 129.883 90.1967 125.413C86.8071 125.863 80.4106 125.542 77.5967 124.45C76.9339 129.301 75.888 134.091 74.4688 138.775Z" fill="#3EC491"/>
<path id="Vector_71" d="M27.0812 178.018C26.8987 177.224 26.989 176.393 27.3374 175.658C27.6859 174.923 28.2718 174.328 28.9998 173.971C30.7266 173.136 48.444 173.007 52.6045 172.814C52.7963 171.787 53.3719 169.025 54.2033 165.427C43.7338 163.317 33.0933 162.177 22.4161 162.023C21.4568 162.023 21.8405 161.122 22.4161 161.122C23.951 161.058 25.4859 161.058 27.0207 161.058C28.2035 156.36 29.9656 151.828 32.2661 147.569C32.5219 147.119 33.0975 147.376 32.9056 147.826C30.9239 152.102 29.3393 156.553 28.1719 161.122C37.0188 161.462 45.8275 162.471 54.5231 164.143C55.93 158.039 57.8487 150.202 59.6394 144.935C61.1742 140.245 63.6045 139.088 66.8673 138.896C68.9977 138.803 71.1307 138.782 73.2626 138.831C73.5184 138.061 73.7742 137.29 74.0301 136.326C70.8963 131.187 64.18 126.626 55.0347 125.919C51.901 129.646 43.1382 129.26 38.3417 124.698C35.5277 125.02 26.2487 127.075 20.6894 133.371C12.8859 142.364 2.26958 162.986 7.38586 173.842C9.9347 179.371 24.1975 178.342 27.0812 178.018Z" fill="#3EC491"/>
<path id="Vector_72" d="M115.209 27.5721C115.405 25.9662 114.314 17.8071 113.482 17.0363C113.433 16.9847 113.372 16.9462 113.305 16.9242C113.237 16.9021 113.166 16.8973 113.096 16.91C113.026 16.9227 112.961 16.9527 112.905 16.9971C112.85 17.0416 112.806 17.0992 112.779 17.1647C112.523 17.7428 114.058 26.5431 114.25 27.5721C114.274 27.6813 114.335 27.7789 114.422 27.8487C114.51 27.9186 114.618 27.9567 114.729 27.9567C114.841 27.9567 114.949 27.9186 115.036 27.8487C115.123 27.7789 115.184 27.6813 115.209 27.5721Z" fill="#3EC491"/>
<path id="Vector_73" d="M124.228 60.3333C124.275 60.2363 124.296 60.1286 124.29 60.0208C124.283 59.913 124.249 59.8087 124.191 59.7181C124.132 59.6275 124.051 59.5537 123.956 59.504C123.86 59.4542 123.754 59.43 123.646 59.434C122.559 59.434 121.088 61.5549 115.715 60.7829C115.133 60.7187 114.755 61.5549 115.331 61.8119C118.728 63.0943 123.709 61.5526 124.228 60.3333Z" fill="#3EC491"/>
<path id="Vector_74" d="M130.751 49.028C133.057 50.3729 135.475 51.5121 137.979 52.4324C138.089 52.4496 138.202 52.4311 138.301 52.3798C138.4 52.3285 138.48 52.2469 138.53 52.1468C138.579 52.0468 138.596 51.9335 138.578 51.8232C138.559 51.7129 138.506 51.6113 138.427 51.5331C136.131 50.1878 133.71 49.0691 131.199 48.1929C131.089 48.1333 130.959 48.1201 130.839 48.1562C130.719 48.1924 130.619 48.2749 130.559 48.3856C130.5 48.4963 130.487 48.6262 130.523 48.7467C130.559 48.8672 130.641 48.9683 130.751 49.028Z" fill="#3EC491"/>
<path id="Vector_75" d="M118.536 63.2251C118.405 63.1971 118.268 63.2192 118.152 63.2872C118.037 63.3552 117.95 63.4642 117.91 63.5927C117.87 63.7213 117.879 63.8602 117.936 63.9823C117.993 64.1044 118.093 64.2009 118.216 64.2529C119.815 65.1522 122.635 64.1244 121.542 63.1609C121.035 62.7112 120.261 63.5615 118.536 63.2251Z" fill="#3EC491"/>
<path id="Vector_76" d="M129.344 33.9314C130.299 33.5343 135.421 27.5079 136.252 26.3516C136.572 25.902 135.869 25.4523 135.485 25.7735C133.367 27.8266 131.36 29.9923 129.472 32.2613C128.257 33.6103 128.894 34.1183 129.344 33.9314Z" fill="#3EC491"/>
<path id="Vector_77" d="M113.227 54.231C113.278 54.3459 113.369 54.4388 113.482 54.4937C113.595 54.5486 113.723 54.5619 113.845 54.5313C113.967 54.5007 114.074 54.4282 114.148 54.3264C114.222 54.2246 114.258 54.0999 114.25 53.9741C113.802 51.1477 111.244 49.536 109.831 47.2293C106.889 42.4105 110.791 36.8862 115.779 35.6015C119.873 34.5095 124.478 35.9869 125.565 40.9331C126.524 45.1738 124.606 48.2571 123.263 52.1112C123.007 52.9463 123.844 53.2033 124.222 52.4324C125.949 49.1622 127.611 45.238 127.1 41.5112C126.204 35.5373 121.216 32.9036 115.651 34.2526C110.791 35.4731 106.634 39.7126 107.465 45.0453C108.174 49.4134 111.986 50.6198 113.227 54.231Z" fill="#3EC491"/>
<path id="Vector_78" d="M114.639 59.113C116.111 59.6387 117.683 59.8194 119.235 59.6413C120.786 59.4631 122.277 58.9309 123.593 58.0852C124.168 57.6356 123.913 56.6721 123.081 56.9932C119.692 58.2137 118.349 58.5349 115.022 58.0852C114.442 58.021 114.058 58.8619 114.639 59.113Z" fill="#3EC491"/>
<path id="Vector_79" d="M97.0449 54.4238C96.5995 55.0077 97.0449 55.7727 98.3239 54.8734C100.101 53.7628 101.79 52.5173 103.377 51.1478C103.462 51.0731 103.518 50.97 103.532 50.8576C103.547 50.7452 103.521 50.6312 103.458 50.5369C103.396 50.4425 103.301 50.3743 103.192 50.3448C103.083 50.3154 102.967 50.3268 102.866 50.3769C100.81 51.5507 98.8625 52.9049 97.0449 54.4238Z" fill="#3EC491"/>
<path id="Vector_80" d="M101.848 37.2716C101.954 37.2992 102.066 37.2887 102.165 37.2419C102.263 37.195 102.342 37.1148 102.388 37.0153C102.434 36.9158 102.443 36.8033 102.415 36.6974C102.386 36.5916 102.322 36.4993 102.232 36.4365C99.6741 34.7704 97.0023 33.2874 94.2368 31.9984C94.1218 31.9622 93.9978 31.9683 93.8869 32.0156C93.776 32.0629 93.6855 32.1483 93.6317 32.2566C93.5778 32.3648 93.564 32.4888 93.5929 32.6062C93.6217 32.7237 93.6913 32.8271 93.7891 32.8977C96.3692 34.5452 99.0624 36.0068 101.848 37.2716Z" fill="#3EC491"/>
<path id="Vector_81" d="M114.64 56.6709C116.763 57.3401 122.123 56.2855 123.275 55.3862C124.042 54.7439 123.339 53.8446 122.379 54.23C119.992 55.1402 117.447 55.5554 114.896 55.4505C113.739 55.3862 113.553 56.3322 114.64 56.6709Z" fill="#3EC491"/>
<path id="Vector_82" d="M119.815 52.9463C119.733 49.5611 120.033 46.1774 120.71 42.8602C120.726 42.7531 120.702 42.644 120.641 42.5545C120.58 42.465 120.488 42.4018 120.383 42.3774C120.278 42.3531 120.168 42.3695 120.075 42.4232C119.981 42.477 119.911 42.5642 119.879 42.6675C119.037 46.0236 118.735 49.4932 118.984 52.9452C118.98 53.0018 118.989 53.0586 119.008 53.1118C119.028 53.1651 119.058 53.2139 119.097 53.2551C119.136 53.2964 119.182 53.3292 119.234 53.3517C119.286 53.3742 119.342 53.3859 119.399 53.3859C119.455 53.386 119.511 53.3745 119.563 53.3522C119.615 53.3299 119.662 53.2971 119.701 53.256C119.74 53.2149 119.77 53.1662 119.79 53.1129C119.809 53.0597 119.818 53.003 119.815 52.9463Z" fill="#3EC491"/>
<path id="Vector_83" d="M118.28 42.2831C116.59 42.7364 114.849 42.9719 113.099 42.9838C113.002 42.9845 112.908 43.0113 112.825 43.0613C112.742 43.1114 112.675 43.1828 112.629 43.2682C112.583 43.3536 112.561 43.4497 112.565 43.5466C112.569 43.6435 112.599 43.7375 112.651 43.8189C113.962 46.7959 115.116 49.8407 116.106 52.9403C116.298 53.5243 116.873 53.39 116.745 52.8119C116.148 49.7793 115.203 46.8263 113.93 44.0116C115.521 43.9361 117.094 43.6333 118.6 43.1123C118.697 43.0615 118.773 42.9764 118.811 42.8734C118.85 42.7703 118.85 42.6565 118.81 42.5538C118.77 42.4511 118.694 42.3667 118.597 42.3167C118.499 42.2667 118.386 42.2548 118.28 42.2831Z" fill="#3EC491"/>
<path id="Vector_84" d="M71.9105 87.0579C72.0684 90.1308 71.587 93.203 70.4969 96.0786C69.4067 98.9542 67.7319 101.57 65.5791 103.759C64.3639 104.98 65.3872 105.237 66.6023 104.787C72.3581 102.539 77.5326 95.9224 79.0093 90.0115C79.2651 88.9838 78.3698 89.048 78.2418 89.6904C77.4568 92.5963 76.087 95.3098 74.217 97.6633C72.3471 100.017 70.0167 101.96 67.3698 103.374C71.285 98.9481 73.3289 93.164 73.0674 87.2494C73.0035 86.2859 72.8756 86.2217 71.7244 86.0289C61.8744 84.4873 58.2291 70.2901 73.7709 64.5731C87.65 59.4973 98.3314 68.9411 95.9 78.4491C94.1093 85.5793 86.5628 86.6713 80.3581 86.6713C79.5267 86.6713 79.5907 87.6991 80.4221 87.6991C86.8174 87.8275 94.1093 86.9282 96.4756 80.5047C101.592 66.8213 87.2663 59.3653 75.1779 62.7745C55.6011 68.4284 60.5256 86.6082 71.9105 87.0579Z" fill="#3EC491"/>
</g>
</g>
</svg>
