<svg width="200" height="200" viewBox="0 0 200 200" fill="none" xmlns="http://www.w3.org/2000/svg">
<g id="teamwork">
<g id="teamwork-5--work-teamwork">
<g id="arm 3">
<path id="vector" fill-rule="evenodd" clip-rule="evenodd" d="M80.8404 150.891C80.9994 150.748 81.1286 150.574 81.2205 150.381C81.3125 150.188 81.3653 149.979 81.3761 149.765C81.3869 149.551 81.3554 149.337 81.2833 149.136C81.2113 148.934 81.1002 148.749 80.9564 148.591C76.8044 144.031 72.9184 139.257 68.8024 134.666C68.5168 134.348 68.1325 134.135 67.7113 134.063C67.2902 133.99 66.8568 134.062 66.4814 134.266C47.6814 144.507 29.0134 155.142 9.58133 164.254C9.35254 164.361 9.15165 164.52 8.99426 164.718C8.83687 164.916 8.72722 165.148 8.67382 165.395C8.62042 165.642 8.62472 165.898 8.68638 166.143C8.74803 166.389 8.86539 166.616 9.02933 166.809L28.9774 190.132C29.2591 190.461 29.642 190.689 30.0664 190.778C30.4908 190.867 30.9328 190.813 31.3234 190.625C38.0234 187.409 43.8174 182.251 49.4904 177.719C60.3004 169.075 70.5814 160.1 80.8404 150.891Z" fill="#232323"/>
<path id="vector_2" fill-rule="evenodd" clip-rule="evenodd" d="M83.4588 113.124C83.3369 112.957 83.1538 112.845 82.9495 112.812C82.7453 112.78 82.5363 112.83 82.3687 112.951C81.4293 113.828 80.4379 114.648 79.3998 115.406C78.8818 114.006 76.8107 111.606 74.7247 111.571C73.1677 111.543 71.5247 112.708 70.3517 115.658C69.5197 117.552 69.1037 119.603 69.1317 121.672C69.0837 122.459 68.7698 129.387 68.7578 130.172C68.7458 130.872 68.7957 131.572 68.7687 132.258C68.7555 132.468 68.8262 132.674 68.9653 132.832C69.1043 132.99 69.3003 133.086 69.5102 133.099C69.7201 133.113 69.9268 133.042 70.0846 132.903C70.2424 132.764 70.3385 132.568 70.3517 132.358C70.4077 131.695 70.4988 131.028 70.5258 130.35C70.6148 127.893 70.3047 126.433 70.6317 122.456C70.7127 121.385 70.8916 120.325 71.1658 119.287C71.3356 118.246 71.5693 117.217 71.8657 116.206C72.5967 113.987 73.5758 112.875 74.7228 112.851C76.2748 112.82 77.3578 114.7 78.0978 116.351C77.1266 117.014 76.1989 117.739 75.3207 118.521C75.1635 118.654 75.0642 118.843 75.0436 119.047C75.023 119.252 75.0826 119.457 75.2101 119.619C75.3377 119.78 75.5231 119.886 75.7271 119.914C75.9311 119.941 76.1379 119.889 76.3038 119.767C77.6338 118.979 81.6167 115.461 83.2827 114.208C83.4484 114.086 83.5598 113.905 83.5927 113.702C83.6256 113.499 83.5776 113.291 83.4588 113.124Z" fill="#232323"/>
<path id="vector_3" fill-rule="evenodd" clip-rule="evenodd" d="M80.3701 113.372C81.432 112.333 82.6459 111.462 83.9701 110.788C84.3934 110.6 84.8324 110.45 85.2821 110.34C86.9661 109.895 87.8751 111.309 88.1921 113.021C88.4957 114.951 88.4128 116.923 87.9481 118.821C87.9377 118.923 87.9476 119.026 87.9772 119.125C88.0068 119.223 88.0555 119.315 88.1205 119.394C88.1855 119.474 88.2656 119.54 88.3561 119.588C88.4466 119.637 88.5459 119.667 88.6481 119.677C88.7498 119.688 88.8528 119.68 88.951 119.651C89.0493 119.622 89.1409 119.574 89.2204 119.51C89.3 119.446 89.3659 119.366 89.4145 119.276C89.463 119.186 89.4931 119.087 89.5031 118.985C89.8101 115.103 89.7711 113.172 89.4811 111.745C88.3901 106.38 82.1681 109.466 80.3921 111.01C79.9652 111.406 79.5709 111.836 79.2131 112.296C79.0781 112.451 79.0087 112.653 79.0197 112.859C79.0306 113.064 79.121 113.258 79.2717 113.398C79.4225 113.538 79.6218 113.614 79.8276 113.61C80.0335 113.607 80.2298 113.523 80.3751 113.377L80.3701 113.372Z" fill="#232323"/>
<path id="vector_4" fill-rule="evenodd" clip-rule="evenodd" d="M89.9763 126.449C89.9342 126.542 89.9108 126.642 89.9074 126.744C89.9041 126.847 89.9211 126.948 89.9571 127.044C89.9931 127.14 90.0476 127.227 90.1175 127.302C90.1874 127.376 90.2712 127.437 90.3643 127.479C90.4574 127.521 90.5579 127.544 90.6601 127.548C90.7622 127.551 90.864 127.534 90.9597 127.498C91.0553 127.462 91.143 127.408 91.2176 127.338C91.2922 127.268 91.3522 127.184 91.3943 127.091C93.3363 122.93 94.4544 117.523 91.9063 113.925C91.8552 113.834 91.7867 113.754 91.7046 113.69C91.6226 113.626 91.5286 113.578 91.4282 113.55C91.3278 113.522 91.2228 113.515 91.1194 113.527C91.016 113.54 90.916 113.573 90.8253 113.625C89.0703 114.622 94.1644 117.142 89.9763 126.449Z" fill="#232323"/>
<path id="vector_5" fill-rule="evenodd" clip-rule="evenodd" d="M94.6884 120.636C94.6444 123.069 94.5564 127.683 93.1984 130.656C93.1526 130.748 93.1258 130.849 93.1196 130.953C93.1134 131.056 93.1279 131.159 93.1622 131.257C93.1966 131.355 93.2501 131.444 93.3196 131.521C93.3892 131.597 93.4733 131.659 93.5671 131.703C93.6609 131.747 93.7625 131.771 93.8659 131.775C93.9692 131.779 94.0723 131.762 94.1691 131.725C94.2658 131.688 94.3543 131.633 94.4292 131.561C94.5041 131.49 94.564 131.404 94.6054 131.31C96.0964 127.216 97.0484 124.759 96.2634 120.472C96.2551 120.366 96.2257 120.264 96.1771 120.17C96.1286 120.076 96.0617 119.993 95.9805 119.925C95.8993 119.858 95.8053 119.807 95.7042 119.776C95.6032 119.746 95.4969 119.736 95.3919 119.746C95.2868 119.757 95.1849 119.789 95.0923 119.84C94.9998 119.891 94.9183 119.96 94.8527 120.043C94.7872 120.126 94.7389 120.221 94.7107 120.323C94.6824 120.424 94.6749 120.531 94.6884 120.636Z" fill="#232323"/>
<path id="vector_6" fill-rule="evenodd" clip-rule="evenodd" d="M98.3114 126.878C98.0774 127.522 97.7914 128.142 97.5614 128.784C97.0324 130.261 96.6204 131.767 95.9614 133.184C95.0852 135.038 93.8785 136.718 92.4004 138.14C90.143 140.675 87.5023 142.841 84.5744 144.559C83.6054 145.159 82.5744 145.677 81.5804 146.287C81.4065 146.399 81.2842 146.575 81.2403 146.777C81.1965 146.979 81.2346 147.19 81.3464 147.364C81.4582 147.538 81.6345 147.66 81.8364 147.704C82.0384 147.748 82.2495 147.71 82.4234 147.598C83.4374 146.915 84.4034 146.188 85.4014 145.53C87.8466 144.039 90.1952 142.396 92.4334 140.609C93.5859 139.686 94.5599 138.56 95.3074 137.287C96.0874 136.204 96.7634 135.051 97.3264 133.841C98.4187 131.803 99.2541 129.637 99.8134 127.394C99.8478 127.296 99.8625 127.192 99.8565 127.088C99.8506 126.984 99.8242 126.882 99.7789 126.788C99.7335 126.695 99.6701 126.611 99.5923 126.542C99.5145 126.473 99.4238 126.42 99.3254 126.386C99.1257 126.318 98.907 126.331 98.717 126.423C98.5271 126.515 98.3813 126.679 98.3114 126.878Z" fill="#232323"/>
</g>
<g id="arm 1">
<path id="vector_7" fill-rule="evenodd" clip-rule="evenodd" d="M107.322 81.4087C104.977 79.8367 100.435 80.2357 95.4406 78.1167C89.0466 75.4097 86.2826 70.7587 83.5306 64.3587C83.0966 63.3527 82.6306 62.2977 82.1946 61.1587C82.1244 60.9598 81.9781 60.7969 81.7879 60.7058C81.5976 60.6148 81.379 60.6031 81.1801 60.6732C80.9811 60.7434 80.8182 60.8896 80.7272 61.0799C80.6361 61.2702 80.6244 61.4888 80.6946 61.6877C81.0796 62.8807 81.4556 64.0117 81.8946 65.0537C83.7316 69.5269 86.5312 73.5406 90.0946 76.8097C94.0946 80.2247 97.0316 80.8287 102.126 81.4557C103.677 81.5093 105.201 81.8703 106.611 82.5177C108.606 83.7827 109.444 85.0337 109.18 86.1647C108.71 88.1757 105.514 88.5267 105.172 88.7287C104.728 87.6052 104.175 86.5281 103.521 85.5127C103.43 85.3231 103.267 85.1774 103.069 85.1077C102.87 85.0381 102.652 85.0501 102.462 85.1412C102.273 85.2323 102.127 85.395 102.057 85.5935C101.988 85.792 102 86.0101 102.091 86.1997C103.202 89.6367 104.74 91.5287 105.991 94.2237C106.078 94.4061 106.232 94.5476 106.422 94.6184C106.611 94.6892 106.82 94.6838 107.006 94.6033C107.191 94.5228 107.338 94.3735 107.415 94.1869C107.493 94.0002 107.495 93.7908 107.421 93.6027C106.672 92.5011 106.059 91.3136 105.593 90.0657C111.528 88.4997 112.066 84.4537 107.322 81.4087Z" fill="#232323"/>
<path id="vector_8" fill-rule="evenodd" clip-rule="evenodd" d="M107.451 91.5597C108.525 93.1921 109.174 95.0668 109.339 97.0137C109.406 98.7557 107.828 99.3337 106.087 99.2687C104.14 99.1416 102.237 98.6319 100.487 97.7687C100.291 97.703 100.077 97.7178 99.8917 97.8099C99.7065 97.9019 99.5653 98.0637 99.4992 98.2597C99.4659 98.3563 99.452 98.4587 99.4586 98.5607C99.4651 98.6628 99.4918 98.7626 99.5372 98.8542C99.5826 98.9459 99.6458 99.0276 99.723 99.0946C99.8003 99.1616 99.8901 99.2126 99.9872 99.2447C100.445 99.3857 104.313 100.423 105.257 100.595C109.575 101.386 111.057 99.7227 110.905 96.9387C110.875 96.4097 110.405 93.9217 110.378 93.8137C110.135 92.6358 109.576 91.5462 108.761 90.6617C108.642 90.4881 108.458 90.369 108.251 90.3307C108.044 90.2923 107.83 90.3378 107.657 90.4572C107.483 90.5765 107.364 90.7599 107.326 90.9671C107.287 91.1742 107.333 91.3881 107.452 91.5617L107.451 91.5597Z" fill="#232323"/>
<path id="vector_9" fill-rule="evenodd" clip-rule="evenodd" d="M103.414 101.755C101.373 101.941 99.317 101.623 97.4273 100.829C95.5376 100.035 93.8718 98.7886 92.5761 97.2002C92.5032 97.1287 92.4169 97.0722 92.3221 97.034C92.2273 96.9958 92.1259 96.9766 92.0237 96.9776C91.9215 96.9785 91.8205 96.9996 91.7265 97.0397C91.6324 97.0797 91.5472 97.1378 91.4756 97.2108C91.4041 97.2837 91.3476 97.37 91.3094 97.4648C91.2711 97.5596 91.252 97.661 91.253 97.7632C91.2539 97.8654 91.275 97.9664 91.315 98.0604C91.355 98.1544 91.4132 98.2397 91.4861 98.3112C94.8261 101.111 99.3061 104.505 103.675 103.311C103.778 103.294 103.876 103.257 103.964 103.202C104.052 103.147 104.129 103.075 104.189 102.99C104.25 102.905 104.293 102.81 104.316 102.708C104.34 102.607 104.343 102.502 104.326 102.399C104.309 102.297 104.272 102.198 104.217 102.11C104.161 102.022 104.09 101.945 104.005 101.885C103.92 101.824 103.824 101.781 103.723 101.758C103.622 101.734 103.517 101.731 103.414 101.748V101.755Z" fill="#232323"/>
<path id="vector_10" fill-rule="evenodd" clip-rule="evenodd" d="M96.7006 104.66C93.1406 103.068 90.6876 102.818 88.0696 99.3604C88.0023 99.2815 87.92 99.217 87.8274 99.1705C87.7349 99.124 87.6339 99.0965 87.5305 99.0896C87.4272 99.0827 87.3235 99.0966 87.2256 99.1305C87.1276 99.1643 87.0375 99.2174 86.9604 99.2867C86.8834 99.3559 86.821 99.4399 86.7769 99.5337C86.7328 99.6274 86.7079 99.729 86.7037 99.8326C86.6996 99.9361 86.7162 100.039 86.7525 100.136C86.7889 100.233 86.8443 100.322 86.9156 100.397C90.0926 103.367 91.9936 105.212 96.2336 106.178C96.4324 106.233 96.645 106.209 96.826 106.11C97.007 106.011 97.1423 105.845 97.2031 105.648C97.2639 105.451 97.2454 105.237 97.1516 105.054C97.0577 104.87 96.8959 104.73 96.7006 104.663V104.66Z" fill="#232323"/>
<path id="vector_11" fill-rule="evenodd" clip-rule="evenodd" d="M90.3536 106.122C83.4276 101.752 82.3536 100.641 80.6396 97.7056C79.2599 95.2779 78.0403 92.7625 76.9886 90.1756C75.6006 87.1206 68.2486 72.3576 65.4006 68.4296C65.3397 68.3476 65.2632 68.2783 65.1754 68.2258C65.0877 68.1733 64.9906 68.1386 64.8894 68.1236C64.7883 68.1087 64.6852 68.1138 64.5861 68.1387C64.4869 68.1635 64.3937 68.2077 64.3116 68.2686C64.2295 68.3296 64.1602 68.4061 64.1077 68.4938C64.0552 68.5815 64.0205 68.6787 64.0056 68.7798C63.9906 68.8809 63.9957 68.984 64.0206 69.0831C64.0455 69.1823 64.0897 69.2756 64.1506 69.3576C69.6506 76.6276 72.4156 84.8286 75.1806 90.6406C75.9386 92.2316 78.7806 97.6716 80.1126 99.7526C81.2465 101.568 82.7448 103.128 84.5126 104.334C86.1126 105.491 87.7888 106.539 89.5296 107.471C89.6182 107.527 89.717 107.564 89.8203 107.582C89.9237 107.599 90.0294 107.596 90.1315 107.573C90.2336 107.549 90.33 107.505 90.4151 107.444C90.5002 107.383 90.5722 107.305 90.6272 107.216C90.6821 107.127 90.7187 107.028 90.735 106.924C90.7513 106.821 90.7468 106.715 90.722 106.613C90.6971 106.511 90.6522 106.415 90.59 106.331C90.5278 106.247 90.4495 106.175 90.3596 106.122H90.3536Z" fill="#232323"/>
<path id="vector_12" fill-rule="evenodd" clip-rule="evenodd" d="M84.3096 56.1188C77.4766 32.2798 79.1526 34.1238 73.5436 9.09282C73.4958 8.8893 73.3703 8.71256 73.1939 8.60042C73.0175 8.48829 72.8041 8.44967 72.5996 8.49282C72.4979 8.51465 72.4016 8.55633 72.316 8.61547C72.2305 8.67462 72.1575 8.75007 72.1012 8.83749C72.0449 8.92492 72.0064 9.0226 71.988 9.12493C71.9695 9.22726 71.9714 9.33223 71.9936 9.43382C72.4796 11.7748 72.9056 13.9038 73.2936 15.8648C66.6936 18.9388 59.5996 20.3898 47.5936 29.9358C46.7244 30.6072 45.9379 31.3792 45.2506 32.2358C44.3949 29.9472 43.7097 27.5985 43.2006 25.2088C43.1567 25.0112 43.0377 24.8385 42.8686 24.7272C42.6996 24.6158 42.4939 24.5746 42.2951 24.6123C42.0962 24.65 41.9198 24.7636 41.8033 24.9291C41.6867 25.0946 41.6391 25.2989 41.6706 25.4988C43.3706 34.1608 56.0066 60.4228 60.5406 68.6778C60.5931 68.7691 60.6631 68.8491 60.7466 68.9133C60.8302 68.9774 60.9255 69.0245 61.0273 69.0517C61.129 69.0789 61.2351 69.0858 61.3395 69.0719C61.4439 69.058 61.5445 69.0237 61.6356 68.9708C68.2896 65.1318 75.4446 62.0408 83.9356 57.0298C84.0906 56.9414 84.2116 56.8038 84.2794 56.6387C84.3472 56.4736 84.3578 56.2906 84.3096 56.1188ZM45.8896 33.9888C51.2116 28.2398 63.4986 21.0888 70.2226 18.5738C71.3386 18.1538 72.4676 17.7738 73.5896 17.3558C73.8276 18.5618 75.6956 27.8038 76.3466 30.8388C63.6336 36.2938 64.7546 35.1728 58.7006 39.0198C53.3246 42.4198 52.1386 43.4438 50.4566 45.0918C48.8736 41.5378 47.2386 37.6218 45.8896 33.9888ZM51.1486 46.6388C51.7386 46.1298 52.3606 45.6598 52.9546 45.1648C54.4546 43.9288 55.9126 42.6718 57.5086 41.5978C62.2481 38.7293 67.1714 36.1761 72.2466 33.9548C73.9266 33.2548 74.6756 32.9948 76.6676 32.3258C77.0626 34.1388 78.9676 42.3348 79.6376 44.9628C78.4576 45.4398 77.3016 45.9628 76.1376 46.4728C66.8136 50.5878 67.8876 50.2378 62.2176 53.9948C60.2179 55.1738 58.3731 56.5974 56.7256 58.2328C54.8076 54.4578 52.9236 50.5568 51.1486 46.6388ZM61.5246 67.1928C60.2606 64.9688 58.8986 62.4578 57.5156 59.7808C60.6757 56.7006 64.3049 54.1417 68.2676 52.1998C72.9786 49.4658 74.9826 47.9808 80.0116 46.4148C80.7316 49.1878 81.5756 52.3038 82.6066 55.9478C78.8856 57.9708 68.3226 63.1878 61.5246 67.1928Z" fill="#3EC491"/>
<path id="vector_13" fill-rule="evenodd" clip-rule="evenodd" d="M91.5006 74.3062C93.3356 68.9642 87.6446 68.0732 82.5216 70.3142C80.0215 71.4587 77.6369 72.8404 75.4006 74.4402C72.4968 76.784 70.0322 79.6247 68.1216 82.8302C65.6496 87.0302 68.8126 91.0442 73.9406 89.6972C74.039 89.6699 74.1312 89.6235 74.2118 89.5607C74.2923 89.4978 74.3597 89.4197 74.4101 89.3308C74.4605 89.2419 74.4929 89.1439 74.5054 89.0425C74.5179 88.9411 74.5103 88.8382 74.4831 88.7397C74.4558 88.6412 74.4094 88.549 74.3466 88.4685C74.2837 88.3879 74.2056 88.3205 74.1167 88.2701C74.0277 88.2197 73.9298 88.1874 73.8284 88.1749C73.7269 88.1623 73.624 88.1699 73.5256 88.1972C69.1756 89.4662 67.4086 86.4712 69.2666 83.5242C70.9652 80.9564 73.0528 78.6684 75.4546 76.7422C78.2726 74.4092 79.8886 73.0792 83.1266 71.7102C85.0006 70.9182 87.5266 70.5532 89.0996 71.1392C90.0446 71.4902 90.4856 72.3162 90.0066 73.8072C89.9402 74.0061 89.9557 74.2232 90.0495 74.4107C90.1432 74.5983 90.3076 74.7409 90.5066 74.8072C90.7055 74.8735 90.9226 74.858 91.1101 74.7643C91.2976 74.6705 91.4402 74.5061 91.5066 74.3072L91.5006 74.3062Z" fill="#3EC491"/>
<path id="vector_14" fill-rule="evenodd" clip-rule="evenodd" d="M90.2931 73.2795C90.7502 72.5052 90.9276 71.5975 90.7956 70.7082C90.6636 69.8188 90.2303 69.0017 89.5682 68.3935C88.3682 67.3265 86.1461 66.7735 82.7681 67.3355C79.7499 67.9429 76.809 68.8858 74.0002 70.1465C71.2295 71.5156 68.7071 73.338 66.5372 75.5385C64.5942 77.5385 63.9001 80.1745 65.0451 81.9035C65.8951 83.1875 67.8321 84.1525 71.3631 83.7435C71.4645 83.7304 71.5623 83.6974 71.651 83.6465C71.7396 83.5956 71.8173 83.5277 71.8798 83.4467C71.9422 83.3657 71.988 83.2732 72.0147 83.1746C72.0413 83.0759 72.0483 82.9729 72.0352 82.8715C72.022 82.7701 71.9891 82.6723 71.9382 82.5837C71.8873 82.4951 71.8193 82.4173 71.7383 82.3549C71.6574 82.2925 71.5649 82.2467 71.4662 82.22C71.3675 82.1933 71.2645 82.1864 71.1632 82.1995C68.3972 82.5875 66.7711 82.1995 66.0861 81.1995C65.2091 79.9195 66.0052 77.9645 67.5092 76.5205C69.6213 74.6827 71.9768 73.1448 74.5092 71.9505C75.0762 71.6605 76.8211 70.7135 78.3091 70.1285C81.0411 69.0545 85.0892 67.9825 87.7172 69.2575C88.0253 69.3861 88.3026 69.5786 88.5308 69.8223C88.759 70.066 88.9329 70.3553 89.041 70.6711C89.1491 70.987 89.189 71.3222 89.158 71.6546C89.127 71.987 89.0258 72.3091 88.8611 72.5995C88.7704 72.7894 88.7589 73.0076 88.829 73.206C88.8992 73.4044 89.0453 73.5668 89.2352 73.6575C89.425 73.7482 89.6432 73.7598 89.8416 73.6896C90.04 73.6195 90.2024 73.4734 90.2931 73.2835V73.2795Z" fill="#3EC491"/>
</g>
<g id="arm 2">
<path id="vector_15" fill-rule="evenodd" clip-rule="evenodd" d="M140.97 97.3763C149.79 95.0263 153.629 93.6763 159.765 92.1503C161.565 91.7023 163.391 91.3223 165.208 90.8573C175.464 88.2323 179.389 86.7223 190.062 86.1193C190.164 86.1122 190.264 86.0851 190.355 86.0396C190.447 85.994 190.528 85.9308 190.595 85.8537C190.662 85.7766 190.714 85.687 190.746 85.5901C190.779 85.4932 190.792 85.3908 190.784 85.2888C190.777 85.1869 190.75 85.0873 190.705 84.9958C190.659 84.9043 190.596 84.8227 190.519 84.7556C190.442 84.6885 190.352 84.6372 190.255 84.6048C190.158 84.5723 190.056 84.5592 189.954 84.5663C185.935 84.8783 178.38 86.1873 174.504 86.9663C162.804 89.3143 163.155 89.5723 159.364 90.6453C147.033 94.1363 150.177 92.9983 140.537 95.8453C140.34 95.9078 140.176 96.0444 140.078 96.226C139.981 96.4077 139.958 96.6202 140.014 96.8186C140.07 97.017 140.201 97.1857 140.38 97.2891C140.558 97.3924 140.77 97.4223 140.97 97.3723V97.3763Z" fill="#232323"/>
<path id="vector_16" fill-rule="evenodd" clip-rule="evenodd" d="M131.637 119.134C134.323 117.281 137.292 115.877 140.428 114.977C148.076 112.677 154.376 112.754 162.483 111.851C165.874 111.474 188.697 108.994 191.605 108.587C191.706 108.572 191.803 108.537 191.891 108.484C191.978 108.431 192.055 108.362 192.115 108.28C192.176 108.198 192.22 108.104 192.245 108.005C192.27 107.906 192.275 107.803 192.26 107.702C192.244 107.601 192.21 107.504 192.157 107.416C192.104 107.329 192.035 107.252 191.953 107.192C191.871 107.131 191.777 107.087 191.678 107.062C191.579 107.037 191.476 107.033 191.375 107.048C188.853 107.448 186.337 107.876 183.801 108.202C174.221 109.432 161.671 109.55 145.982 112.115C139.882 113.115 135.177 114.283 130.659 117.889C130.501 118.021 130.401 118.209 130.38 118.414C130.359 118.618 130.418 118.823 130.545 118.985C130.672 119.147 130.857 119.252 131.061 119.28C131.265 119.308 131.471 119.255 131.637 119.134Z" fill="#232323"/>
<path id="vector_17" fill-rule="evenodd" clip-rule="evenodd" d="M122.327 134.192C120.958 136.086 120.176 136.034 119.076 135.709C117.606 135.273 117.008 132.117 116.828 130.592C116.814 130.491 116.78 130.394 116.728 130.305C116.676 130.217 116.608 130.14 116.526 130.079C116.445 130.017 116.352 129.972 116.253 129.946C116.154 129.921 116.051 129.915 115.95 129.929C115.848 129.943 115.751 129.977 115.663 130.029C115.575 130.08 115.497 130.149 115.436 130.231C115.374 130.312 115.329 130.405 115.304 130.504C115.278 130.603 115.272 130.706 115.286 130.807C115.603 132.817 116.557 136.607 118.45 137.249C124.382 139.259 127.35 127.224 129.45 121.428C129.524 121.233 129.518 121.016 129.435 120.825C129.351 120.634 129.196 120.483 129.002 120.404C126.884 119.577 127.89 126.494 122.327 134.192Z" fill="#232323"/>
<path id="vector_18" fill-rule="evenodd" clip-rule="evenodd" d="M118.826 128.376C117.326 128.712 112.826 130.741 110.487 131.549C110.39 131.581 110.3 131.632 110.223 131.699C110.145 131.766 110.082 131.848 110.036 131.939C109.99 132.031 109.963 132.13 109.956 132.232C109.948 132.335 109.961 132.437 109.993 132.534C110.026 132.631 110.077 132.721 110.144 132.798C110.211 132.876 110.292 132.939 110.384 132.985C110.476 133.031 110.575 133.058 110.677 133.066C110.779 133.073 110.882 133.06 110.979 133.028C113.379 132.238 116.84 130.875 119.384 129.862C119.579 129.786 119.737 129.636 119.823 129.444C119.909 129.253 119.917 129.035 119.844 128.839C119.808 128.741 119.752 128.652 119.682 128.576C119.611 128.5 119.526 128.439 119.431 128.396C119.336 128.353 119.234 128.329 119.13 128.326C119.027 128.322 118.923 128.339 118.826 128.376Z" fill="#232323"/>
<path id="vector_19" fill-rule="evenodd" clip-rule="evenodd" d="M113.524 133.849C112.207 134.543 110.781 135.005 109.308 135.216C106.85 135.531 105.489 134.798 106.523 131.977C107.389 129.612 108.106 127.866 108.517 126.531C108.595 126.343 108.597 126.132 108.521 125.943C108.445 125.754 108.299 125.602 108.112 125.519C107.926 125.437 107.715 125.431 107.524 125.503C107.333 125.574 107.178 125.718 107.092 125.902C106.963 126.216 105.56 130.014 105.278 131.03C104.513 133.789 104.115 136.248 106.941 136.7C109.492 137.157 112.121 136.633 114.302 135.233C114.481 135.128 114.612 134.957 114.666 134.756C114.72 134.555 114.693 134.341 114.591 134.16C114.489 133.979 114.321 133.845 114.121 133.787C113.922 133.729 113.707 133.751 113.524 133.849Z" fill="#232323"/>
<path id="vector_20" fill-rule="evenodd" clip-rule="evenodd" d="M104.61 127.61C104.554 123.233 107.066 119.456 109.778 117.052C109.854 116.984 109.915 116.901 109.959 116.808C110.002 116.716 110.027 116.616 110.032 116.514C110.037 116.412 110.022 116.31 109.987 116.213C109.953 116.117 109.9 116.029 109.831 115.953C109.762 115.878 109.679 115.816 109.587 115.773C109.495 115.729 109.394 115.704 109.292 115.699C109.19 115.694 109.088 115.709 108.992 115.744C108.896 115.778 108.808 115.832 108.732 115.9C105.167 119.052 102.091 123.3 103.032 127.781C103.04 127.887 103.07 127.99 103.118 128.085C103.167 128.179 103.234 128.262 103.316 128.33C103.398 128.398 103.492 128.449 103.594 128.479C103.696 128.51 103.803 128.52 103.908 128.508C104.014 128.497 104.116 128.464 104.209 128.413C104.301 128.361 104.383 128.291 104.448 128.207C104.513 128.124 104.561 128.028 104.589 127.925C104.616 127.822 104.623 127.715 104.608 127.61H104.61Z" fill="#232323"/>
<path id="vector_21" fill-rule="evenodd" clip-rule="evenodd" d="M102.143 121.258C103.027 117.909 104.968 114.934 107.678 112.775C107.756 112.709 107.819 112.629 107.866 112.538C107.912 112.447 107.94 112.348 107.949 112.247C107.957 112.145 107.945 112.043 107.914 111.946C107.882 111.849 107.832 111.759 107.766 111.681C107.7 111.604 107.619 111.54 107.529 111.493C107.438 111.447 107.339 111.419 107.237 111.411C107.136 111.403 107.033 111.414 106.937 111.446C106.84 111.477 106.75 111.527 106.672 111.593C103.525 114.781 101.635 116.881 100.642 120.75C100.606 120.849 100.591 120.955 100.596 121.06C100.601 121.165 100.628 121.268 100.673 121.363C100.719 121.458 100.783 121.543 100.862 121.612C100.941 121.682 101.033 121.736 101.133 121.769C101.233 121.803 101.338 121.817 101.443 121.809C101.548 121.802 101.651 121.773 101.745 121.726C101.839 121.678 101.922 121.612 101.991 121.532C102.059 121.452 102.111 121.359 102.143 121.258Z" fill="#232323"/>
<path id="vector_22" fill-rule="evenodd" clip-rule="evenodd" d="M100.373 116.001C104.884 110.336 108.121 106.351 114.936 104.051C118.474 103.022 122.072 102.21 125.709 101.619C125.809 101.597 125.904 101.556 125.988 101.498C126.072 101.44 126.144 101.366 126.199 101.28C126.255 101.194 126.292 101.098 126.311 100.997C126.329 100.897 126.328 100.794 126.306 100.694C126.284 100.594 126.243 100.499 126.185 100.415C126.127 100.331 126.053 100.259 125.967 100.203C125.881 100.148 125.785 100.11 125.685 100.092C125.584 100.073 125.481 100.075 125.381 100.097C119.275 101.286 113.034 102.372 107.947 105.852C105.234 107.794 102.812 110.113 100.755 112.741C100.184 113.485 99.6814 114.279 99.1194 115.041C98.9914 115.207 98.9348 115.417 98.9619 115.625C98.989 115.833 99.0976 116.022 99.2639 116.15C99.4302 116.278 99.6405 116.335 99.8486 116.308C100.056 116.281 100.245 116.172 100.373 116.006V116.001Z" fill="#232323"/>
<path id="vector_23" fill-rule="evenodd" clip-rule="evenodd" d="M139.275 109.429C142.909 107.846 140.717 102.91 139.422 98.8677C138.901 97.1567 138.182 95.6477 136.449 95.2077C134.143 94.824 131.775 95.0831 129.607 95.9567C128.097 96.6277 127.319 97.7037 127.592 98.8327C127.616 98.9327 129.112 106.964 130.181 108.555C130.682 109.31 131.451 109.846 132.333 110.055C132.65 112.186 133.432 114.222 134.623 116.019C134.684 116.103 134.761 116.175 134.849 116.229C134.938 116.284 135.037 116.32 135.14 116.335C135.243 116.351 135.348 116.346 135.448 116.32C135.549 116.294 135.644 116.249 135.727 116.186C135.81 116.123 135.879 116.044 135.931 115.954C135.983 115.864 136.017 115.764 136.029 115.661C136.042 115.557 136.034 115.453 136.006 115.352C135.977 115.252 135.929 115.159 135.864 115.078C134.637 112.748 134.152 111.514 134.049 110.253C135.276 110.202 136.498 110.065 137.706 109.844C138.176 111.31 138.825 112.713 139.639 114.02C139.701 114.101 139.778 114.17 139.866 114.221C139.954 114.273 140.052 114.306 140.153 114.32C140.255 114.334 140.358 114.328 140.456 114.302C140.555 114.276 140.648 114.231 140.729 114.169C140.811 114.107 140.879 114.03 140.931 113.942C140.983 113.854 141.016 113.756 141.03 113.655C141.044 113.554 141.038 113.451 141.012 113.352C140.986 113.253 140.941 113.16 140.879 113.079C140.218 111.921 139.681 110.698 139.275 109.429ZM133.338 104.788C133.307 104.903 133.232 105.001 133.128 105.061C133.025 105.12 132.903 105.136 132.787 105.105C132.672 105.074 132.574 104.999 132.515 104.896C132.455 104.793 132.439 104.67 132.47 104.555C132.94 102.209 133.661 99.92 134.622 97.7287C134.643 97.6711 134.675 97.6181 134.716 97.5732C134.758 97.5282 134.808 97.492 134.864 97.4669C134.92 97.4418 134.98 97.4282 135.042 97.4269C135.103 97.4256 135.164 97.4367 135.221 97.4595C135.278 97.4823 135.329 97.5163 135.373 97.5596C135.416 97.6028 135.451 97.6543 135.474 97.7111C135.497 97.7679 135.508 97.8287 135.507 97.89C135.506 97.9513 135.493 98.0117 135.468 98.0677C134.613 100.259 133.901 102.504 133.338 104.788ZM137.425 100.417C136.57 102.608 135.858 104.852 135.295 107.136C135.28 107.193 135.253 107.246 135.218 107.293C135.182 107.34 135.137 107.379 135.086 107.409C135.035 107.438 134.978 107.457 134.92 107.465C134.861 107.473 134.802 107.469 134.745 107.454C134.688 107.439 134.635 107.412 134.588 107.376C134.541 107.34 134.502 107.296 134.472 107.245C134.443 107.194 134.423 107.137 134.416 107.079C134.408 107.02 134.412 106.961 134.427 106.904C134.897 104.558 135.618 102.269 136.579 100.078C136.6 100.02 136.632 99.9671 136.673 99.9222C136.715 99.8772 136.765 99.841 136.821 99.8159C136.877 99.7908 136.937 99.7772 136.999 99.7759C137.06 99.7746 137.121 99.7857 137.178 99.8085C137.235 99.8313 137.286 99.8653 137.33 99.9086C137.373 99.9518 137.408 100.003 137.431 100.06C137.454 100.117 137.465 100.178 137.464 100.239C137.463 100.3 137.45 100.361 137.425 100.417Z" fill="#232323"/>
</g>
<g id="star">
<path id="vector_24" fill-rule="evenodd" clip-rule="evenodd" d="M127.686 69.6677C126.335 70.4407 125.186 71.1337 125.186 71.1337C125.052 71.2178 124.945 71.339 124.879 71.4827C124.812 71.6263 124.789 71.7862 124.811 71.9429C124.834 72.0995 124.902 72.2462 125.006 72.3652C125.111 72.4841 125.248 72.5701 125.4 72.6127L127.526 73.2417C127.453 75.4077 127.433 77.3137 127.433 77.3137C127.431 77.481 127.482 77.6447 127.578 77.7817C127.674 77.9186 127.811 78.022 127.969 78.0772C128.127 78.1324 128.298 78.1367 128.459 78.0894C128.619 78.0421 128.761 77.9457 128.864 77.8137C128.864 77.8137 130.55 75.4467 131.492 74.1317C133.787 74.5157 136.174 74.7717 136.174 74.7717C136.336 74.796 136.502 74.7688 136.648 74.694C136.795 74.6191 136.914 74.5004 136.989 74.3545C137.064 74.2085 137.092 74.0427 137.068 73.8802C137.044 73.7178 136.97 73.5669 136.856 73.4487C136.856 73.4487 135.424 72.0027 133.813 70.3487C134.669 68.8247 135.505 67.2877 135.505 67.2877C135.566 67.1714 135.59 67.0393 135.575 66.9089C135.559 66.7785 135.505 66.6558 135.418 66.5571C135.331 66.4584 135.217 66.3882 135.09 66.3558C134.962 66.3234 134.828 66.3304 134.705 66.3757C132.286 67.3027 132.035 67.4757 131.321 67.7537C130.171 66.5347 129.321 65.5877 129.321 65.5877C129.211 65.4741 129.07 65.3948 128.916 65.3595C128.762 65.3242 128.6 65.3343 128.452 65.3887C128.303 65.4431 128.173 65.5394 128.078 65.6659C127.983 65.7924 127.927 65.9438 127.916 66.1017C127.916 66.1017 127.76 68.3727 127.686 69.6677Z" fill="#3EC491"/>
<path id="vector_25" fill-rule="evenodd" clip-rule="evenodd" d="M46.6758 87.7997C44.7208 87.9307 43.0048 88.0807 43.0048 88.0807C42.8456 88.0995 42.6954 88.1645 42.5726 88.2676C42.4499 88.3707 42.36 88.5075 42.314 88.6611C42.2679 88.8146 42.2678 88.9783 42.3136 89.1319C42.3595 89.2855 42.4492 89.4224 42.5718 89.5257L44.7788 91.4187C43.5788 93.7527 42.5588 95.8517 42.5588 95.8517C42.4826 96.001 42.4559 96.1707 42.4825 96.3361C42.5091 96.5016 42.5876 96.6544 42.7068 96.7723C42.8259 96.8902 42.9794 96.9671 43.1452 96.992C43.3109 97.0169 43.4803 96.9884 43.6288 96.9107L48.6008 94.2777C51.0188 95.9177 53.6398 97.4957 53.6398 97.4957C53.777 97.5842 53.9385 97.6276 54.1015 97.6198C54.2646 97.612 54.4212 97.5535 54.5494 97.4523C54.6775 97.3512 54.7709 97.2125 54.8163 97.0556C54.8617 96.8988 54.857 96.7317 54.8028 96.5777C54.8028 96.5777 53.9028 94.2237 52.9098 91.5607C54.6608 90.3467 56.4318 89.0907 56.4318 89.0907C56.5399 89.0142 56.6219 88.9062 56.6666 88.7816C56.7114 88.6569 56.7167 88.5214 56.6819 88.3936C56.6471 88.2658 56.5738 88.1518 56.472 88.067C56.3702 87.9822 56.2448 87.9308 56.1128 87.9197C56.0128 87.9107 53.5198 87.6967 51.4668 87.6297C50.7518 85.6527 50.2308 84.1237 50.2308 84.1237C50.1766 83.9764 50.0811 83.8478 49.9557 83.7534C49.8304 83.6589 49.6805 83.6026 49.5239 83.5911C49.3674 83.5796 49.2108 83.6134 49.073 83.6885C48.9352 83.7637 48.822 83.8769 48.7468 84.0147C48.7468 84.0147 47.4198 86.4197 46.6758 87.7997Z" fill="#3EC491"/>
<path id="vector_26" fill-rule="evenodd" clip-rule="evenodd" d="M106.846 153.188C104.146 153.288 102.046 153.333 102.046 153.333C101.89 153.34 101.74 153.391 101.611 153.479C101.483 153.567 101.382 153.69 101.319 153.832C101.257 153.975 101.236 154.132 101.258 154.286C101.28 154.441 101.346 154.585 101.446 154.704C101.446 154.704 103.581 157.194 104.82 158.614C103.976 161.047 103.284 163.214 103.284 163.214C103.237 163.373 103.239 163.542 103.29 163.699C103.341 163.856 103.438 163.995 103.568 164.096C103.699 164.197 103.857 164.257 104.022 164.266C104.187 164.276 104.351 164.236 104.493 164.151L107.93 162.145C110.044 164.489 111.974 166.565 111.974 166.565C112.084 166.686 112.229 166.77 112.389 166.805C112.549 166.84 112.715 166.825 112.866 166.762C113.017 166.699 113.145 166.591 113.232 166.453C113.319 166.315 113.361 166.153 113.353 165.989C113.353 165.989 112.983 161.177 112.812 158.864C115.932 156.597 119.128 154.049 119.128 154.049C119.262 153.95 119.36 153.811 119.408 153.651C119.457 153.492 119.453 153.321 119.397 153.164C119.341 153.007 119.236 152.873 119.097 152.78C118.959 152.687 118.794 152.642 118.628 152.649C118.628 152.649 115.456 152.817 111.881 152.98C111.35 150.41 110.775 147.762 110.775 147.762C110.745 147.633 110.676 147.517 110.578 147.428C110.48 147.339 110.357 147.283 110.225 147.266C110.094 147.249 109.961 147.273 109.843 147.335C109.726 147.396 109.63 147.492 109.569 147.609C108.142 150.361 106.892 153.087 106.846 153.188Z" fill="#3EC491"/>
</g>
<g id="details">
<path id="vector_27" d="M122.138 48.6305C122.011 48.6305 121.886 48.5982 121.774 48.5365C121.663 48.4748 121.569 48.3858 121.502 48.2779C121.435 48.17 121.396 48.0467 121.389 47.9196C121.382 47.7925 121.408 47.6659 121.464 47.5515L130.839 28.3875C130.882 28.299 130.943 28.2199 131.016 28.1547C131.09 28.0895 131.176 28.0394 131.269 28.0074C131.363 27.9755 131.461 27.9621 131.56 27.9682C131.658 27.9743 131.754 27.9998 131.843 28.043C131.931 28.0863 132.01 28.1466 132.075 28.2204C132.141 28.2943 132.191 28.3802 132.223 28.4734C132.255 28.5666 132.268 28.6652 132.262 28.7635C132.256 28.8618 132.23 28.958 132.187 29.0465L122.812 48.2105C122.75 48.3367 122.654 48.4429 122.535 48.5172C122.416 48.5915 122.278 48.6307 122.138 48.6305Z" fill="#232323"/>
<path id="vector_28" d="M114.968 47.6662C114.778 47.6658 114.595 47.5934 114.457 47.4634C114.318 47.3335 114.234 47.1558 114.221 46.9662L113.121 30.6972C113.114 30.5987 113.127 30.4999 113.159 30.4064C113.191 30.3128 113.24 30.2265 113.305 30.1522C113.37 30.0779 113.449 30.0172 113.538 29.9734C113.626 29.9296 113.723 29.9037 113.821 29.8972C113.92 29.8906 114.018 29.9035 114.112 29.9351C114.205 29.9668 114.292 30.0165 114.366 30.0815C114.44 30.1465 114.501 30.2255 114.545 30.314C114.589 30.4024 114.614 30.4987 114.621 30.5972L115.721 46.8662C115.728 46.969 115.713 47.0721 115.678 47.1691C115.644 47.2661 115.589 47.3549 115.519 47.4299C115.448 47.505 115.363 47.5647 115.268 47.6053C115.173 47.6459 115.071 47.6667 114.968 47.6662Z" fill="#232323"/>
<path id="vector_29" d="M150.528 166.9C150.405 166.9 150.283 166.87 150.174 166.812C150.065 166.754 149.973 166.669 149.904 166.567L136.26 146.184C136.204 146.102 136.165 146.01 136.144 145.913C136.124 145.816 136.123 145.716 136.142 145.618C136.161 145.521 136.198 145.428 136.253 145.346C136.308 145.263 136.379 145.192 136.461 145.137C136.543 145.082 136.636 145.043 136.733 145.024C136.83 145.005 136.931 145.005 137.028 145.025C137.125 145.045 137.217 145.083 137.299 145.139C137.381 145.195 137.452 145.266 137.506 145.349L151.15 165.728C151.226 165.841 151.271 165.973 151.278 166.109C151.285 166.245 151.255 166.381 151.191 166.501C151.128 166.621 151.032 166.722 150.915 166.793C150.798 166.863 150.664 166.9 150.528 166.9Z" fill="#232323"/>
<path id="vector_30" d="M158.212 154.029C157.875 154.029 158.135 154.12 144.512 145.538C144.429 145.485 144.356 145.417 144.3 145.336C144.243 145.256 144.202 145.165 144.18 145.069C144.158 144.973 144.156 144.873 144.172 144.776C144.189 144.679 144.225 144.586 144.277 144.503C144.33 144.419 144.398 144.347 144.479 144.29C144.559 144.233 144.65 144.193 144.746 144.171C144.842 144.149 144.942 144.146 145.039 144.163C145.136 144.18 145.229 144.215 145.312 144.268L158.612 152.644C158.749 152.731 158.854 152.86 158.912 153.012C158.969 153.164 158.976 153.33 158.931 153.486C158.886 153.642 158.792 153.779 158.662 153.877C158.532 153.975 158.375 154.028 158.212 154.029Z" fill="#232323"/>
</g>
</g>
</g>
</svg>
