<svg width="53" height="52" viewBox="0 0 53 52" fill="none" xmlns="http://www.w3.org/2000/svg">
<g id="Frame 29141">
<g id="Group 260">
<g id="robot">
<path id="Rectangle-path (Stroke)" fill-rule="evenodd" clip-rule="evenodd" d="M12.402 8.6394C12.402 7.25869 13.5213 6.1394 14.902 6.1394H37.6209C39.0016 6.1394 40.1209 7.25869 40.1209 8.6394V21.0708C40.1209 22.4515 39.0016 23.5708 37.6209 23.5708H14.902C13.5213 23.5708 12.402 22.4515 12.402 21.0708V8.6394ZM14.902 8.1394C14.6258 8.1394 14.402 8.36326 14.402 8.6394V21.0708C14.402 21.3469 14.6258 21.5708 14.902 21.5708H37.6209C37.8971 21.5708 38.1209 21.3469 38.1209 21.0708V8.6394C38.1209 8.36326 37.8971 8.1394 37.6209 8.1394H14.902Z" />
<path id="Oval (Stroke)" fill-rule="evenodd" clip-rule="evenodd" d="M15.8312 14.8551C15.8312 12.8824 17.4304 11.2832 19.4031 11.2832C21.3758 11.2832 22.975 12.8824 22.975 14.8551C22.975 16.8278 21.3758 18.427 19.4031 18.427C17.4304 18.427 15.8312 16.8278 15.8312 14.8551ZM19.4031 13.2832C18.5349 13.2832 17.8312 13.987 17.8312 14.8551C17.8312 15.7232 18.5349 16.427 19.4031 16.427C20.2712 16.427 20.975 15.7232 20.975 14.8551C20.975 13.987 20.2712 13.2832 19.4031 13.2832Z" />
<path id="Oval (Stroke)_2" fill-rule="evenodd" clip-rule="evenodd" d="M29.548 14.8551C29.548 12.8824 31.1472 11.2832 33.1199 11.2832C35.0926 11.2832 36.6918 12.8824 36.6918 14.8551C36.6918 16.8278 35.0926 18.427 33.1199 18.427C31.1472 18.427 29.548 16.8278 29.548 14.8551ZM33.1199 13.2832C32.2517 13.2832 31.548 13.987 31.548 14.8551C31.548 15.7232 32.2517 16.427 33.1199 16.427C33.988 16.427 34.6918 15.7232 34.6918 14.8551C34.6918 13.987 33.988 13.2832 33.1199 13.2832Z" />
<path id="Shape (Stroke)" fill-rule="evenodd" clip-rule="evenodd" d="M22.6896 27.7148C22.6896 27.1625 23.1373 26.7148 23.6896 26.7148H28.8334C29.3857 26.7148 29.8334 27.1625 29.8334 27.7148C29.8334 28.2671 29.3857 28.7148 28.8334 28.7148H23.6896C23.1373 28.7148 22.6896 28.2671 22.6896 27.7148Z" />
<path id="Shape (Stroke)_2" fill-rule="evenodd" clip-rule="evenodd" d="M31.3534 31.8584C33.5525 31.8567 35.6344 32.8491 37.018 34.5583C38.4016 36.2677 38.9384 38.5109 38.4785 40.6615L37.6795 44.3927C37.4956 45.2488 36.7387 45.8607 35.8632 45.8606C35.8631 45.8606 35.8633 45.8606 35.8632 45.8606H16.652C15.7819 45.8539 15.0331 45.244 14.8504 44.3933L14.0513 40.6618C13.5917 38.5126 14.1275 36.2705 15.5093 34.5614C16.8911 32.8524 18.971 31.859 21.1688 31.8584L31.3534 31.8584ZM35.4634 35.8167C34.4599 34.5769 32.9497 33.8571 31.3546 33.8584L21.1694 33.8584C21.1693 33.8584 21.1695 33.8584 21.1694 33.8584C19.5754 33.8589 18.0667 34.5794 17.0646 35.8189C16.0624 37.0584 15.6737 38.6842 16.007 40.2429L16.7817 43.8606H35.7481L36.5227 40.2432C36.5227 40.2433 36.5228 40.2431 36.5227 40.2432C36.8562 38.6835 36.4669 37.0564 35.4634 35.8167Z" />
<path id="Union" d="M45.922 21.9708C45.5906 21.529 44.9638 21.4394 44.522 21.7708C44.0802 22.1022 43.9906 22.729 44.322 23.1708C45.411 24.6229 45.1168 26.6828 43.6647 27.7719C43.4421 27.9388 43.2052 28.0733 42.9597 28.176C42.944 28.182 42.9286 28.1883 42.9134 28.195C41.5671 28.7343 39.9752 28.3301 39.0636 27.1146C38.7322 26.6728 38.1054 26.5832 37.6636 26.9146C37.2218 27.246 37.1322 27.8728 37.4636 28.3146C38.6839 29.9417 40.6621 30.665 42.5397 30.362C42.6828 32.1101 41.9458 33.836 40.5428 34.9401L36.9898 37.6897C36.553 38.0277 36.4729 38.6558 36.8109 39.0925C37.1489 39.5293 37.777 39.6094 38.2138 39.2714L41.7699 36.5195L41.7758 36.5149C43.8615 34.8757 44.8814 32.2407 44.466 29.6438C44.6016 29.56 44.7347 29.4694 44.8647 29.3719C47.2004 27.6201 47.6738 24.3065 45.922 21.9708Z" />
<path id="Union_2" fill-rule="evenodd" clip-rule="evenodd" d="M8.20094 23.1708C8.53232 22.7289 8.44277 22.1021 8.00094 21.7708C7.55912 21.4394 6.93232 21.5289 6.60094 21.9708C4.84916 24.3065 5.32252 27.6201 7.65824 29.3719C7.78825 29.4694 7.92128 29.56 8.0569 29.6437C7.64156 32.2407 8.66138 34.8757 10.7472 36.5148L10.7471 36.5148L10.7532 36.5196L14.311 39.2715C14.7479 39.6094 15.3759 39.5292 15.7138 39.0923C16.0517 38.6555 15.9715 38.0274 15.5347 37.6895L11.98 34.94C10.5771 33.8359 9.84011 32.1101 9.98325 30.362C11.8608 30.665 13.839 29.9416 15.0593 28.3146C15.3907 27.8727 15.3012 27.2459 14.8593 26.9146C14.4175 26.5832 13.7907 26.6727 13.4593 27.1146C12.3703 28.5666 10.3103 28.8609 8.85824 27.7719C7.40618 26.6828 7.1119 24.6228 8.20094 23.1708Z" />
<path id="Shape (Stroke)_3" fill-rule="evenodd" clip-rule="evenodd" d="M19.2604 38.8594C19.2604 37.8337 20.0919 37.0021 21.1177 37.0021H31.4053C32.431 37.0021 33.2626 37.8337 33.2626 38.8594V44.8605C33.2626 45.4128 32.8148 45.8605 32.2626 45.8605C31.7103 45.8605 31.2626 45.4128 31.2626 44.8605V39.0021H21.2604V44.8605C21.2604 45.4128 20.8127 45.8605 20.2604 45.8605C19.7081 45.8605 19.2604 45.4128 19.2604 44.8605V38.8594Z" fill="#774CDC"/>
</g>
</g>
</g>
</svg>
