<svg width="284" height="284" viewBox="0 0 284 284" fill="none" xmlns="http://www.w3.org/2000/svg">
<path fill-rule="evenodd" clip-rule="evenodd" d="M76.0394 16C76.0394 14.6193 77.1587 13.5 78.5394 13.5H141.642C143.023 13.5 144.142 14.6193 144.142 16V64.108L145.111 63.6424C145.883 63.2709 146.792 63.3211 147.519 63.7754L153.179 67.3127L156.318 65.8252C157.449 65.2893 158.802 65.6723 159.484 66.7215L162.011 70.6069L163.289 69.9836C164.22 69.5295 165.335 69.6968 166.092 70.4042L169.706 73.7818L174.963 74.4826L177.438 72.7994C178.269 72.2344 179.358 72.2218 180.202 72.7674L185.799 76.3864C185.984 76.506 186.152 76.6495 186.299 76.8132L189.094 79.9171L191.046 78.6972C191.833 78.2053 192.828 78.1901 193.63 78.6578L198.023 81.2198L200.524 79.8881C201.646 79.2909 203.037 79.6301 203.758 80.6766L204.355 81.5434L205.497 80.3594C206.092 79.7428 206.961 79.4736 207.8 79.646L212.93 80.7001C213.179 80.7512 213.419 80.84 213.641 80.9634L220.272 84.6461L222.207 82.4351C222.641 81.9393 223.253 81.6348 223.91 81.5879L236.701 80.6745L244.372 78.4189C244.868 78.273 245.398 78.2846 245.887 78.4521L249.618 79.7296C249.83 79.802 250.031 79.9024 250.216 80.0282L253.134 82.015C253.187 82.0512 253.239 82.0894 253.289 82.1296L259.389 87.0106L267.806 90.1731C268.679 90.501 269.297 91.2872 269.409 92.2127C269.496 92.9348 269.626 93.8519 269.776 94.9244C270.629 100.981 272.179 111.993 270.872 120.82C270.441 123.728 270.546 125.591 270.858 126.929C271.164 128.242 271.708 129.225 272.476 130.387C272.626 130.614 272.789 130.854 272.963 131.109C273.654 132.124 274.502 133.368 275.24 134.876C276.196 136.83 276.988 139.232 277.409 142.519C277.541 143.553 277.98 144.573 278.686 145.839C278.873 146.175 279.096 146.554 279.336 146.962C279.903 147.926 280.566 149.053 281.081 150.158C281.872 151.855 282.5 153.832 282.5 156.195C282.5 158.552 281.876 161.115 280.43 164.007C279.396 166.073 279.104 167.529 279.067 168.613C279.03 169.695 279.234 170.554 279.495 171.656L279.519 171.755L279.521 171.764C279.78 172.856 280.135 174.356 279.794 176.091C279.447 177.859 278.46 179.547 276.761 181.377C274.615 183.687 273.872 185.085 273.649 185.785C273.753 185.83 273.888 185.897 274.03 185.989L274.037 185.994C274.127 186.052 274.624 186.373 274.929 187.023C275.125 187.442 275.268 188.062 275.074 188.759C274.887 189.427 274.478 189.847 274.19 190.069C273.71 190.438 273.226 190.527 273.126 190.545L273.119 190.546C272.945 190.579 272.805 190.586 272.733 190.588C272.479 190.596 272.271 190.563 272.206 190.553C272.099 190.535 271.989 190.512 271.88 190.484C271.871 190.483 271.863 190.483 271.854 190.482C271.557 190.455 271.02 190.425 270.151 190.425C268.43 190.425 267.69 190.603 267.386 190.719C267.214 190.785 267.187 190.803 266.895 191.112L266.88 191.128C266.476 191.556 265.809 192.262 264.555 192.742C263.416 193.178 261.967 193.367 260.003 193.367C258.145 193.367 256.67 193.283 255.565 193.013C254.408 192.731 253.071 192.089 252.502 190.553C252.27 189.925 252.246 189.333 252.256 188.923C252.264 188.555 252.308 188.169 252.34 187.888L252.348 187.817C252.393 187.413 252.429 187.055 252.43 186.693C252.407 186.699 252.383 186.705 252.359 186.711C251.929 186.825 251.551 186.956 251.111 187.109C250.856 187.198 250.58 187.294 250.261 187.397C249.893 187.517 249.445 187.652 248.998 187.733C248.912 187.748 248.807 187.766 248.688 187.78C249.515 188.38 250.303 188.954 250.838 189.382C251.915 190.244 252.567 191.458 252.928 192.59C253.297 193.746 253.431 195.023 253.308 196.24C253.187 197.437 252.795 198.766 251.918 199.852C250.978 201.016 249.581 201.761 247.876 201.761C247.874 201.761 247.871 201.761 247.868 201.76C247.815 201.759 247.667 201.754 247.256 202.151C246.82 202.572 246.392 203.137 245.743 203.994C245.604 204.177 245.455 204.374 245.293 204.585C243.555 206.861 241.049 209.896 236.401 212.222C231.952 214.447 228.455 215.139 225.675 215.224C224.302 215.266 223.153 215.158 222.24 215.049C221.952 215.015 221.711 214.984 221.505 214.958C220.978 214.892 220.678 214.854 220.406 214.854C220.058 214.854 219.591 214.883 219.095 214.948C219.622 215.742 219.906 216.702 219.759 217.8C219.549 219.357 218.526 220.565 217.615 221.394C215.719 223.119 212.668 224.659 209.594 225.842C208.907 226.106 208.034 226.738 207.036 227.826C206.062 228.89 205.097 230.248 204.196 231.745C202.388 234.752 200.986 238.071 200.356 240.104C200.351 240.12 200.345 240.137 200.34 240.153C200.336 240.165 200.332 240.177 200.328 240.189C199.904 241.399 199.571 243.367 199.359 246.33C199.15 249.251 199.069 252.958 199.069 257.55C199.069 263.234 199.501 266.163 199.999 267.821C200.382 269.093 200.777 269.604 201.346 270.338C201.451 270.474 201.561 270.617 201.679 270.774C202.207 271.478 202.408 272.273 202.488 272.89C202.572 273.538 202.549 274.203 202.467 274.826C202.304 276.059 201.874 277.404 201.203 278.55C200.575 279.621 199.464 280.969 197.732 281.382C195.756 281.853 194.017 280.899 192.743 279.465C191.457 278.017 189.715 277.359 187.53 277.054C186.431 276.901 185.292 276.846 184.094 276.803C183.952 276.798 183.808 276.793 183.662 276.788C182.632 276.752 181.529 276.715 180.518 276.602C179.002 276.434 177.827 275.888 176.923 275.052C176.197 274.381 175.734 273.576 175.488 273.149C175.461 273.102 175.436 273.059 175.414 273.022C175.36 272.93 175.316 272.859 175.281 272.804C175.189 272.813 175.061 272.832 174.888 272.87C172.312 273.443 169.821 272.458 168.047 271.428C166.206 270.36 164.652 268.963 163.743 267.963C163.682 267.895 163.625 267.825 163.571 267.751C160.044 262.896 157.079 258.023 154.288 253.169C154.148 252.926 154.05 252.661 153.999 252.385C152.098 242.274 148.252 238.001 143.454 232.672C141.544 230.55 139.482 228.261 137.333 225.368C130.538 216.223 129.7 212.462 129.7 209.415C129.7 209.148 129.703 208.922 129.705 208.727C129.714 207.922 129.717 207.646 129.502 207.105C129.198 206.339 128.385 205.041 126.015 202.556C121.492 197.814 118.804 197.039 117.348 196.696C117.245 196.671 117.11 196.642 116.961 196.609C116.646 196.539 116.268 196.456 115.999 196.382C115.525 196.252 114.855 196.028 114.229 195.534C112.86 194.455 112.556 192.807 112.436 191.359C112.359 190.441 111.601 189.404 109.75 188.411C108.169 187.563 106.28 187.03 104.892 186.785C102.023 187.449 95.881 188.484 90.3487 188.114C89.0086 188.025 88.3495 188.286 88.0043 188.512C87.6457 188.746 87.3164 189.145 86.9981 189.888C86.674 190.645 86.4531 191.524 86.1713 192.646L86.1385 192.776C85.8674 193.855 85.5227 195.213 84.9212 196.417C84.6748 196.91 84.3962 197.499 84.0943 198.138C83.3952 199.616 82.5708 201.36 81.7309 202.789C81.1116 203.842 80.3756 204.926 79.51 205.772C78.6657 206.598 77.4072 207.479 75.7757 207.479C75.0898 207.479 74.3856 207.287 73.8527 207.116C73.2584 206.925 72.5959 206.664 71.9071 206.366C70.5259 205.768 68.8914 204.958 67.2212 204.081C63.8775 202.326 60.2464 200.23 57.9159 198.831C55.2278 197.248 51.2178 194.614 47.8907 191.821C46.232 190.429 44.6589 188.927 43.5037 187.437C42.441 186.066 41.3203 184.192 41.5042 182.167C41.6963 180.053 41.3092 177.881 40.7151 176.196C40.4188 175.356 40.0962 174.709 39.8258 174.294C39.7453 174.17 39.6799 174.083 39.6331 174.026C39.0325 173.745 38.6134 173.326 38.3567 173.028C38.0276 172.645 37.7607 172.216 37.5464 171.824C37.1171 171.038 36.7353 170.091 36.4072 169.195C36.0954 168.345 35.7989 167.446 35.5356 166.649L35.481 166.483C35.2396 165.752 35.0361 165.143 34.8611 164.676C34.7602 164.615 34.5971 164.53 34.3496 164.426C33.7028 164.156 32.8859 163.92 31.8653 163.625C31.7632 163.596 31.6591 163.565 31.5529 163.535C30.4862 163.226 29.1914 162.842 28.0935 162.311C27.0763 161.818 25.6054 160.912 25.0402 159.216C24.818 158.548 23.925 157.43 22.5012 156.279C21.8469 155.75 21.1742 155.291 20.5841 154.947C19.9524 154.579 19.5576 154.428 19.4357 154.398C18.9023 154.264 18.4831 154.008 18.2242 153.829C17.94 153.633 17.6769 153.408 17.4458 153.193C16.9848 152.764 16.4955 152.227 16.0143 151.671C15.4569 151.027 14.8035 150.229 14.1319 149.409C13.6782 148.855 13.2163 148.291 12.77 147.757C11.6026 146.361 10.4328 145.035 9.33684 144.016C8.15528 142.918 7.39659 142.503 7.06338 142.429C5.48714 142.078 4.33385 141.094 3.52998 140.053C2.73165 139.019 2.1653 137.79 1.75633 136.617C0.938587 134.272 0.588011 131.672 0.503118 129.973C0.46895 129.289 0.716749 128.621 1.18866 128.125C1.66058 127.629 2.31531 127.348 3 127.348H76.0394V16ZM175.472 272.8C175.473 272.8 175.468 272.8 175.458 272.798C175.468 272.799 175.472 272.8 175.472 272.8ZM268.615 185.471C268.647 185.211 268.698 184.95 268.764 184.688C269.24 182.821 270.616 180.646 273.097 177.974C274.43 176.54 274.783 175.663 274.888 175.128C274.998 174.566 274.919 174.03 274.653 172.907C274.638 172.842 274.622 172.775 274.606 172.706C274.354 171.655 274.01 170.214 274.07 168.443C274.135 166.525 274.659 164.367 275.958 161.77C277.128 159.431 277.5 157.631 277.5 156.195C277.5 154.765 277.13 153.519 276.548 152.269C276.133 151.378 275.686 150.621 275.186 149.774C274.914 149.313 274.626 148.825 274.319 148.274C273.523 146.846 272.705 145.152 272.449 143.155C272.094 140.379 271.451 138.508 270.749 137.073C270.183 135.918 269.588 135.042 268.923 134.063C268.724 133.77 268.518 133.467 268.305 133.144C267.404 131.781 266.492 130.22 265.989 128.064C265.492 125.933 265.435 123.403 265.926 120.088C267.112 112.074 265.711 102.014 264.852 95.8443C264.777 95.3072 264.707 94.7996 264.642 94.3254L257.258 91.5513C257.012 91.4586 256.781 91.3276 256.575 91.163L250.241 86.0939L247.68 84.351L245.02 83.4401L237.853 85.5474C237.681 85.5979 237.505 85.6298 237.326 85.6426L225.292 86.502L222.704 89.4586C221.928 90.345 220.639 90.5696 219.609 89.9976L211.549 85.5206L208.141 84.8205L205.831 87.2159C205.31 87.756 204.574 88.0336 203.827 87.9721C203.079 87.9106 202.398 87.5165 201.973 86.8987L200.906 85.3497L199.143 86.2883C198.378 86.6955 197.457 86.6776 196.708 86.2411L192.415 83.7374L189.964 85.2691C188.935 85.912 187.593 85.7233 186.781 84.8216L182.805 80.405L178.879 77.8663L176.985 79.1542C176.476 79.5 175.858 79.6462 175.249 79.565L168.252 78.6323C167.737 78.5636 167.256 78.3358 166.876 77.9807L163.934 75.2316L162.216 76.0698C161.081 76.623 159.712 76.2437 159.024 75.1856L156.484 71.2795L154.084 72.4167C153.314 72.7816 152.411 72.7292 151.689 72.2775L146.037 68.7451L142.726 70.3374C141.951 70.71 141.039 70.6584 140.312 70.2009C139.584 69.7433 139.142 68.944 139.142 68.0844V18.5H81.0394V129.848C81.0394 131.229 79.9201 132.348 78.5394 132.348H5.80792C5.96573 133.222 6.18551 134.133 6.47762 134.971C6.78642 135.857 7.13553 136.541 7.48776 136.997C7.83444 137.446 8.06681 137.53 8.14875 137.548C9.88826 137.935 11.4902 139.191 12.7412 140.354C14.0778 141.597 15.4126 143.123 16.6058 144.55C17.1367 145.185 17.6246 145.781 18.0807 146.339C18.7015 147.098 19.2635 147.785 19.7955 148.4C20.2427 148.916 20.5919 149.291 20.8524 149.533C20.8992 149.577 20.9379 149.611 20.9691 149.638C21.677 149.86 22.4231 150.232 23.0992 150.626C23.9197 151.103 24.8015 151.709 25.6442 152.39C27.178 153.63 28.9984 155.45 29.7335 157.49C29.7959 157.541 29.9498 157.654 30.2716 157.81C30.9298 158.129 31.8229 158.407 32.9441 158.732C33.0535 158.764 33.1659 158.796 33.2805 158.829C34.2342 159.104 35.3467 159.424 36.2792 159.814C36.8141 160.038 37.4033 160.329 37.9337 160.723C38.4626 161.116 39.0625 161.708 39.4063 162.568C39.6709 163.23 39.9552 164.087 40.2288 164.915L40.2777 165.064C40.5467 165.878 40.8193 166.704 41.1019 167.475C41.4071 168.308 41.6874 168.975 41.9346 169.427C41.9789 169.508 42.0182 169.575 42.052 169.629C42.4937 169.858 42.838 170.153 43.084 170.397C43.4393 170.749 43.7494 171.156 44.0166 171.567C44.5523 172.39 45.0357 173.414 45.4304 174.533C46.2173 176.764 46.7512 179.659 46.4844 182.612C46.4853 182.624 46.4921 182.757 46.6178 183.045C46.767 183.386 47.0344 183.831 47.4551 184.373C48.2997 185.463 49.5708 186.703 51.1056 187.992C54.1615 190.557 57.9301 193.037 60.4621 194.528L60.4808 194.539C62.7567 195.905 66.3061 197.954 69.5448 199.654C71.1679 200.506 72.6771 201.251 73.8926 201.777C74.5021 202.041 75.0012 202.233 75.382 202.356C75.5314 202.404 75.64 202.433 75.7132 202.451C75.7765 202.409 75.8763 202.332 76.0142 202.198C76.4153 201.805 76.8883 201.16 77.4205 200.255C78.1476 199.018 78.788 197.661 79.4347 196.29C79.7668 195.586 80.1005 194.878 80.4484 194.182C80.7682 193.542 80.9993 192.711 81.2895 191.557C81.3093 191.478 81.3295 191.397 81.3501 191.315C81.6027 190.305 81.9144 189.058 82.4019 187.92C82.9472 186.647 83.7982 185.288 85.2676 184.327C86.7504 183.357 88.5671 182.984 90.6815 183.126C95.8507 183.47 101.865 182.393 104.187 181.812C104.501 181.733 104.827 181.717 105.148 181.762C106.965 182.022 109.705 182.713 112.113 184.005C114.43 185.247 117.127 187.436 117.419 190.944C117.444 191.242 117.474 191.457 117.501 191.606C117.601 191.63 117.703 191.652 117.827 191.679C117.991 191.714 118.196 191.759 118.494 191.829C120.953 192.408 124.484 193.706 129.633 199.105C132.099 201.69 133.475 203.561 134.149 205.258C134.76 206.795 134.728 208.112 134.707 209.006C134.703 209.155 134.7 209.291 134.7 209.415C134.7 210.862 134.784 213.554 141.346 222.386C143.034 224.658 144.833 226.656 146.621 228.643C151.655 234.236 156.614 239.745 158.831 251.039C161.496 255.66 164.276 260.202 167.531 264.695C168.175 265.383 169.293 266.371 170.557 267.104C171.946 267.91 173.063 268.154 173.803 267.99C175.163 267.687 176.526 267.69 177.742 268.372C178.847 268.992 179.426 269.978 179.705 270.455L179.725 270.488C180.081 271.094 180.174 271.249 180.318 271.382L180.32 271.384C180.369 271.43 180.523 271.572 181.07 271.633C181.878 271.722 182.771 271.754 183.829 271.791C183.974 271.796 184.122 271.801 184.273 271.806C185.479 271.85 186.845 271.91 188.221 272.102C190.988 272.489 194.082 273.444 196.481 276.145C196.554 276.226 196.618 276.292 196.673 276.343C196.734 276.266 196.807 276.162 196.888 276.023C197.196 275.497 197.427 274.798 197.51 274.173C197.544 273.909 197.545 273.711 197.535 273.586C197.497 273.536 197.457 273.486 197.417 273.434C196.779 272.617 195.871 271.454 195.211 269.262C194.501 266.899 194.069 263.389 194.069 257.55C194.069 252.923 194.15 249.074 194.372 245.973C194.589 242.941 194.951 240.44 195.593 238.582C196.349 236.159 197.91 232.495 199.911 229.168C200.921 227.489 202.08 225.834 203.35 224.448C204.597 223.088 206.089 221.833 207.798 221.176C210.711 220.054 213.055 218.782 214.25 217.695C214.368 217.588 214.462 217.494 214.537 217.413C213.661 216.729 212.503 215.509 212.748 213.756C212.881 212.811 213.392 212.135 213.85 211.712C214.299 211.296 214.806 211.016 215.234 210.823C216.844 210.098 219.088 209.854 220.406 209.854C221.025 209.854 221.766 209.949 222.39 210.029C222.546 210.049 222.695 210.068 222.833 210.085C223.629 210.18 224.501 210.258 225.522 210.226C227.532 210.165 230.321 209.673 234.164 207.75C237.806 205.928 239.755 203.599 241.319 201.55C241.436 201.397 241.556 201.239 241.678 201.077C242.324 200.221 243.041 199.271 243.783 198.555C244.76 197.611 246.079 196.761 247.876 196.761C248.013 196.761 248 196.745 248.028 196.711C248.119 196.598 248.278 196.291 248.334 195.737C248.388 195.202 248.325 194.613 248.165 194.11C247.996 193.582 247.787 193.344 247.713 193.285C247.238 192.905 246.47 192.348 245.528 191.665L245.281 191.487C244.262 190.747 243.102 189.902 242.095 189.107C241.16 188.369 240.11 187.487 239.501 186.688C239.336 186.472 239.122 186.16 238.965 185.775C238.82 185.423 238.594 184.699 238.851 183.845C239.144 182.866 239.876 182.326 240.468 182.083C240.992 181.869 241.493 181.839 241.812 181.839C244.644 181.839 246.722 182.288 248.277 182.774C248.383 182.746 248.525 182.704 248.714 182.643C248.853 182.597 249.032 182.536 249.236 182.465C249.769 182.281 250.473 182.038 251.08 181.878C251.892 181.663 253.233 181.378 254.535 181.791C255.268 182.023 255.972 182.471 256.504 183.189C257.015 183.878 257.258 184.667 257.353 185.428C257.499 186.596 257.404 187.584 257.33 188.254C257.888 188.321 258.734 188.367 260.003 188.367C261.724 188.367 262.465 188.188 262.768 188.072C262.941 188.006 262.968 187.988 263.26 187.679L263.275 187.664C263.679 187.235 264.345 186.529 265.6 186.049C266.419 185.736 267.398 185.55 268.615 185.471ZM257.255 189.083C257.255 189.087 257.254 189.085 257.254 189.076C257.254 189.079 257.255 189.082 257.255 189.083ZM248.062 182.819C248.061 182.818 248.074 182.816 248.099 182.814C248.075 182.818 248.063 182.819 248.062 182.819ZM21.0651 149.715C21.0639 149.714 21.0623 149.713 21.0602 149.711C21.0732 149.72 21.075 149.722 21.0651 149.715Z" />
</svg>
