<svg width="284" height="284" viewBox="0 0 284 284" fill="none" xmlns="http://www.w3.org/2000/svg">
<path fill-rule="evenodd" clip-rule="evenodd" d="M186.255 78.5801C186.143 79.9098 185.671 81.2028 185.15 82.4463C184.788 83.3079 184.341 84.2764 183.851 85.3383C183.804 85.4419 183.755 85.5464 183.707 85.6517C183.153 86.8532 182.529 88.2137 181.85 89.7979C178.872 96.7471 173.917 98.7238 171.44 99.4164C171.409 99.539 171.374 99.7052 171.342 99.9246C171.286 100.297 171.253 100.67 171.215 101.105C171.203 101.236 171.191 101.372 171.178 101.515C171.132 102.013 171.059 102.796 170.837 103.463C170.589 104.206 170.073 104.868 169.301 105.259C168.611 105.609 167.935 105.632 167.486 105.598C166.633 105.535 165.803 105.2 165.255 104.957C164.732 104.724 164.187 104.442 163.745 104.214C163.695 104.189 163.646 104.163 163.599 104.139C163.309 104.483 162.966 104.933 162.586 105.473C161.556 106.938 160.459 108.76 159.712 110.087C159.297 111.62 158.613 113.837 157.798 115.909C157.363 117.016 156.872 118.131 156.342 119.096C155.849 119.994 155.184 121.025 154.319 121.717C151.884 123.665 148.947 122.636 147.358 121.669C146.462 121.124 145.643 120.414 145.021 119.634C144.557 119.052 144.02 118.202 143.847 117.192C143.847 117.192 143.847 117.192 143.846 117.191C143.494 116.934 142.902 116.621 142.128 116.311C141.377 116.011 140.565 115.757 139.847 115.581C139.759 115.559 139.675 115.539 139.594 115.521C139.363 116.23 139.122 117.201 138.888 118.356C138.344 121.039 137.915 124.302 137.689 126.489C137.649 126.878 137.518 127.251 137.308 127.58C136.088 129.486 134.236 132.459 132.648 135.174C131.853 136.534 131.139 137.806 130.606 138.836C130.339 139.352 130.13 139.783 129.983 140.121C129.865 140.393 129.818 140.534 129.804 140.576C129.798 140.593 129.798 140.594 129.8 140.581C129.685 141.159 129.432 141.712 129.218 142.13C128.983 142.59 128.689 143.085 128.369 143.586C127.728 144.592 126.903 145.746 126.033 146.905C124.562 148.865 122.893 150.926 121.609 152.463C121.745 154.481 121.844 157.896 121.521 161.128C121.301 163.329 119.87 164.795 118.512 165.718C117.158 166.639 115.518 167.275 114.122 167.75C113.381 168.002 112.766 168.194 112.22 168.364C111.581 168.563 111.035 168.733 110.489 168.938C110.369 168.983 110.264 169.024 110.174 169.062C109.938 169.579 109.597 169.956 109.347 170.187C108.899 170.602 108.376 170.902 107.932 171.119C107.026 171.562 105.889 171.926 104.78 172.222C102.728 172.77 100.347 173.197 98.6135 173.45L90.257 178.288C89.579 178.68 88.7563 178.732 88.0343 178.428L80.8424 175.4C79.8703 176.392 78.7238 177.509 77.6494 178.453C76.879 179.13 76.0568 179.796 75.3195 180.255C74.9695 180.473 74.4864 180.741 73.9464 180.892C73.5513 181.001 72.2881 181.271 71.2213 180.345C71.1861 180.326 71.1284 180.294 71.0427 180.252C70.7953 180.13 70.4376 179.974 69.9767 179.793C69.0609 179.432 67.8661 179.019 66.6065 178.627C65.3487 178.236 64.0635 177.877 62.9708 177.619C61.7975 177.342 61.0757 177.238 60.8237 177.238C59.4243 177.238 58.3052 176.432 57.6622 175.887C56.9203 175.258 56.2211 174.456 55.6122 173.669C55.0162 172.898 54.4469 172.063 53.9434 171.266L33.4068 183.749L32.2829 187.869C32.0853 188.594 31.5726 189.191 30.8864 189.496L27.5914 190.96C27.1092 191.935 26.4262 193.1 25.5851 194.165C24.5323 195.499 22.8175 197.212 20.5235 197.54C20.5232 197.54 20.5228 197.54 20.5223 197.54C20.5187 197.541 20.501 197.549 20.4682 197.571C20.3965 197.619 20.2721 197.724 20.0956 197.937C19.7399 198.366 19.4165 198.919 18.9549 199.709C18.906 199.792 18.8557 199.878 18.8036 199.967C18.3273 200.779 17.6764 201.873 16.8049 202.744C16.6844 202.865 16.5576 202.983 16.4244 203.098L66.3489 202.728C66.6937 202.726 67.0353 202.794 67.3522 202.93L73.2912 205.475C138.242 202.39 267.998 196.261 271.024 196.261C271.786 196.261 272.832 195.872 273.999 195.109C274.855 194.549 275.608 193.898 276.132 193.379C276.407 192.054 276.595 190.371 276.45 189C276.365 188.197 276.187 187.73 276.044 187.511C275.971 187.4 275.961 187.399 275.871 187.391L275.857 187.389C273.999 187.203 272.441 186.255 271.204 185.237C269.958 184.211 268.811 182.922 267.795 181.732C267.525 181.416 267.265 181.108 267.013 180.808C266.265 179.923 265.582 179.112 264.881 178.381C263.938 177.397 263.201 176.82 262.617 176.561C259.709 175.268 257.978 172.634 256.994 170.272C255.999 167.884 255.589 165.362 255.589 163.651C255.589 162.906 255.649 161.78 256.303 160.839C257.158 159.608 258.44 159.419 259.186 159.419C259.706 159.419 260.331 159.517 260.765 159.585C260.847 159.598 260.923 159.609 260.989 159.619C261.082 159.633 261.176 159.646 261.271 159.659C261.03 158.931 260.657 158.111 260.282 157.41L254.626 152.625C253.997 152.092 253.67 151.283 253.754 150.463C253.837 149.643 254.32 148.916 255.044 148.522L258.434 146.673C258.296 144.918 258.713 142.69 260.061 140.263C260.549 139.386 260.578 138.934 260.566 138.778C260.525 138.765 260.485 138.751 260.445 138.736L253.053 135.965C252.719 135.839 252.416 135.644 252.163 135.391L247.583 130.811C245.817 130.377 243.403 129.673 241.122 128.779C239.82 128.268 238.507 127.674 237.364 127.005C236.269 126.363 235.11 125.527 234.342 124.452C233.406 123.142 232.345 122.279 231.562 121.772C230.674 122.35 229.587 122.897 228.397 123.21C226.375 123.742 223.779 123.639 221.673 121.532C220.438 120.298 220.031 118.75 220.051 117.323C220.071 115.95 220.48 114.597 220.979 113.426C221.922 111.211 223.428 109.096 224.592 107.727L229.289 98.7247C228.064 97.0511 226.501 95.0132 225.039 93.3008C224.107 92.2093 223.272 91.3172 222.625 90.7401C222.483 90.6137 222.365 90.5159 222.27 90.4416C221.516 90.4844 220.807 90.3571 220.262 90.2271C219.462 90.0362 218.642 89.7414 217.943 89.4793C217.74 89.4032 217.548 89.3303 217.365 89.2607C216.867 89.0714 216.435 88.9071 216.017 88.7694C215.745 88.6798 215.528 88.6185 215.357 88.5807C215.195 88.5449 215.125 88.5417 215.123 88.5414C215.123 88.5413 215.124 88.5413 215.125 88.5413C214.37 88.5413 213.615 88.286 213.006 87.7401C212.447 87.239 212.171 86.6363 212.029 86.1814C211.759 85.3208 211.788 84.3971 211.85 83.7302C211.914 83.0465 212.047 82.3245 212.206 81.6466C211.276 81.1131 210.27 80.5927 209.401 80.2423C209.22 80.7773 208.994 81.2772 208.771 81.7173C208.244 82.7533 207.564 83.774 206.904 84.6541C206.24 85.5391 205.554 86.3381 204.983 86.9338C204.702 87.2273 204.417 87.5041 204.156 87.7257C204.03 87.8321 203.862 87.9668 203.67 88.0893C203.576 88.1499 203.428 88.2383 203.242 88.319C203.099 88.3812 202.709 88.5413 202.189 88.5413C201.534 88.5413 201.044 88.2761 200.974 88.2381L200.967 88.2346C200.809 88.1518 200.678 88.0651 200.598 88.0097C200.43 87.8936 200.259 87.7578 200.11 87.6361C199.803 87.3845 199.414 87.0442 198.991 86.6684C198.67 86.3827 198.324 86.0721 197.956 85.7424C197.317 85.169 196.614 84.5375 195.862 83.8778C194.691 82.8494 193.486 81.8255 192.421 81.0115C191.259 80.124 190.555 79.7171 190.311 79.6357C189.064 79.2199 187.493 78.7638 186.255 78.5801ZM222.01 90.2584C222.012 90.26 222.015 90.2617 222.018 90.2635C221.943 90.2314 221.934 90.2154 222.01 90.2584ZM260.612 138.792C260.617 138.794 260.623 138.796 260.628 138.797L260.636 138.799C260.628 138.797 260.62 138.795 260.612 138.792ZM260.559 138.729C260.556 138.719 260.555 138.715 260.555 138.714C260.555 138.714 260.557 138.719 260.559 138.729ZM186.469 73.5666C188.309 73.771 190.485 74.423 191.892 74.8923C193.034 75.2729 194.352 76.1941 195.457 77.039C196.658 77.9573 197.965 79.07 199.161 80.1205C199.927 80.7924 200.681 81.4694 201.337 82.0583C201.596 82.2904 201.839 82.5087 202.062 82.7077C202.332 82.3906 202.619 82.0341 202.904 81.654C203.456 80.9173 203.96 80.1479 204.314 79.4515C204.49 79.1054 204.612 78.8098 204.687 78.5706C204.724 78.4532 204.746 78.3607 204.758 78.292C204.764 78.2583 204.768 78.2327 204.769 78.2147C204.77 78.2058 204.771 78.1991 204.771 78.1946C204.771 78.1901 204.771 78.1879 204.771 78.1879C204.771 77.4013 205.023 76.4374 205.843 75.7102C206.594 75.0447 207.468 74.898 208.038 74.8769C209.121 74.8367 210.27 75.2113 211.131 75.5493C212.992 76.2805 215.115 77.5138 216.483 78.3988C217.44 79.0182 217.857 80.2067 217.497 81.2884C217.257 82.0077 216.997 82.9834 216.876 83.8067C217.13 83.8756 217.368 83.9502 217.582 84.0206C218.117 84.1968 218.703 84.4197 219.23 84.6204C219.393 84.6823 219.55 84.742 219.699 84.7977C220.386 85.0554 220.952 85.2514 221.422 85.3636C221.793 85.452 221.95 85.4488 221.963 85.4512C223.136 85.1804 224.12 85.7054 224.491 85.9177C225.009 86.2137 225.508 86.6126 225.951 87.0074C226.852 87.8105 227.86 88.9048 228.841 90.0538C230.82 92.3712 232.923 95.1851 234.258 97.0693C234.8 97.8347 234.868 98.8392 234.435 99.6708L228.891 110.296C228.799 110.472 228.687 110.636 228.556 110.786C227.586 111.894 226.305 113.681 225.579 115.385C225.215 116.239 225.058 116.919 225.051 117.396C225.045 117.819 225.149 117.938 225.208 117.997C225.689 118.477 226.25 118.605 227.124 118.375C228.084 118.122 229.058 117.49 229.622 116.983C230.291 116.381 231.231 116.185 232.085 116.469C233.499 116.94 236.248 118.519 238.41 121.545C238.566 121.764 239.005 122.171 239.892 122.691C240.732 123.183 241.786 123.669 242.948 124.124C245.271 125.035 247.803 125.741 249.403 126.104C249.863 126.209 250.284 126.441 250.617 126.774L255.316 131.473L262.126 134.027C263.214 134.37 264.55 135.246 265.202 136.874C265.904 138.625 265.577 140.63 264.432 142.691C263.135 145.026 263.421 146.378 263.475 146.634C263.485 146.684 263.487 146.693 263.467 146.658C263.817 147.242 263.914 147.944 263.735 148.601C263.557 149.258 263.118 149.813 262.52 150.139L260.641 151.164L263.862 153.889C264.085 154.078 264.273 154.304 264.417 154.558C265.084 155.725 265.992 157.604 266.356 159.323C266.525 160.121 266.68 161.336 266.224 162.482C265.968 163.125 265.515 163.754 264.807 164.196C264.119 164.626 263.374 164.765 262.709 164.765C261.913 164.765 261.219 164.696 260.649 164.621C260.766 165.671 261.063 167.037 261.609 168.349C262.358 170.144 263.399 171.437 264.648 171.992C266.144 172.657 267.428 173.813 268.491 174.921C269.312 175.778 270.142 176.762 270.914 177.678C271.148 177.955 271.376 178.226 271.598 178.486C272.603 179.663 273.505 180.655 274.382 181.376C275.267 182.105 275.903 182.369 276.355 182.414C278.1 182.589 279.401 183.513 280.225 184.77C280.982 185.924 281.295 187.281 281.422 188.472C281.676 190.866 281.265 193.514 280.841 195.209C280.744 195.601 280.553 195.962 280.285 196.264C279.538 197.104 278.264 198.294 276.735 199.294C275.254 200.263 273.219 201.261 271.024 201.261L271.015 201.261C271.008 201.261 270.997 201.261 270.98 201.261C270.951 201.262 270.912 201.263 270.862 201.264C270.763 201.267 270.632 201.271 270.467 201.277C270.138 201.288 269.69 201.306 269.125 201.329C267.996 201.374 266.415 201.442 264.428 201.529C260.456 201.703 254.868 201.956 248.041 202.269C234.389 202.894 215.786 203.76 195.25 204.723C154.177 206.647 105.369 208.957 72.9538 210.497C72.5756 210.515 72.1983 210.447 71.8504 210.298L65.8632 207.732L4.01868 208.19C2.93245 208.198 1.96532 207.504 1.62559 206.472C1.28585 205.44 1.65126 204.307 2.52978 203.668C3.48676 202.972 5.07293 201.967 6.83856 201.124C8.53711 200.313 10.7237 199.494 12.7778 199.494H12.7788C12.8628 199.494 12.9838 199.494 13.2694 199.209C13.625 198.853 13.9847 198.301 14.4901 197.438C14.54 197.353 14.592 197.264 14.6461 197.171C15.0654 196.45 15.608 195.516 16.2443 194.748C16.9939 193.843 18.1372 192.83 19.8159 192.59C20.1087 192.548 20.7807 192.182 21.6604 191.067C22.4584 190.056 23.0899 188.855 23.4055 188.098C23.6514 187.508 24.1138 187.034 24.6979 186.775L27.7714 185.409L28.8451 181.472C29.0134 180.855 29.4118 180.326 29.9585 179.993L53.5194 165.673C54.1068 165.315 54.8154 165.216 55.4783 165.398C56.1413 165.579 56.7003 166.026 57.0238 166.632C57.5957 167.705 58.5613 169.309 59.5674 170.61C60.075 171.267 60.5307 171.764 60.8956 172.073C60.9923 172.155 61.0662 172.21 61.1183 172.246C61.9859 172.29 63.0889 172.509 64.1193 172.753C65.3508 173.043 66.751 173.435 68.0918 173.853C69.4308 174.269 70.748 174.722 71.8101 175.141C72.2834 175.327 72.7323 175.517 73.1217 175.703C73.4581 175.454 73.8729 175.115 74.35 174.696C75.751 173.466 77.3521 171.845 78.3992 170.723C79.1142 169.957 80.2311 169.718 81.1969 170.124L88.8283 173.337L96.5295 168.879C96.8111 168.716 97.1219 168.609 97.4443 168.566C99.0788 168.343 101.508 167.921 103.489 167.392C104.453 167.134 105.199 166.88 105.673 166.657C106.019 165.827 106.672 165.324 106.996 165.104C107.546 164.729 108.195 164.457 108.737 164.255C109.327 164.034 110.157 163.772 110.966 163.516C111.518 163.341 112.061 163.17 112.51 163.017C113.829 162.568 114.932 162.107 115.7 161.584C116.464 161.064 116.535 160.74 116.546 160.631C116.894 157.15 116.689 153.322 116.546 151.889C116.478 151.213 116.688 150.539 117.128 150.021C118.415 148.507 120.368 146.122 122.035 143.902C122.87 142.79 123.61 141.75 124.154 140.898C124.426 140.471 124.63 140.121 124.767 139.853C124.868 139.656 124.902 139.561 124.908 139.547C125.013 139.056 125.216 138.545 125.399 138.125C125.607 137.647 125.87 137.108 126.165 136.539C126.754 135.399 127.518 134.043 128.332 132.65C129.83 130.089 131.545 127.323 132.779 125.383C133.027 123.128 133.449 120.019 133.988 117.362C134.278 115.93 134.623 114.523 135.028 113.431C135.225 112.901 135.487 112.302 135.846 111.79C136.114 111.409 136.949 110.335 138.436 110.335C139.204 110.335 140.16 110.509 141.039 110.725C141.967 110.953 143.003 111.276 143.984 111.669C144.943 112.052 145.967 112.548 146.799 113.156C147.215 113.461 147.67 113.856 148.04 114.357C148.381 114.819 148.728 115.481 148.782 116.306C148.811 116.354 148.858 116.426 148.93 116.517C149.16 116.805 149.525 117.135 149.957 117.398C150.397 117.666 150.777 117.786 151.024 117.811C151.128 117.822 151.183 117.813 151.199 117.809C151.208 117.802 151.228 117.783 151.259 117.748C151.305 117.698 151.366 117.624 151.44 117.523C151.591 117.319 151.766 117.042 151.959 116.689C152.349 115.98 152.752 115.079 153.145 114.08C153.929 112.086 154.593 109.895 154.96 108.503C155.013 108.302 155.091 108.107 155.192 107.925C155.987 106.495 157.258 104.357 158.497 102.596C159.107 101.729 159.772 100.863 160.412 100.213C160.723 99.8974 161.126 99.5312 161.595 99.2531C161.971 99.0302 162.972 98.5137 164.174 98.9143C164.739 99.1025 165.382 99.4332 165.84 99.6692C165.912 99.7061 165.983 99.7425 166.052 99.7783C166.138 99.8228 166.223 99.8663 166.305 99.9087C166.331 99.6689 166.361 99.4223 166.397 99.1828C166.496 98.5209 166.675 97.648 167.088 96.847C167.532 95.9882 168.345 95.0434 169.707 94.7031C171.171 94.3371 174.916 93.2851 177.255 87.8283C177.962 86.1788 178.609 84.7675 179.166 83.5581L179.303 83.2624C179.805 82.1739 180.213 81.2879 180.539 80.5126C181.285 78.7325 181.327 78.0956 181.259 77.7543C181.12 77.0582 181.132 76.1885 181.593 75.3543C182.051 74.5259 182.762 74.0724 183.358 73.8359C184.421 73.4143 185.628 73.4732 186.469 73.5666ZM148.747 116.237C148.748 116.237 148.748 116.239 148.75 116.243C148.748 116.239 148.747 116.237 148.747 116.237ZM61.2136 172.304C61.2136 172.304 61.2118 172.304 61.2081 172.302C61.2118 172.303 61.2136 172.304 61.2136 172.304Z" />
</svg>
