<svg width="264" height="231" viewBox="0 0 264 231" fill="none" xmlns="http://www.w3.org/2000/svg">
<path fillRule="evenodd" clipRule="evenodd" d="M94.0234 209.948C94.6146 214.009 97.1774 217.723 99.8152 220.047C102.113 222.072 102.334 225.576 100.309 227.874C98.2847 230.171 94.7806 230.393 92.4828 228.368C88.4768 224.838 84.1203 218.908 83.0484 211.545C81.9181 203.781 84.586 195.399 92.9771 187.829C99.2246 182.193 100.927 177.165 101.132 173.397C101.346 169.441 99.9484 166.046 98.6583 163.831C97.1167 161.185 98.0121 157.79 100.658 156.248C103.305 154.707 106.7 155.602 108.241 158.248C110.166 161.552 112.579 167.124 112.206 173.998C111.823 181.061 108.54 188.727 100.406 196.064C94.4158 201.468 93.4906 206.288 94.0234 209.948Z" />
                    <path fillRule="evenodd" clipRule="evenodd" d="M130.853 209.948C131.445 214.009 134.007 217.723 136.645 220.047C138.943 222.072 139.164 225.576 137.14 227.874C135.115 230.171 131.611 230.393 129.313 228.368C125.307 224.838 120.95 218.908 119.879 211.545C118.748 203.781 121.416 195.399 129.807 187.829C136.055 182.193 137.758 177.165 137.962 173.397C138.177 169.441 136.779 166.046 135.488 163.831C133.947 161.185 134.842 157.79 137.488 156.248C140.135 154.707 143.53 155.602 145.071 158.248C146.996 161.552 149.409 167.124 149.036 173.998C148.653 181.061 145.37 188.727 137.236 196.064C131.246 201.468 130.321 206.288 130.853 209.948Z" />
                    <path fillRule="evenodd" clipRule="evenodd" d="M167.684 209.945C168.275 214.006 170.838 217.72 173.475 220.044C175.773 222.069 175.994 225.573 173.97 227.871C171.945 230.169 168.441 230.39 166.143 228.365C162.137 224.835 157.78 218.905 156.709 211.542C155.578 203.778 158.246 195.396 166.637 187.826C172.885 182.19 174.588 177.162 174.792 173.394C175.007 169.438 173.609 166.043 172.318 163.828C170.777 161.182 171.672 157.787 174.319 156.245C176.965 154.704 180.36 155.599 181.901 158.246C183.826 161.549 186.239 167.121 185.866 173.995C185.483 181.058 182.2 188.724 174.066 196.061C168.076 201.465 167.151 206.285 167.684 209.945Z" />
                    <path fillRule="evenodd" clipRule="evenodd" d="M16.6387 133C7.44939 133 -3.2878e-07 125.478 -7.34351e-07 116.2L-1.71349e-06 93.8C-2.11906e-06 84.5216 7.44938 77 16.6387 77L247.361 77C256.551 77 264 84.5216 264 93.8L264 116.2C264 125.478 256.551 133 247.361 133L16.6387 133ZM11.0924 116.2C11.0924 119.293 13.5756 121.8 16.6387 121.8L247.361 121.8C250.424 121.8 252.908 119.293 252.908 116.2L252.908 93.8C252.908 90.7072 250.424 88.2 247.361 88.2L16.6387 88.2C13.5756 88.2 11.0924 90.7072 11.0924 93.8L11.0924 116.2Z" />
                    <path fillRule="evenodd" clipRule="evenodd" d="M19 88.9997L91.0786 36.6575L91.0786 16.6868C91.0786 7.47091 98.535 8.50905e-06 107.733 8.10699e-06L164.358 5.63185e-06C173.556 5.2298e-06 181.012 7.47092 181.012 16.6868L181.012 36.752L249 89L19 88.9997ZM53.2388 77.8752L216.281 77.8754L169.909 42.2394L169.909 16.6868C169.909 13.6148 167.424 11.1245 164.358 11.1245L107.733 11.1245C104.667 11.1245 102.181 13.6148 102.181 16.6868L102.181 42.3339L53.2388 77.8752Z" />
                </svg>