<svg width="244" height="222" viewBox="0 0 244 222" fill="none" xmlns="http://www.w3.org/2000/svg">
<path d="M159.749 70.2009C156.783 67.5878 153.861 63.3868 153.181 58.7157C152.554 54.4069 153.705 48.8936 160.377 42.8751C168.982 35.113 172.383 27.0787 172.78 19.7535C173.169 12.5982 170.656 6.78181 168.636 3.31594C167.246 0.929894 164.185 0.122478 161.799 1.51252C159.413 2.90257 158.606 5.9637 159.996 8.34975C161.443 10.834 163.04 14.6874 162.795 19.2119C162.559 23.5664 160.583 29.2219 153.679 35.4499C144.842 43.4213 142.119 52.1461 143.285 60.1564C144.399 67.8043 148.938 74.0033 153.137 77.7036C155.209 79.5293 158.369 79.3297 160.194 77.2579C162.02 75.1861 161.821 72.0266 159.749 70.2009Z" />
<path d="M85.0973 70.2038C82.1319 67.5907 79.2097 63.3898 78.5296 58.7187C77.9023 54.4098 79.0541 48.8965 85.7257 42.8781C94.3304 35.1159 97.7317 27.0817 98.129 19.7564C98.5171 12.6012 96.0042 6.78474 93.9851 3.31887C92.5951 0.932824 89.534 0.125408 87.1479 1.51545C84.7619 2.9055 83.9544 5.96663 85.3445 8.35268C86.7918 10.837 88.3891 14.6903 88.1437 19.2148C87.9075 23.5694 85.9315 29.2249 79.0275 35.4528C70.1909 43.4242 67.4678 52.1491 68.6339 60.1593C69.7474 67.8072 74.2869 74.0063 78.486 77.7065C80.5578 79.5322 83.7173 79.3327 85.543 77.2609C87.3687 75.189 87.1692 72.0295 85.0973 70.2038Z" />
<path fill-rule="evenodd" clip-rule="evenodd" d="M15 221.09C6.71573 221.09 4.67712e-06 214.375 4.67712e-06 206.09L0 114.09C1.9983e-06 105.806 6.71573 99.0904 15 99.0904L229 99.0904C230.036 99.0904 231.047 99.1953 232.023 99.3951C238.858 100.794 244 106.842 244 114.09V206.09C244 214.375 237.284 221.09 229 221.09H15ZM234 152.09V114.09C234 111.329 231.761 109.09 229 109.09H155.85C155.155 112.514 152.128 115.09 148.5 115.09L94.5 115.09C90.8716 115.09 87.845 112.514 87.15 109.09L15 109.09C12.2386 109.09 10 111.329 10 114.09L10 152.09C10 154.852 12.2386 157.09 15 157.09H229C231.761 157.09 234 154.852 234 152.09ZM10 166.237C11.5639 166.79 13.2468 167.09 15 167.09H87.0164C87.2737 170.999 90.5259 174.09 94.5 174.09H148.5C152.474 174.09 155.726 170.999 155.984 167.09H229C230.753 167.09 232.436 166.79 234 166.237V206.09C234 208.852 231.761 211.09 229 211.09H15C12.2386 211.09 10 208.852 10 206.09L10 166.237Z" />
<path d="M115.854 58.7187C116.534 63.3898 119.456 67.5907 122.422 70.2038C124.493 72.0295 124.693 75.189 122.867 77.2609C121.042 79.3327 117.882 79.5322 115.81 77.7065C111.611 74.0063 107.072 67.8072 105.958 60.1593C104.792 52.1491 107.515 43.4242 116.352 35.4528C123.256 29.2249 125.232 23.5694 125.468 19.2148C125.713 14.6903 124.116 10.837 122.669 8.35268C121.279 5.96663 122.086 2.9055 124.472 1.51545C126.858 0.125408 129.919 0.932824 131.309 3.31887C133.328 6.78474 135.841 12.6012 135.453 19.7564C135.056 27.0817 131.655 35.1159 123.05 42.8781C116.378 48.8965 115.227 54.4098 115.854 58.7187Z" />
</svg>
