<svg width="25" height="24" viewBox="0 0 25 24" fill="none" xmlns="http://www.w3.org/2000/svg">
<g id="material-symbols-light:error-outline">
<path id="Vector" fill-rule="evenodd" clip-rule="evenodd" d="M12.5 22C6.977 22 2.5 17.523 2.5 12C2.5 6.477 6.977 2 12.5 2C18.023 2 22.5 6.477 22.5 12C22.5 17.523 18.023 22 12.5 22ZM12.5 20.8C14.8339 20.8 17.0722 19.8729 18.7225 18.2225C20.3729 16.5722 21.3 14.3339 21.3 12C21.3 9.66609 20.3729 7.42778 18.7225 5.77746C17.0722 4.12714 14.8339 3.2 12.5 3.2C10.1661 3.2 7.92778 4.12714 6.27746 5.77746C4.62714 7.42778 3.7 9.66609 3.7 12C3.7 14.3339 4.62714 16.5722 6.27746 18.2225C7.92778 19.8729 10.1661 20.8 12.5 20.8ZM11.84 6.431H13.16L13.071 13.491H11.93L11.842 6.431H11.84ZM12.5 17.073C12.39 17.0743 12.2808 17.0537 12.1789 17.0122C12.077 16.9707 11.9844 16.9092 11.9066 16.8314C11.8288 16.7536 11.7673 16.661 11.7258 16.5591C11.6843 16.4572 11.6637 16.348 11.665 16.238C11.663 16.1278 11.6832 16.0183 11.7244 15.9161C11.7657 15.8138 11.8271 15.721 11.905 15.643C11.983 15.5651 12.0758 15.5037 12.1781 15.4624C12.2803 15.4212 12.3898 15.401 12.5 15.403C12.976 15.403 13.335 15.763 13.335 16.238C13.337 16.3482 13.3168 16.4577 13.2756 16.5599C13.2343 16.6622 13.1729 16.755 13.095 16.833C13.017 16.9109 12.9242 16.9723 12.8219 17.0136C12.7197 17.0548 12.6102 17.075 12.5 17.073Z" fill="black"/>
</g>
</svg>
