<svg width="234" height="267" viewBox="0 0 234 267" fill="none" xmlns="http://www.w3.org/2000/svg">
<path d="M169.362 90.1331C166.558 90.0487 163.83 91.0567 161.758 92.9433L97 133.5C88.1567 129.53 68.3094 114.255 59.1851 121.065C54.3674 124.661 53.4255 131.491 57.0909 136.25L85.2737 173.81C89.0587 178.855 96.3576 179.596 101.084 175.415L176.088 109.058C183.55 102.643 179.209 90.4283 169.362 90.1331Z" fill="#003168"/>
<path fill-rule="evenodd" clip-rule="evenodd" d="M211.371 25.6023C168.946 9.0233 143.373 -0.0514556 117.31 0.00021948C91.2844 0.0518208 65.5483 9.20831 22.8255 25.6378C9.11111 30.9118 0 44.1557 0 58.9074V150.53C0 214.955 52.962 267 117 267C181.038 267 234 214.955 234 150.531V58.7883C234 44.1195 224.989 30.9238 211.371 25.6023ZM29.6519 43.4921C73.1746 26.755 95.491 19.1654 117.348 19.122C139.168 19.0788 161.307 26.5602 204.448 43.4193C210.754 45.8836 214.933 52.0126 214.933 58.7883V150.531C214.933 204.194 170.709 247.878 117 247.878C63.2909 247.878 19.0667 204.194 19.0667 150.53V58.9074C19.0667 52.096 23.2908 45.9383 29.6519 43.4921Z" fill="#2583F0"/>
<path fill-rule="evenodd" clip-rule="evenodd" d="M234 72V58.7883C234 44.1195 224.989 30.9238 211.371 25.6023C168.946 9.0233 143.373 -0.0514556 117.31 0.00021948C91.2844 0.0518208 65.5483 9.20831 22.8255 25.6378C9.11111 30.9118 0 44.1557 0 58.9074V72H19.0667V58.9074C19.0667 52.096 23.2908 45.9383 29.6519 43.4921C73.1746 26.755 95.491 19.1654 117.348 19.122C139.168 19.0788 161.307 26.5602 204.448 43.4193C210.754 45.8835 214.933 52.0126 214.933 58.7883V72H234Z" fill="#003168"/>
</svg>
