<svg xmlns="http://www.w3.org/2000/svg" width="25" height="24" viewBox="0 0 25 24" fill="none">
<path fill-rule="evenodd" clip-rule="evenodd" d="M21.6631 4.11215C22.6911 4.38892 23.5016 5.19946 23.7784 6.22746C24.2924 8.10554 24.2726 12.0199 24.2726 12.0199C24.2726 12.0199 24.2726 15.9144 23.7784 17.7925C23.5016 18.8205 22.6911 19.631 21.6631 19.9078C19.785 20.402 12.2727 20.402 12.2727 20.402C12.2727 20.402 4.7801 20.402 2.88225 19.888C1.85425 19.6113 1.04371 18.8007 0.766937 17.7727C0.272705 15.9144 0.272705 12.0001 0.272705 12.0001C0.272705 12.0001 0.272705 8.10554 0.766937 6.22746C1.04371 5.19946 1.87402 4.36915 2.88225 4.09238C4.76033 3.59814 12.2727 3.59814 12.2727 3.59814C12.2727 3.59814 19.785 3.59814 21.6631 4.11215ZM16.1284 11.9997L9.88134 15.5977V8.40169L16.1284 11.9997Z" fill="white"/>
</svg>