<svg width="41" height="40" viewBox="0 0 41 40" fill="none" xmlns="http://www.w3.org/2000/svg">
<path fillRule="evenodd" clipRule="evenodd" d="M15.8008 21.1978C15.8008 20.6455 16.2485 20.1978 16.8008 20.1978H24.1999C24.7522 20.1978 25.1999 20.6455 25.1999 21.1978V35.3106C25.1999 35.8629 24.7522 36.3106 24.1999 36.3106H16.8008C16.2485 36.3106 15.8008 35.8629 15.8008 35.3106V21.1978Z" stroke="#FFB54D" stroke-width="2" stroke-linecap="round" stroke-linejoin="round"/>
<path fillRule="evenodd" clipRule="evenodd" d="M3.0166 29.2539C3.0166 28.7016 3.46432 28.2539 4.0166 28.2539H10.073C10.6253 28.2539 11.073 28.7016 11.073 29.2539V35.3103C11.073 35.8626 10.6253 36.3103 10.073 36.3103H4.0166C3.46432 36.3103 3.0166 35.8626 3.0166 35.3103V29.2539Z" stroke="#FFB54D" stroke-width="2" stroke-linecap="round" stroke-linejoin="round"/>
<path fillRule="evenodd" clipRule="evenodd" d="M29.9268 33.2822C29.9268 32.7299 30.3745 32.2822 30.9268 32.2822H36.9832C37.5355 32.2822 37.9832 32.7299 37.9832 33.2822V35.3104C37.9832 35.8627 37.5355 36.3104 36.9832 36.3104H30.9268C30.3745 36.3104 29.9268 35.8627 29.9268 35.3104V33.2822Z" stroke="#FFB54D" stroke-width="2" stroke-linecap="round" stroke-linejoin="round"/>
<path fillRule="evenodd" clipRule="evenodd" d="M22.4964 7.53701C22.6451 7.92284 23.016 8.17735 23.4295 8.17735H25.6172C25.9415 8.17749 26.2287 8.38651 26.3286 8.69499C26.4284 9.00347 26.3182 9.34117 26.0556 9.53132L24.312 10.7965C23.9322 11.0721 23.7951 11.5746 23.9823 12.0049L25.137 14.6584C25.2623 14.9517 25.1879 15.2922 24.9517 15.5065C24.7155 15.7207 24.3694 15.7617 24.0897 15.6085L20.9889 13.8707C20.6847 13.7002 20.3136 13.7005 20.0097 13.8715L16.9219 15.6085C16.6422 15.7617 16.2961 15.7207 16.0599 15.5065C15.8237 15.2922 15.7493 14.9517 15.8746 14.6584L17.0293 12.0049C17.2165 11.5746 17.0794 11.0721 16.6996 10.7965L14.956 9.53132C14.6949 9.34232 14.5842 9.00729 14.6813 8.69991C14.7784 8.39254 15.0616 8.18196 15.3839 8.17735H17.5689C17.9823 8.17735 18.353 7.92299 18.5018 7.53731L19.8019 4.16781C19.9132 3.87927 20.1905 3.68896 20.4998 3.68896C20.8091 3.68896 21.0864 3.87927 21.1977 4.16781L22.4964 7.53701Z" stroke="#FFB54D" stroke-width="2" stroke-linecap="round" stroke-linejoin="round"/>
<path fillRule="evenodd" clipRule="evenodd" d="M7.04485 24.5428C8.52799 24.5428 9.73032 23.3405 9.73032 21.8573C9.73032 20.3742 8.52799 19.1719 7.04485 19.1719C5.5617 19.1719 4.35938 20.3742 4.35938 21.8573C4.35938 23.3405 5.5617 24.5428 7.04485 24.5428Z" stroke="#FFB54D" stroke-width="2" stroke-linecap="round" stroke-linejoin="round"/>
<path fillRule="evenodd" clipRule="evenodd" d="M33.955 28.8124C35.4382 28.8124 36.6405 27.61 36.6405 26.1269C36.6405 24.6437 35.4382 23.4414 33.955 23.4414C32.4719 23.4414 31.2695 24.6437 31.2695 26.1269C31.2695 27.61 32.4719 28.8124 33.955 28.8124Z" stroke="#FFB54D" stroke-width="2" stroke-linecap="round" stroke-linejoin="round"/>
</svg>
