<svg width="231" height="124" viewBox="0 0 231 124" fill="none" xmlns="http://www.w3.org/2000/svg">
<rect x="230.314" y="124" width="230.315" height="124" transform="rotate(-180 230.314 124)" fill="url(#paint0_linear_1267_132)"/>
<path fill-rule="evenodd" clip-rule="evenodd" d="M8.69615 124H0L5.75836e-06 55.8684L8.6213 37.244C15.9146 21.4884 34.5994 14.6284 50.355 21.9217L96.713 43.3809C112.469 50.6742 119.329 69.359 112.035 85.1145L94.0351 124H61.0129C68.8552 120.474 72.4549 118.243 76.2669 112.082C85.7896 96.6896 85.9461 88.4715 85.3986 81.6584C85.1409 78.451 82.7345 78.5001 81.6059 79.9028C81.6059 79.9028 72.7861 89.2952 65.1066 97.5656C64.2137 98.5273 61.7278 101.062 58.4793 99.9979C58.2767 99.9315 58.0512 99.8601 57.8049 99.782L57.8031 99.7814C53.1091 98.2937 40.8488 94.408 35.367 78.024C34.2592 74.7129 36.295 72.6216 39.9495 68.8676C40.2457 68.5634 40.5525 68.2483 40.8691 67.9207L52.4406 55.4019C54.3951 53.5566 54.7957 50.552 50.9465 50.3102C46.1351 50.008 23.1556 54.488 16.0237 69.895C12.2972 77.9452 12.7796 83.5471 13.3033 89.6273C13.4278 91.0735 13.5547 92.5467 13.6278 94.0863C13.6489 94.53 13.6808 95.0006 13.715 95.5058L13.715 95.5061C14.0292 100.146 14.5407 107.698 8.69615 124Z" fill="url(#paint1_linear_1267_132)" fill-opacity="0.3"/>
<defs>
<linearGradient id="paint0_linear_1267_132" x1="263.736" y1="234.933" x2="424.322" y2="50.8831" gradientUnits="userSpaceOnUse">
<stop stop-color="#2683F0"/>
<stop offset="1" stop-color="#003168"/>
</linearGradient>
<linearGradient id="paint1_linear_1267_132" x1="73.5342" y1="32.6513" x2="25.6634" y2="136.065" gradientUnits="userSpaceOnUse">
<stop stop-color="white" stop-opacity="0.1"/>
<stop offset="1" stop-color="white"/>
</linearGradient>
</defs>
</svg>
