<svg width="223" height="24" viewBox="0 0 223 24" fill="none" xmlns="http://www.w3.org/2000/svg">
<path d="M18.0642 0.773896C18.1694 0.320764 18.5732 0 19.0383 0H28.6239C29.2598 0 29.7341 0.585682 29.6021 1.20769L27.3106 12H15.4585L18.0642 0.773896Z" fill="#3EC491"/>
<path d="M12.8528 23.2261C12.7476 23.6792 12.3438 24 11.8787 24H2.29311C1.65724 24 1.18285 23.4143 1.31492 22.7923L3.43813 12.7923C3.53621 12.3304 3.94408 12 4.41633 12H15.4585L12.8528 23.2261Z" fill="#3EC491"/>
<path d="M27.3098 12H37.6898C38.3257 12 38.8001 12.5857 38.668 13.2077L36.5448 23.2077C36.4467 23.6696 36.0388 24 35.5666 24H25.7831C25.1395 24 24.6635 23.4008 24.809 22.7739L27.3098 12Z" fill="#3EC491"/>
<path d="M219.726 4.50769C219.09 4.50769 218.556 4.2923 218.126 3.86153C217.695 3.43077 217.479 2.89743 217.479 2.26154C217.479 1.62564 217.695 1.0923 218.126 0.661535C218.556 0.230766 219.09 0.0153809 219.726 0.0153809C220.341 0.0153809 220.864 0.230766 221.295 0.661535C221.726 1.0923 221.941 1.62564 221.941 2.26154C221.941 2.89743 221.726 3.43077 221.295 3.86153C220.864 4.2923 220.341 4.50769 219.726 4.50769ZM221.449 6.75384V23.7077H217.941V6.75384H221.449Z" fill="#232323"/>
<path d="M195.672 15.1538C195.672 13.4513 196.021 11.9436 196.719 10.6308C197.436 9.31795 198.401 8.30256 199.611 7.58461C200.842 6.84615 202.195 6.47692 203.672 6.47692C205.006 6.47692 206.165 6.74359 207.149 7.27692C208.154 7.78974 208.954 8.43589 209.549 9.21538V6.75384H213.088V23.7077H209.549V21.1846C208.954 21.9846 208.144 22.6513 207.119 23.1846C206.093 23.7179 204.924 23.9846 203.611 23.9846C202.154 23.9846 200.821 23.6154 199.611 22.8769C198.401 22.1179 197.436 21.0718 196.719 19.7385C196.021 18.3846 195.672 16.8564 195.672 15.1538ZM209.549 15.2154C209.549 14.0462 209.303 13.0308 208.811 12.1692C208.339 11.3077 207.713 10.6513 206.934 10.2C206.154 9.74871 205.313 9.52307 204.411 9.52307C203.508 9.52307 202.667 9.74871 201.888 10.2C201.108 10.6308 200.472 11.2769 199.98 12.1385C199.508 12.9795 199.272 13.9846 199.272 15.1538C199.272 16.3231 199.508 17.3487 199.98 18.2308C200.472 19.1128 201.108 19.7897 201.888 20.2615C202.688 20.7128 203.529 20.9385 204.411 20.9385C205.313 20.9385 206.154 20.7128 206.934 20.2615C207.713 19.8103 208.339 19.1538 208.811 18.2923C209.303 17.4103 209.549 16.3846 209.549 15.2154Z" fill="#232323"/>
<path d="M190.589 23.9231C189.953 23.9231 189.42 23.7077 188.989 23.2769C188.558 22.8461 188.343 22.3128 188.343 21.6769C188.343 21.041 188.558 20.5077 188.989 20.0769C189.42 19.6461 189.953 19.4308 190.589 19.4308C191.204 19.4308 191.727 19.6461 192.158 20.0769C192.589 20.5077 192.804 21.041 192.804 21.6769C192.804 22.3128 192.589 22.8461 192.158 23.2769C191.727 23.7077 191.204 23.9231 190.589 23.9231Z" fill="#232323"/>
<path d="M185.476 14.8154C185.476 15.4513 185.435 16.0256 185.353 16.5385H172.399C172.501 17.8923 173.004 18.9795 173.907 19.8C174.809 20.6205 175.917 21.0308 177.23 21.0308C179.117 21.0308 180.45 20.241 181.23 18.6615H185.014C184.501 20.2205 183.568 21.5026 182.214 22.5077C180.881 23.4923 179.219 23.9846 177.23 23.9846C175.609 23.9846 174.153 23.6256 172.86 22.9077C171.589 22.1692 170.583 21.1436 169.845 19.8308C169.127 18.4974 168.768 16.959 168.768 15.2154C168.768 13.4718 169.117 11.9436 169.814 10.6308C170.532 9.29743 171.527 8.27179 172.799 7.55384C174.091 6.83589 175.568 6.47692 177.23 6.47692C178.83 6.47692 180.255 6.82564 181.507 7.52307C182.758 8.22051 183.732 9.20513 184.43 10.4769C185.127 11.7282 185.476 13.1744 185.476 14.8154ZM181.814 13.7077C181.794 12.4154 181.332 11.3795 180.43 10.6C179.527 9.82051 178.409 9.43077 177.076 9.43077C175.866 9.43077 174.83 9.82051 173.968 10.6C173.107 11.359 172.594 12.3949 172.43 13.7077H181.814Z" fill="#232323"/>
<path d="M150.072 15.2154C150.072 13.4718 150.421 11.9436 151.118 10.6308C151.836 9.29743 152.821 8.27179 154.072 7.55384C155.324 6.83589 156.759 6.47692 158.38 6.47692C160.431 6.47692 162.124 6.96923 163.457 7.95384C164.811 8.91795 165.724 10.3026 166.195 12.1077H162.411C162.103 11.2667 161.611 10.6103 160.934 10.1385C160.257 9.66666 159.406 9.43077 158.38 9.43077C156.944 9.43077 155.795 9.94359 154.934 10.9692C154.093 11.9744 153.672 13.3897 153.672 15.2154C153.672 17.041 154.093 18.4667 154.934 19.4923C155.795 20.5179 156.944 21.0308 158.38 21.0308C160.411 21.0308 161.754 20.1385 162.411 18.3538H166.195C165.703 20.0769 164.78 21.4513 163.426 22.4769C162.072 23.482 160.39 23.9846 158.38 23.9846C156.759 23.9846 155.324 23.6256 154.072 22.9077C152.821 22.1692 151.836 21.1436 151.118 19.8308C150.421 18.4974 150.072 16.959 150.072 15.2154Z" fill="#232323"/>
<path d="M128.972 15.1538C128.972 13.4513 129.321 11.9436 130.018 10.6308C130.736 9.31795 131.7 8.30256 132.911 7.58461C134.141 6.84615 135.495 6.47692 136.972 6.47692C138.306 6.47692 139.464 6.74359 140.449 7.27692C141.454 7.78974 142.254 8.43589 142.849 9.21538V6.75384H146.388V23.7077H142.849V21.1846C142.254 21.9846 141.444 22.6513 140.418 23.1846C139.393 23.7179 138.223 23.9846 136.911 23.9846C135.454 23.9846 134.121 23.6154 132.911 22.8769C131.7 22.1179 130.736 21.0718 130.018 19.7385C129.321 18.3846 128.972 16.8564 128.972 15.1538ZM142.849 15.2154C142.849 14.0462 142.603 13.0308 142.111 12.1692C141.639 11.3077 141.013 10.6513 140.234 10.2C139.454 9.74871 138.613 9.52307 137.711 9.52307C136.808 9.52307 135.967 9.74871 135.188 10.2C134.408 10.6308 133.772 11.2769 133.28 12.1385C132.808 12.9795 132.572 13.9846 132.572 15.1538C132.572 16.3231 132.808 17.3487 133.28 18.2308C133.772 19.1128 134.408 19.7897 135.188 20.2615C135.988 20.7128 136.829 20.9385 137.711 20.9385C138.613 20.9385 139.454 20.7128 140.234 20.2615C141.013 19.8103 141.639 19.1538 142.111 18.2923C142.603 17.4103 142.849 16.3846 142.849 15.2154Z" fill="#232323"/>
<path d="M121.594 9.21538C122.107 8.35384 122.784 7.68718 123.625 7.21538C124.486 6.72307 125.502 6.47692 126.671 6.47692V10.1077H125.779C124.404 10.1077 123.358 10.4564 122.64 11.1538C121.943 11.8513 121.594 13.0615 121.594 14.7846V23.7077H118.086V6.75384H121.594V9.21538Z" fill="#232323"/>
<path d="M95.8179 15.1538C95.8179 13.4513 96.1666 11.9436 96.864 10.6308C97.582 9.31795 98.5461 8.30256 99.7563 7.58461C100.987 6.84615 102.341 6.47692 103.818 6.47692C105.151 6.47692 106.31 6.74359 107.295 7.27692C108.3 7.78974 109.1 8.43589 109.695 9.21538V6.75384H113.233V23.7077H109.695V21.1846C109.1 21.9846 108.29 22.6513 107.264 23.1846C106.238 23.7179 105.069 23.9846 103.756 23.9846C102.3 23.9846 100.967 23.6154 99.7563 22.8769C98.5461 22.1179 97.582 21.0718 96.864 19.7385C96.1666 18.3846 95.8179 16.8564 95.8179 15.1538ZM109.695 15.2154C109.695 14.0462 109.449 13.0308 108.956 12.1692C108.485 11.3077 107.859 10.6513 107.079 10.2C106.3 9.74871 105.459 9.52307 104.556 9.52307C103.654 9.52307 102.813 9.74871 102.033 10.2C101.254 10.6308 100.618 11.2769 100.126 12.1385C99.6538 12.9795 99.4179 13.9846 99.4179 15.1538C99.4179 16.3231 99.6538 17.3487 100.126 18.2308C100.618 19.1128 101.254 19.7897 102.033 20.2615C102.833 20.7128 103.674 20.9385 104.556 20.9385C105.459 20.9385 106.3 20.7128 107.079 20.2615C107.859 19.8103 108.485 19.1538 108.956 18.2923C109.449 17.4103 109.695 16.3846 109.695 15.2154Z" fill="#232323"/>
<path d="M89.3851 9.61537V19C89.3851 19.6359 89.5287 20.0974 89.8159 20.3846C90.1236 20.6513 90.6364 20.7846 91.3544 20.7846H93.5082V23.7077H90.739C89.1595 23.7077 87.9492 23.3384 87.1082 22.6C86.2672 21.8615 85.8467 20.6615 85.8467 19V9.61537H83.8467V6.75383H85.8467V2.53844H89.3851V6.75383H93.5082V9.61537H89.3851Z" fill="#232323"/>
<path d="M63.0239 15.1538C63.0239 13.4513 63.3726 11.9436 64.0701 10.6308C64.788 9.31795 65.7521 8.30256 66.9624 7.58461C68.1932 6.84615 69.547 6.47692 71.0239 6.47692C72.3573 6.47692 73.5162 6.74359 74.5008 7.27692C75.506 7.78974 76.306 8.43589 76.9009 9.21538V6.75384H80.4393V23.7077H76.9009V21.1846C76.306 21.9846 75.4957 22.6513 74.4701 23.1846C73.4444 23.7179 72.2752 23.9846 70.9624 23.9846C69.506 23.9846 68.1726 23.6154 66.9624 22.8769C65.7521 22.1179 64.788 21.0718 64.0701 19.7385C63.3726 18.3846 63.0239 16.8564 63.0239 15.1538ZM76.9009 15.2154C76.9009 14.0462 76.6547 13.0308 76.1624 12.1692C75.6906 11.3077 75.065 10.6513 74.2855 10.2C73.506 9.74871 72.665 9.52307 71.7624 9.52307C70.8598 9.52307 70.0188 9.74871 69.2393 10.2C68.4598 10.6308 67.8239 11.2769 67.3316 12.1385C66.8598 12.9795 66.6239 13.9846 66.6239 15.1538C66.6239 16.3231 66.8598 17.3487 67.3316 18.2308C67.8239 19.1128 68.4598 19.7897 69.2393 20.2615C70.0393 20.7128 70.8803 20.9385 71.7624 20.9385C72.665 20.9385 73.506 20.7128 74.2855 20.2615C75.065 19.8103 75.6906 19.1538 76.1624 18.2923C76.6547 17.4103 76.9009 16.3846 76.9009 15.2154Z" fill="#232323"/>
<path d="M41.9243 15.1538C41.9243 13.4513 42.273 11.9436 42.9705 10.6308C43.6884 9.31795 44.6525 8.30256 45.8628 7.58461C47.0935 6.84615 48.4577 6.47692 49.9551 6.47692C51.0628 6.47692 52.15 6.72308 53.2166 7.21538C54.3038 7.68718 55.1653 8.32308 55.8012 9.12307V0.938461H59.3397V23.7077H55.8012V21.1538C55.2269 21.9744 54.4269 22.6513 53.4012 23.1846C52.3961 23.7179 51.2371 23.9846 49.9243 23.9846C48.4474 23.9846 47.0935 23.6154 45.8628 22.8769C44.6525 22.1179 43.6884 21.0718 42.9705 19.7385C42.273 18.3846 41.9243 16.8564 41.9243 15.1538ZM55.8012 15.2154C55.8012 14.0462 55.5551 13.0308 55.0628 12.1692C54.591 11.3077 53.9653 10.6513 53.1859 10.2C52.4064 9.74872 51.5653 9.52308 50.6628 9.52308C49.7602 9.52308 48.9192 9.74872 48.1397 10.2C47.3602 10.6308 46.7243 11.2769 46.232 12.1385C45.7602 12.9795 45.5243 13.9846 45.5243 15.1538C45.5243 16.3231 45.7602 17.3487 46.232 18.2308C46.7243 19.1128 47.3602 19.7897 48.1397 20.2615C48.9397 20.7128 49.7807 20.9385 50.6628 20.9385C51.5653 20.9385 52.4064 20.7128 53.1859 20.2615C53.9653 19.8103 54.591 19.1538 55.0628 18.2923C55.5551 17.4103 55.8012 16.3846 55.8012 15.2154Z" fill="#232323"/>
</svg>
