<svg width="78" height="77" viewBox="0 0 78 77" fill="none" xmlns="http://www.w3.org/2000/svg">
<path fillRule="evenodd" clipRule="evenodd" d="M29.9862 16.1379C29.7689 16.7452 29.5856 17.4578 29.6218 17.6947C29.6291 17.9289 29.5867 18.0708 29.5342 18.0076C29.4818 17.9443 29.3598 18.3123 29.2822 18.8305C29.1888 19.3618 29.0561 19.8456 28.977 19.9112C28.8979 19.9767 28.9052 20.2109 29.0151 20.4401C29.1093 20.6824 29.0614 20.8823 28.8797 20.9529C28.6848 21.0077 28.6844 21.1681 28.855 21.3738C28.9992 21.5478 29.0147 21.6952 28.8804 21.7264C28.7619 21.7446 28.7353 21.8734 28.8534 22.0158C28.9977 22.1898 28.971 22.3187 28.7604 22.3866C28.5945 22.444 28.4968 22.5517 28.5624 22.6308C28.6149 22.6941 28.6056 23.2624 28.5488 23.87C28.4921 24.4777 28.5275 25.0356 28.6116 25.0726C28.6826 25.0939 28.7297 25.215 28.6872 25.357C28.6475 25.47 28.7258 25.7255 28.8701 25.8995C29.0012 26.0577 29.056 26.2525 28.9611 26.3312C28.882 26.3968 28.8947 26.5731 28.9997 26.6997C29.1046 26.8262 29.1358 26.9605 29.0725 27.013C28.6088 27.2907 28.5609 27.4906 28.9182 27.7283C29.1678 27.8683 29.2148 27.9895 29.0675 28.0049C28.7858 28.0516 28.7499 28.7488 29.0261 28.76C29.1261 28.7839 29.1021 28.8838 28.9597 29.0019C28.6908 29.2249 28.7352 29.3749 29.1943 29.9286C29.3254 30.0868 29.3671 30.2659 29.288 30.3314C29.2089 30.397 29.2455 30.4734 29.3717 30.529C29.4979 30.5845 29.4477 30.6528 29.2818 30.7103C28.95 30.8253 29.0152 31.0649 29.4719 31.487C29.5954 31.5715 29.5715 31.6714 29.453 31.6895C29.3346 31.7077 29.3099 32.1286 29.4086 32.634C29.5177 33.1842 29.6616 33.5187 29.8248 33.4902C29.9591 33.4589 30.0189 33.7564 29.9679 34.1457C29.917 34.535 30.0053 34.9957 30.1496 35.1697C30.2939 35.3437 30.3853 35.6149 30.3455 35.728C30.3031 35.87 30.371 36.0806 30.5048 36.2099C30.6518 36.355 30.8898 36.9318 31.0673 37.5321C31.2158 38.1298 31.4353 38.7486 31.5086 38.9014C31.5819 39.0542 31.642 39.1912 31.6262 39.2043C31.5946 39.2305 31.8118 39.7179 32.2936 40.6531C32.5424 41.1142 33.1681 42.384 33.7074 43.4851C35.2887 46.7122 35.3384 46.8045 35.6876 47.129C35.8766 47.2926 35.9762 47.477 35.8971 47.5426C35.7705 47.6475 36.1945 48.5774 36.7816 49.4787C36.9494 49.7133 37.0621 49.9135 37.0463 49.9266C37.0304 49.9398 37.1168 50.1084 37.2453 50.2955C38.0053 51.534 38.4401 52.3481 38.7093 53.0592C38.9003 53.5149 39.1333 53.9891 39.2382 54.1156C39.3273 54.2553 39.8987 55.1698 40.4935 56.1448C42.2727 59.1277 44.3328 61.2903 44.7029 60.6098C44.7901 60.4574 44.7959 60.239 44.691 60.1124C44.586 59.9859 44.6497 59.7729 44.8237 59.6286C44.9977 59.4844 45.0958 59.2162 45.0383 59.0503C44.9966 58.8713 45.0391 58.7293 45.1575 58.7112C45.276 58.6931 45.3261 58.6248 45.2764 58.5325C45.2239 58.4693 45.0588 58.2057 44.9041 57.987C44.7521 57.7393 44.6765 57.4549 44.7452 57.3446C44.8297 57.2211 44.7776 56.9973 44.6464 56.8391C44.5284 56.6968 44.4555 56.3835 44.5061 56.1547C44.5277 55.9232 44.3996 55.5756 44.1843 55.3803C43.9166 55.1218 43.888 54.9586 44.0567 54.8722C44.2253 54.7858 44.1913 54.6804 43.9969 54.5747C43.8314 54.4717 43.6034 54.1001 43.4938 53.7104C43.2562 52.9731 43.196 52.8362 42.9862 52.583C42.9206 52.5039 42.9734 52.4067 43.0919 52.3886C43.2393 52.3732 43.1845 52.1783 42.9746 51.9252C42.7779 51.6879 42.6683 51.2982 42.7216 51.0405C42.7679 50.753 42.7286 50.7055 42.6035 50.8981C42.3473 51.2974 42.2818 51.2183 42.1915 50.4656C42.1503 50.1261 42.2193 49.8552 42.3378 49.8371C42.4562 49.819 42.4933 49.7349 42.4146 49.64C42.349 49.5609 42.1808 49.4868 42.0465 49.518C41.9281 49.5361 41.744 49.4752 41.6784 49.3961C41.5997 49.3012 41.621 49.2302 41.7263 49.1962C41.8289 49.1912 41.6087 48.8933 41.278 48.5268C40.8371 48.0916 40.6642 47.7543 40.694 47.436C40.7183 47.1756 40.5929 46.799 40.4093 46.5776C40.2388 46.3719 39.9483 45.7318 39.7392 45.1577C39.5591 44.5863 39.3365 44.1569 39.289 44.1962C39.2258 44.2487 39.2235 44.1171 39.2713 43.9173C39.3562 43.6333 39.3037 43.57 39.0931 43.6379C38.8824 43.7058 38.83 43.6425 38.8149 43.3346C38.8288 43.0294 38.7633 42.9503 38.5132 42.9708C38.2763 43.007 38.237 42.9596 38.34 42.7941C38.5117 42.5182 37.6437 41.3426 37.3435 41.4313C37.2251 41.4494 37.2147 41.4046 37.3254 41.3128C37.4072 41.2183 37.4103 41.0289 37.3054 40.9023C37.2004 40.7758 37.2012 40.4548 37.3124 40.2024C37.4395 39.8835 37.3678 39.7649 37.0975 39.8467C36.871 39.9277 36.7711 39.9038 36.8818 39.812C36.9636 39.7174 36.9536 39.5122 36.8383 39.3409C36.6677 39.1352 36.7414 39.1275 37.0752 39.3046C37.3248 39.4447 37.5431 39.4505 37.5987 39.3243C37.6994 39.0273 37.3453 38.6001 37.1396 38.7706C37.0605 38.8362 36.8765 38.7753 36.7453 38.6171C36.5879 38.4272 36.6223 38.3721 36.8063 38.433C36.9614 38.4913 36.8279 38.2015 36.4896 37.7613C35.6162 36.6435 35.48 36.3827 35.7223 36.2886C35.8434 36.2415 36.0352 36.3762 36.1505 36.5475C36.2736 36.7925 36.3604 36.8006 36.3793 36.598C36.3982 36.3955 36.2173 36.1451 35.818 35.8889C35.1876 35.4505 34.7822 34.4786 35.3053 34.6588C35.7575 34.8178 35.6487 34.1071 35.1757 33.8586C34.8158 33.6499 34.8 33.663 35.0754 33.9952C35.2826 34.2772 35.2718 34.393 35.0005 34.4844C34.7741 34.5654 34.7058 34.5153 34.7772 34.376C34.8617 34.2525 34.8096 34.0287 34.6653 33.8547C34.521 33.6807 34.4875 33.4149 34.5747 33.2625C34.6488 33.0943 34.6677 32.8917 34.5759 32.781C34.4972 32.6861 34.4953 32.394 34.5775 32.139C34.7577 31.6158 34.4039 31.0282 34.1608 31.4433C34.0551 31.6378 33.9393 31.627 33.7715 31.3924C33.6562 31.2211 33.6331 31 33.7438 30.9082C33.8545 30.8163 33.8708 30.6427 33.7658 30.5162C33.674 30.4054 33.6173 29.9185 33.6474 29.4397C33.6907 28.9767 33.5919 28.4713 33.445 28.3262C33.3111 28.197 33.0939 27.7097 32.9766 27.2463C32.8594 26.7829 32.7105 26.3458 32.6318 26.2508C32.5662 26.1717 32.6195 25.914 32.7541 25.7223C32.9444 25.4044 32.9366 25.3307 32.6708 25.3642C32.405 25.3978 32.3946 25.353 32.616 25.1694C32.7742 25.0382 32.7801 24.8198 32.6095 24.6142C32.4653 24.4402 32.4367 24.277 32.5551 24.2589C32.8657 24.2149 32.6949 23.0752 32.3481 22.8822C32.1957 22.795 32.1463 22.5423 32.2443 22.2742C32.3554 22.0218 32.3404 21.7139 32.2355 21.5874C32.1306 21.4608 32.1059 20.7872 32.2128 20.1112C32.3066 19.4195 32.2924 18.7906 32.1531 18.7192C32.0139 18.6478 32.0015 18.311 32.0787 17.9533C32.2381 17.3407 32.318 16.9541 32.6465 14.9999L32.8066 14.0662L32.1646 14.0647C31.2622 14.0388 30.4762 14.7972 29.9862 16.1379ZM33.6816 32.6683C33.7209 32.7157 33.7232 32.8473 33.6676 32.9735C33.6279 33.0865 33.5226 33.1204 33.457 33.0413C33.3783 32.9464 33.3918 32.8017 33.4709 32.7362C33.5658 32.6575 33.6553 32.6366 33.6816 32.6683ZM36.3486 39.4265C36.4142 39.5056 36.4007 39.6503 36.3058 39.729C36.2267 39.7945 36.1295 39.7417 36.1113 39.6232C36.0801 39.489 36.1067 39.3601 36.1542 39.3208C36.1858 39.2945 36.2699 39.3316 36.3486 39.4265ZM44.6166 58.252C44.7034 58.2601 44.6741 58.4179 44.5236 58.6228C44.3573 58.8408 44.2072 58.8851 44.1023 58.7586C43.9318 58.5529 44.2694 58.2196 44.6166 58.252Z" fill="#171717"/>
<path fillRule="evenodd" clipRule="evenodd" d="M5.1176 44.2592C5.36682 44.5597 5.08859 45.351 4.6962 45.4895C4.44078 45.5678 4.55342 45.7681 5.34854 46.6304C7.00436 48.4343 8.7644 49.5911 15.57 53.2916C16.0824 53.5875 16.5789 53.8966 16.6707 54.0073C16.7494 54.1023 17.325 54.3457 17.9219 54.5182C18.5319 54.7066 19.0627 54.9605 19.1071 55.1106C19.2247 55.4134 20.7201 56.1223 20.91 55.9649C20.9732 55.9124 21.2333 56.0973 21.4694 56.382C21.7055 56.6668 22.3096 57.0735 22.8012 57.2799C23.3058 57.5022 23.8182 57.7981 23.9362 57.9405C24.0674 58.0987 24.4011 58.2758 24.6719 58.3449C24.9297 58.3982 25.2634 58.5753 25.3814 58.7177C25.5126 58.8758 25.6966 58.9368 25.7916 58.8581C25.8707 58.7925 25.9706 58.8165 25.9756 58.9191C26.0041 59.0823 27.6353 60.2125 28.584 60.6805C29.0018 60.8947 31.3556 62.4135 33.0157 63.5463C33.5516 63.9029 34.1558 64.3096 34.3791 64.418C34.5867 64.5396 35.1515 64.8988 35.6137 65.263C38.29 67.2351 39.7275 67.9386 40.4757 67.5852C40.934 67.3654 40.8187 67.194 39.9197 66.8182C39.3021 66.5562 39.2758 66.5245 39.6705 66.5176C40.0494 66.5238 40.1154 66.4424 40.1559 66.0084C40.183 65.719 40.1625 65.469 40.1074 65.4347C40.0364 65.4134 40.0761 65.3004 40.1868 65.2086C40.2818 65.1299 40.2903 64.8826 40.1934 64.6692C40.0993 64.4269 40.1738 64.0982 40.4192 63.8146C40.7808 63.3814 40.7785 63.2498 40.3591 62.5831C40.0918 62.164 39.9193 61.6663 39.9803 61.4823C40.0652 61.1983 40.039 61.1667 39.7153 61.1948C39.5231 61.2207 39.1632 61.0119 38.9113 60.7403C37.9614 59.6592 37.8117 59.543 37.3457 59.6892L36.8506 59.8327L37.2538 59.5785C37.6281 59.3215 37.5942 59.2162 37.117 58.5441C36.7813 58.0749 36.6316 57.9588 36.7099 58.2142C36.838 58.5618 36.767 58.5406 36.3233 58.1343C36.0267 57.8731 35.8091 57.5463 35.8488 57.4332C35.8913 57.2912 35.7362 57.233 35.4862 57.2534C35.2089 57.3053 35.1819 57.2298 35.4052 57.0269C35.595 56.8695 35.6876 56.6592 35.6089 56.5643C35.5433 56.4852 35.4407 56.4902 35.4168 56.5902C35.3928 56.6901 35.1062 56.6341 34.8014 56.4597C34.3863 56.2166 34.2945 56.1059 34.4472 56.0326C34.7555 55.8571 34.3566 55.4403 34.009 55.5684C33.8431 55.6259 33.835 55.7127 33.9901 55.771C34.132 55.8134 34.166 55.9187 34.0869 55.9843C33.9129 56.1286 33.6845 55.9176 32.5379 54.5991C32.168 54.1851 31.8527 53.966 31.742 54.0578C31.394 54.3463 31.1339 54.1615 31.0117 53.5955C30.9075 53.1479 30.8184 53.0083 30.558 52.9839C30.3554 52.965 30.1058 52.825 29.9747 52.6668C29.8566 52.5244 29.5885 52.4264 29.3963 52.4522C29.1884 52.4912 28.7312 52.2295 28.3034 51.8101C27.8859 51.4355 27.35 51.0789 27.0765 51.0388C26.8319 51.0013 26.6243 50.8798 26.6324 50.793C26.6274 50.6904 26.4226 50.5399 26.1386 50.455C25.8678 50.3859 25.534 50.2088 25.4029 50.0506C25.2717 49.8924 25.1035 49.8183 25.0086 49.897C24.9295 49.9626 24.7323 49.8858 24.588 49.7118C24.4438 49.5378 24.2624 49.4478 24.1675 49.5266C24.0884 49.5921 23.6968 49.4096 23.2713 49.1218C22.8747 48.8366 22.4727 48.6093 22.37 48.6143C22.1358 48.6217 19.9097 47.611 19.7654 47.437C19.6867 47.3421 19.4001 47.2861 19.1211 47.3039C18.8422 47.3216 18.5424 47.2498 18.4506 47.1391C18.2407 46.886 17.5285 46.5421 16.6794 46.2585C16.2823 46.1339 15.8908 45.9513 15.7858 45.8248C15.6782 45.7272 15.2812 45.6025 14.8892 45.5805C14.4972 45.5585 14.1002 45.4338 13.9821 45.2915C13.8772 45.1649 13.6747 45.146 13.5481 45.2509C13.3266 45.4346 13.2136 45.3948 12.7097 44.8515C12.5628 44.7065 12.1106 44.5475 11.6792 44.478C11.2479 44.4085 10.8536 44.2549 10.8065 44.1338C10.7595 44.0126 10.1916 43.8428 9.52873 43.7517C8.86589 43.6606 7.98738 43.5348 7.60079 43.4549C7.19839 43.3881 6.80369 43.395 6.69296 43.4869C6.58492 43.5497 6.42172 43.5783 6.31138 43.5096C6.22997 43.4436 5.86922 43.5559 5.54782 43.7156C5.08675 43.9644 4.98643 44.101 5.1176 44.2592Z" fill="#171717"/>
<path fillRule="evenodd" clipRule="evenodd" d="M55.9983 15.1523C56.0508 15.2155 55.903 15.3915 55.658 15.5145C55.3655 15.6769 55.2413 15.9134 55.2775 16.1503C55.3138 16.3872 55.2451 16.4976 55.1031 16.4551C54.764 16.3359 53.2811 19.0871 53.2791 19.8896C53.2864 20.1238 53.1884 20.3919 53.0935 20.4706C52.9986 20.5493 52.911 20.8622 52.8971 21.1674C52.899 21.4595 52.7797 21.7986 52.6532 21.9035C52.5266 22.0084 52.4684 22.1635 52.5471 22.2585C52.6126 22.3376 52.5675 22.5085 52.4409 22.6134C52.2986 22.7315 52.248 22.9603 52.3055 23.1262C52.3471 23.3052 52.2649 23.5602 52.1067 23.6914C51.9485 23.8225 51.8849 24.0355 51.9767 24.1462C52.239 24.4626 52.0792 25.2358 51.6436 25.8373C51.443 26.1104 51.2338 26.6309 51.2014 26.9781C51.1689 27.3253 50.9937 27.9511 50.8085 28.3717C50.6522 28.7949 50.5565 29.1946 50.609 29.2579C50.6746 29.337 50.619 29.4631 50.5083 29.555C50.271 29.7517 50.1806 31.1881 50.3881 31.3097C50.4695 31.3756 50.3823 31.528 50.1925 31.6854C50.0185 31.8297 49.9602 31.9848 50.0601 32.0088C50.1732 32.0485 50.1851 32.5458 50.0863 33.135C49.9875 33.7241 49.9782 34.2924 50.0569 34.3873C50.1487 34.4981 50.1325 34.6717 50.0376 34.7504C49.8161 34.934 49.576 37.3488 49.7596 37.5703C49.8121 37.6336 49.7241 38.107 49.5597 38.617C49.3822 39.1113 49.2942 39.5847 49.3466 39.6479C49.4384 39.7587 49.4735 40.4771 49.4295 41.2611C49.4237 41.4794 49.4599 41.7163 49.5386 41.8112C49.6173 41.9062 49.593 42.1666 49.4818 42.4189C49.3838 42.6871 49.4332 42.9398 49.5856 43.027C49.738 43.1142 49.7851 43.2353 49.706 43.3009C49.6269 43.3665 49.6338 43.7612 49.6986 44.1613C49.8625 44.9063 49.9096 45.0275 50.1113 45.3674C50.1769 45.4465 50.1159 45.6305 49.9894 45.7355C49.7046 45.9716 49.9353 46.3142 50.2332 46.0939C50.3412 46.031 50.3015 46.1441 50.1325 46.391C49.9291 46.6931 49.9206 46.9404 50.1409 47.2383C50.6864 47.9605 50.7203 48.0659 50.4672 48.2757C50.309 48.4069 50.3244 48.5543 50.4768 48.6415C50.6292 48.7287 50.7473 48.8711 50.7392 48.9579C50.7152 49.0578 50.8487 49.3476 51.0296 49.598C51.1816 49.8457 51.2993 50.1486 51.2596 50.2616C51.172 50.5745 52.523 52.2039 53.0697 52.4447C53.5874 52.6828 54.0774 52.4367 53.802 52.1045C53.5292 51.7433 53.6983 50.4018 54.0622 50.1001C54.3311 49.8772 54.3523 49.8062 54.0865 49.8397C53.7022 49.8914 53.6949 49.6572 53.8305 46.9553C53.8746 46.1713 53.9491 44.748 53.999 43.7457C54.1071 41.4937 55.109 32.1738 55.6011 28.9361C55.7185 28.3049 55.6961 27.7628 55.5831 27.7231C55.47 27.6833 55.5758 27.4888 55.7973 27.3052C56.0345 27.1085 56.1245 26.9271 55.9825 26.8847C55.8563 26.8291 55.8988 26.6871 56.0886 26.5297C56.2784 26.3723 56.3078 26.2145 56.1947 26.1748C56.0686 26.1192 56.0319 26.0428 56.111 25.9773C56.1901 25.9117 56.1828 25.6775 56.086 25.4641C55.9891 25.2507 56.0135 24.9903 56.1558 24.8723C56.2982 24.7542 56.3171 24.5516 56.2122 24.4251C56.1073 24.2985 56.0945 24.1222 56.2053 24.0304C56.3002 23.9517 56.4167 23.6415 56.4596 23.339C56.5395 22.9524 56.6082 22.8421 56.7737 22.9451C57.0495 23.1168 57.1908 22.3857 56.9416 22.0851C56.8498 21.9744 56.9211 21.8351 57.1002 21.7935C57.3266 21.7125 57.3243 21.5809 57.1145 21.3278C56.9326 21.087 57.003 21.0109 57.3255 21.0994C57.6481 21.1879 57.8292 21.02 57.8688 20.5956L57.9256 19.9879L57.5771 20.437C57.3001 20.7468 57.1789 20.7938 57.1531 20.6017C57.1377 20.4543 57.2303 20.244 57.3568 20.1391C57.4834 20.0342 57.4603 19.8131 57.316 19.6391C57.1717 19.465 57.1169 19.2702 57.196 19.2046C57.2751 19.139 57.4634 18.5291 57.602 17.8269C57.7537 17.1405 58.0138 16.2308 58.1805 15.8523C58.7018 14.6459 58.6578 14.3353 58.0108 14.2311C57.7083 14.1882 57.4109 14.248 57.3395 14.3873C57.2681 14.5266 57.118 14.5709 57.0208 14.5181C56.8001 14.3807 55.8409 14.9624 55.9983 15.1523Z" fill="#171717"/>
</svg>
