<svg width="41" height="40" viewBox="0 0 41 40" fill="none" xmlns="http://www.w3.org/2000/svg">
<path fillRule="evenodd" clipRule="evenodd" d="M26.2525 19.7589C23.8741 21.3484 22.6373 24.2672 26.2525 26.713C28.2345 31.6802 31.921 30.343 34.1032 28.0383C36.5873 24.46 37.2225 19.9095 35.8137 15.7852C32.3293 18.4178 29.2255 17.772 26.2525 19.7589Z" stroke="#419A62" stroke-width="2" stroke-linecap="round" stroke-linejoin="round"/>
<path fillRule="evenodd" clipRule="evenodd" d="M19.3566 12.7475C21.9214 15.7755 23.279 19.7592 17.1606 22.4355C14.36 28.7021 10.1007 26.3814 7.26841 23.0316C4.43613 19.6817 3.34999 10.7308 5.83741 6C10.4475 9.90423 16.1438 8.96046 19.3566 12.7475Z" stroke="#419A62" stroke-width="2" stroke-linecap="round" stroke-linejoin="round"/>
<path d="M31.2073 22.7393C25.2613 25.7196 22.2883 33.6671 22.2883 33.6671C20.1953 25.7581 15.8871 18.6153 9.87305 13.083" stroke="#419A62" stroke-width="2" stroke-linecap="round" stroke-linejoin="round"/>
</svg>
