<svg width="318" height="234" viewBox="0 0 318 234" fill="none" xmlns="http://www.w3.org/2000/svg">
<rect x="317.997" y="234" width="318" height="234" transform="rotate(-180 317.997 234)" fill="url(#paint0_linear_1261_13)"/>
<path fill-rule="evenodd" clip-rule="evenodd" d="M-0.00340795 59.0867L3.56422 51.3796C17.3124 21.6797 52.534 8.74822 82.2339 22.4964L169.621 62.9479C199.321 76.6961 212.252 111.918 198.504 141.618L158.052 229.004C157.306 230.616 156.497 232.179 155.628 233.691H75.7052C83.5099 225.951 91.8994 219.557 100.623 215.679C116.598 208.577 123.623 204.504 131.079 192.452C149.03 163.437 149.325 147.946 148.293 135.103C147.807 129.057 143.271 129.149 141.143 131.793C141.143 131.793 124.517 149.498 110.041 165.088C108.358 166.901 103.672 171.679 97.5486 169.673C97.1673 169.548 96.743 169.414 96.2795 169.267L96.2739 169.265C87.4257 166.461 64.3145 159.136 53.981 128.252C51.8927 122.01 55.7303 118.068 62.6193 110.992C63.1775 110.418 63.7558 109.824 64.3526 109.207L86.1655 85.6081C89.8497 82.1297 90.6049 76.4658 83.349 76.0101C74.2793 75.4404 30.962 83.8853 17.518 112.928C10.4934 128.103 11.4029 138.663 12.3899 150.124C12.6247 152.85 12.8639 155.628 13.0017 158.53C13.0414 159.366 13.1015 160.254 13.166 161.206L13.1661 161.206C13.8003 170.571 14.8608 186.23 1.1838 221.689L-0.00341797 221.14L-0.00340795 59.0867Z" fill="url(#paint1_linear_1261_13)" fill-opacity="0.1"/>
<defs>
<linearGradient id="paint0_linear_1261_13" x1="364.142" y1="443.341" x2="665.325" y2="190.778" gradientUnits="userSpaceOnUse">
<stop stop-color="#2683F0"/>
<stop offset="1" stop-color="#003168"/>
</linearGradient>
<linearGradient id="paint1_linear_1261_13" x1="36.5" y1="228" x2="162.999" y2="23.9997" gradientUnits="userSpaceOnUse">
<stop stop-color="white" stop-opacity="0.1"/>
<stop offset="1" stop-color="white"/>
</linearGradient>
</defs>
</svg>
