<svg width="567" height="436" viewBox="0 0 567 436" fill="none" xmlns="http://www.w3.org/2000/svg">
<rect width="567" height="436" fill="#DFE6ED"/>
<path d="M257.211 91.7739C257.316 91.3208 257.72 91 258.185 91H379.077C379.713 91 380.188 91.5857 380.056 92.2077L353.347 218H227.912L257.211 91.7739Z" fill="white"/>
<path d="M198.613 344.226C198.508 344.679 198.104 345 197.639 345H76.7467C76.1108 345 75.6365 344.414 75.7685 343.792L102.309 218.792C102.407 218.33 102.815 218 103.287 218H227.912L198.613 344.226Z" fill="white"/>
<path d="M353.338 218H475.025C475.661 218 476.136 218.586 476.003 219.208L449.463 344.208C449.365 344.67 448.957 345 448.485 345H325.119C324.475 345 323.999 344.401 324.144 343.774L353.338 218Z" fill="white"/>
</svg>
