<svg width="1234" height="462" viewBox="0 0 1234 462" fill="none" xmlns="http://www.w3.org/2000/svg">
<g clip-path="url(#clip0_1155_455)">
<rect width="1234" height="462" fill="white"/>
<rect x="-1.56836" width="1236" height="462" fill="#DFE6ED"/>
<path d="M43.2296 231.774C43.3348 231.321 43.7386 231 44.2037 231H153.965C154.601 231 155.076 231.586 154.944 232.208L130.677 346.5H16.6001L43.2296 231.774Z" fill="white"/>
<path d="M-10.0294 461.226C-10.1346 461.679 -10.5384 462 -11.0035 462H-120.765C-121.401 462 -121.876 461.414 -121.743 460.792L-97.645 347.292C-97.5469 346.83 -97.139 346.5 -96.6668 346.5H16.6001L-10.0294 461.226Z" fill="white"/>
<path d="M130.669 346.5H241.225C241.861 346.5 242.335 347.086 242.203 347.708L218.105 461.208C218.007 461.67 217.599 462 217.127 462H105.119C104.475 462 103.999 461.401 104.144 460.774L130.669 346.5Z" fill="white"/>
<path d="M441.966 461.226C441.861 461.679 441.457 462 440.992 462L331.23 462C330.594 462 330.12 461.414 330.252 460.792L354.519 346.5L468.596 346.5L441.966 461.226Z" fill="white"/>
<path d="M495.225 231.774C495.33 231.321 495.734 231 496.199 231L605.961 231C606.597 231 607.071 231.585 606.939 232.207L582.841 345.707C582.743 346.169 582.335 346.5 581.863 346.5L468.596 346.5L495.225 231.774Z" fill="white"/>
<path d="M354.526 346.5L243.97 346.5C243.334 346.5 242.86 345.914 242.992 345.292L267.09 231.792C267.188 231.33 267.596 231 268.069 231L380.077 231C380.72 231 381.196 231.599 381.051 232.226L354.526 346.5Z" fill="white"/>
<path d="M721.64 231.774C721.745 231.321 722.149 231 722.614 231H832.376C833.011 231 833.486 231.586 833.354 232.208L809.087 346.5H695.01L721.64 231.774Z" fill="white"/>
<path d="M668.381 461.226C668.276 461.679 667.872 462 667.407 462H557.645C557.009 462 556.535 461.414 556.667 460.792L580.765 347.292C580.863 346.83 581.271 346.5 581.743 346.5H695.01L668.381 461.226Z" fill="white"/>
<path d="M809.079 346.5H919.635C920.271 346.5 920.745 347.086 920.613 347.708L896.515 461.208C896.417 461.67 896.009 462 895.536 462H783.528C782.885 462 782.409 461.401 782.554 460.774L809.079 346.5Z" fill="white"/>
<path d="M1120.38 461.226C1120.27 461.679 1119.87 462 1119.4 462L1009.64 462C1009.01 462 1008.53 461.414 1008.66 460.792L1032.93 346.5L1147.01 346.5L1120.38 461.226Z" fill="white"/>
<path d="M1173.64 231.774C1173.74 231.321 1174.14 231 1174.61 231L1284.37 231C1285.01 231 1285.48 231.586 1285.35 232.208L1261.25 345.708C1261.15 346.17 1260.75 346.5 1260.27 346.5L1147.01 346.5L1173.64 231.774Z" fill="white"/>
<path d="M1032.94 346.5L922.382 346.5C921.746 346.5 921.271 345.914 921.404 345.292L945.502 231.792C945.6 231.33 946.008 231 946.48 231L1058.49 231C1059.13 231 1059.61 231.599 1059.46 232.226L1032.94 346.5Z" fill="white"/>
<path d="M97.2296 0.773896C97.3348 0.320764 97.7386 0 98.2037 0H207.965C208.601 0 209.076 0.585682 208.944 1.20769L184.677 115.5H70.6001L97.2296 0.773896Z" fill="white"/>
<path d="M43.9706 230.226C43.8654 230.679 43.4616 231 42.9965 231H-66.7653C-67.4011 231 -67.8755 230.414 -67.7435 229.792L-43.645 116.292C-43.5469 115.83 -43.139 115.5 -42.6668 115.5H70.6001L43.9706 230.226Z" fill="white"/>
<path d="M184.669 115.5H295.225C295.861 115.5 296.335 116.086 296.203 116.708L272.105 230.208C272.007 230.67 271.599 231 271.127 231H159.119C158.475 231 157.999 230.401 158.144 229.774L184.669 115.5Z" fill="white"/>
<path d="M495.966 230.226C495.86 230.679 495.457 231 494.992 231L385.23 231C384.594 231 384.12 230.414 384.252 229.792L408.518 115.5L522.595 115.5L495.966 230.226Z" fill="white"/>
<path d="M549.225 0.773654C549.33 0.320522 549.734 -0.000241768 550.199 -0.000241727L659.961 -0.000232132C660.596 -0.000232076 661.071 0.58545 660.939 1.20746L636.84 114.707C636.742 115.169 636.334 115.5 635.862 115.5L522.595 115.5L549.225 0.773654Z" fill="white"/>
<path d="M408.526 115.5L297.97 115.5C297.334 115.5 296.859 114.914 296.991 114.292L321.09 0.792067C321.188 0.330123 321.596 -0.000236918 322.068 -0.000236877L434.076 -0.000227085C434.72 -0.000227028 435.196 0.598934 435.05 1.22588L408.526 115.5Z" fill="white"/>
<path d="M775.64 0.773896C775.745 0.320764 776.149 0 776.614 0H886.376C887.011 0 887.486 0.585682 887.354 1.20769L863.087 115.5H749.01L775.64 0.773896Z" fill="white"/>
<path d="M722.381 230.226C722.276 230.679 721.872 231 721.407 231H611.645C611.009 231 610.535 230.414 610.667 229.792L634.765 116.292C634.863 115.83 635.271 115.5 635.743 115.5H749.01L722.381 230.226Z" fill="white"/>
<path d="M863.079 115.5H973.635C974.271 115.5 974.745 116.086 974.613 116.708L950.515 230.208C950.417 230.67 950.009 231 949.536 231H837.528C836.885 231 836.409 230.401 836.554 229.774L863.079 115.5Z" fill="white"/>
<path d="M1174.38 230.226C1174.27 230.679 1173.87 231 1173.4 231L1063.64 231C1063.01 231 1062.53 230.414 1062.66 229.792L1086.93 115.5L1201.01 115.5L1174.38 230.226Z" fill="white"/>
<path d="M1227.64 0.773898C1227.74 0.320766 1228.14 2.37252e-06 1228.61 2.41319e-06L1338.37 1.20089e-05C1339.01 1.20645e-05 1339.48 0.585694 1339.35 1.2077L1315.25 114.708C1315.15 115.17 1314.75 115.5 1314.27 115.5L1201.01 115.5L1227.64 0.773898Z" fill="white"/>
<path d="M1086.94 115.5L976.382 115.5C975.746 115.5 975.271 114.914 975.404 114.292L999.502 0.792312C999.6 0.330367 1000.01 7.22275e-06 1000.48 7.26403e-06L1112.49 1.70561e-05C1113.13 1.71124e-05 1113.61 0.599178 1113.46 1.22612L1086.94 115.5Z" fill="white"/>
</g>
<defs>
<clipPath id="clip0_1155_455">
<rect width="1234" height="462" fill="white"/>
</clipPath>
</defs>
</svg>
