<svg width="318" height="234" viewBox="0 0 318 234" fill="none" xmlns="http://www.w3.org/2000/svg">
<rect x="318" y="234" width="318" height="234" transform="rotate(-180 318 234)" fill="url(#paint0_linear_1116_11)"/>
<path fill-rule="evenodd" clip-rule="evenodd" d="M0.000488281 212.235L0.000494993 135.464L22.1238 87.6718C33.1585 63.8337 61.4284 53.4545 85.2665 64.4892L155.406 96.9569C179.244 107.992 189.623 136.262 178.588 160.1L146.121 230.239C145.522 231.533 144.872 232.787 144.175 234H80.0264C86.2907 227.788 93.0243 222.656 100.026 219.543C112.848 213.843 118.487 210.574 124.471 200.901C138.879 177.613 139.116 165.179 138.287 154.871C137.897 150.018 134.256 150.092 132.549 152.214C132.549 152.214 119.205 166.425 107.586 178.938C106.235 180.393 102.474 184.227 97.5585 182.618C97.2523 182.518 96.9115 182.41 96.5391 182.292L96.5354 182.29C89.4335 180.04 70.8838 174.161 62.5898 149.372C60.9137 144.362 63.9938 141.198 69.5232 135.518C69.9712 135.058 70.4354 134.581 70.9144 134.085L88.4221 115.145C91.3792 112.353 91.9853 107.807 86.1615 107.441C78.8818 106.984 44.1141 113.762 33.3235 137.073C27.6854 149.252 28.4153 157.728 29.2075 166.927C29.396 169.115 29.5879 171.344 29.6986 173.674C29.7305 174.345 29.7787 175.057 29.8305 175.822L29.8305 175.822C30.3395 183.338 31.1907 195.907 20.2132 224.367L12.8387 220.954C7.97696 218.703 3.67508 215.736 0.000488281 212.235Z" fill="url(#paint1_linear_1116_11)" fill-opacity="0.3"/>
<defs>
<linearGradient id="paint0_linear_1116_11" x1="364.145" y1="443.341" x2="665.329" y2="190.778" gradientUnits="userSpaceOnUse">
<stop stop-color="#2683F0"/>
<stop offset="1" stop-color="#003168"/>
</linearGradient>
<linearGradient id="paint1_linear_1116_11" x1="120.336" y1="80.723" x2="47.9083" y2="237.188" gradientUnits="userSpaceOnUse">
<stop stop-color="white" stop-opacity="0.1"/>
<stop offset="1" stop-color="white"/>
</linearGradient>
</defs>
</svg>
