<svg width="38" height="24" viewBox="0 0 38 24" fill="none" xmlns="http://www.w3.org/2000/svg">
<path d="M17.0642 0.773896C17.1694 0.320764 17.5732 0 18.0383 0H27.6239C28.2598 0 28.7341 0.585682 28.6021 1.20769L26.3106 12H14.4585L17.0642 0.773896Z" fill="#3EC491"/>
<path d="M11.8528 23.2261C11.7476 23.6792 11.3438 24 10.8787 24H1.29311C0.657236 24 0.18285 23.4143 0.314916 22.7923L2.43813 12.7923C2.53621 12.3304 2.94408 12 3.41633 12H14.4585L11.8528 23.2261Z" fill="#3EC491"/>
<path d="M26.3098 12H36.6898C37.3257 12 37.8001 12.5857 37.668 13.2077L35.5448 23.2077C35.4467 23.6696 35.0388 24 34.5666 24H24.7831C24.1395 24 23.6635 23.4008 23.809 22.7739L26.3098 12Z" fill="#3EC491"/>
</svg>
