<svg width="75" height="75" viewBox="0 0 75 75" fill="none" xmlns="http://www.w3.org/2000/svg">
<path d="M37.5 74.5C17.0655 74.5 0.5 57.9345 0.5 37.5C0.5 17.0655 17.0655 0.5 37.5 0.5C57.9345 0.5 74.5 17.0655 74.5 37.5C74.5 57.9345 57.9345 74.5 37.5 74.5Z" fill="#DFE6ED" stroke="#DFE6ED"/>
<circle cx="37.0631" cy="27.842" r="11.7706" fill="white"/>
<path d="M19.6568 53.5452C19.7182 53.9694 19.975 54.3284 20.3307 54.5229C22.4537 56.2445 29.2466 59.1518 37.2985 59.1518C45.3503 59.1518 52.1432 56.2445 54.2663 54.5229C54.6219 54.3284 54.8787 53.9694 54.9401 53.5452C54.9495 53.4899 54.9543 53.4344 54.9543 53.3786C54.9543 53.3722 54.9543 53.366 54.9543 53.3596C54.9543 53.3558 54.9543 53.3519 54.9543 53.3482C54.9543 51.8072 54.4113 50.3363 53.4469 49.0276C52.489 47.7272 51.1273 46.6004 49.4893 45.6796C47.8481 44.757 45.9282 44.0403 43.8459 43.5554C41.7619 43.0702 39.5381 42.8224 37.2985 42.8224C35.0588 42.8224 32.8351 43.0702 30.7511 43.5554C28.6687 44.0403 26.7488 44.757 25.1076 45.6796C23.4696 46.6004 22.108 47.7272 21.15 49.0276C20.1856 50.3363 19.6426 51.8072 19.6426 53.3482C19.6426 53.3527 19.6426 53.3572 19.6426 53.3617C19.6426 53.3674 19.6426 53.3729 19.6426 53.3786C19.6426 53.4344 19.6474 53.4899 19.6568 53.5452Z" fill="white"/>
</svg>
